<svg xmlns="http://www.w3.org/2000/svg" xmlns:xlink="http://www.w3.org/1999/xlink" id="Ebene_1" x="0px" y="0px" viewBox="0 0 386 73" style="enable-background:new 0 0 386 73;" xml:space="preserve"><style type="text/css">	.st0{enable-background:new    ;}	.st1{fill:#0070BA;}</style><g class="st0">	<path d="M68.7,47.6l-2.5-7.3H54.6l-2.4,7H44l12.2-34h9.2l11.8,32.9L68.7,47.6z M60.3,21.9l-3.8,11.8h7.6L60.3,21.9z"></path>	<path d="M92.1,47.2H80.9V13.4h11.5c7.7,0,11.5,3.3,11.5,8.8c0,3.7-2.1,5.9-4.9,7.2c3.7,1.2,6.1,3.5,6.1,8.1  C105.1,44,100.2,47.2,92.1,47.2z M91.8,19.5h-3v7.6h2.8c3.1,0,4.8-1.5,4.8-4C96.4,20.9,95,19.5,91.8,19.5z M91.8,32.5h-3v8.7h3.1  c3.4,0,5.3-1.4,5.3-4.3C97.2,34,95.3,32.5,91.8,32.5z"></path>	<path d="M124.9,47.8c-10.2,0-16.4-6.9-16.4-17.4c0-10.5,6.6-17.5,16.2-17.5c3.8,0,6.9,0.8,9.4,2.2l-1.2,7.5  c-2.1-1.6-4.6-2.7-7.5-2.7c-5.1,0-8.4,3.9-8.4,10.5c0,6.8,3.8,10.5,8.9,10.5c2.7,0,5.1-0.9,7.7-2.4l1.1,6.9  C131.7,46.8,128.6,47.8,124.9,47.8z"></path></g><g class="st0">	<path class="st1" d="M156.1,61.3c0,5-4.1,7.9-8.3,7.9c-5.3,0-8-2.9-8-6.8c0-5,4.1-8.7,8.7-8.7C153.2,53.7,156.1,57.1,156.1,61.3z   M166.9,3.2c-2.2,7.8-8.8,33.2-11.6,43c-2.2,0.7-8.6,1.2-10,1.2c0-1.5,0.9-16.3,1.1-19.6c0.2-4.3,0.8-17.9,0.7-22.8  C151.1,4.1,163.8,3.1,166.9,3.2C166.9,3.1,166.9,3.1,166.9,3.2z"></path></g><g class="st0">	<path d="M186.9,47.9c-9.7,0-16.1-7.1-16.1-17.5c0-10.5,6.4-17.6,16.2-17.6s16.1,7.1,16.1,17.5C203.2,40.7,196.8,47.9,186.9,47.9z   M187,19.4c-4.9,0-7.7,4.3-7.7,11c0,6.7,2.9,11,7.7,11c4.9,0,7.7-4.3,7.7-11C194.7,23.6,191.9,19.4,187,19.4z"></path>	<path d="M216.4,20.4v6.9h8.8l1.2,7.1h-10v12.8h-8.3V13.4h20.2v7H216.4z"></path>	<path d="M241.1,20.4v6.9h8.8l1.2,7.1h-10v12.8h-8.3V13.4H253v7H241.1z"></path>	<path d="M257.6,47.2V13.4h8.4v33.8H257.6z"></path>	<path d="M287.5,47.8c-10.2,0-16.4-6.9-16.4-17.4c0-10.5,6.6-17.5,16.2-17.5c3.8,0,6.9,0.8,9.4,2.2l-1.2,7.5  c-2.1-1.6-4.6-2.7-7.5-2.7c-5.1,0-8.4,3.9-8.4,10.5c0,6.8,3.8,10.5,8.9,10.5c2.7,0,5.1-0.9,7.7-2.4l1.1,6.9  C294.4,46.8,291.3,47.8,287.5,47.8z"></path></g><g class="st0">	<path d="M302,47.2V13.4h21.1v6.7h-12.8v6.2h9.8l1.1,6.9h-10.9v7.3h13.3v6.7H302z"></path></g><g class="st0">	<path d="M330.2,47.2v-5.8L341.6,30c2.2-2.3,3.3-3.8,3.3-6c0-2.3-1.6-3.5-4.3-3.5c-2.9,0-5.9,1.3-8.8,3.4l-1-7  c2.8-1.9,6.3-3.3,11-3.3c6.8,0,11,3.6,11,9.5c0,4.5-2.3,7.4-6.3,11.3l-6.6,6.4h12.5l1,6.5H330.2z"></path>	<path d="M378.3,40.6v6.6h-7.7v-6.6h-15.3v-5.1l14-21.5h9.1v21h4.7v5.5H378.3z M370.7,22l-8.5,13.1h8.5V22z"></path></g><text transform="matrix(1 0 0 1 -142.0806 67.305)" class="st1" style="font-family:'Whitney-Book'; font-size:16.5px;">                       </text><text transform="matrix(1 0 0 1 -31.6806 67.305)" class="st1" style="font-family:'Whitney-Book'; font-size:16.5px;"> </text><text transform="matrix(1 0 0 1 -26.5606 67.305)" class="st1" style="font-family:'Whitney-Book'; font-size:16.5px;"> </text><text transform="matrix(1 0 0 1 -19.7144 67.305)" class="st1" style="font-family:'Whitney-Book'; font-size:16.5px;"> </text><text transform="matrix(1 0 0 1 -13.8848 67.305)" class="st1" style="font-family:'Whitney-Book'; font-size:16.5px;"> </text><g>	<path class="st1" d="M12.2,67.3l-0.7-9.7l-3.9,9.8h-1l-4-9.8l-0.7,9.7h-1l0.9-11.4h1.4l3.9,9.9l3.9-9.9h1.4l0.9,11.4H12.2z"></path>	<path class="st1" d="M16.8,67.3V55.9h5.9v1h-4.8v3.9h3.8l0.2,1h-4v4.4h5v1L16.8,67.3L16.8,67.3z"></path>	<path class="st1" d="M28.9,67.3h-3.1V55.9h3.1c3.8,0,5.9,2.3,5.9,5.7C34.9,65.1,32.5,67.3,28.9,67.3z M29,56.9h-2v9.3h2  c2.9,0,4.7-1.6,4.7-4.7C33.7,58.5,31.8,56.9,29,56.9z"></path>	<path class="st1" d="M38.2,67.3V55.9h1.1v11.4H38.2z"></path>	<path class="st1" d="M42.7,67.3v-0.8l6.7-9.6h-6.3l-0.1-1h7.8v0.8l-6.7,9.6h6.7l0.1,1H42.7z"></path>	<path class="st1" d="M54.1,67.3V55.9h1.1v11.4H54.1z"></path>	<path class="st1" d="M66.8,67.3l-6.6-9.6v9.6h-1.1V55.9h1.1l6.4,9.3v-9.3h1.1v11.4H66.8z"></path>	<path class="st1" d="M71.6,67.3V55.9h1.1v11.4H71.6z"></path>	<path class="st1" d="M79.1,67.4c-1.3,0-2.3-0.3-3-0.7l0.2-1.2c0.7,0.4,1.7,0.9,2.9,0.9c1.3,0,2.3-0.8,2.3-2c0-1.1-0.6-1.7-2.3-2.4  c-2.2-1-3-1.7-3-3.3c0-1.7,1.4-2.9,3.3-2.9c1.1,0,1.9,0.2,2.5,0.6l-0.2,1.1c-0.6-0.4-1.4-0.7-2.4-0.7c-1.3,0-2.1,0.8-2.1,1.8  s0.5,1.5,2.3,2.3c2.1,0.9,3,1.7,3,3.4C82.6,66.2,81.1,67.4,79.1,67.4z"></path>	<path class="st1" d="M90.4,67.5c-3.1,0-5.2-2.4-5.2-5.9s2.1-5.9,5.2-5.9c1.3,0,2.3,0.4,3.2,1l-0.2,1.2c-0.9-0.6-1.9-1.1-3-1.1  c-2.5,0-4.1,2-4.1,4.9c0,2.9,1.6,4.9,4,4.9c1.2,0,2.3-0.5,3.2-1.2l0.2,1.1C93,67,91.7,67.5,90.4,67.5z"></path>	<path class="st1" d="M104.6,67.3v-5.4h-6.3v5.4h-1.1V55.9h1.1v4.9h6.3v-4.9h1.1v11.4H104.6z"></path>	<path class="st1" d="M109.5,67.3V55.9h5.9v1h-4.8v3.9h3.8l0.2,1h-4v4.4h5v1L109.5,67.3L109.5,67.3z"></path>	<path class="st1" d="M126,67.2l-1.2,0.2l-3.7-5.1h-1.5v5h-1.1V55.9h2.9c2.2,0,3.6,1.1,3.6,3.1c0,1.8-1.1,2.8-2.7,3.1L126,67.2z   M121.4,56.9h-1.7v4.4h1.5c1.7,0,2.7-0.8,2.7-2.2S123,56.9,121.4,56.9z"></path>	<path class="st1" d="M174.3,67.4c-1.3,0-2.3-0.3-3-0.7l0.2-1.2c0.7,0.4,1.7,0.9,2.9,0.9c1.3,0,2.3-0.8,2.3-2c0-1.1-0.6-1.7-2.3-2.4  c-2.2-1-3-1.7-3-3.3c0-1.7,1.4-2.9,3.3-2.9c1.1,0,1.9,0.2,2.5,0.6l-0.2,1.1c-0.6-0.4-1.4-0.7-2.4-0.7c-1.3,0-2.1,0.8-2.1,1.8  s0.5,1.5,2.3,2.3c2.1,0.9,3,1.7,3,3.4C177.8,66.2,176.3,67.4,174.3,67.4z"></path>	<path class="st1" d="M185.6,67.5c-3.1,0-5.2-2.4-5.2-5.9s2.1-5.9,5.2-5.9c1.3,0,2.3,0.4,3.2,1l-0.2,1.2c-0.9-0.6-1.9-1.1-3-1.1  c-2.5,0-4.1,2-4.1,4.9c0,2.9,1.6,4.9,4,4.9c1.2,0,2.3-0.5,3.2-1.2l0.2,1.1C188.2,67,187,67.5,185.6,67.5z"></path>	<path class="st1" d="M199.8,67.3v-5.4h-6.3v5.4h-1.1V55.9h1.1v4.9h6.3v-4.9h1.1v11.4H199.8z"></path>	<path class="st1" d="M212.1,67.2l-1.2,0.2l-3.7-5.1h-1.5v5h-1.1V55.9h2.9c2.2,0,3.6,1.1,3.6,3.1c0,1.8-1.1,2.8-2.7,3.1L212.1,67.2z   M207.5,56.9h-1.7v4.4h1.5c1.7,0,2.7-0.8,2.7-2.2C210.1,57.7,209.2,56.9,207.5,56.9z"></path>	<path class="st1" d="M214.8,67.3V55.9h5.9v1h-4.8v3.9h3.8l0.2,1h-4v4.4h5v1L214.8,67.3L214.8,67.3z"></path>	<path class="st1" d="M223.9,67.3V55.9h1.1v11.4H223.9z"></path>	<path class="st1" d="M231.5,67.3h-2.6V55.9h2.6c2.3,0,3.5,1.1,3.5,2.8c0,1.2-0.7,2.1-1.7,2.5c1.4,0.4,2.2,1.3,2.2,2.8  C235.6,66.2,234,67.3,231.5,67.3z M231.5,56.9H230v4h1.5c1.6,0,2.5-0.9,2.5-2.1C233.9,57.6,233.2,56.9,231.5,56.9z M231.6,61.8H230  v4.5h1.6c1.7,0,2.8-0.8,2.8-2.2C234.5,62.5,233.4,61.8,231.6,61.8z"></path>	<path class="st1" d="M241.2,67.4c-1.3,0-2.3-0.3-3-0.7l0.2-1.2c0.7,0.4,1.7,0.9,2.9,0.9c1.3,0,2.3-0.8,2.3-2c0-1.1-0.6-1.7-2.3-2.4  c-2.2-1-3-1.7-3-3.3c0-1.7,1.4-2.9,3.3-2.9c1.1,0,1.9,0.2,2.5,0.6l-0.2,1.1c-0.6-0.4-1.4-0.7-2.4-0.7c-1.3,0-2.1,0.8-2.1,1.8  s0.5,1.5,2.3,2.3c2.1,0.9,3,1.7,3,3.4C244.7,66.2,243.2,67.4,241.2,67.4z"></path>	<path class="st1" d="M247.8,67.3V55.9h5.9v1h-4.8v3.9h3.8l0.2,1h-4v4.4h5v1L247.8,67.3L247.8,67.3z"></path>	<path class="st1" d="M264.3,67.2l-1.2,0.2l-3.7-5.1H258v5h-1.1V55.9h2.9c2.2,0,3.6,1.1,3.6,3.1c0,1.8-1.1,2.8-2.7,3.1L264.3,67.2z   M259.7,56.9H258v4.4h1.5c1.7,0,2.7-0.8,2.7-2.2S261.3,56.9,259.7,56.9z"></path>	<path class="st1" d="M271.5,67.4h-1L266,56.1l1.1-0.2l3.8,10.1l3.8-10h1.2L271.5,67.4z"></path>	<path class="st1" d="M278.9,67.3V55.9h1.1v11.4H278.9z"></path>	<path class="st1" d="M288.6,67.5c-3.1,0-5.2-2.4-5.2-5.9s2.1-5.9,5.2-5.9c1.3,0,2.3,0.4,3.2,1l-0.2,1.2c-0.9-0.6-1.9-1.1-3-1.1  c-2.5,0-4.1,2-4.1,4.9c0,2.9,1.6,4.9,4,4.9c1.2,0,2.3-0.5,3.2-1.2l0.2,1.1C291.2,67,290,67.5,288.6,67.5z"></path>	<path class="st1" d="M295.4,67.3V55.9h5.9v1h-4.8v3.9h3.8l0.2,1h-4v4.4h5v1L295.4,67.3L295.4,67.3z"></path></g></svg>