<svg xmlns="http://www.w3.org/2000/svg" width="106" height="26" viewBox="0 0 106 26" fill="none"><path d="M93.9011 7.46461H93.7526V4.14109H92.6128C91.6058 4.09777 90.6093 4.36092 89.7529 4.89628C89.6323 4.97706 89.517 5.0654 89.4075 5.16077V4.46474H83.432V7.46809H81.5738C81.3145 7.02517 81.005 6.61408 80.6516 6.24309C79.27 4.77447 77.3357 4.02625 74.9179 4.02625C72.5001 4.02625 70.59 4.72227 69.1774 6.05516C68.7394 6.47184 68.3605 6.94728 68.0513 7.46809H66.1827C65.9623 7.02009 65.6923 6.59864 65.3779 6.21176C64.8408 5.5375 64.1557 4.99798 63.3766 4.63566C62.5974 4.27334 61.7455 4.09809 60.8877 4.12369C60.1187 4.11984 59.3582 4.28616 58.6599 4.61091C58.4302 4.7174 58.2086 4.8407 57.9967 4.9798V-0.000254386H51.7381V7.46809H49.1959C48.9379 7.02612 48.6308 6.61515 48.2806 6.24309C46.899 4.77447 44.9579 4.02625 42.5401 4.02625C40.1223 4.02625 38.2156 4.72227 36.796 6.05516C36.3578 6.47063 35.9799 6.94628 35.6735 7.46809H34.2712L35.8289 0.855855L36.0327 -0.00373459H29.3976L29.3043 0.580926L28.1887 7.46809H28.1058L26.8243 0.570486L26.7207 -0.000254386H21.0769L20.9698 0.563525L19.6124 7.46809H19.4708L18.3137 0.580926L18.217 -0.000254386H11.454L11.6578 0.859336L13.2432 7.47157H0.00743103V25.9997H106.011V7.46461H93.9011ZM0.421912 25.5612V22.9442C0.601504 23.3811 0.873836 23.7731 1.21979 24.0926C1.44712 24.3077 1.69467 24.5 1.95894 24.6669C2.68663 25.1131 3.48996 25.4199 4.32839 25.5717H0.421912V25.5612ZM2.13165 24.2945C1.86323 24.1322 1.61408 23.9395 1.38903 23.7203C0.949068 23.3164 0.664173 22.7694 0.58425 22.1751H11.4057C11.3253 22.7708 11.0377 23.3184 10.594 23.7203C10.3722 23.9399 10.1265 24.1337 9.86171 24.298C8.69096 24.9888 7.35314 25.3393 5.99668 25.3107C4.64125 25.3421 3.30359 24.9953 2.13165 24.3084V24.2945ZM1.67572 18.8481C1.57555 18.7193 1.47884 18.5906 1.58591 18.4235L1.63427 18.3574C1.85247 18.1001 2.03917 17.8174 2.19036 17.5152V17.5396C2.19535 17.5672 2.19535 17.5955 2.19036 17.6231C2.18847 17.674 2.1755 17.7239 2.15237 17.7693C1.9175 18.2808 2.02112 18.4305 2.29744 18.8133C2.32507 18.8551 2.35961 18.9003 2.39415 18.956C2.32787 19.2002 2.31268 19.4556 2.34955 19.706C2.38641 19.9564 2.47453 20.1964 2.6083 20.4107C2.75052 20.6111 2.81561 20.8568 2.79147 21.102C2.76732 21.3472 2.65558 21.5752 2.47705 21.7436H1.38903C1.38903 21.7087 1.42012 21.6774 1.43394 21.6461C1.47062 21.5727 1.49171 21.4924 1.49587 21.4103C1.50004 21.3282 1.48718 21.2461 1.45811 21.1693C1.45811 21.1345 1.43394 21.0997 1.42012 21.0649C1.4074 21.0303 1.3924 20.9966 1.37522 20.964C1.28196 20.7622 1.17488 20.5325 1.67226 19.9478C1.8248 19.7986 1.91709 19.5978 1.93131 19.384C1.90769 19.1817 1.81774 18.9931 1.67572 18.8481ZM2.80518 18.9873C2.93297 18.775 3.34746 18.0755 3.43726 17.9433C4.12806 17.0523 3.81375 16.586 3.5167 16.1232C3.38744 15.9847 3.308 15.8066 3.2911 15.6174C3.27419 15.4281 3.32079 15.2386 3.42344 15.0791L3.50979 14.9504L3.63759 14.7624L3.95536 14.2822C4.32839 13.7045 4.50455 13.3669 4.52182 13.0084C4.60973 13.1383 4.67622 13.2817 4.7187 13.433C4.73374 13.5075 4.74184 13.5832 4.74287 13.6592C4.74215 13.7909 4.71513 13.9211 4.66343 14.042C4.55504 14.2862 4.49857 14.5506 4.49764 14.8181C4.49764 14.8668 4.49764 14.9156 4.49764 14.9608C4.53302 15.2317 4.63124 15.4904 4.78432 15.716L4.80159 15.7403L4.93975 15.97L5.18844 16.3354C5.74453 17.296 5.56493 17.7275 5.31278 18.3887L5.18844 18.6741C4.84304 19.558 5.33005 20.2436 5.80325 20.9153C5.98278 21.1593 6.1422 21.4177 6.27991 21.6879C6.29313 21.7145 6.30355 21.7425 6.31099 21.7714H2.96751L3.01932 21.674C3.12509 21.5048 3.18659 21.3113 3.19806 21.1117C3.20954 20.9121 3.17062 20.7128 3.08495 20.5325C3.05732 20.4663 3.02623 20.4037 2.99515 20.3376C2.96406 20.2715 2.96751 20.2715 2.94679 20.2401C2.83294 20.0648 2.75822 19.8666 2.72781 19.6593C2.6974 19.452 2.71201 19.2405 2.77064 19.0395L2.79136 19.0012L2.80518 18.9873ZM5.82743 12.8866C5.72797 12.6687 5.70601 12.4229 5.76526 12.1906C5.76526 12.1419 5.79634 12.0967 5.81016 12.0479C5.84914 11.9533 5.89654 11.8625 5.95178 11.7765C5.97941 11.7278 6.01395 11.6825 6.04503 11.6373C6.04503 12.1941 6.39043 12.6813 7.22285 13.868L7.32302 14.0107C7.66842 14.5641 7.48535 15.0026 7.30229 15.448C7.05015 16.071 6.78419 16.7043 7.47154 17.6231C7.31379 17.9067 7.22501 18.2239 7.21249 18.5488C7.23092 18.866 7.30948 19.1767 7.44391 19.4641C7.47529 19.538 7.50296 19.6135 7.5268 19.6903C7.71677 20.2053 7.40246 20.6717 7.0916 21.131C6.95455 21.3271 6.82995 21.5317 6.71856 21.7436H6.68403L6.6633 21.667C6.6633 21.6287 6.63912 21.5904 6.62876 21.5591C6.6184 21.5278 6.60113 21.4965 6.59422 21.4686C6.44354 21.1769 6.27031 20.8977 6.07612 20.6334C5.672 20.0557 5.26097 19.4676 5.50966 18.8063C5.55802 18.6845 5.5891 18.6045 5.62364 18.5279C5.9276 17.7623 6.14175 17.2333 5.47167 16.0918C5.3715 15.9178 5.27824 15.7647 5.19189 15.629L5.15045 15.5524L5.22989 15.4132C5.34732 15.2183 5.4544 15.0652 5.55111 14.9121C6.0554 14.1499 6.24191 13.8611 5.82743 12.9006V12.8866ZM7.85839 19.5476C7.83075 19.471 7.80312 19.391 7.77204 19.3144C7.63861 19.0716 7.57385 18.7965 7.58481 18.5192C7.59578 18.2418 7.68204 17.9728 7.83421 17.7414V17.7205L7.85493 17.6927C7.88596 17.6286 7.92176 17.5669 7.96201 17.5082C7.99309 17.4456 8.03109 17.3864 8.06217 17.3308C8.40757 16.76 8.53537 16.5442 8.24869 15.8239C8.19648 15.6776 8.18807 15.519 8.22451 15.368C8.24291 15.2894 8.27075 15.2135 8.30741 15.1418C8.36958 15.4898 8.61136 15.8621 9.09147 16.6069L9.15709 16.7043C9.23484 16.8395 9.26519 16.9971 9.24326 17.1518C9.22133 17.3064 9.1484 17.4491 9.0362 17.557C8.76334 17.9676 8.48356 18.3818 9.0362 19.1265L9.21581 19.3805L9.28144 19.4954C9.15369 19.6928 9.08092 19.9212 9.07074 20.1566C9.08587 20.3916 9.15064 20.6206 9.26071 20.8283L9.30216 20.9222C9.41269 21.1902 9.17436 21.493 8.95676 21.7644H7.14341C7.16413 21.7366 7.1814 21.7053 7.20213 21.674C7.25739 21.5835 7.31956 21.4965 7.37828 21.4025C7.74786 20.8561 8.1278 20.2923 7.85839 19.5615V19.5476ZM9.42305 21.7575L9.47141 21.6809C9.59678 21.5033 9.66873 21.2931 9.67865 21.0754C9.67998 20.9554 9.65523 20.8366 9.60611 20.7274L9.56812 20.6334C9.47063 20.4807 9.42259 20.3012 9.43063 20.1198C9.43868 19.9384 9.50241 19.764 9.61302 19.6207C9.66138 19.5406 9.70283 19.4815 9.74082 19.4258C9.89535 19.263 9.99349 19.0543 10.0206 18.8307C10.0101 18.6694 9.96406 18.5125 9.88589 18.3713C9.84974 18.3004 9.84112 18.2186 9.86171 18.1416C9.86171 18.1416 9.86171 18.1416 9.86171 18.1173C10.0132 18.4201 10.2011 18.703 10.4213 18.9595L10.4696 19.0256C10.4976 19.068 10.5131 19.1174 10.5145 19.1683C10.4995 19.274 10.4524 19.3724 10.3798 19.4502C10.1518 19.739 9.92388 20.0348 10.3798 20.5638C11.0706 21.3642 11.0326 21.4756 10.9463 21.754V21.7784H9.42305V21.7575ZM11.7096 25.5612H7.66842C8.50124 25.4105 9.29963 25.1074 10.024 24.6669C10.339 24.4697 10.6299 24.2361 10.891 23.9708C10.9329 23.9293 10.9721 23.8851 11.0084 23.8386C11.1212 23.711 11.2239 23.5749 11.3158 23.4314C11.4925 23.1562 11.621 22.8525 11.6958 22.5335L11.7096 25.5612ZM11.7096 21.761H11.3469C11.454 21.3886 11.4298 21.1589 10.6734 20.2645C10.5992 20.1915 10.5537 20.0938 10.5456 19.9896C10.5575 19.8802 10.6062 19.7782 10.6838 19.7007C10.8841 19.4432 11.0775 19.1891 10.7874 18.7541L10.7321 18.6845C10.5698 18.4688 10.4523 18.3121 10.3867 18.1869C10.364 18.1569 10.3432 18.1255 10.3245 18.0929C10.2786 18.0322 10.2491 17.9606 10.2388 17.8849C10.2285 17.8093 10.2378 17.7323 10.2658 17.6614L10.4316 17.1742L10.024 17.4038C9.98578 17.4241 9.94987 17.4486 9.91697 17.4769C9.88189 17.5064 9.84845 17.5377 9.81681 17.5709C9.70159 17.6964 9.61547 17.8462 9.56466 18.0094C9.54678 18.0763 9.53749 18.1454 9.53703 18.2147C9.53609 18.335 9.56206 18.4539 9.61302 18.5627C9.73737 18.8307 9.67865 18.9107 9.51976 19.1509C9.46795 19.0673 9.40578 18.9769 9.32979 18.8759C9.19344 18.7311 9.11771 18.5389 9.11836 18.3393C9.119 18.1397 9.19596 17.948 9.33325 17.8041C9.57503 17.456 9.81681 17.0837 9.47141 16.4851L9.40233 16.3772C8.73225 15.3332 8.59064 15.1278 8.7357 14.6371L8.88768 14.1325L8.47665 14.397C8.42896 14.4278 8.38492 14.464 8.3454 14.5049C8.32183 14.5252 8.29989 14.5473 8.27978 14.571L8.2176 14.6476C8.14395 14.7454 8.07812 14.849 8.02073 14.9573C7.96489 15.0676 7.92311 15.1845 7.89638 15.3053C7.84666 15.5366 7.86589 15.7776 7.95164 15.9979C8.15543 16.5094 8.05872 16.6939 7.79967 17.108L7.69259 17.282C7.24703 16.6139 7.44736 16.1266 7.64769 15.6499C7.8722 15.093 8.10362 14.5467 7.64769 13.795L7.50262 13.6279C6.48715 12.1837 6.273 11.8878 6.50096 11.164L6.65985 10.6698L6.24882 10.9134L6.15556 10.9761L6.0623 11.0526L5.9725 11.1431L5.88615 11.244C5.67192 11.4887 5.51284 11.7772 5.41986 12.0897C5.3376 12.4172 5.36804 12.7632 5.50621 13.0711C5.59335 13.2172 5.64805 13.3805 5.66654 13.55C5.68502 13.7194 5.66685 13.8908 5.61328 14.0525C5.58809 14.1297 5.55327 14.2034 5.50966 14.2717C5.43584 14.4058 5.35514 14.5359 5.26788 14.6615C5.17117 14.8077 5.0641 14.9782 4.94321 15.1731C4.8946 15.0822 4.86299 14.9831 4.84995 14.8807C4.84815 14.8529 4.84815 14.825 4.84995 14.7972C4.86285 14.5921 4.91443 14.3913 5.00192 14.2056C5.1238 13.9251 5.15051 13.612 5.07791 13.3147C4.99002 13.0447 4.84774 12.7959 4.65998 12.5839C4.61059 12.5227 4.55752 12.4645 4.50109 12.4099C4.45112 12.3619 4.39676 12.3188 4.33875 12.2811L3.93118 12.0305L4.08316 12.5282C4.27658 13.165 4.08316 13.4365 3.22656 14.7311L3.13331 14.8633C2.70846 15.5594 2.97442 15.9805 3.23347 16.3876C3.45108 16.7183 3.66522 17.0558 3.17475 17.6996L3.13331 17.7553L3.11604 17.8041L3.05386 17.898L2.62557 18.594C2.53211 18.4903 2.47192 18.3605 2.45287 18.2217C2.45737 18.1378 2.47975 18.0559 2.51849 17.9815C2.60048 17.8128 2.61771 17.6194 2.56685 17.4386C2.51543 17.276 2.42803 17.1273 2.31125 17.0036C2.29911 16.985 2.28393 16.9685 2.26635 16.9549C2.25078 16.9369 2.23342 16.9206 2.21454 16.9062C2.182 16.8765 2.14605 16.8508 2.10747 16.8296L1.69644 16.5999L1.86223 17.0871C1.95549 17.3551 1.86223 17.4874 1.38558 18.1103L1.33377 18.1799C1.03672 18.6184 1.2336 18.8759 1.43048 19.1265C1.47404 19.1588 1.50945 19.201 1.53385 19.2497C1.55825 19.2984 1.57096 19.3521 1.57096 19.4067C1.57096 19.4612 1.55825 19.5149 1.53385 19.5636C1.50945 19.6122 1.47404 19.6545 1.43048 19.6868C0.760405 20.4837 0.926197 20.8492 1.08508 21.1728C1.12016 21.2358 1.14026 21.306 1.1438 21.3781C1.12572 21.5139 1.05797 21.638 0.953829 21.7262L0.929651 21.7505H0.421912V7.88918H11.7096V21.761ZM84.1228 5.16077H88.7201V7.46809C88.9208 6.85831 89.2549 6.30172 89.6976 5.83939C89.7701 5.76979 89.8392 5.70715 89.9118 5.64451C89.9276 5.62983 89.9449 5.61699 89.9636 5.60622C90.0188 5.55913 90.0764 5.51499 90.1363 5.47398C90.175 5.44708 90.2154 5.42267 90.2572 5.4009C90.2962 5.3745 90.3366 5.35011 90.3781 5.32781C90.4644 5.28257 90.5507 5.23733 90.6405 5.19905C91.266 4.94772 91.9363 4.82924 92.6093 4.85104H93.0583V9.84501L92.5333 9.79977C92.3641 9.79977 92.1879 9.79977 92.0463 9.79977C91.0447 9.79977 90.3021 10.0295 89.8288 10.4958C89.3557 10.9621 89.1381 11.6686 89.1381 12.643V17.8041H84.1228V5.16077ZM17.5849 22.885C17.5079 23.0758 17.39 23.2469 17.2395 23.3862C17.0696 23.5349 16.8708 23.6463 16.6557 23.7133C16.3975 23.7939 16.1282 23.8326 15.8579 23.8281H13.5126V18.4653H15.8682C15.9932 18.4679 16.1179 18.4795 16.2413 18.5001C16.5363 18.525 16.8186 18.6322 17.0564 18.8098C17.1999 18.9352 17.3122 19.0928 17.3842 19.2699C17.4562 19.447 17.4859 19.6387 17.4709 19.8295C17.4733 19.9926 17.4439 20.1545 17.3845 20.3063C17.3302 20.4479 17.2479 20.5769 17.1428 20.6856C17.0328 20.7949 16.9025 20.8812 16.7594 20.9396C17.0358 21.0089 17.2799 21.1725 17.4502 21.4025C17.6182 21.6511 17.7018 21.9477 17.6885 22.2482C17.695 22.4652 17.6598 22.6815 17.5849 22.885ZM22.6588 21.9384C22.6588 21.9872 22.6588 22.0394 22.6588 22.0916H19.9232C19.9131 22.3969 20.0097 22.6962 20.1961 22.9372C20.3644 23.1007 20.5825 23.202 20.8152 23.2247C21.0478 23.2475 21.2812 23.1903 21.4775 23.0625C21.6311 22.9452 21.7397 22.778 21.7849 22.5892H22.6035C22.5578 22.8503 22.45 23.0963 22.2892 23.3061C22.1272 23.5101 21.9202 23.6734 21.6848 23.7829C21.4272 23.8986 21.1482 23.9579 20.8662 23.9569C20.5318 23.9671 20.2011 23.8853 19.9094 23.7203C19.6354 23.5481 19.4189 23.2972 19.2877 22.9999C19.1352 22.6417 19.0599 22.255 19.0666 21.8654C19.0574 21.48 19.1329 21.0973 19.2877 20.7448C19.422 20.4537 19.6413 20.2108 19.9163 20.0487C20.2099 19.8876 20.5388 19.8032 20.8731 19.8032C21.2074 19.8032 21.5363 19.8876 21.8298 20.0487C22.1005 20.212 22.3151 20.4549 22.4447 20.7448C22.5999 21.0898 22.6755 21.4658 22.6657 21.8445C22.6657 21.8445 22.6623 21.8897 22.6588 21.9384ZM21.9127 17.8041H16.4174L13.9478 7.46809L12.3279 0.69577H17.6401L18.773 7.46809L19.4846 11.7347L20.3135 7.46809L21.6261 0.69577H26.1473L27.4046 7.46809L28.1956 11.7347L28.8864 7.46809L29.9847 0.69577H35.1658L33.5596 7.46809L31.1418 17.7936H25.7225L23.7814 7.54465L21.9127 17.8041ZM27.5773 21.9489C27.5773 21.9976 27.5773 22.0498 27.5773 22.102H24.8417C24.8324 22.4067 24.9275 22.7054 25.1111 22.9477C25.2032 23.0465 25.3153 23.1241 25.44 23.1752C25.5646 23.2263 25.6987 23.2495 25.833 23.2435C26.0338 23.2478 26.2309 23.1881 26.396 23.073C26.5507 22.9573 26.6587 22.7892 26.7 22.5997H27.522C27.4767 22.8615 27.3675 23.1078 27.2043 23.3166C27.0428 23.5171 26.8369 23.6768 26.6033 23.7829C26.3457 23.8986 26.0667 23.9579 25.7847 23.9569C25.4493 23.9668 25.1175 23.885 24.8245 23.7203C24.5505 23.5481 24.3339 23.2972 24.2027 22.9999C24.0503 22.6417 23.9749 22.255 23.9817 21.8654C23.9758 21.4803 24.0512 21.0983 24.2027 20.7448C24.3369 20.4547 24.5548 20.2121 24.8279 20.0487C25.1254 19.8749 25.4651 19.7881 25.8089 19.7982C26.1368 19.7902 26.4606 19.8733 26.7449 20.0383C27.0158 20.2024 27.2312 20.4449 27.3632 20.7343C27.5139 21.0807 27.5882 21.4559 27.5808 21.834C27.5808 21.8445 27.5808 21.8897 27.5773 21.9384V21.9489ZM31.1349 20.6821H30.9139C30.7789 20.6709 30.643 20.6876 30.5147 20.7313C30.3864 20.775 30.2683 20.8447 30.1678 20.9362C30.076 21.039 30.0059 21.1596 29.962 21.2907C29.918 21.4217 29.9011 21.5604 29.9122 21.6983V23.8386H29.0902V19.8921H29.8708V20.5882C29.9624 20.3543 30.1152 20.1499 30.3129 19.9965C30.4995 19.867 30.7219 19.8 30.9484 19.8051H31.1349V20.6821ZM35.9913 23.8386H35.2003V23.3131C35.0995 23.4427 34.9835 23.5595 34.8549 23.6611C34.7338 23.7536 34.5985 23.8253 34.4542 23.8734C34.3033 23.9209 34.146 23.9444 33.9879 23.943C33.7499 23.9447 33.5144 23.8948 33.2971 23.7968C33.0925 23.6987 32.912 23.556 32.7687 23.3792C32.6152 23.1852 32.4982 22.9647 32.4233 22.7284C32.3374 22.4502 32.2955 22.1602 32.2989 21.8688C32.2946 21.5706 32.3365 21.2735 32.4233 20.9884C32.4955 20.7467 32.6127 20.5211 32.7687 20.3237C32.9104 20.1438 33.0912 19.9991 33.2972 19.9007C33.5032 19.8024 33.7289 19.753 33.9569 19.7564C34.1957 19.754 34.4319 19.8064 34.6477 19.9095C34.8542 20.0189 35.0318 20.1764 35.1658 20.3689V18.4653H35.9602L35.9913 23.8386ZM38.6094 23.8386H37.777V19.8921H38.6094V23.8386ZM38.6094 19.3144H37.777V18.4653H38.6094V19.3144ZM43.8733 23.6646C43.8776 23.9321 43.8462 24.199 43.78 24.458C43.7244 24.6724 43.6127 24.8679 43.4565 25.0239C43.3004 25.18 43.1056 25.2911 42.8924 25.3455C42.6092 25.4252 42.3159 25.4627 42.022 25.4568C41.7116 25.4626 41.4027 25.4119 41.1101 25.3072C40.8822 25.2281 40.6827 25.0828 40.5367 24.8896C40.4027 24.7049 40.3312 24.4816 40.333 24.2527H41.1861C41.189 24.3307 41.2114 24.4067 41.2512 24.4736C41.2911 24.5406 41.3471 24.5963 41.4141 24.6355C41.6013 24.7337 41.8112 24.7794 42.022 24.7678C42.2345 24.7773 42.4466 24.7405 42.6437 24.6599C42.7998 24.5942 42.9239 24.4692 42.9891 24.3119C43.0628 24.1348 43.097 23.9435 43.0892 23.7516V23.3131C42.9681 23.4991 42.8 23.6492 42.6022 23.7481C42.3866 23.8509 42.1499 23.901 41.9114 23.8943C41.6665 23.8981 41.4238 23.8482 41.1999 23.7481C40.992 23.6522 40.8079 23.5107 40.6611 23.334C40.5069 23.1418 40.3898 22.9222 40.3157 22.6867C40.231 22.4166 40.1902 22.1346 40.1948 21.8514C40.1918 21.5604 40.2325 21.2706 40.3157 20.9918C40.3884 20.7525 40.5057 20.5293 40.6611 20.3341C40.8087 20.156 40.994 20.0133 41.2034 19.9165C41.426 19.8164 41.6677 19.7666 41.9114 19.7703C42.1437 19.7592 42.3746 19.8107 42.5805 19.9196C42.7863 20.0285 42.9596 20.1908 43.0823 20.3898V19.8921H43.8733V23.6646ZM48.968 23.8281H48.177V23.2922C48.0911 23.4252 47.9837 23.5429 47.8592 23.6402C47.7376 23.7355 47.601 23.8096 47.4551 23.8595C47.2974 23.9088 47.1332 23.9334 46.9681 23.9325C46.7322 23.9371 46.4976 23.8957 46.2773 23.8107C46.0958 23.7386 45.9371 23.6184 45.8179 23.4627C45.7567 23.3708 45.7101 23.2698 45.6798 23.1634C45.6494 23.0497 45.6309 22.9331 45.6245 22.8154C45.6245 22.6936 45.6245 22.5579 45.6245 22.4152V19.8921H46.4534V22.2969C46.4495 22.4673 46.4705 22.6373 46.5156 22.8015C46.5473 22.9266 46.6251 23.0349 46.7332 23.1043C46.864 23.1804 47.0143 23.2155 47.165 23.2052C47.2997 23.2139 47.4346 23.1935 47.5609 23.1455C47.6871 23.0975 47.8018 23.0229 47.8972 22.9268C48.0847 22.6952 48.1774 22.4001 48.1563 22.102V19.8921H48.9783L48.968 23.8281ZM49.6726 12.5839H40.326C40.3057 13.2618 40.5317 13.9238 40.9616 14.4457C41.1764 14.6707 41.4371 14.846 41.7258 14.9596C42.0144 15.0731 42.324 15.1222 42.6333 15.1035C43.0517 15.1197 43.4671 15.0261 43.8388 14.832C44.1491 14.6638 44.3838 14.3824 44.495 14.0455H49.2685C49.1195 14.6962 48.8405 15.3095 48.4486 15.848C48.0566 16.3864 47.56 16.8389 46.9888 17.1776C45.8214 17.8737 44.2705 18.2217 42.3535 18.2217C40.2052 18.2217 38.492 17.6196 37.2313 16.4155C35.9705 15.2114 35.335 13.5931 35.335 11.5433C35.2831 10.0822 35.6892 8.64179 36.4956 7.42633C36.723 7.09861 36.9835 6.7954 37.2727 6.5215C38.5622 5.29649 40.318 4.68283 42.5401 4.68051C44.7621 4.67819 46.5076 5.34521 47.7763 6.68158C47.9946 6.9259 48.191 7.18908 48.3635 7.46809C49.227 8.72093 49.6588 10.3253 49.6588 12.2811L49.6726 12.5839ZM54.0661 23.8281H53.2371V21.2494C53.2504 21.0489 53.1846 20.8513 53.0541 20.6995C52.9832 20.6335 52.9 20.5825 52.8092 20.5496C52.7184 20.5167 52.6219 20.5026 52.5256 20.5081C52.3421 20.5039 52.1605 20.5457 51.9971 20.6299C51.8493 20.7074 51.7287 20.8289 51.6517 20.9779C51.5671 21.1533 51.5256 21.3467 51.5308 21.5417V23.8247H50.7019V19.8921H51.5032V20.4246C51.6351 20.2298 51.8116 20.0698 52.0179 19.9583C52.2312 19.8476 52.4687 19.7926 52.7087 19.7982C52.9428 19.7895 53.1767 19.8225 53.3995 19.8956C53.5621 19.9521 53.7065 20.0519 53.8174 20.1845C53.9234 20.3265 53.9965 20.4906 54.0315 20.6647C54.076 20.8822 54.0957 21.104 54.0903 21.3259L54.0661 23.8281ZM59.292 23.6646C59.296 23.9325 59.2622 24.1997 59.1918 24.458C59.1349 24.6665 59.0282 24.8576 58.881 25.0149C58.721 25.1781 58.5225 25.2979 58.3041 25.3629C58.0222 25.4428 57.73 25.4803 57.4372 25.4742C57.1246 25.4796 56.8135 25.4289 56.5184 25.3246C56.293 25.2426 56.0954 25.0978 55.9485 24.907C55.8155 24.7221 55.7464 24.4984 55.7516 24.2701H56.5979C56.602 24.3482 56.6254 24.4241 56.6657 24.4909C56.7061 24.5577 56.7623 24.6134 56.8293 24.6529C57.0165 24.7511 57.2265 24.7968 57.4372 24.7852C57.6497 24.7944 57.8617 24.7576 58.0589 24.6773C58.2136 24.6095 58.337 24.4851 58.4043 24.3293C58.4763 24.1517 58.5105 23.9608 58.5045 23.769V23.3131C58.3834 23.4991 58.2153 23.6492 58.0175 23.7481C57.8016 23.8502 57.5651 23.9002 57.3267 23.8943C57.0886 23.897 56.8528 23.8471 56.6359 23.7481C56.4268 23.6523 56.2416 23.5108 56.0936 23.334C55.9382 23.1426 55.821 22.9228 55.7482 22.6867C55.6652 22.4162 55.6245 22.1345 55.6273 21.8514C55.6238 21.5601 55.6658 21.2701 55.7516 20.9918C55.8244 20.7525 55.9416 20.5293 56.097 20.3341C56.2427 20.1553 56.427 20.0125 56.6359 19.9165C56.8601 19.8175 57.1026 19.7677 57.3474 19.7703C57.5794 19.7651 57.8093 19.8164 58.0175 19.92C58.2203 20.0313 58.3915 20.193 58.5148 20.3898V19.8921H59.3127L59.292 23.6646ZM63.9411 23.3444C63.7989 23.5479 63.6008 23.7052 63.3712 23.7968C63.0765 23.908 62.7636 23.9623 62.449 23.9569C62.1392 23.9632 61.8314 23.9064 61.544 23.7899C61.3135 23.6923 61.1182 23.5259 60.9845 23.3131C60.8507 23.0835 60.7836 22.8206 60.791 22.5544H61.6062C61.6063 22.6578 61.6294 22.7599 61.6736 22.8532C61.7178 22.9465 61.7821 23.0287 61.8618 23.0938C62.0568 23.2232 62.2886 23.2844 62.5215 23.2678C62.667 23.2721 62.8122 23.2497 62.9498 23.2017C63.0527 23.1678 63.1446 23.1065 63.2157 23.0242C63.2754 22.9467 63.3071 22.8509 63.3055 22.7528C63.3095 22.6716 63.285 22.5915 63.2365 22.5266C63.1781 22.4624 63.1061 22.4124 63.0258 22.3804C62.9139 22.3356 62.7983 22.3006 62.6804 22.276L62.0966 22.1264C61.8582 22.0743 61.6264 21.9949 61.4058 21.8897C61.2433 21.8127 61.1047 21.6924 61.0052 21.5417C60.9084 21.3817 60.8603 21.1965 60.867 21.0092C60.8626 20.7815 60.9251 20.5575 61.0466 20.3654C61.1761 20.1752 61.3571 20.0266 61.5682 19.9374C61.8298 19.8292 62.111 19.777 62.3937 19.7842C62.6871 19.7779 62.9787 19.8324 63.2503 19.9443C63.4711 20.0349 63.6608 20.1885 63.796 20.3863C63.9263 20.583 63.9949 20.8146 63.9929 21.051H63.2157C63.2147 20.9645 63.1935 20.8795 63.1539 20.8027C63.1143 20.726 63.0574 20.6596 62.9878 20.609C62.8117 20.4969 62.6051 20.4434 62.3971 20.4559C62.2717 20.4533 62.1468 20.4722 62.0276 20.5116C61.9432 20.5411 61.8689 20.5942 61.8134 20.6647C61.7607 20.7239 61.7323 20.801 61.734 20.8805C61.7313 20.9654 61.7596 21.0483 61.8134 21.1136C61.8709 21.1844 61.946 21.2384 62.031 21.2703C62.1425 21.3179 62.2582 21.3552 62.3764 21.3816L62.8703 21.493C63.0555 21.5344 63.2378 21.5879 63.4161 21.6531C63.5579 21.7064 63.6908 21.7815 63.8098 21.8758C63.9139 21.9615 63.9956 22.0714 64.0482 22.196C64.1008 22.3432 64.1266 22.4988 64.1241 22.6553C64.1295 22.8979 64.066 23.137 63.9411 23.3444ZM60.9465 18.2495C60.1581 18.2609 59.3775 18.0919 58.6634 17.7553C57.952 17.3987 57.3297 16.8848 56.8431 16.2519V17.8041H52.4289V0.69577H57.2921V6.50409C57.7458 5.97108 58.306 5.54059 58.9362 5.24081C59.5439 4.95972 60.2053 4.81599 60.8739 4.81972C61.632 4.79535 62.3853 4.94974 63.0737 5.27057C63.7621 5.5914 64.3667 6.0698 64.8391 6.66766C65.0441 6.92345 65.2278 7.19582 65.3883 7.48201C66.0485 8.72836 66.3713 10.1279 66.3243 11.5398C66.3243 13.5629 65.8304 15.187 64.8426 16.412C64.381 17.0039 63.7881 17.4785 63.1114 17.7977C62.4348 18.1168 61.6933 18.2715 60.9465 18.2495ZM66.5074 23.8177H65.6819V19.8921H66.5074V23.8177ZM66.5074 19.2935H65.6819V18.4653H66.5074V19.2935ZM71.6297 23.8177H70.8146V21.2494C70.8278 21.0489 70.762 20.8513 70.6315 20.6995C70.5607 20.6335 70.4774 20.5825 70.3866 20.5496C70.2958 20.5167 70.1994 20.5026 70.103 20.5081C69.9207 20.5039 69.7402 20.5457 69.578 20.6299C69.4295 20.7065 69.3086 20.8283 69.2326 20.9779C69.1452 21.1525 69.1024 21.3463 69.1083 21.5417V23.8247H68.2828V19.8921H69.0876V20.4246C69.218 20.2272 69.3963 20.0667 69.6057 19.9583C69.8188 19.847 70.0565 19.792 70.2965 19.7982C70.5249 19.7905 70.7529 19.8235 70.97 19.8956C71.1345 19.9503 71.2805 20.0503 71.3914 20.1845C71.4971 20.327 71.5713 20.4908 71.609 20.6647C71.6539 20.8821 71.6725 21.1041 71.6642 21.3259L71.6297 23.8177ZM76.2615 23.334C76.1187 23.5383 75.9193 23.6957 75.6882 23.7864C75.3949 23.8985 75.083 23.9529 74.7694 23.9465C74.4607 23.9537 74.1538 23.8969 73.8679 23.7794C73.6359 23.6829 73.4392 23.5163 73.3049 23.3026C73.1711 23.073 73.1041 22.8101 73.1115 22.544H73.9232C73.9256 22.6473 73.95 22.7489 73.9947 22.842C74.0394 22.935 74.1033 23.0173 74.1822 23.0834C74.377 23.2132 74.609 23.2744 74.8419 23.2574C74.9864 23.2617 75.1304 23.2393 75.2668 23.1913C75.3716 23.1577 75.4641 23.0935 75.5327 23.0068C75.5959 22.9308 75.6302 22.8346 75.6294 22.7354C75.6314 22.6533 75.6045 22.5732 75.5535 22.5092C75.4978 22.4451 75.428 22.3951 75.3497 22.363C75.2375 22.3189 75.122 22.284 75.0043 22.2586L74.4205 22.109C74.182 22.0569 73.9503 21.9775 73.7297 21.8723C73.5673 21.7937 73.428 21.6737 73.3256 21.5243C73.2315 21.3633 73.1848 21.1786 73.1909 20.9918C73.1855 20.763 73.2507 20.538 73.3774 20.348C73.5038 20.1564 73.6843 20.0073 73.8955 19.92C74.1558 19.8113 74.4359 19.7592 74.7176 19.7668C75.0099 19.7605 75.3003 19.815 75.5707 19.9269C75.794 20.0163 75.9863 20.1701 76.1234 20.3689C76.2511 20.5666 76.3183 20.7977 76.3168 21.0336H75.5085C75.5108 20.9486 75.4937 20.8641 75.4583 20.7869C75.423 20.7096 75.3704 20.6416 75.3048 20.5882C75.1274 20.476 74.9197 20.4225 74.7107 20.435C74.5864 20.4332 74.4627 20.452 74.3446 20.4907C74.2601 20.522 74.1852 20.5747 74.1269 20.6438C74.0766 20.7042 74.0497 20.7808 74.051 20.8596C74.0473 20.944 74.0744 21.0269 74.1269 21.0928C74.1879 21.1627 74.265 21.2165 74.3515 21.2494C74.4629 21.2973 74.5785 21.3346 74.6969 21.3607L75.1942 21.4721C75.3793 21.514 75.5615 21.5675 75.74 21.6322C75.8808 21.6855 76.0125 21.7606 76.1303 21.8549C76.2332 21.9408 76.3139 22.0507 76.3651 22.1751C76.4332 22.3653 76.458 22.5685 76.4377 22.7697C76.4173 22.9709 76.3524 23.1649 76.2477 23.3374L76.2615 23.334ZM79.567 20.5046H78.9177V22.8189C78.9124 22.8892 78.9194 22.9599 78.9384 23.0277C78.9544 23.0773 78.9891 23.1186 79.0351 23.1426C79.1008 23.1692 79.1716 23.1811 79.2423 23.1774H79.4081H79.567V23.8386L79.2596 23.8699C79.1676 23.8748 79.0753 23.8748 78.9833 23.8699C78.7998 23.8793 78.6166 23.846 78.4479 23.7725C78.3202 23.7083 78.2214 23.5975 78.1716 23.4627C78.1133 23.2892 78.0875 23.1063 78.0956 22.9233V20.5151H77.5395V19.8921H78.0956V18.8133H78.9177V19.8921H79.567V20.5046ZM81.819 23.8177H80.9901V19.8921H81.819V23.8177ZM81.819 19.2935H80.9901V18.4653H81.819V19.2935ZM82.047 12.5839H72.7212C72.6999 13.2613 72.9246 13.9233 73.3532 14.4457C73.5682 14.6705 73.829 14.8457 74.1176 14.9592C74.4062 15.0728 74.7157 15.122 75.025 15.1035C75.4443 15.1182 75.8605 15.0248 76.2339 14.832C76.5442 14.6638 76.7789 14.3824 76.8902 14.0455H81.6601C81.5117 14.696 81.2334 15.3092 80.842 15.8476C80.4507 16.3861 79.9546 16.8387 79.3839 17.1776C78.2199 17.8737 76.6656 18.2217 74.7452 18.2217C72.5922 18.2217 70.8859 17.6196 69.6264 16.4155C68.3668 15.2114 67.7347 13.5873 67.7301 11.5433C67.6782 10.0822 68.0843 8.64179 68.8907 7.42633C69.1159 7.09787 69.3753 6.79455 69.6644 6.5215C70.9527 5.29649 72.7143 4.68051 74.9352 4.68051C77.1561 4.68051 78.9107 5.34869 80.1715 6.68158C80.3904 6.91302 80.5903 7.1621 80.769 7.42633C81.6325 8.67917 82.0643 10.2835 82.0643 12.2393L82.047 12.5839ZM85.1556 20.5151H84.5028V22.8294C84.5003 22.8998 84.5085 22.9702 84.527 23.0382C84.5343 23.063 84.5467 23.086 84.5634 23.1058C84.58 23.1255 84.6006 23.1416 84.6237 23.153C84.6892 23.1806 84.7601 23.1925 84.8309 23.1878H84.9967H85.1556V23.849L84.8413 23.8803C84.7504 23.8854 84.6593 23.8854 84.5684 23.8803C84.3849 23.8894 84.2018 23.8561 84.033 23.7829C83.9062 23.7186 83.8085 23.6077 83.7602 23.4732C83.7005 23.2999 83.6736 23.117 83.6807 22.9338V20.5151H83.1246V19.8921H83.6807V18.8133H84.5028V19.8921H85.1556V20.5151ZM89.9083 23.8281H89.1208V23.2922C89.0338 23.4244 88.9266 23.5419 88.803 23.6402C88.6793 23.7362 88.5403 23.8103 88.392 23.8595C88.2367 23.909 88.0747 23.9337 87.9119 23.9325C87.6759 23.9388 87.441 23.8974 87.2211 23.8107C87.0371 23.7397 86.8758 23.6194 86.7548 23.4627C86.6922 23.3716 86.6455 23.2704 86.6166 23.1634C86.5892 23.0492 86.5719 22.9327 86.5648 22.8154C86.5648 22.6936 86.5648 22.5579 86.5648 22.4152V19.8921H87.3938V22.2969C87.3887 22.4671 87.4085 22.6371 87.4525 22.8015C87.4866 22.9255 87.5639 23.0329 87.6701 23.1043C87.8025 23.1795 87.9536 23.2146 88.1053 23.2052C88.2399 23.2134 88.3748 23.1929 88.501 23.1449C88.6272 23.0969 88.7419 23.0226 88.8376 22.9268C89.022 22.6935 89.1143 22.3997 89.0966 22.102V19.8921H89.9187L89.9083 23.8281ZM93.2656 20.5151H92.6093V22.8294C92.6069 22.8998 92.615 22.9702 92.6335 23.0382C92.6409 23.063 92.6533 23.086 92.6699 23.1058C92.6866 23.1255 92.7071 23.1416 92.7302 23.153C92.7946 23.1803 92.8643 23.1922 92.934 23.1878H93.0998H93.2656V23.849L92.9478 23.8803C92.8569 23.8854 92.7658 23.8854 92.675 23.8803C92.4926 23.8897 92.3105 23.8564 92.143 23.7829C92.0144 23.7199 91.9153 23.6087 91.8667 23.4732C91.8071 23.2999 91.7801 23.117 91.7873 22.9338V20.5151H91.2346V19.8921H91.7873V18.8133H92.6093V19.8921H93.2656V20.5151ZM97.8456 18.3296V15.3436L99.8109 15.3227C99.7868 15.8273 99.7453 16.3459 99.6935 16.8783H100.422C100.367 16.3424 100.326 15.8343 100.301 15.3158L102.267 15.2949V18.2808L97.8456 18.3296ZM102.267 18.4096V20.2854L102.042 19.9617H97.9872L97.818 20.2436V18.4583L102.267 18.4096ZM99.1167 12.3333V12.3681L99.0303 12.5595L98.1496 13.3286H98.2152L98.944 12.8762L98.9647 12.911L98.1426 13.7636H98.1945L99.1892 13.0676L99.2238 13.0989L98.7575 13.7393H98.8196L99.6313 13.0432L99.8524 12.9806C99.8697 13.6766 99.8697 14.4318 99.8282 15.2009L97.856 15.2218V12.2846H97.8974V12.4412C98.2919 12.3542 98.6958 12.318 99.0994 12.3333H99.1167ZM100.305 15.187C100.267 14.4214 100.263 13.6836 100.281 12.9736L100.505 13.0363L101.317 13.7323H101.376L100.909 13.092L100.944 13.0606L101.942 13.7567H101.994L101.168 12.904L101.193 12.8692L101.921 13.3217H101.987L101.106 12.5525L101.016 12.3611V12.3263C101.422 12.3087 101.828 12.3426 102.225 12.4273V12.2359H102.287V15.1731L100.305 15.187ZM102.225 12.1001V11.9818C101.817 12.0403 101.404 12.0625 100.992 12.0479L101.02 11.9888L101.901 11.2162H101.835L101.11 11.6651L101.085 11.6338L101.901 10.7812H101.849L100.851 11.4772L100.816 11.4424L101.282 10.8055H101.224L100.412 11.5015H100.343C100.367 11.1814 100.395 10.8682 100.426 10.555H99.697C99.7246 10.8682 99.7557 11.1814 99.7764 11.5015H99.7073L98.8991 10.8055H98.8369L99.3032 11.4424L99.2687 11.4772L98.2704 10.7812H98.2221L99.0442 11.6373L99.0165 11.6686L98.2946 11.2197H98.2255L99.1098 11.9922L99.1339 12.0514C98.7229 12.066 98.3114 12.0439 97.9043 11.9853V12.1523H97.8629V9.43436C98.0287 9.30559 98.2083 9.17683 98.4017 9.05503L101.462 9.08287C101.749 9.2716 102.022 9.47973 102.281 9.70581V12.1036L102.225 12.1001ZM98.6193 8.92626C99.04 8.66555 99.4773 8.43304 99.9284 8.23024C100.394 8.43928 100.845 8.67876 101.279 8.94714L98.6193 8.92626ZM95.8388 12.4064V24.3606H94.402V7.94139H99.7937C98.728 8.38709 97.7562 9.03313 96.9303 9.84501C96.3113 10.4599 95.9221 11.2712 95.8285 12.1419C95.8216 12.2359 95.8216 12.3263 95.8216 12.4203L95.8388 12.4064ZM96.1842 18.3226V15.368L97.7316 15.3471V18.3365L96.1842 18.3226ZM97.7178 18.4305V20.4385L97.3517 21.051H96.1911V18.4757L97.7178 18.4305ZM96.1842 15.2079V12.295H97.7454V15.2357L96.1842 15.2079ZM96.1842 12.1419C96.2647 11.3378 96.6229 10.5877 97.1963 10.0225C97.371 9.83955 97.5567 9.66754 97.7523 9.50744V12.1245L96.1842 12.1419ZM98.7609 24.3223L99.0234 23.8977H101.096L101.358 24.3223H98.7609ZM103.686 24.3223H102.17L101.901 23.9117H102.471V23.6541H97.5866V23.9117H98.191L97.932 24.3362H96.16V21.2041H97.2446L97.2032 21.2703H102.937L102.882 21.1902H103.673L103.686 24.3223ZM103.686 21.051H102.802L102.388 20.4594V18.3922H103.673L103.686 21.051ZM103.686 18.2669H102.401V15.2775H103.676L103.686 18.2669ZM103.686 15.1348H102.412V12.1976H103.673L103.686 15.1348ZM102.426 12.0862V9.80673C102.505 9.88329 102.585 9.95986 102.657 10.0364C103.209 10.5825 103.563 11.2994 103.662 12.0723L102.426 12.0862ZM105.534 24.3467H104.056V12.2359C103.981 11.3291 103.584 10.4801 102.937 9.84501C102.112 9.03472 101.143 8.38883 100.08 7.94139H105.524L105.534 24.3467Z" fill="black"></path><path d="M16.7968 22.1962C16.8053 22.3145 16.7867 22.4331 16.7424 22.543C16.698 22.6528 16.6292 22.7509 16.5412 22.8296C16.3163 22.9842 16.0461 23.0578 15.7745 23.0384H14.3929V21.3749H15.7226C15.9237 21.3688 16.1244 21.3958 16.3167 21.455C16.4566 21.5025 16.5776 21.594 16.6621 21.716C16.7532 21.8591 16.8001 22.0262 16.7968 22.1962Z" fill="black"></path><path d="M16.5861 19.8924C16.5933 20.0448 16.5561 20.196 16.4791 20.3274C16.4051 20.4425 16.2941 20.5285 16.1648 20.571C15.992 20.6272 15.8109 20.6531 15.6294 20.6476H14.3825V19.1964H15.6708C15.9126 19.1804 16.1534 19.2387 16.3616 19.3634C16.4406 19.425 16.5027 19.506 16.542 19.5985C16.5813 19.6911 16.5965 19.7922 16.5861 19.8924Z" fill="black"></path><path d="M21.8017 21.4863H19.9262C19.9335 21.2123 20.032 20.9488 20.2059 20.7381C20.2921 20.6504 20.3958 20.5821 20.5101 20.5377C20.6244 20.4933 20.7468 20.4738 20.8691 20.4805C20.9957 20.4723 21.1227 20.4909 21.2417 20.5353C21.3607 20.5796 21.4691 20.6487 21.5599 20.7381C21.7293 20.9489 21.8154 21.2154 21.8017 21.4863Z" fill="black"></path><path d="M26.7167 21.4863H24.8447C24.852 21.2123 24.9505 20.9488 25.1244 20.7381C25.21 20.6504 25.3131 20.5822 25.4268 20.5378C25.5405 20.4934 25.6624 20.4739 25.7842 20.4805C25.9108 20.4718 26.0379 20.4903 26.157 20.5346C26.276 20.579 26.3844 20.6484 26.475 20.7381C26.6474 20.9472 26.7339 21.2149 26.7167 21.4863Z" fill="black"></path><path d="M35.2101 21.8378C35.2371 22.2057 35.1437 22.5724 34.9442 22.8818C34.8527 22.9976 34.7351 23.0897 34.6011 23.1502C34.4671 23.2108 34.3206 23.2381 34.1739 23.2298C33.9791 23.2369 33.7871 23.1814 33.6257 23.0713C33.4642 22.9612 33.3417 22.8022 33.2759 22.6173C33.1904 22.3859 33.1482 22.1404 33.1515 21.8935C33.148 21.6351 33.1901 21.3782 33.2759 21.1348C33.3443 20.9482 33.4641 20.7852 33.6213 20.665C33.8266 20.5346 34.0707 20.481 34.3112 20.5135C34.5517 20.5459 34.7732 20.6623 34.9373 20.8425C35.1356 21.1344 35.2316 21.4847 35.2101 21.8378Z" fill="black"></path><path d="M43.0749 21.8447C43.1006 22.198 43.0109 22.55 42.8193 22.847C42.729 22.9632 42.612 23.0556 42.4785 23.1162C42.3449 23.1768 42.1987 23.2039 42.0525 23.195C41.8557 23.2011 41.6616 23.1465 41.4964 23.0384C41.339 22.9228 41.2189 22.763 41.151 22.579C41.0645 22.3359 41.0235 22.0786 41.0301 21.8204C41.026 21.5827 41.067 21.3465 41.151 21.1243C41.2215 20.9447 41.3413 20.7889 41.4964 20.6754C41.6533 20.5689 41.8392 20.5141 42.0283 20.5188C42.1771 20.51 42.3257 20.537 42.462 20.5975C42.5984 20.658 42.7185 20.7503 42.8124 20.8668C43.0027 21.1556 43.0948 21.4987 43.0749 21.8447Z" fill="black"></path><path d="M58.504 21.8447C58.5315 22.1981 58.4416 22.5507 58.2484 22.847C58.1586 22.9629 58.0422 23.0552 57.9093 23.1158C57.7763 23.1764 57.6307 23.2036 57.485 23.195C57.2871 23.2007 57.0921 23.1461 56.9255 23.0384C56.7669 22.924 56.6464 22.7639 56.5801 22.579C56.4919 22.3363 56.4508 22.0787 56.4592 21.8204C56.455 21.5827 56.4961 21.3465 56.5801 21.1243C56.6493 20.944 56.7694 20.7879 56.9255 20.6754C57.0822 20.5684 57.2682 20.5137 57.4574 20.5188C57.6061 20.5103 57.7546 20.5374 57.8909 20.5979C58.0272 20.6584 58.1473 20.7506 58.2415 20.8668C58.4304 21.1562 58.5223 21.4989 58.504 21.8447Z" fill="black"></path><path d="M42.4912 7.71195C42.2033 7.69662 41.9156 7.74437 41.6479 7.85191C41.3802 7.95946 41.1387 8.12424 40.9403 8.3349C40.5333 8.81296 40.3135 9.42427 40.3221 10.0541H44.7605C44.7556 9.41546 44.5268 8.79913 44.1146 8.31401C43.9002 8.10578 43.6451 7.94473 43.3657 7.84108C43.0862 7.73744 42.7884 7.69347 42.4912 7.71195Z" fill="black"></path><path d="M74.8725 7.71195C74.5847 7.69708 74.2971 7.74505 74.0295 7.85257C73.7618 7.96008 73.5203 8.12462 73.3216 8.3349C72.9172 8.81427 72.6988 9.42499 72.7068 10.0541H77.1418C77.1387 9.41512 76.9097 8.79819 76.4959 8.31401C76.2815 8.10578 76.0264 7.94473 75.747 7.84108C75.4675 7.73744 75.1697 7.69347 74.8725 7.71195Z" fill="black"></path><path d="M59.3018 8.69683C59.004 8.67489 58.7054 8.72947 58.4342 8.85546C58.1629 8.98145 57.9279 9.17474 57.751 9.41722C57.4056 9.89399 57.2467 10.6318 57.2467 11.6201C57.2042 12.3728 57.3936 13.1203 57.789 13.7604C57.9555 14.0078 58.1818 14.2084 58.4464 14.3436C58.711 14.4787 59.0054 14.5439 59.3018 14.533C59.5952 14.544 59.8864 14.4794 60.1481 14.3454C60.4098 14.2115 60.6332 14.0125 60.7974 13.7674C61.1911 13.1243 61.3781 12.3744 61.3328 11.6201C61.3328 10.6248 61.1681 9.88819 60.8389 9.41026C60.6634 9.17017 60.4303 8.97881 60.1616 8.85406C59.8928 8.7293 59.597 8.6752 59.3018 8.69683Z" fill="black"></path><path d="M102.018 19.5966H97.9798V19.7984H102.018V19.5966Z" fill="black"></path><path d="M101.679 19.4191H98.3459C98.7086 18.9458 99.2889 18.7613 100.011 18.7718C100.624 18.7871 101.214 19.0158 101.679 19.4191Z" fill="black"></path><path d="M97.1163 21.8239L97.7553 23.4804H102.315L102.833 21.8343L97.1163 21.8239ZM100.681 22.8957C100.642 22.9721 100.588 23.0396 100.522 23.0941C100.454 23.15 100.377 23.1925 100.294 23.2194C100.212 23.2479 100.125 23.262 100.038 23.2611C99.9503 23.2617 99.8628 23.2476 99.7793 23.2194C99.698 23.1931 99.6228 23.1505 99.5583 23.0941C99.4905 23.0415 99.4361 22.9736 99.3994 22.8957C99.3586 22.8218 99.3371 22.7385 99.3371 22.6539C99.3371 22.5692 99.3586 22.486 99.3994 22.412C99.4361 22.3342 99.4905 22.2662 99.5583 22.2136C99.6245 22.1597 99.6992 22.1174 99.7793 22.0883C99.8281 22.0738 99.8777 22.0622 99.9279 22.0535V22.2345L99.8277 22.2589C99.767 22.2817 99.71 22.3134 99.6584 22.3528C99.6113 22.3908 99.5725 22.4382 99.5445 22.492C99.5197 22.543 99.5067 22.5989 99.5065 22.6556C99.5062 22.7113 99.5193 22.7662 99.5445 22.8157C99.5725 22.8696 99.6113 22.917 99.6584 22.9549C99.7084 22.9968 99.7658 23.0287 99.8277 23.0489C99.8923 23.0702 99.96 23.0808 100.028 23.0802C100.097 23.0805 100.166 23.0699 100.232 23.0489C100.292 23.0287 100.347 22.9968 100.394 22.9549C100.443 22.9181 100.483 22.8705 100.512 22.8157C100.534 22.7648 100.546 22.7097 100.546 22.6539C100.546 22.5981 100.534 22.5429 100.512 22.492C100.482 22.4379 100.442 22.3905 100.394 22.3528C100.345 22.3134 100.29 22.2818 100.232 22.2589L100.139 22.238V22.0535C100.189 22.0611 100.239 22.0727 100.287 22.0883C100.369 22.1181 100.446 22.1604 100.515 22.2136C100.581 22.2681 100.635 22.3357 100.674 22.412C100.711 22.488 100.731 22.5711 100.733 22.6556C100.733 22.7385 100.715 22.8205 100.681 22.8957Z" fill="black"></path></svg>