<svg xmlns="http://www.w3.org/2000/svg" xmlns:xlink="http://www.w3.org/1999/xlink" id="Ebene_1" x="0px" y="0px" viewBox="0 0 901.5 359.4" style="enable-background:new 0 0 901.5 359.4;" xml:space="preserve"><style type="text/css">	.st0{fill:#1E81A9;}	.st1{fill:#FFFFFF;}</style><g>	<path class="st0" d="M325.6,283.6c-0.3-2.8-0.5-5.1-0.7-7.4c-0.4-4.2-0.6-8.4-1.1-12.7c-0.2-1.6,0-3,1.2-4.2c2-2,2.5-4.4,2.4-7.1  c-0.2-3.1,0.1-6.1-0.1-9.2c-0.2-2.4,0.7-4.1,2.5-5.5c1.8-1.4,3.5-3.1,5.2-4.7c0.7-0.6,1.6-1.1,1.1-2.4c-0.3-0.7,0.5-1.1,0.9-1.5  c1-0.8,2.1-1.6,3.1-2.4c-0.1-0.7-0.5-0.6-0.8-0.6c-1-0.1-2.1,0.4-2.9-0.3c-0.8-0.7-0.3-1.9-0.4-2.8c-0.1-0.9-0.4-1.3-1.3-1.3  c-0.7,0-1.4,0-2.2,0c-32.5,0-64.9,0-97.4,0c-4.3,0-16.7,0.1-18.6,0c-16.1,0-3.2-0.7,0.8-0.9c2.4-0.1,2.4-0.1,2.8-2.6  c0.4-2.7,0.7-5.5,1.4-8.2c0,0,0,0.2,0,0.2c0.3,2.6,0.1,5.2,0.2,7.8c0.1,1.4-0.1,2.8-1.8,3.2c0.7,1.1,32-0.4,46.8-0.8  c13.8-0.4,27.6-0.6,41.4-0.9c2.9-0.1,5.8-0.2,8.6-0.3c1.1,0,1.7-0.4,1.6-1.6c-0.6-4.3,0.5-8,3.8-10.9c0.3-0.3,0.5-0.8,0.6-1.2  c0.2-0.9,0-1.6-1.1-1.6c-0.6,0-1.3,0-1.9,0c-30.6,0-61.1,0-91.7,0c-0.4,0-0.7,0-1.1,0c-1.4-0.2-2.3,0.2-2.5,1.8  c-0.1,0.6-0.4,1.2-0.6,1.8c-0.2,0.6-0.6,0.8-1.3,0.8c-0.7,0-0.9-0.5-0.9-1.1c0-1.4-0.3-2.7,1.1-3.9c0.9-0.7,1.4-2.1,1.6-3.1  c-0.1-0.6-0.4-0.6-0.6-0.7c-1.4-0.2-2.1-0.9-2.1-2.3c-0.1-2-0.1-2-2.1-2.1c-3.6,0-7.2,0-10.8,0c-2,0-1.9-0.1-2.1-2.2  c-0.2-3.1,1.6-4.9,3.9-6.5c0.6,0.6,0.3,1.1,0.1,1.6c-0.3,1-0.7,2.1-1,3.1c-0.2,0.7-0.8,1.7,0.4,2c1,0.2,1.3-0.8,1.5-1.6  c1.2-4,1.1-8-0.1-12c-0.4-1.2-0.6-2.4-0.8-3.7c-0.2-1-0.2-1.8,1.2-2.1c1.1-0.2,1.3-1.4,1.2-2.4c-0.2-1.9,0.2-3.6,1-5.1  c-0.3-0.7-1-0.2-1.2-0.5c-1.4-1.5-2.4-0.5-3.4,0.5c-2.2,2.2-3.5,4.8-3.9,7.9c-0.4,3.1-1.5,5.6-4.4,7.3c-2.1,1.2-3,3.3-3,5.7  c0,2-0.1,4-0.3,5.9c0,0.7,0.2,1.6-0.8,1.8c-0.8,0.1-1.6,0.2-2.2-0.6c-0.3-0.4-0.8-0.7-1.2-1c-2.2-1.2-2.4-1.3-1.5-3.6  c1.5-3.6,1.2-7.2,0.4-10.9c-0.7-3.1-1-6.1-0.4-9.3c0.4-1.8-0.2-3.7-0.4-5.6c-0.1-0.5-0.4-0.8-0.9-0.8c-0.6,0.1-1.1-0.6-2-0.2  c0.1,2.3-0.6,4.6-1.2,6.9c-0.5,2.2-0.3,4.6-1.6,6.7c-0.9-0.4-0.7-1.1-0.8-1.6c-0.1-0.7-0.1-1.4-0.4-2.1c-0.5-1.6-1.3-1.7-2.5-0.5  c-0.6,0.5-0.9,1.6-1.9,1c-0.9-0.5-0.2-1.5-0.1-2.2c0.1-0.4,0.2-0.7,0.3-1c0.9-2.7,0.2-3.5-2.7-3.2c-0.3,0-0.5,0.1-1.1,0.2  c0.1-1.9,0.2-3.8,0.3-5.6c0-0.6,0.1-1.3,0.1-1.9c0-0.3-0.1-0.5-0.4-0.6c-0.4-0.1-0.8,0-0.8,0.4c-0.2,1.3-0.4,2.7-0.5,4  c0,2.1-0.5,4-1.6,5.9c-1.6,2.6-2.5,5.4-2.8,8.4c-0.1,0.8-0.1,1.6-0.8,2.3c-1.2-1.1-1.1-2.6-1-4c0.1-1.9,0.3-3.8,0.5-5.6  c0.2-1.4,0-2.7-0.3-4c-0.3-1.1-1-1.7-1.9-2.2c-1.3-0.6-2.1-0.2-2.1,1.3c0,2.3,0.2,4.7,0.2,7c0,1.9-0.4,3.6-1.5,5.3  c-1.9,2.9-1.9,6.2-0.9,9.4c0.6,2.1,0.8,4.2,0.8,6.4c0,1.2-0.4,1.6-1.6,1.6c-0.8-0.1-1.6,0-2.4,0c-0.1-0.3-0.2-0.5-0.1-0.6  c1.9-4.1,1.1-7.7-1.8-11c-0.8-0.9-1.5-1.8-2.3-2.7c-1.9-2.1-3.2-4.5-4-7.3c-0.6-2.2-1.2-4.3-2.4-6.3c-0.4-0.8-0.9-1.7-2-1.6  c-1,0.1-1.5,0.9-1.9,1.8c-1.3,3.3-0.8,6.5,1.2,9.2c1,1.4,1.1,2.6,0.8,4c-0.7,2.9-0.9,5.9-1.3,8.8c-0.1,1.1,0,2.2,0.2,3.2  c0.1,0.6,0.4,1.2,1,1.6c0.3,0.2,0.7,0.4,1,0.2c0.3-0.2,0.4-0.6,0.2-1c-0.3-0.8-0.6-1.5-0.8-2.3c-0.3-1.1-0.8-2.2-0.1-3.4  c1,0.4,1.3,1.3,1.8,2c0.6,0.7,1.1,1.8,2.4,1.2c0.4-0.2,0.7,0.1,0.8,0.4c0.2,1.1,0.9,2.4,0.5,3.4c-0.4,1-1.8,0.4-2.7,0.4  c-3.6,0.1-7.2,0-10.8,0c-2.1,0-2.1,0.1-2.2,2.1c-0.1,1.5-0.9,2.3-2.4,2.3c-0.7,0-1.4,0-2.2,0.1c-0.2,0-0.3,0.2-0.5,0.3  c0,0.4,0,0.9,0,1.3c0.2,1.8,1.1,2.7,2.8,2.7c2.2,0.1,2.2,0.1,2.2,2.2c0,4.1,0,8.1,0,12.2c0,2.2,0,2.2,2.3,2.3  c3.3,0.1,6.6,0.2,9.5,0.9c-3.4,0-7.1-0.1-10.7,0c-1.4,0-1.9-0.5-2.1-1.8c-0.5-3.3-1.1-6.6-1.7-9.9c-0.1-0.6,0-1.5-0.8-1.5  c-1.8,0-2.2-1.4-2.7-2.6c-0.7-1.6-1.7-2-3.4-1.9c-31.1,0.1-62.2,0.1-93.3,0.1c-0.8,0-2-0.5-2.4,0.5c-0.5,1.2,0.8,1.7,1.5,2.2  c1.9,1.5,3.9,2.9,5.9,4.3c1,0.7,1.5,1.5,1.3,2.7c-0.1,1.1,0,2.2,0,3.2c0,2.1,0,2.1,2,2.2c2.5,0.1,5,0.2,7.6,0.3  c21.6,0.5,43.3,0.9,64.9,1.4c1.2,0,2.4,0,3.6,0l0,0.6H18.6c1.1,2.4,2.4,4.2,3.8,5.8c1,1.1,1.7,2.1,1.6,3.6c0,1.3,0.6,2.2,1.6,3  c2,1.7,3.9,3.4,5.9,5.1c0.9,0.7,1.4,1.5,1.3,2.8c-0.1,2.9-0.1,5.9,0,8.9c0,1.3-0.5,1.8-1.7,1.7c-0.1,0-0.2,0-0.3,0  c-0.8,0.1-1.8-0.4-2.2,0.5c-0.5,1.1-0.3,2.3,0.6,3.2c0.5,0.5,0.9,1.2,1.4,1.6c2.9,2.5,3.5,5.5,3.1,9.2c-0.5,4.5-0.4,9-0.7,13.5  c0,0.6,0.2,1.3-0.3,1.8c-39.5-51.8-51.3-146.6,9.9-218.6c65.4-77,180.2-84.7,255.2-19.1C372.7,109.9,375.7,215.6,325.6,283.6  L325.6,283.6z M234.6,125c-0.7-1.5-1.2-2.7-1.8-4c-5.8-13.4-11.6-26.8-17.4-40.2c-0.9-2-1.9-3.9-3.6-5.3c-2.2-1.9-4.8-2-7.4-1.1  c-2.4,0.8-3.8,2.7-4.1,5.2c-0.2,1.2-0.2,2.3-0.2,3.5c0,16.2,0,32.4,0,48.7c0,1.1,0,2.2,0.2,3.2c0.5,2.6,2.4,4.3,5.1,4.4  c2.6,0.1,4.6-1.5,5.3-4.1c0.3-1.1,0.3-2.3,0.3-3.5c0-10.5,0-20.9,0-31.4c0-0.9-0.1-1.9,0.2-2.9c0.9,0.8,1.1,1.7,1.4,2.5  c4.9,11.1,9.8,22.3,14.6,33.4c0.5,1.2,1.1,2.5,2,3.5c2.8,3.4,7.6,3.3,10.2-0.2c0.8-1.1,1.4-2.3,1.9-3.6c5-11.2,9.9-22.4,14.9-33.6  c0.3-0.7,0.4-1.5,1.2-2c0.4,1,0.2,1.9,0.2,2.8c0,10.5,0,20.9,0,31.4c0,1.2,0,2.3,0.3,3.5c0.7,2.6,2.9,4.3,5.6,4.2  c2.8-0.1,4.9-2,5.3-4.8c0.1-1,0.1-2,0.1-3c0-10.1,0-20.2,0-30.3c0-6.8,0-13.5,0-20.3c0-3.4-1.7-5.8-4.4-6.7  c-3.2-1.1-6.2-0.1-8.4,2.8c-1.2,1.5-1.9,3.3-2.7,5c-5.7,13.1-11.4,26.3-17.1,39.4C236,122.6,235.7,123.8,234.6,125L234.6,125z   M123.6,104.8c1.2-0.5,1.9-0.8,2.7-1.2c3.7-1.8,6.4-4.6,7.6-8.7c2.1-7.5-1.2-14.7-8.2-18c-3.3-1.5-6.9-2.2-10.5-2.2  c-5.8,0-11.5,0-17.3,0c-6.2,0-7.9,1.7-7.9,7.8c0,13.2,0,26.5,0,39.8c0,3.4-0.1,6.8,0,10.3c0.1,4,2.1,5.9,6.1,6  c6.6,0.1,13.2,0.1,19.7-0.1c4.3-0.1,8.4-1.1,12.2-3.1c5-2.6,8-6.6,8.9-12.2c1.4-8.6-2.8-15.4-11.2-17.8  C125.2,105.2,124.6,105.1,123.6,104.8L123.6,104.8z M148.4,106.8c0,8.4,0,16.8,0,25.1c0,0.9,0,1.8,0.1,2.7c0.4,2.7,2.5,4.5,5.2,4.7  c2.6,0.2,4.9-1.4,5.7-4c0.4-1.1,0.4-2.3,0.4-3.5c0-5.9,0-11.7,0-17.6c0-2.6,0-2.6,2.7-2.6c6.3,0,12.6,0,18.9,0c1.2,0,2.4,0,3.5-0.2  c2.5-0.4,3.9-2.2,3.8-4.8c-0.1-2.4-1.5-4.1-3.9-4.4c-0.9-0.1-1.8-0.1-2.7-0.1c-6.7,0-13.3,0-20,0c-2.2,0-2.3,0-2.3-2.2  c0-4.2,0-8.5,0-12.7c0-2.7,0-2.7,2.6-2.7c7,0,14.1,0,21.1,0c0.9,0,1.8,0,2.7-0.1c2.5-0.3,4.1-2,4.3-4.4c0.2-2.3-1.2-4.3-3.6-5.1  c-1-0.3-2-0.3-2.9-0.3c-9.4,0-18.8,0-28.1,0c-1,0-2,0-2.9,0.2c-2.6,0.7-4,2.2-4.4,4.9c-0.1,0.9-0.1,1.8-0.1,2.7  C148.4,90.6,148.4,98.7,148.4,106.8L148.4,106.8z"></path>	<path class="st0" d="M200.3,320.9c0,11.6,0,23.3,0,34.9c0,0.5,0,0.9,0,1.4c0.1,1.4-0.6,1.9-1.9,1.9c-5,0.2-10.1,0.4-15.1,0.3  c-8.5,0-16.9-0.8-25.3-2c-2.3-0.3-2.4-0.3-2.4-2.6c-0.1-24.3-0.1-48.7-0.2-73c0-0.3,0-0.5,0-0.8c0.2-3.8,0.4-4,4.2-4  c12.5,0.2,25.1,0.4,37.6,0.5c0.4,0,0.7,0,1.1,0c1.3-0.1,1.6,0.5,1.7,1.8c0.8,7.8,0.4,15.6,0.5,23.4c0,6,0,12.1,0,18.1L200.3,320.9  L200.3,320.9z"></path>	<path class="st1" d="M436.2,263.3c-0.5,1.3-0.3,2.3-0.3,3.2c0,10.4,0,20.7,0,31.1c0,1.2,0,2.4-0.2,3.5c-0.5,2.5-2.4,4-5,4  c-2.6,0-4.6-1.3-5.2-3.8c-0.3-1-0.3-2.1-0.3-3.2c0-16.6,0-33.2,0-49.7c0-1,0.1-2,0.2-2.9c0.4-2.6,1.8-4.5,4.4-5.3  c2.8-0.9,5.3-0.5,7.5,1.5c1.6,1.5,2.6,3.5,3.4,5.4c5.4,12.6,10.8,25.1,16.3,37.7c0.9,2,1.5,4,2.8,5.8c0.8-0.7,1-1.6,1.3-2.4  c5.8-13.4,11.6-26.7,17.4-40.1c0.9-2,1.7-4,3.1-5.7c1.5-1.8,3.5-2.9,5.9-2.8c3.5,0.2,6.1,2.4,6.6,6c0.1,1,0.1,2,0.1,3  c0,16.3,0,32.6,0,48.9c0,0.9,0,1.8-0.1,2.7c-0.4,2.9-2.4,4.8-5.2,4.9c-3,0.1-5-1.4-5.8-4.2c-0.3-1.1-0.3-2.1-0.3-3.2  c0-10.5,0-20.9,0-31.4v-3.2c-1.1,0.7-1.2,1.7-1.6,2.5c-4.9,11-9.8,22-14.7,33.1c-0.5,1.2-1.1,2.5-1.9,3.6c-2.6,3.9-8.3,3.7-10.8,0  c-0.8-1.1-1.3-2.4-1.9-3.6c-4.8-10.9-9.5-21.8-14.3-32.6C437.4,265.3,437.2,264.3,436.2,263.3L436.2,263.3z"></path>	<path class="st1" d="M459.5,80.9c0.3,0.5,0.9,0.5,1.4,0.7c6.4,1.7,10.4,5.7,11.3,12.3c0.9,6.7-1.1,12.5-6.9,16.5  c-4,2.8-8.7,4.1-13.5,4.2c-6.9,0.2-13.9,0.2-20.8,0.1c-3.6,0-5.4-1.9-5.8-5.4c-0.1-0.9-0.1-1.8-0.1-2.7c0-15.8,0-31.7,0-47.6  c0-0.7,0-1.4,0-2.2c0.4-4,2.3-5.8,6.3-5.9c2.2-0.1,4.3,0,6.5,0c4.2,0,8.5,0,12.7,0c3.8,0,7.5,0.8,11,2.5c5.5,2.8,8.2,7.5,8.1,13.6  c0,6-2.9,10.2-8.3,12.9C460.8,80.1,460,80.2,459.5,80.9L459.5,80.9z M436.5,95.9c0,2.5,0,5.1,0,7.6c0,1.3,0.4,1.8,1.7,1.7  c4.1-0.1,8.3,0.1,12.4-0.2c1.7-0.2,3.4-0.5,5-1.2c3.8-1.6,5.7-4.7,5.5-8.8c-0.2-4.1-2.2-6.4-6.5-7.6c-0.6-0.2-1.2-0.3-1.9-0.4  c-4.9-0.8-9.9-0.3-14.8-0.5c-1.1,0-1.4,0.5-1.4,1.5C436.5,90.7,436.5,93.3,436.5,95.9z M436.5,68.6c0,2.1,0,4.2,0,6.2  c0,1.9,0,2,1.9,2c3.1,0,6.3,0,9.5,0c2,0,4-0.4,5.8-1.3c3.2-1.4,4.9-4.3,4.6-7.8c-0.2-3.5-2-5.6-5.7-6.6c-0.8-0.2-1.6-0.4-2.4-0.5  c-4-0.5-8.1-0.2-12.1-0.3c-1.2,0-1.6,0.4-1.6,1.6C436.5,64.1,436.5,66.3,436.5,68.6L436.5,68.6z"></path>	<path class="st0" d="M220.3,310.5c-0.1-6.8-0.4-18.8-0.6-30.8c0-2.1,0-2.1,2.1-2.1c5.5,0.1,11,0.2,16.5,0.3c0.9,0,5.5-0.3,5.5,1  c0,0.8,0,2.9,0,4.6c0.2,19.4,0.4,38.7,0.7,58.1c0,1.6,0.7,3.5-0.1,4.8c-0.9,1.4-3,1.5-4.6,2c-5.2,1.9-10.6,3.5-16,4.8  c-2.5,0.6-2.5,0.6-2.6-1.9C220.8,339.5,220.6,327.6,220.3,310.5L220.3,310.5z"></path>	<path class="st0" d="M134.4,353.8c-4.4-1-8.3-2.4-12.2-3.8c-3-1.1-5.9-2.3-8.8-3.4c-1.3-0.5-1.7-1.2-1.7-2.6  c0.2-5.4,0.3-10.8,0.4-16.2c0.3-15.1,0.5-30.3,0.8-45.4c0-0.5,0-0.9,0-1.4c0.1-2,0.1-2,2.1-2.3c0.8-0.1,1.6-0.2,2.4-0.2  c5.4,0,10.8,0,16.2,0c2.2,0,2.3,0,2.2,2.2c-0.2,12.2-0.5,24.3-0.7,36.5c-0.1,7.9-0.3,15.9-0.4,23.8  C134.7,345.2,134.5,349.4,134.4,353.8L134.4,353.8z"></path>	<path class="st1" d="M765.1,281c2.7,2.6,5.3,5,7.9,7.5c2.2,2.1,4.3,4.3,6.5,6.5c0.7,0.7,1.4,1.4,1.8,2.3c1.1,2.1,0.8,4.6-0.8,6.3  c-1.6,1.7-4.3,2.1-6.5,1c-1.2-0.6-2.1-1.7-3-2.6c-5.3-5.8-10.6-11.5-15.9-17.3c-0.7-0.7-1.3-1.4-2.4-2.6c0,1.6,0,2.4,0,3.3  c0,4.8,0.1,9.5,0,14.3c-0.1,3.6-2.3,5.7-5.6,5.5c-2.7-0.1-4.6-1.7-5.1-4.4c-0.2-0.9-0.1-1.8-0.1-2.7c0-18.5,0-37.1,0-55.7  c0-0.7,0-1.4,0-2.2c0.3-3,2.5-5,5.4-4.9c2.8,0,4.9,1.9,5.3,4.8c0.1,0.9,0.1,1.8,0.1,2.7c0,11.1,0,22.2,0,33.2c0,0.9,0,1.8,0,2.7  c1,0.4,1.3-0.5,1.8-0.9c5.1-5,10.2-9.9,15.3-14.9c0.8-0.8,1.7-1.7,2.7-2.2c2.3-1.2,5.1-0.8,6.6,1.1c1.5,1.9,1.5,4.4-0.2,6.5  c-0.7,0.8-1.5,1.5-2.3,2.3c-3.6,3.2-7.1,6.3-10.7,9.5C765.7,280.2,765.6,280.3,765.1,281L765.1,281z"></path>	<path class="st1" d="M446.6,145.5c4.7,0,9.4,0,14.1,0c1.1,0,2.2,0,3.2,0.4c2.3,0.8,3.4,2.5,3.3,5c-0.1,2.3-1.4,3.8-3.7,4.4  c-1.1,0.3-2.3,0.3-3.5,0.3c-7.1,0-14.2,0-21.4,0c-2.1,0-2.1,0-2.1,2.1c0,4.4,0,8.8,0,13.2c0,2.1,0,2.1,2.3,2.2c6.8,0,13.5,0,20.3,0  c0.8,0,1.6,0,2.4,0.1c2.4,0.4,3.9,2.1,4,4.4c0.1,2.6-1.2,4.3-3.8,4.8c-1,0.2-2,0.2-3,0.2c-6.7,0-13.3,0-20,0c-2.2,0-2.3,0-2.3,2.2  c0,5.9,0,11.7,0,17.6c0,1.1,0,2.2-0.2,3.2c-0.5,2.8-2.6,4.6-5.4,4.7c-2.8,0-5-1.7-5.5-4.6c-0.2-1-0.2-2-0.2-2.9c0-16.5,0-33,0-49.5  c0-0.3,0-0.5,0-0.8c0.1-4.9,2.1-6.9,7-7C436.9,145.5,441.8,145.5,446.6,145.5L446.6,145.5z"></path>	<path class="st1" d="M691.9,96.5c-4.2,0-8.3,0-12.4,0c-2.2,0-2.5,0.3-1.7,2.6c1.4,4.3,5.8,7.6,10.6,8c3.8,0.3,7.3-0.6,10.4-3  c0.6-0.5,1.3-1,2-1.4c2-1.2,4.3-0.9,5.7,0.6c1.4,1.5,1.6,3.8,0.3,5.7c-0.4,0.6-0.9,1.1-1.4,1.6c-2.3,2.1-4.9,3.7-7.9,4.5  c-5.6,1.4-11.3,1.4-16.8-0.5c-9.3-3.2-14.8-11.9-14.2-22.2c0.2-4.2,1.2-8.2,3.4-11.8c3.9-6.2,9.6-9.4,16.7-10.2  c2.3-0.3,4.7-0.3,7,0.2c9.1,1.6,15.2,8.1,16.5,17.6c0.1,1.1,0.3,2.2,0.2,3.2c-0.1,3.2-1.5,4.8-4.7,5.1c-1.7,0.1-3.4,0.1-5.1,0.1  C697.5,96.5,694.7,96.5,691.9,96.5L691.9,96.5z M699.3,88.6c-0.2-5.4-2.5-8.8-6.9-9.8c-4.3-1-8.2-0.2-11.6,2.7  c-2.1,1.8-3.4,4.2-3.5,7.1L699.3,88.6L699.3,88.6z"></path>	<path class="st1" d="M505.9,96.5c-4.1,0-8.3,0-12.4,0c-2.2,0-2.3,0.2-1.6,2.4c1.4,4.5,5.8,7.8,10.7,8.2c3.8,0.3,7.3-0.6,10.4-3.1  c0.6-0.4,1.1-0.9,1.7-1.3c2.1-1.3,4.5-1.1,5.9,0.5c1.5,1.6,1.5,4,0.1,6c-0.4,0.6-0.9,1.1-1.5,1.6c-2.8,2.5-6,4.1-9.6,4.7  c-4.6,0.8-9.2,0.8-13.6-0.6c-8.2-2.5-13.4-7.9-15-16.4c-1.5-8.3,0-16,6.3-22.2c6.6-6.5,18.5-8.1,26.6-3.7c5.7,3,8.6,8,9.9,14.1  c0.3,1.3,0.5,2.7,0.5,4c0.1,3.7-1.5,5.5-5.2,5.8c-0.6,0-1.3,0-1.9,0C513.4,96.5,509.7,96.5,505.9,96.5L505.9,96.5z M491.6,88.7  c6.9,0,13.8,0,20.7,0c0.9,0,1.3-0.3,1.2-1.2c-0.1-3.8-2.7-7.3-6.3-8.6c-1.9-0.7-3.9-0.7-5.9-0.4C495.9,79.1,491.7,83.5,491.6,88.7  L491.6,88.7z"></path>	<path class="st1" d="M578.3,204.2c-2.5,3.1-5.3,4.9-8.7,5.7c-4.7,1.1-9.3,0.8-13.7-1.3c-4.8-2.2-7.3-6-7.4-11.3  c-0.1-5.1,2.3-8.8,6.8-11.1c4.2-2.2,8.8-3,13.5-3.4c2.7-0.2,5.4-0.4,8.1-0.4c1.3,0,1.5-0.6,1.4-1.7c-0.3-3.2-2-5.4-5-6.5  c-3.4-1.3-6.9-1.2-10.3,0.3c-1.6,0.7-3,1.6-4.6,2.3c-2.3,1.1-4.5,0.7-5.8-1.2c-1.3-1.9-0.8-4.3,1.2-6c1.5-1.3,3.3-2.2,5.2-2.9  c5.6-2.2,11.4-2.5,17.2-1.1c6.5,1.6,10.4,5.8,11.8,12.3c0.3,1.6,0.5,3.2,0.5,4.8c0,7.1,0,14.2,0,21.4c0,0.2,0,0.4,0,0.5  c-0.2,3.5-2,5.5-5,5.6c-2.8,0.1-4.6-1.7-5.2-5.1C578.4,205,578.4,204.9,578.3,204.2L578.3,204.2z M566.8,202.3  c7.2,0,11.4-4.1,11.5-10.9c0-0.9,0-1.6-1.2-1.6c-3.9,0-7.7,0-11.5,1c-1.5,0.4-2.9,0.9-4.1,1.9c-1.7,1.3-2.4,3.1-2,5.2  c0.3,2,1.6,3.1,3.4,3.8C564.2,202.2,565.6,202.4,566.8,202.3L566.8,202.3z"></path>	<path class="st1" d="M534.5,299.1c-6.2,6.5-14.5,8.1-22.3,4.6c-4.9-2.2-7.6-6-7.7-11.4c-0.1-5.2,2.4-8.9,7-11.2  c3.4-1.8,7.1-2.5,10.8-3.1c3.3-0.5,6.6-0.6,10-0.6c2,0,2.1-0.2,1.9-2.2c-0.4-2.9-2-4.8-4.6-5.9c-3.6-1.5-7.2-1.3-10.8,0.2  c-1.5,0.6-2.8,1.5-4.3,2.2c-2.4,1.2-4.8,0.7-5.9-1.3c-1.2-2-0.7-4.4,1.4-6c4.9-3.6,10.6-4.9,16.6-4.7c2.8,0.1,5.6,0.5,8.2,1.6  c5.4,2.2,8.4,6.3,9.4,11.9c0.3,1.7,0.4,3.4,0.4,5.1c0,6.7,0,13.3,0,20c0,0.7,0,1.5-0.1,2.1c-0.4,2.9-2.1,4.5-4.8,4.6  c-2.8,0.1-4.6-1.4-5.2-4.4C534.6,300.3,534.6,299.8,534.5,299.1L534.5,299.1z M522.7,297.3c7.4,0,11.6-4,11.8-10.7  c0-1.8,0-1.9-1.7-2c-3-0.1-5.9,0.1-8.9,0.6c-2,0.3-3.9,0.8-5.6,1.9c-2.2,1.4-3.1,3.3-2.8,5.7c0.4,2.5,2.2,3.6,4.4,4.1  C521,297.1,522.1,297.2,522.7,297.3L522.7,297.3z"></path>	<path class="st1" d="M718.7,299.4c-6.9,6.5-15.1,7.9-22.8,4c-5.7-2.9-8.3-8.9-6.6-15c1-3.3,3.2-5.6,6.2-7.2  c3.5-1.9,7.4-2.7,11.3-3.3c3.2-0.4,6.5-0.6,9.7-0.6c2.1,0,2.3-0.3,2-2.4c-0.4-2.7-2-4.6-4.5-5.6c-3.2-1.4-6.5-1.4-9.8-0.3  c-1.5,0.5-2.8,1.2-4.2,2c-0.8,0.4-1.6,0.9-2.4,1.2c-1.8,0.6-3.5,0-4.6-1.4c-1-1.4-1.1-3.4-0.1-4.8c0.6-1,1.6-1.7,2.6-2.3  c7.4-4.3,15.2-5.1,23.2-2.3c6.8,2.4,9.7,7.8,10,14.6c0.3,5.9,0.1,11.9,0.1,17.8c0,2.2,0.1,4.5-0.1,6.8c-0.2,3.1-2.5,4.8-5.5,4.5  c-2.1-0.2-3.5-1.3-4.2-3.3C718.9,301.1,718.9,300.4,718.7,299.4L718.7,299.4z M718.6,287c0.1-2.4,0.1-2.4-2.3-2.4  c-2.5,0-5,0.2-7.5,0.5c-2.3,0.3-4.6,0.9-6.6,2.2c-1.9,1.3-2.8,3-2.5,5.3c0.3,2.3,1.9,3.6,4,4.2c1.9,0.5,3.9,0.6,5.9,0.3  C715.2,296.2,718.5,292.6,718.6,287L718.6,287z"></path>	<path class="st1" d="M639.1,298.1c-0.6,0.7-0.8,1-1,1.2c-4,5.8-11.8,7.8-18.6,5.3c-6.1-2.3-8.8-7.2-9.6-13.3c-0.3-2-0.2-4-0.2-5.9  c0-5.9,0-11.7,0-17.6c0-1,0-2,0.1-3c0.4-2.8,2.4-4.5,5.2-4.6c2.6,0,4.6,1.5,5.3,4.1c0.3,1.1,0.3,2.1,0.3,3.2c0,5.8,0,11.5,0,17.3  c0,1.7,0,3.4,0.5,5.1c1.7,6.7,8.9,8.9,14.1,4.2c2.2-2,3.3-4.5,3.5-7.4c0.2-3,0.2-6.1,0.2-9.2c0-3.8-0.1-7.6,0-11.4  c0.1-3.3,1.3-5,3.9-5.8c3.1-0.9,6.1,0.8,6.7,4c0.2,1,0.2,2.1,0.2,3.2c0,10.1,0,20.2,0,30.3c0,1,0,2-0.2,3c-0.5,2.6-2.2,4.1-4.8,4.2  c-2.8,0.1-4.6-1.4-5.1-4.2C639.3,300.2,639.3,299.4,639.1,298.1L639.1,298.1z"></path>	<path class="st1" d="M850.5,298.4c-0.5,0-0.7,0.4-0.8,0.6c-3.7,5.6-11.2,8.2-18.5,5.7c-5.9-2-8.7-6.6-9.8-12.5  c-0.3-1.5-0.4-3-0.4-4.6c0-6.8,0-13.5,0-20.3c0-1,0.1-2,0.3-3c0.5-2.6,2.6-4.2,5.2-4.2c2.7,0,4.8,1.8,5.2,4.5c0.2,1,0.2,2,0.2,3  c0,5.5,0,11,0,16.5c0,1.7,0.1,3.4,0.3,5.1c0.6,3.3,1.9,6.2,5.5,7c3.8,0.9,7.2,0,9.7-3.1c2-2.4,2.7-5.2,2.7-8.3c0-5.8,0-11.5,0-17.3  c0-1.1,0-2.1,0.3-3.2c0.7-2.6,2.7-4.1,5.3-4.1c2.8,0.1,4.8,1.8,5.2,4.6c0.1,0.8,0.1,1.6,0.1,2.4c0,10.5,0,20.9,0,31.4  c0,0.6,0,1.3-0.1,1.9c-0.3,2.8-2,4.5-4.7,4.6c-2.9,0.1-4.8-1.3-5.4-4.2C850.7,300.1,850.6,299.2,850.5,298.4L850.5,298.4z"></path>	<path class="st1" d="M626.7,78.1c2.3-3.7,5-6,8.6-7.2c9.5-3.2,18.8,2.3,20.5,12.2c0.3,1.6,0.5,3.2,0.5,4.8c0,6.8,0,13.7,0,20.6  c0,0.9,0,1.8-0.2,2.7c-0.6,2.8-2.7,4.4-5.4,4.3c-2.9-0.1-4.8-1.9-5.2-4.9c-0.1-0.9-0.1-1.8-0.1-2.7c0-5.5,0-11,0-16.5  c0-1.6-0.1-3.2-0.4-4.8c-0.6-3.4-1.9-6.3-5.6-7.2c-3.9-0.9-7.3,0.2-9.8,3.5c-1.7,2.3-2.4,5-2.4,7.9c0,5.9,0,11.9,0,17.8  c0,1,0,2-0.3,2.9c-0.8,2.6-2.8,4.1-5.5,3.9c-2.8-0.2-4.7-2-5-4.7c-0.1-0.6-0.1-1.3-0.1-1.9c0-10.6,0-21.3,0-31.9c0-0.4,0-0.9,0-1.3  c0.2-3.1,2-4.9,4.9-5c2.9-0.1,4.9,1.6,5.3,4.6C626.7,76,626.6,76.7,626.7,78.1L626.7,78.1z"></path>	<path class="st1" d="M611.6,172.2c2.7-3.5,6-6,10.2-6.9c7.4-1.5,15.6,1.2,18.4,10.6c0.6,2,1,4,1,6.1c0,7.3,0,14.6,0,21.9  c0,0.4,0,0.7,0,1.1c-0.2,3.2-2.3,5.3-5.3,5.4c-3.1,0.1-5.4-2.1-5.5-5.4c-0.1-6.2,0-12.4,0-18.7c0-1.8-0.1-3.6-0.5-5.4  c-0.6-3-1.9-5.6-5-6.5c-3.4-1-6.7-0.4-9.3,2.2c-2.6,2.6-3.5,5.8-3.5,9.4c0,5.8,0,11.5,0,17.3c0,0.9,0,1.8-0.1,2.7  c-0.4,2.6-2.4,4.3-5,4.4c-2.5,0.1-4.5-1.3-5.3-3.7c-0.3-1-0.3-1.9-0.3-2.9c0-10.6,0-21.3,0-31.9c0-0.9,0-1.8,0.3-2.7  c0.8-2.5,2.6-3.8,5.3-3.6c2.6,0.1,4.3,1.8,4.7,4.4C611.6,170.6,611.6,171.4,611.6,172.2L611.6,172.2z"></path>	<path class="st1" d="M509.4,172.7c4.5-6.6,10.3-8.8,17.5-7.4c6.6,1.4,10.1,5.9,11.5,12.2c0.4,1.7,0.6,3.4,0.6,5.1  c0,6.9,0,13.9,0,20.8c0,0.9,0,1.8-0.2,2.7c-0.6,2.7-2.8,4.4-5.5,4.2c-2.9-0.1-4.9-2-5-5c-0.2-4.7,0-9.4-0.1-14.1  c0-2.8,0.2-5.6-0.2-8.4c-0.1-0.5-0.1-1.1-0.2-1.6c-0.6-3.3-1.9-6.2-5.4-7c-3.8-0.9-7.2,0-9.7,3.1c-2,2.4-2.7,5.2-2.7,8.3  c0,5.9,0,11.7,0,17.6c0,0.8,0,1.6-0.1,2.4c-0.5,2.9-2.7,4.7-5.4,4.6c-2.8-0.1-4.9-1.9-5.2-4.9c-0.1-0.7-0.1-1.4-0.1-2.2  c0-10.4,0-20.9,0-31.4c0-0.6,0-1.3,0-1.9c0.3-2.9,2.2-4.6,5-4.7c2.8-0.1,4.8,1.6,5.2,4.4C509.3,170.6,509.3,171.4,509.4,172.7  L509.4,172.7z"></path>	<path class="st1" d="M567.8,267.4c0.5-0.5,0.7-0.6,0.8-0.8c4.1-5.8,9.8-7.6,16.6-6.3c4.2,0.8,7.4,3.1,9.6,6.9  c1.8,3,2.5,6.4,2.5,9.8c0,7.3,0,14.6,0,21.9c0,0.9,0,1.8-0.3,2.7c-0.8,2.6-2.8,3.9-5.5,3.7c-2.5-0.2-4.4-1.8-4.8-4.3  c-0.2-0.9-0.1-1.8-0.1-2.7c0-5.8,0-11.5,0-17.3c0-1.6-0.1-3.2-0.4-4.8c-0.6-3.2-1.9-5.9-5.3-6.8c-3.6-1-6.8-0.1-9.4,2.6  c-2.4,2.5-3.2,5.6-3.2,8.9c0,5.8,0,11.5,0,17.3c0,0.8,0,1.6-0.1,2.4c-0.4,2.9-2.4,4.7-5.3,4.7c-2.9,0-4.9-1.7-5.4-4.6  c-0.1-0.8-0.1-1.6-0.1-2.4c0-10.4,0-20.7,0-31.1c0-1,0-2,0.2-3c0.6-2.5,2.7-4,5.2-3.8c2.4,0.1,4.3,1.7,4.8,4  C567.8,265.2,567.8,266.1,567.8,267.4L567.8,267.4z"></path>	<path class="st1" d="M664.3,285.5c0-4.7,0-9.4,0-14c0-1.2-0.3-1.8-1.7-1.7c-1.1,0.1-2.2,0.1-3.2,0c-2.7-0.3-4.2-2-4.2-4.4  c0-2.5,1.6-4,4.3-4.2c0.3,0,0.5,0,0.8,0c2.6-0.1,3.9-1.5,3.9-4.2c0-3.1,0-6.1,0.7-9.1c2.2-10.1,9.7-13.5,18.4-12.5  c2.9,0.3,4.4,2.1,4.3,4.6c0,2.1-1.1,3.5-3.2,4.2c-1,0.3-2,0.3-2.9,0.4c-3.3,0.3-5,1.8-6,4.9c-0.5,1.7-0.5,3.4-0.5,5.1  c0,1.8,0,3.6,0,5.4c0,0.9,0.4,1.3,1.3,1.3c1.9,0,3.8-0.1,5.7,0.1c3.4,0.4,5,4.2,3,6.9c-1,1.2-2.4,1.6-3.8,1.7  c-1.5,0.1-3.1,0.1-4.6,0c-1.2-0.1-1.5,0.5-1.5,1.6c0,3.2,0,6.5,0,9.7c0,5.6,0,11.2,0,16.8c0,0.8,0,1.6-0.1,2.4  c-0.5,3.3-2.5,5-5.7,4.9c-3-0.1-4.9-2.1-5-5.3c-0.1-4-0.1-8.1-0.1-12.2C664.3,287,664.3,286.3,664.3,285.5L664.3,285.5z"></path>	<path class="st1" d="M673.4,174.8c-1.2,0-2.1,0-2.9,0c-5,0-10.1,0-15.1,0c-2.6,0-4.1-1.2-4.5-3.4c-0.5-2.4,0.7-4.3,3-5  c1-0.3,2-0.3,3-0.3c7.8,0,15.7,0,23.5,0c1,0,2,0,3,0.2c3.3,0.9,5,3.7,4.2,7c-0.5,2-1.7,3.5-3.1,5c-6.2,6.6-12.5,13.2-18.7,19.9  c-0.6,0.6-1.4,1.1-1.6,2.1c0.6,0.6,1.4,0.3,2,0.3c5.8,0,11.7,0,17.6,0c1.5,0,2.9,0.2,3.9,1.4c1.2,1.3,1.5,2.8,0.9,4.5  c-0.5,1.6-1.7,2.5-3.3,2.8c-0.9,0.1-1.8,0.1-2.7,0.1c-8.4,0-16.8,0-25.1,0c-0.6,0-1.3,0-1.9,0c-4.6-0.3-7-4.1-5.2-8.4  c0.6-1.4,1.6-2.6,2.7-3.7c6.2-6.7,12.4-13.3,18.6-20C672,176.7,672.8,176.1,673.4,174.8L673.4,174.8z"></path>	<path class="st1" d="M792.1,282.2c0-3.2,0-6.5,0-9.7c0-2.7,0.4-2.7-2.6-2.7c-0.9,0-1.8,0-2.7-0.2c-2.1-0.6-3.4-2.3-3.2-4.4  c0.2-2.1,1.5-3.6,3.8-3.9c0.4-0.1,0.9-0.1,1.3-0.1c2.2-0.1,3.3-1.3,3.3-3.6c0-1.6-0.1-3.2,0-4.9c0.2-3,2.2-4.9,5-4.9  c3-0.1,5,1.6,5.4,4.5c0.2,2.3,0.2,4.7,0.2,7c0,1.4,0.5,1.9,1.9,1.9c1.8-0.1,3.6-0.1,5.4,0c2.7,0.1,4.3,1.7,4.3,4.2  c0,2.5-1.5,4.1-4.2,4.4c-1.9,0.2-3.8,0.1-5.7,0.1c-1.2,0-1.8,0.2-1.8,1.6c0.1,6.4,0,12.8,0.1,19.2c0,0.8,0.1,1.6,0.3,2.4  c0.6,2.5,2.1,3.6,4.7,3.4c0.7,0,1.4-0.2,2.2-0.2c1.8,0.1,3.1,0.8,3.8,2.5c0.7,1.7,0.1,3.6-1.4,4.9c-0.9,0.8-2,1.2-3.2,1.4  c-3.3,0.6-6.6,0.5-9.8-0.8c-3.5-1.3-5.5-4-6.5-7.5c-0.5-1.6-0.7-3.3-0.7-5.1C792.1,288.5,792.1,285.3,792.1,282.2L792.1,282.2  L792.1,282.2z"></path>	<path class="st1" d="M568,80.9c0-9.1,0-18.2,0-27.3c0-1,0-2,0.1-3c0.4-3,2.3-4.8,5.2-4.8c2.9-0.1,4.9,1.6,5.4,4.6  c0.1,0.8,0.2,1.6,0.2,2.4c0,18.7,0,37.3,0,55.9c0,0.9-0.1,1.8-0.2,2.7c-0.5,2.6-2.6,4.2-5.2,4.2c-2.8,0-4.8-1.7-5.2-4.5  c-0.2-1-0.2-2-0.2-3C567.9,99,567.9,89.9,568,80.9L568,80.9z"></path>	<path class="st0" d="M275.2,331.6c-0.7-0.9-0.5-1.6-0.5-2.3c-0.6-15.9-1.2-31.8-1.8-47.8c-0.1-3.3-0.2-3,2.8-3  c1.8,0,7.6,0.1,10.4,0c0.5,0,0.9,0.4,0.9,0.9c0,1.8,0.1,5,0.1,5.9c0,3.3,0.1,6.7,0.1,10c0.1,8.5,0.2,17,0.4,25.4  c0,1.3-0.6,2.5-1.6,3.3C282.4,326.6,279.1,329.4,275.2,331.6L275.2,331.6z"></path>	<path class="st0" d="M82.2,330.4c-0.9,0.1-1.5-0.6-2.1-1c-3-2.1-5.9-4.4-9-6.5c-1.1-0.8-1.5-1.6-1.4-2.9c0.5-13,0.9-26.1,1.4-39.2  c0.1-2,0.1-2,2.2-2.1c2.9,0,5.8-0.1,8.6-0.1c2.9,0,2.9-0.3,2.8,2.7c-0.2,5.5-0.4,11-0.7,16.5c-0.4,10.2-0.9,20.3-1.4,30.5  C82.5,329,82.7,329.7,82.2,330.4L82.2,330.4z"></path>	<path class="st1" d="M545.6,77.8c0.8-1.2,1.2-1.9,1.8-2.6c2.6-3.3,5.9-5.2,10.2-4.9c3,0.2,4.7,1.8,4.8,4.4c0.1,3-1.5,5-4.5,5.4  c-0.6,0.1-1.3,0.1-1.9,0.1c-5.5,0.5-9.1,3.8-9.9,9.3c-0.2,1.5-0.3,3.1-0.3,4.6c0,4.7,0,9.4,0,14c0,1,0,2-0.2,3  c-0.4,2.8-2.5,4.5-5.2,4.5c-2.7,0-4.8-1.6-5.3-4.4c-0.2-1-0.2-2-0.2-2.9c0-10.2,0-20.3,0-30.5c0-0.9,0-1.8,0.2-2.7  c0.5-2.8,2.3-4.3,5-4.4c2.7,0,4.5,1.5,5.1,4.2C545.3,75.7,545.4,76.5,545.6,77.8L545.6,77.8z"></path>	<path class="st1" d="M884.7,267.5c0.7-1.1,1.2-1.8,1.7-2.5c2.1-2.8,4.8-4.6,8.3-5.1c1.1-0.1,2.2-0.1,3.2,0.2c2.2,0.6,3.4,2,3.6,4.2  c0.1,2.4-0.9,4.2-2.9,5c-1,0.4-2.1,0.5-3.2,0.6c-5.7,0.2-9.4,3.6-10.3,9.2c-0.2,1.4-0.3,2.9-0.3,4.3c0,4.8,0,9.5,0,14.3  c0,1,0,2-0.2,3c-0.4,2.8-2.4,4.5-5.2,4.5c-2.8,0-4.8-1.5-5.3-4.4c-0.2-1-0.2-2-0.2-3c0-10.2,0-20.4,0-30.5c0-1.1,0-2.2,0.3-3.2  c0.6-2.3,2.5-3.9,4.9-3.9c2.4,0,4.4,1.5,5,3.8C884.4,265,884.5,266,884.7,267.5L884.7,267.5z"></path>	<path class="st1" d="M731.1,77.8c1.2-0.7,1.4-1.7,1.9-2.4c2.5-3.3,5.6-5.3,9.8-5.2c3.4,0.1,5.4,1.8,5.5,4.7c0,2.9-1.9,4.9-5,5.2  c-0.6,0.1-1.3,0-1.9,0.1c-4.8,0.6-8.1,3.4-9.2,8.2c-0.4,1.6-0.5,3.2-0.5,4.8c0,5.5,0,11,0,16.5c0,3.1-1.3,4.9-3.7,5.6  c-3.4,1-6.5-0.8-7-4.3c-0.1-0.7-0.1-1.4-0.1-2.2c0-10.5,0-21.1,0-31.6c0-0.5,0-1.1,0-1.6c0.3-3,2.2-4.9,5-5c3-0.1,5,1.8,5.3,4.9  C731.2,76.2,731.1,76.8,731.1,77.8L731.1,77.8z"></path>	<path class="st1" d="M474.8,187.9c0-5.1,0-10.3,0-15.4c0-0.9,0-1.8,0.2-2.7c0.5-3,2.5-4.6,5.5-4.5c2.8,0.1,4.7,1.7,5.1,4.6  c0.1,0.9,0.1,1.8,0.1,2.7c0,10.1,0,20.2,0,30.3c0,1,0,2-0.2,3c-0.5,2.6-2.4,4.3-5,4.4c-2.7,0.1-4.9-1.5-5.4-4.3  c-0.2-1-0.2-2-0.2-2.9C474.8,198,474.8,193,474.8,187.9L474.8,187.9z"></path>	<path class="st1" d="M603,93.1c0,5.1,0,10.3,0,15.4c0,0.9,0,1.8-0.1,2.7c-0.4,2.6-2.4,4.3-5,4.4c-2.6,0.1-4.7-1.4-5.4-4  c-0.3-1-0.3-1.9-0.3-2.9c0-10.4,0-20.7,0-31.1c0-0.6,0-1.3,0.1-1.9c0.4-3.3,2.5-5.1,5.6-5c3.1,0.1,5.1,2,5.2,5.4  c0.1,4.3,0,8.7,0,13C603,90.4,603,91.7,603,93.1L603,93.1z"></path>	<path class="st1" d="M487.2,151.4c0,3.7-2.9,6.5-6.8,6.5c-4,0.1-7.1-2.8-7-6.6c0-3.6,3.1-6.4,7-6.4  C484.2,145,487.2,147.7,487.2,151.4L487.2,151.4z"></path>	<path class="st1" d="M597.7,50.2c3.9,0.1,6.8,2.8,6.8,6.5c0,3.7-3.1,6.6-7.2,6.5c-3.8-0.1-6.8-3.1-6.7-6.7  C590.8,53,593.8,50.2,597.7,50.2L597.7,50.2z"></path>	<path class="st0" d="M101.3,119.7c0-2.6,0-5.2,0-7.8c0-0.9,0.2-1.6,1.3-1.5c4.9,0.2,9.9-0.4,14.8,0.4c0.6,0.1,1.2,0.2,1.8,0.4  c4.2,1.2,6.2,3.5,6.4,7.3c0.3,4.4-1.5,7.4-5.4,9.1c-2.6,1.1-5.4,1.3-8.2,1.4c-3,0.1-5.9,0.1-8.9,0c-1.9,0-1.9-0.1-1.9-2  C101.3,124.6,101.3,122.2,101.3,119.7L101.3,119.7z"></path>	<path class="st0" d="M108.1,100.6c-1.8,0-3.6,0-5.4,0c-1,0-1.4-0.4-1.4-1.4c0-4.6,0-9.2,0-13.8c0-1,0.4-1.5,1.4-1.5  c4.3,0.1,8.6-0.2,12.9,0.4c0.6,0.1,1.2,0.3,1.8,0.4c3.5,1,5.3,3,5.6,6.1c0.4,3.6-1.1,6.5-4.1,8.1c-2,1.1-4.2,1.5-6.5,1.5  C111,100.6,109.6,100.6,108.1,100.6L108.1,100.6L108.1,100.6z"></path></g></svg>