<svg xmlns="http://www.w3.org/2000/svg" xmlns:xlink="http://www.w3.org/1999/xlink" id="Ebene_1" x="0px" y="0px" viewBox="0 0 195 97.5" style="enable-background:new 0 0 195 97.5;" xml:space="preserve">
<style type="text/css">
	.st0{fill-rule:evenodd;clip-rule:evenodd;fill:#637423;}
	.st1{fill:#637423;}
</style>
<path class="st0" d="M167.16,59.31c0,0-0.7-0.92-1.78-1.92c-0.83-0.78-3.28-2.04-4.27-5.12c-0.81-2.52-0.24-6.91-0.05-8.93  c0.31-3.26,0.17-5.14,0.17-5.14s4.29,2.46,6.34,5.27c1.61,2.2,2.05,5.12,2.02,7.03c-0.06,4.6-1.38,8.56-1.38,8.56  s-0.41-3.59-0.81-5.35c-0.47-2.08-1.96-3.29-2.36-4.96c-0.38-1.58-1.29-6.01-1.29-6.01s0.02,4.74,0.18,6.01  c0.18,1.46,0.83,2.67,1.57,4.24C167.09,56.29,167.16,59.31,167.16,59.31z M167.85,64.81c0,0,3.1-0.64,5.37,0.11  c2.26,0.75,5.11,2.02,7.51,1.9c2.41-0.11,4.71-0.4,6.42-0.41c1.71-0.01,3.45,0.31,3.45,0.31s-2.95-5.06-7.82-6.34  c-1.41-0.37-3.76-0.33-5.17-0.22c-4.11,0.32-5.82,1.85-5.82,1.85s4.21-1.23,8.31-0.93s5.35,2.59,5.35,2.59s-4.09,0.44-7.19,0.17  c-3.1-0.26-5.13-0.38-6.39-0.16C170.63,63.89,167.85,64.81,167.85,64.81z M173.51,57.11c0.03-0.03,0.06-0.06,0.09-0.09  c2.18-2.09,9.22-5.92,11.37-8.27c3.79-4.14,5.55-12.87,5.55-12.87s-3.86,7.29-7.43,11.13c-3.57,3.84-9.75,7.52-9.75,7.52  s2.22-4.04,2.7-5.78c0.49-1.74,1.17-4.47,3.38-7.4c2.22-2.94,7.48-5.71,10.15-8.17s3.55-4.16,3.55-4.16s0.93,8.64-0.02,13.53  c-0.95,4.89-3.58,9.14-7.09,11.58c-3.36,2.33-11.92,3.68-12.67,3.79c-1.98,1.78-8.23,6.92-18.11,10.62  c-5.96,2.23-13.22,3.91-21.64,4.03c-4.95,0.06-9.42-0.09-13.63-0.41c-7.17-0.54-13.57-1.52-20.24-2.65  c-5.22-0.89-10.61-1.87-16.68-2.78c-5.02-0.75-10.5-1.47-16.74-2.05c-8.14-0.76-17.56-1.32-28.91-1.45  c-7.67-0.1-14.03,0.8-19.18,2.11C6.31,68.38,0.92,73.6,0.92,73.6c-0.09,0.09-0.25,0.09-0.34,0c-0.09-0.09-0.09-0.25,0-0.34  c0,0,5.32-5.5,17.37-8.94c5.2-1.48,11.64-2.56,19.45-2.67c11.42-0.12,20.9,0.2,29.1,0.82c6.3,0.48,11.84,1.12,16.91,1.84  c6.1,0.86,11.51,1.83,16.75,2.75c6.6,1.16,12.92,2.25,20.01,2.93c4.15,0.39,8.56,0.66,13.44,0.72c8.22,0.12,15.35-1.33,21.23-3.32  C165.76,63.7,172.37,58.12,173.51,57.11z"></path>
<g>
	<path class="st1" d="M20.39,88.32V77.53h1.97c1.13,0,2.04,0.12,2.72,0.53c0.81,0.48,1.29,1.32,1.29,2.25c0,0.86-0.39,1.5-1.13,2.07   c1.26,0.6,1.89,1.47,1.89,2.78c0,0.89-0.3,1.62-0.93,2.22c-0.72,0.71-1.5,0.93-2.6,0.93H20.39z M22.45,79.49v2.27h0.45   c0.96,0,1.46-0.42,1.46-1.17c0-0.69-0.47-1.1-1.38-1.1H22.45z M22.45,83.59v2.78h0.69c1.29,0,1.98-0.36,1.98-1.28   c0-0.95-0.72-1.5-2.16-1.5H22.45z"></path>
	<path class="st1" d="M30.81,77.53h5.89v2.01h-3.83v1.92h3.83v2.01h-3.83v2.83h3.83v2.01h-5.89V77.53z"></path>
	<path class="st1" d="M41.08,85.21c0.5,0.93,1.07,1.41,1.79,1.41c0.69,0,1.25-0.45,1.25-1.01c0-0.39-0.26-0.84-0.69-1.2   c-2.24-1.88-3.56-2.9-3.56-4.43s1.34-2.72,2.96-2.72c1.37,0,2.27,0.74,3.13,1.73l-1.53,1.35c-0.51-0.72-1.04-1.11-1.62-1.11   c-0.54,0-0.92,0.32-0.92,0.75c0,0.42,0.32,0.69,0.63,0.96c2.01,1.77,3.62,2.62,3.62,4.58c0,1.8-1.35,3.07-3.31,3.07   c-1.58,0-2.68-0.77-3.47-2.34L41.08,85.21z"></path>
	<path class="st1" d="M48.72,77.53h5.97v2.01H52.7v8.78h-2.06v-8.78h-1.92V77.53z"></path>
	<path class="st1" d="M60.02,77.53h2.07l4.16,10.79h-2.13l-0.84-2.22h-4.4l-0.89,2.22h-2.13L60.02,77.53z M61.07,80.39l-1.43,3.7   h2.86L61.07,80.39z"></path>
	<path class="st1" d="M67.37,77.53h5.97v2.01h-1.98v8.78h-2.06v-8.78h-1.92V77.53z"></path>
	<path class="st1" d="M75.36,77.53h5.97v2.01h-1.98v8.78h-2.06v-8.78h-1.92V77.53z"></path>
	<path class="st1" d="M84.35,77.53h2.06v7.3c0,1.17,0.57,1.77,1.56,1.77c0.59,0,1.11-0.24,1.37-0.65c0.23-0.35,0.26-0.84,0.26-1.41   v-7.02h2.06v6.87c0,1.19-0.06,2.09-0.87,3.04c-0.69,0.8-1.59,1.14-2.77,1.14c-1.11,0-2-0.32-2.68-1.02   c-0.87-0.9-0.99-1.88-0.99-3.28V77.53z"></path>
	<path class="st1" d="M95.72,77.53h1.97l4.63,7.09v-7.09h2.06v10.79h-1.98l-4.61-7.08v7.08h-2.06V77.53z"></path>
	<path class="st1" d="M119.26,82.84c0,1.46-0.21,2.68-1.29,3.95c-1.05,1.23-2.36,1.8-4.07,1.8c-3.59,0-5.85-2.66-5.85-5.73   c0-3.04,2.37-5.59,5.79-5.59c2.13,0,3.5,0.75,4.66,2.01l-1.44,1.43c-0.92-0.96-1.92-1.47-3.2-1.47c-2.16,0-3.73,1.65-3.73,3.65   c0,2.09,1.7,3.73,3.86,3.73c1.43,0,2.38-0.59,2.96-1.83h-3.13v-1.95H119.26z"></path>
	<path class="st1" d="M123.63,85.21c0.5,0.93,1.07,1.41,1.79,1.41c0.69,0,1.25-0.45,1.25-1.01c0-0.39-0.26-0.84-0.69-1.2   c-2.24-1.88-3.56-2.9-3.56-4.43s1.34-2.72,2.96-2.72c1.37,0,2.27,0.74,3.13,1.73l-1.53,1.35c-0.51-0.72-1.04-1.11-1.62-1.11   c-0.54,0-0.92,0.32-0.92,0.75c0,0.42,0.32,0.69,0.63,0.96c2.01,1.77,3.62,2.62,3.62,4.58c0,1.8-1.35,3.07-3.31,3.07   c-1.58,0-2.67-0.77-3.47-2.34L123.63,85.21z"></path>
	<path class="st1" d="M132.34,77.53h2.06v4.06h3.64v-4.06h2.06v10.79h-2.06V83.6h-3.64v4.72h-2.06V77.53z"></path>
	<path class="st1" d="M147.52,77.53h2.07l4.16,10.79h-2.13l-0.84-2.22h-4.4l-0.89,2.22h-2.13L147.52,77.53z M148.57,80.39l-1.43,3.7   H150L148.57,80.39z"></path>
	<path class="st1" d="M156.58,77.53h2.06v7.3c0,1.17,0.57,1.77,1.56,1.77c0.59,0,1.11-0.24,1.37-0.65c0.23-0.35,0.25-0.84,0.25-1.41   v-7.02h2.06v6.87c0,1.19-0.06,2.09-0.87,3.04c-0.69,0.8-1.59,1.14-2.77,1.14c-1.11,0-2-0.32-2.67-1.02   c-0.87-0.9-0.99-1.88-0.99-3.28V77.53z"></path>
	<path class="st1" d="M168.75,85.21c0.5,0.93,1.07,1.41,1.79,1.41c0.69,0,1.25-0.45,1.25-1.01c0-0.39-0.26-0.84-0.69-1.2   c-2.24-1.88-3.56-2.9-3.56-4.43s1.34-2.72,2.96-2.72c1.37,0,2.27,0.74,3.13,1.73l-1.53,1.35c-0.51-0.72-1.04-1.11-1.62-1.11   c-0.54,0-0.92,0.32-0.92,0.75c0,0.42,0.32,0.69,0.63,0.96c2.01,1.77,3.62,2.62,3.62,4.58c0,1.8-1.35,3.07-3.31,3.07   c-1.58,0-2.67-0.77-3.47-2.34L168.75,85.21z"></path>
</g>
<g>
	<g>
		<path class="st1" d="M104.89,42.41c0.09-0.09,0.25-0.14,0.46-0.14c0.21,0,0.27,0.12,0.17,0.35c-0.98,1.58-2.12,2.83-3.43,3.74    c-1.31,0.91-2.71,1.36-4.2,1.36c-2.05,0-3.8-0.59-5.25-1.78c-1.45-1.19-2.69-2.77-3.74-4.76c-1.05-1.98-1.92-4.28-2.62-6.89    c-0.7-2.61-1.35-5.34-1.96-8.18c0-0.33,0.09-0.51,0.28-0.56c0.23-0.14,0.66-0.29,1.29-0.45c0.63-0.16,1.2-0.34,1.71-0.52    c0.14-0.05,0.36-0.04,0.66,0.03c0.3,0.07,0.68,0.14,1.12,0.21c0.44,0.07,0.97,0.12,1.57,0.14c0.61,0.02,1.3-0.06,2.1-0.24    c2-0.47,3.57-1.5,4.69-3.11c1.12-1.61,1.68-3.79,1.68-6.54c0-1.35-0.22-2.63-0.66-3.85c-0.44-1.21-1.1-2.27-1.96-3.18    c-0.86-0.91-1.94-1.65-3.22-2.24c-1.28-0.58-2.79-0.94-4.51-1.08c-1.21,1.54-2.3,3.45-3.25,5.74c-0.96,2.29-1.83,4.92-2.62,7.9    c-1.4,5.13-3.02,9.55-4.86,13.25c-1.84,3.71-3.88,6.75-6.12,9.13s-4.66,4.14-7.27,5.28c-2.61,1.14-5.34,1.71-8.18,1.71    c-3.22,0-5.56-0.73-7.03-2.2c-1.47-1.47-2.2-3.39-2.2-5.77c0-2.14,0.62-4.03,1.85-5.67c1.23-1.63,2.74-2.77,4.51-3.43    c0.47-0.19,0.61-0.02,0.42,0.49c-2.7,1.45-4.06,3.59-4.06,6.43c0,2.29,0.72,4.12,2.17,5.49c1.44,1.38,3.61,2.06,6.5,2.06    c2.33,0,4.37-0.27,6.12-0.8c1.75-0.54,3.35-1.63,4.79-3.29c1.44-1.65,2.81-4.02,4.09-7.1c1.28-3.08,2.62-7.16,4.02-12.24    c2.1-7.74,5.01-13.41,8.74-17c-4.34,0.14-8.06,0.97-11.16,2.48c-3.1,1.52-5.77,3.88-8.01,7.1c-0.19,0.09-0.35,0.09-0.49,0    c-0.14-0.09-0.16-0.26-0.07-0.49c2.19-3.22,5.13-5.82,8.81-7.8c3.68-1.98,8.14-3.09,13.36-3.32c1.72-1.17,3.64-2.03,5.74-2.59    c0.23,0,0.35,0.08,0.35,0.24c0,0.16-0.12,0.29-0.35,0.38c-1.26,0.33-2.5,0.98-3.71,1.96c1.96,0,3.71,0.3,5.25,0.91    c1.54,0.61,2.84,1.42,3.92,2.45c1.07,1.03,1.89,2.19,2.45,3.5c0.56,1.31,0.84,2.66,0.84,4.06c0,1.96-0.36,3.73-1.08,5.32    c-0.72,1.59-1.75,2.94-3.08,4.06s-2.94,1.95-4.83,2.48c-1.89,0.54-4,0.69-6.33,0.45c0.7,3.64,1.47,6.68,2.31,9.13    c0.84,2.45,1.76,4.4,2.76,5.84c1,1.45,2.12,2.47,3.36,3.08c1.23,0.61,2.58,0.91,4.02,0.91C102.35,44.86,103.72,44.05,104.89,42.41    z"></path>
	</g>
	<g>
		<path class="st1" d="M118.81,39.18c-0.7,3.92-1.83,7.39-3.39,10.42c-1.56,3.03-3.45,5.57-5.67,7.62c-2.22,2.05-4.71,3.6-7.48,4.65    c-2.78,1.05-5.72,1.57-8.85,1.57c-3.54,0-6.27-0.75-8.18-2.24c-1.91-1.49-2.87-3.43-2.87-5.81c0-1.91,0.64-3.68,1.92-5.32    c1.28-1.63,3.04-2.82,5.28-3.57c0.23-0.05,0.4,0,0.49,0.14c0.09,0.14,0.09,0.33,0,0.56c-1.21,0.65-2.16,1.56-2.83,2.73    c-0.68,1.17-1.01,2.5-1.01,3.99c0,2.24,0.78,4.06,2.34,5.46c1.56,1.4,3.79,2.1,6.68,2.1c2.8,0,5.25-0.36,7.34-1.08    c2.1-0.72,3.89-1.86,5.39-3.43c1.49-1.56,2.74-3.61,3.74-6.16c1-2.54,1.83-5.63,2.48-9.27c0.56-3.22,1.19-5.91,1.89-8.08    c0.7-2.17,1.45-3.97,2.24-5.42c0.79-1.44,1.64-2.59,2.55-3.43c0.91-0.84,1.88-1.52,2.9-2.03c-1.21-0.47-2.63-0.85-4.27-1.15    c-1.63-0.3-3.43-0.45-5.39-0.45c-2.89,0-5.41,0.48-7.55,1.43c-2.15,0.96-3.86,2.29-5.14,3.99c-1.28,1.7-2.13,3.71-2.55,6.02    c-0.42,2.31-0.35,4.82,0.21,7.52c-0.05,0.23-0.16,0.38-0.35,0.45c-0.19,0.07-0.33,0.01-0.42-0.17c-0.65-2.89-0.7-5.67-0.14-8.32    s1.64-4.99,3.25-6.99c1.61-2,3.74-3.6,6.4-4.79s5.78-1.78,9.37-1.78c1.91,0,3.78,0.22,5.6,0.66c1.82,0.44,3.45,0.97,4.9,1.57    c0.19,0.28,0.19,0.54,0,0.77c-0.19,0.23-0.65,0.49-1.4,0.77c-0.98,0.42-1.83,1-2.55,1.75c-0.72,0.75-1.36,1.77-1.92,3.08    c-0.56,1.31-1.07,2.96-1.54,4.97C119.82,33.92,119.33,36.34,118.81,39.18z M124.41,36.46c1.02,3.64,2.04,6.92,3.04,9.86    c1,2.94,2.12,5.45,3.36,7.52c1.24,2.08,2.6,3.66,4.09,4.76c1.49,1.1,3.24,1.64,5.25,1.64c1.07,0,2.03-0.27,2.87-0.8    c0.84-0.54,1.51-1.22,2.03-2.06c0.14-0.14,0.29-0.13,0.46,0.04c0.16,0.16,0.2,0.36,0.1,0.59c-0.84,1.59-1.99,2.89-3.46,3.92    c-1.47,1.03-3.11,1.54-4.93,1.54c-2.15,0-4.03-0.64-5.67-1.92c-1.63-1.28-3.09-3.02-4.37-5.21c-1.28-2.19-2.4-4.73-3.36-7.62    c-0.96-2.89-1.83-5.95-2.62-9.16c-0.05-0.23-0.06-0.46-0.04-0.66c0.02-0.21,0.15-0.43,0.38-0.67c2.1-2.7,4.28-5.27,6.54-7.69    c2.26-2.42,4.51-4.53,6.75-6.33c2.24-1.79,4.39-3.22,6.47-4.27c2.08-1.05,4-1.57,5.77-1.57c0.93,0,1.66,0.35,2.17,1.05    c0.51,0.7,0.77,1.54,0.77,2.52c0,0.65-0.08,1.42-0.25,2.31c-0.16,0.89-0.36,1.66-0.59,2.31c-0.37,0.23-0.61,0.16-0.7-0.21    c0.23-1.12,0.07-2.09-0.49-2.9c-0.56-0.82-1.61-1.22-3.15-1.22c-2.98,0-6.25,1.26-9.79,3.78    C131.5,28.48,127.95,31.98,124.41,36.46z"></path>
	</g>
</g>
</svg>