<svg xmlns="http://www.w3.org/2000/svg" width="216" height="48" viewBox="0 0 216 48" fill="none"><g clip-path="url(#clip0)"><path d="M0.376221 30.8148V0H29.015V7.91919H8.65085V30.8148H0.376221ZM11.3911 19.0707V12.0673H28.7464V19.0168H11.3911V19.0707Z" fill="#955C61"></path><path d="M57.5462 30.8148L51.3671 23.0034H44.1134V15.7845H54.6985C55.8268 15.7845 56.7403 15.4074 57.4925 14.7071C58.191 14.0067 58.5671 13.037 58.5671 11.8519C58.5671 10.6667 58.191 9.69697 57.4925 8.99663C56.7403 8.2963 55.8268 7.91919 54.6985 7.91919H41.7492V30.8148H33.5283V0H54.6985C56.4716 0 58.0835 0.26936 59.588 0.808081C61.0925 1.3468 62.3283 2.15488 63.4567 3.17845C64.5313 4.20202 65.391 5.38721 65.9821 6.84175C66.5731 8.24242 66.8955 9.80471 66.8955 11.5286C66.8955 13.899 66.3044 15.9461 65.1761 17.7239C64.0477 19.5017 62.4895 20.8485 60.6089 21.7643L68.3462 30.8148H57.5462Z" fill="#955C61"></path><path d="M71.1941 30.8148V0H100.693V7.91919H79.4687V22.8418H100.746V30.8148H71.1941ZM82.209 18.6397V12.0673H100.37V18.6397H82.209Z" fill="#955C61"></path><path d="M105.582 30.8148V0H113.857V30.8148H105.582Z" fill="#955C61"></path><path d="M128.687 30.8148V7.91919H117.403V0H148.299V7.91919H137.015V30.8148H128.687Z" fill="#955C61"></path><path d="M175.379 30.8148L172.8 26.0741H158.4L161.892 19.5017H169.307L164.042 9.58923L152.812 30.8148H143.677L159.367 2.26263C160.227 0.754209 161.463 0 163.075 0H164.955C166.567 0 167.803 0.754209 168.663 2.26263L184.352 30.8148H175.379Z" fill="#955C61"></path><path d="M199.397 30.8149C197.033 30.8149 194.884 30.4377 192.896 29.6835C190.907 28.9293 189.188 27.9058 187.791 26.559C186.34 25.2122 185.212 23.596 184.406 21.7105C183.6 19.825 183.17 17.7239 183.17 15.4074C183.17 13.0909 183.6 10.9899 184.406 9.10442C185.212 7.21889 186.34 5.60273 187.791 4.25593C189.242 2.90913 190.961 1.83169 192.896 1.07748C194.884 0.323271 197.033 -0.053833 199.397 -0.053833H215.839V7.86536H198.806C197.731 7.86536 196.764 8.02698 195.851 8.40408C194.937 8.78118 194.131 9.26603 193.487 9.96637C192.842 10.6667 192.304 11.4209 191.928 12.3367C191.552 13.2526 191.337 14.2761 191.337 15.3536C191.337 16.4849 191.552 17.4546 191.928 18.3704C192.304 19.2862 192.842 20.0943 193.487 20.7408C194.131 21.3872 194.937 21.8721 195.851 22.2492C196.764 22.6263 197.731 22.7879 198.806 22.7879H207.994V18.5859H198V12.0674H215.839V30.8149H199.397Z" fill="#955C61"></path><path d="M2.95522 48V42.0202H0V39.973H8.00597V42.0202H5.05075V48H2.95522Z" fill="#955C61"></path><path d="M9.13428 48V39.973H11.2835V48H9.13428Z" fill="#955C61"></path><path d="M12.573 48V45.9529H18.5372C18.6984 45.9529 18.8059 45.899 18.9133 45.7912C19.0208 45.6835 19.0745 45.5758 19.0745 45.4141C19.0745 45.2525 19.0208 45.0909 18.9133 44.9832C18.8059 44.8754 18.6984 44.8216 18.5372 44.8216H15.0447C14.6686 44.8216 14.3462 44.7677 14.0238 44.6599C13.7014 44.5522 13.4327 44.3906 13.2178 44.1751C13.0029 43.9596 12.8417 43.6902 12.6805 43.4209C12.573 43.1515 12.4656 42.7744 12.4656 42.4512C12.4656 42.128 12.5193 41.7508 12.6805 41.4815C12.788 41.1583 13.0029 40.9428 13.2178 40.7273C13.4327 40.5118 13.7014 40.3502 14.0238 40.2424C14.3462 40.1347 14.6686 40.0808 15.0447 40.0808H21.1163V42.0202H15.1521C14.9909 42.0202 14.8835 42.0741 14.776 42.1818C14.6686 42.2896 14.6148 42.3973 14.6148 42.5589C14.6148 42.7205 14.6686 42.8822 14.776 42.936C14.8835 43.0438 14.9909 43.0976 15.1521 43.0976H18.6447C19.0208 43.0976 19.3432 43.1515 19.6656 43.2593C19.988 43.367 20.2566 43.5286 20.4715 43.7441C20.6865 43.9596 20.9014 44.229 21.0089 44.4983C21.1163 44.8216 21.2238 45.1448 21.2238 45.468C21.2238 45.8451 21.1701 46.1684 21.0089 46.4916C20.9014 46.8148 20.6865 47.0303 20.4715 47.2458C20.2566 47.4613 19.988 47.6229 19.6656 47.7306C19.3432 47.8384 19.0208 47.8923 18.6447 47.8923H12.573V48Z" fill="#955C61"></path><path d="M26.3285 48C25.7374 48 25.1464 47.8922 24.6628 47.7306C24.1255 47.5151 23.6957 47.2458 23.3195 46.9225C22.9434 46.5993 22.6748 46.1683 22.4598 45.6835C22.2449 45.1986 22.1375 44.6599 22.1375 44.0673C22.1375 43.4747 22.2449 42.936 22.4598 42.4511C22.6748 41.9663 22.9434 41.5353 23.3195 41.2121C23.6957 40.835 24.1255 40.5656 24.6628 40.404C25.2001 40.1885 25.7374 40.1346 26.3285 40.1346H30.2509V42.0202H26.221C25.9524 42.0202 25.6837 42.074 25.4688 42.1818C25.2539 42.2895 25.0389 42.3973 24.8777 42.5589C24.7166 42.7205 24.5554 42.936 24.4479 43.1515C24.3404 43.367 24.2867 43.6363 24.2867 43.9596C24.2867 44.2289 24.3404 44.4983 24.4479 44.7676C24.5554 44.9831 24.6628 45.1986 24.8777 45.3602C25.0389 45.5218 25.2539 45.6835 25.4688 45.7373C25.6837 45.8451 25.9524 45.899 26.221 45.899H30.2509V47.9461H26.3285V48Z" fill="#955C61"></path><path d="M31.594 48V39.973H33.7433V48H31.594ZM37.6119 48V44.8754H34.4955V42.936H37.6119V39.973H39.7612V48H37.6119Z" fill="#955C61"></path><path d="M41.2656 48V39.973H43.4149V45.8989H48.2507V47.9461H41.2656V48Z" fill="#955C61"></path><path d="M49.3792 48V39.973H57.009V42.0202H51.5284V45.8989H57.0627V47.9461H49.3792V48ZM52.2269 44.8215V43.0976H56.9553V44.8215H52.2269Z" fill="#955C61"></path><path d="M64.6926 48L63.0806 45.9528H61.2537V44.0673H63.994C64.2627 44.0673 64.5314 43.9596 64.6926 43.7979C64.8537 43.6363 64.9612 43.367 64.9612 43.0437C64.9612 42.7205 64.8537 42.505 64.6926 42.2895C64.5314 42.1279 64.2627 42.0202 63.994 42.0202H60.609V48H58.4597V39.973H63.9403C64.4239 39.973 64.8 40.0269 65.2299 40.1885C65.606 40.3501 65.9284 40.5117 66.2508 40.7811C66.5194 41.0505 66.7343 41.3737 66.8955 41.7508C67.0567 42.1279 67.1105 42.505 67.1105 42.9899C67.1105 43.5825 66.9493 44.1212 66.6806 44.606C66.412 45.0909 65.9821 45.4141 65.4985 45.6296L67.4866 48H64.6926Z" fill="#955C61"></path><path d="M76.0835 48C75.8149 48 75.6537 47.9461 75.4388 47.7845C75.2776 47.6768 75.1164 47.4613 75.0626 47.1919L73.6119 42.3973L72.1612 47.1919C72 47.7306 71.6776 47.9461 71.1403 47.9461H70.2268C69.9582 47.9461 69.7432 47.8923 69.5821 47.7306C69.4209 47.569 69.2597 47.3535 69.2059 47.0303L67.594 39.9192H69.6895L70.8716 45.0909L72.2686 40.6734C72.4298 40.1886 72.7522 39.9192 73.2895 39.9192H73.9343C74.4716 39.9192 74.794 40.1886 74.9552 40.6734L76.3522 45.1448L77.5343 39.9192H79.6835L78.0716 47.0303C78.0179 47.3535 77.8567 47.6229 77.6955 47.7306C77.5343 47.8923 77.3194 47.9461 76.997 47.9461H76.0835V48Z" fill="#955C61"></path><path d="M80.7046 48V39.973H88.3344V42.0202H82.8538V45.8989H88.3882V47.9461H80.7046V48ZM83.5524 44.8215V43.0976H88.2807V44.8215H83.5524Z" fill="#955C61"></path><path d="M96.018 48L94.4061 45.9528H92.5255V44.0673H95.2658C95.5344 44.0673 95.8031 43.9596 95.9643 43.7979C96.1255 43.6363 96.2329 43.367 96.2329 43.0437C96.2329 42.7205 96.1255 42.505 95.9643 42.2895C95.8031 42.1279 95.5344 42.0202 95.2658 42.0202H91.8807V48H89.7314V39.973H95.212C95.6956 39.973 96.0718 40.0269 96.5016 40.1885C96.8777 40.3501 97.2001 40.5117 97.5225 40.7811C97.7912 41.0505 98.0061 41.3737 98.1673 41.7508C98.3285 42.1279 98.3822 42.505 98.3822 42.9899C98.3822 43.5825 98.221 44.1212 97.9524 44.606C97.6837 45.0909 97.2538 45.4141 96.7703 45.6296L98.7583 48H96.018Z" fill="#955C61"></path><path d="M99.7253 48V39.973H101.875V48H99.7253ZM105.904 48L102.627 44.606C102.519 44.4983 102.466 44.3905 102.412 44.2828C102.358 44.175 102.358 44.0673 102.358 43.9596V43.7441C102.358 43.5286 102.466 43.3131 102.627 43.0976L105.797 39.973H108.537L104.722 43.8518L108.752 48H105.904Z" fill="#955C61"></path><path d="M109.451 48V45.9529H115.415C115.576 45.9529 115.684 45.899 115.791 45.7912C115.898 45.6835 115.952 45.5758 115.952 45.4141C115.952 45.2525 115.898 45.0909 115.791 44.9832C115.684 44.8754 115.576 44.8216 115.415 44.8216H111.922C111.546 44.8216 111.224 44.7677 110.901 44.6599C110.579 44.5522 110.31 44.3906 110.095 44.1751C109.881 43.9596 109.719 43.6902 109.558 43.4209C109.451 43.1515 109.343 42.7744 109.343 42.4512C109.343 42.128 109.397 41.7508 109.558 41.4815C109.666 41.1583 109.881 40.9428 110.095 40.7273C110.31 40.5118 110.579 40.3502 110.901 40.2424C111.224 40.1347 111.546 40.0808 111.922 40.0808H117.994V42.0202H112.03C111.869 42.0202 111.761 42.0741 111.654 42.1818C111.546 42.2896 111.493 42.3973 111.493 42.5589C111.493 42.7205 111.546 42.8822 111.654 42.936C111.761 43.0438 111.869 43.0976 112.03 43.0976H115.522C115.898 43.0976 116.221 43.1515 116.543 43.2593C116.866 43.367 117.134 43.5286 117.349 43.7441C117.564 43.9596 117.779 44.229 117.887 44.4983C117.994 44.8216 118.101 45.1448 118.101 45.468C118.101 45.8451 118.048 46.1684 117.887 46.4916C117.779 46.8148 117.564 47.0303 117.349 47.2458C117.134 47.4613 116.866 47.6229 116.543 47.7306C116.221 47.8384 115.898 47.8923 115.522 47.8923H109.451V48Z" fill="#955C61"></path><path d="M121.809 48V42.0202H118.854V39.973H126.86V42.0202H123.904V48H121.809Z" fill="#955C61"></path><path d="M134.113 48L133.469 46.7609H129.707L130.621 45.037H132.555L131.212 42.4511L128.31 48H125.946L130.03 40.5656C130.245 40.1885 130.567 39.973 130.997 39.973H131.481C131.91 39.973 132.233 40.1885 132.448 40.5656L136.531 48H134.113ZM129.761 39.3804C129.493 39.3804 129.278 39.2727 129.063 39.1111C128.902 38.9495 128.794 38.734 128.794 38.4646C128.794 38.1953 128.902 37.9798 129.063 37.8181C129.224 37.6565 129.439 37.6027 129.761 37.6027H129.922C130.191 37.6027 130.406 37.6565 130.567 37.8181C130.728 37.9798 130.836 38.1953 130.836 38.4646C130.836 38.734 130.728 38.9495 130.567 39.1111C130.406 39.2727 130.191 39.3804 129.922 39.3804H129.761ZM132.394 39.3804C132.125 39.3804 131.91 39.2727 131.696 39.1111C131.534 38.9495 131.427 38.734 131.427 38.4646C131.427 38.1953 131.534 37.9798 131.696 37.8181C131.857 37.6565 132.072 37.6027 132.394 37.6027H132.555C132.824 37.6027 133.039 37.6565 133.254 37.8181C133.415 37.9798 133.522 38.1953 133.522 38.4646C133.522 38.734 133.415 38.9495 133.254 39.1111C133.093 39.2727 132.878 39.3804 132.555 39.3804H132.394Z" fill="#955C61"></path><path d="M138.358 48V42.0202H135.403V39.973H143.409V42.0202H140.454V48H138.358Z" fill="#955C61"></path><path d="M147.116 48V42.0202H144.161V39.973H152.167V42.0202H149.212V48H147.116Z" fill="#955C61"></path><path d="M153.295 48V39.973H160.925V42.0202H155.445V45.8989H160.979V47.9461H153.295V48ZM156.143 44.8215V43.0976H160.872V44.8215H156.143Z" fill="#955C61"></path><path d="M169.791 48C169.522 48 169.254 47.9461 169.093 47.8383C168.931 47.7306 168.77 47.569 168.555 47.2996L164.472 42.8282V48H162.376V40.8888C162.376 40.2963 162.699 39.973 163.343 39.973H163.881C164.042 39.973 164.203 39.973 164.311 40.0269C164.418 40.0808 164.525 40.0808 164.633 40.1346C164.74 40.1885 164.848 40.2424 164.902 40.2963C165.009 40.3501 165.063 40.4579 165.17 40.5656L168.931 44.6599V39.973H171.027V47.1919C171.027 47.7306 170.758 48 170.221 48H169.791Z" fill="#955C61"></path><path d="M180 48C179.409 48 178.818 47.8922 178.334 47.7306C177.797 47.5151 177.367 47.2458 176.991 46.9225C176.615 46.5993 176.346 46.1683 176.131 45.6835C175.917 45.1986 175.809 44.6599 175.809 44.0673C175.809 43.4747 175.917 42.936 176.131 42.4511C176.346 41.9663 176.615 41.5353 176.991 41.2121C177.367 40.835 177.797 40.5656 178.334 40.404C178.872 40.1885 179.409 40.1346 180 40.1346H184.245V42.0202H179.839C179.57 42.0202 179.302 42.074 179.087 42.1818C178.872 42.2895 178.657 42.3973 178.496 42.5589C178.334 42.7205 178.173 42.936 178.066 43.1515C177.958 43.367 177.905 43.6363 177.905 43.9596C177.905 44.2289 177.958 44.4983 178.066 44.7676C178.173 44.9831 178.281 45.1986 178.496 45.3602C178.657 45.5218 178.872 45.6835 179.087 45.7373C179.302 45.8451 179.57 45.899 179.839 45.899H182.203V44.8215H179.624V43.0976H184.245V48H180Z" fill="#955C61"></path><path d="M195.206 48L194.024 42.8282L192.627 47.2457C192.466 47.7306 192.143 48 191.606 48H190.961C190.424 48 190.101 47.7306 189.94 47.2457L188.543 42.7744L187.361 48H185.266L186.878 40.8888C186.931 40.5656 187.039 40.2963 187.254 40.1885C187.415 40.0269 187.684 39.973 187.952 39.973H188.866C189.403 39.973 189.725 40.2424 189.887 40.7272L191.337 45.5218L192.788 40.7272C192.949 40.1885 193.272 39.973 193.809 39.973H194.722C194.991 39.973 195.206 40.0269 195.421 40.1885C195.582 40.3501 195.743 40.5656 195.797 40.8888L197.409 48H195.206Z" fill="#955C61"></path><path d="M198.323 48V39.973H204.072C204.502 39.973 204.878 40.0269 205.146 40.1346C205.469 40.2424 205.684 40.404 205.899 40.5656C206.114 40.7811 206.221 40.9966 206.328 41.2121C206.436 41.4814 206.49 41.7508 206.49 42.0202C206.49 42.4511 206.436 42.7744 206.275 43.0976C206.114 43.367 205.899 43.5825 205.63 43.6902C205.952 43.7979 206.221 44.0134 206.382 44.3367C206.597 44.6599 206.705 45.0909 206.705 45.5757C206.705 46.2761 206.49 46.8686 206.006 47.2996C205.576 47.7306 204.878 47.9461 204.018 47.9461H198.323V48ZM201.17 44.7676V43.0976H203.803C203.964 43.0976 204.125 43.0437 204.233 42.936C204.34 42.8282 204.394 42.6666 204.394 42.505C204.394 42.2895 204.34 42.1818 204.233 42.074C204.125 41.9663 203.964 41.9124 203.803 41.9124H200.472V45.8989H203.911C204.34 45.8989 204.555 45.6835 204.555 45.3064C204.555 45.0909 204.502 44.9293 204.394 44.8215C204.287 44.7138 204.125 44.6599 203.911 44.6599H201.17V44.7676Z" fill="#955C61"></path><path d="M207.886 48V39.973H210.036V48H207.886ZM213.851 48V44.8754H210.734V42.936H213.851V39.973H216V48H213.851Z" fill="#955C61"></path></g><defs><clipPath id="clip0"><rect width="216" height="48" fill="white"></rect></clipPath></defs></svg>