<svg width="160" height="41" viewBox="0 0 160 41" fill="none" xmlns="http://www.w3.org/2000/svg">
<circle cx="20.2603" cy="20.2603" r="20.2603" fill="#EBE197"/>
<path d="M50.2583 7.16162L49.1074 6.95945V5.99528H51.3479C51.6855 5.99528 52.1407 5.97454 52.7136 5.93307C52.8466 5.9227 53.0461 5.91234 53.3121 5.90197C53.5883 5.8916 53.8338 5.88642 54.0487 5.88642C55.9311 5.88642 57.3377 6.36332 58.2687 7.31713C59.2099 8.27094 59.6805 9.62389 59.6805 11.376C59.6805 12.5994 59.4452 13.6879 58.9746 14.6417C58.5142 15.5956 57.8544 16.342 56.995 16.8811C56.1357 17.4099 55.1331 17.6742 53.9873 17.6742C53.6906 17.6742 53.2251 17.6535 52.5909 17.612C51.9975 17.5706 51.5934 17.5498 51.3786 17.5498H49.046V16.6167L50.2583 16.4612V7.16162ZM52.4834 16.5079C52.8313 16.6012 53.3172 16.6479 53.9413 16.6479C54.9643 16.6271 55.7674 16.2124 56.3505 15.4038C56.9336 14.5847 57.2252 13.3614 57.2252 11.7337C57.2252 10.1889 56.9387 8.99666 56.3658 8.15689C55.7929 7.30676 54.9029 6.8817 53.6957 6.8817C53.44 6.8817 53.1944 6.89725 52.9591 6.92835C52.7341 6.95945 52.5755 6.98019 52.4834 6.99055V16.5079Z" fill="white"/>
<path d="M64.6792 17.7209C63.3288 17.7209 62.3211 17.3217 61.6561 16.5234C61.0014 15.7148 60.674 14.6158 60.674 13.2266C60.674 12.2935 60.8428 11.4849 61.1804 10.8006C61.5282 10.1163 62.0142 9.59279 62.6382 9.22993C63.2623 8.86707 63.9835 8.68563 64.8019 8.68563C65.825 8.68563 66.6127 8.96037 67.1651 9.50985C67.7176 10.049 68.004 10.8213 68.0245 11.827C68.0245 12.5112 67.9836 13.0192 67.9017 13.351H62.9144C62.9553 14.2944 63.1753 15.0305 63.5743 15.5593C63.9733 16.0776 64.5411 16.3368 65.2776 16.3368C65.6766 16.3368 66.0858 16.2694 66.5053 16.1347C66.935 15.9999 67.2726 15.8392 67.5181 15.6526L67.9017 16.5079C67.6255 16.8085 67.1754 17.0885 66.5513 17.3477C65.9375 17.5965 65.3134 17.7209 64.6792 17.7209ZM65.8761 12.4179C65.8966 12.1276 65.9068 11.9047 65.9068 11.7492C65.9068 10.3703 65.4516 9.68091 64.5411 9.68091C64.0398 9.68091 63.651 9.88308 63.3748 10.2874C63.0986 10.6917 62.9451 11.4019 62.9144 12.4179H65.8761Z" fill="white"/>
<path d="M69.2491 16.6323L70.2619 16.5079V10.3807L69.2798 10.1008V9.02776L71.6584 8.70119H71.7044L72.088 9.01221V9.35434L72.042 10.614H72.088C72.1597 10.4066 72.3285 10.1526 72.5945 9.85198C72.8604 9.54095 73.1929 9.2714 73.5919 9.04331C74.0011 8.80486 74.441 8.68563 74.9116 8.68563C75.1367 8.68563 75.3311 8.71674 75.4948 8.77894V11.1116C75.1878 10.8939 74.8144 10.785 74.3745 10.785C73.6277 10.785 72.9781 10.9872 72.4256 11.3915V16.4923L74.2057 16.6323V17.5498H69.2491V16.6323Z" fill="white"/>
<path d="M85.3467 17.7209C84.2214 17.7209 83.2495 17.4721 82.431 16.9744C81.6229 16.4664 81.009 15.7718 80.5896 14.8906C80.1701 14.0093 79.9604 13.0141 79.9604 11.9047C79.9604 10.6295 80.2008 9.53577 80.6817 8.62343C81.1727 7.71109 81.8633 7.02166 82.7533 6.55512C83.6433 6.08858 84.6817 5.85532 85.8684 5.85532C86.9836 5.85532 88.2368 6.01601 89.6281 6.3374L89.4593 9.22993H87.9094L87.4951 7.23937C87.3928 7.1357 87.1984 7.04239 86.9119 6.95945C86.6255 6.86614 86.2521 6.81949 85.7917 6.81949C84.7891 6.81949 84.0014 7.23419 83.4285 8.06359C82.8556 8.88262 82.5692 10.0697 82.5692 11.6248C82.5692 13.1488 82.8147 14.3826 83.3057 15.326C83.7968 16.2591 84.5436 16.7256 85.5462 16.7256C85.9554 16.7256 86.339 16.6738 86.6971 16.5701C87.0552 16.4664 87.3263 16.3316 87.5104 16.1658V12.8223L85.8838 12.6667V11.6248H90.5488V12.6667L89.7355 12.8067V16.9278C89.5207 16.9381 89.1319 17.0263 88.5693 17.1921C87.9145 17.3684 87.3518 17.498 86.8812 17.5809C86.4209 17.6742 85.9094 17.7209 85.3467 17.7209Z" fill="white"/>
<path d="M98.4539 17.7053C98.1163 17.7053 97.8708 17.6328 97.7173 17.4876C97.5639 17.3425 97.4872 17.1248 97.4872 16.8345V16.4146C97.2109 16.7567 96.8222 17.0625 96.3209 17.3321C95.8196 17.5913 95.3183 17.7209 94.817 17.7209C93.8349 17.7209 93.1341 17.4669 92.7147 16.9589C92.2953 16.4405 92.0855 15.5904 92.0855 14.4085V10.023L91.3183 9.80532V8.9189L93.927 8.71674H93.9423L94.2493 8.93445V14.4085C94.2493 15.1653 94.3413 15.694 94.5255 15.9947C94.7096 16.2954 95.0523 16.4457 95.5536 16.4457C96.1572 16.4457 96.7199 16.2072 97.2416 15.7303V10.023L96.2135 9.78977V8.9189L98.991 8.71674H99.0217L99.39 8.93445V16.5856H100.249L100.234 17.4721C100.193 17.4824 100.004 17.5239 99.6662 17.5965C99.3286 17.669 98.9245 17.7053 98.4539 17.7053ZM93.6354 7.47264C93.3081 7.47264 93.0523 7.36378 92.8682 7.14607C92.684 6.92835 92.5919 6.65879 92.5919 6.3374C92.5919 5.94344 92.6891 5.62205 92.8835 5.37323C93.0881 5.12441 93.3848 5 93.7735 5C94.1316 5 94.3976 5.10886 94.5715 5.32658C94.7557 5.54429 94.8477 5.81385 94.8477 6.13524C94.8477 6.53957 94.7505 6.86614 94.5562 7.11496C94.372 7.35342 94.0651 7.47264 93.6354 7.47264ZM97.303 7.47264C96.9859 7.47264 96.7352 7.3586 96.5511 7.13051C96.3669 6.90243 96.2749 6.63806 96.2749 6.3374C96.2749 5.94344 96.3721 5.62205 96.5664 5.37323C96.771 5.12441 97.0677 5 97.4565 5C97.8145 5 98.0805 5.10886 98.2544 5.32658C98.4386 5.54429 98.5307 5.81385 98.5307 6.13524C98.5307 6.53957 98.4335 6.86614 98.2391 7.11496C98.0447 7.35342 97.7327 7.47264 97.303 7.47264Z" fill="white"/>
<path d="M103.037 16.2746C103.119 16.399 103.303 16.5183 103.59 16.6323C103.886 16.736 104.183 16.7878 104.48 16.7878C104.961 16.7878 105.319 16.6893 105.554 16.4923C105.799 16.285 105.922 16.0154 105.922 15.6837C105.922 15.3415 105.774 15.0668 105.477 14.8595C105.18 14.6417 104.679 14.3774 103.973 14.0664L103.544 13.8797C102.838 13.5791 102.311 13.2162 101.963 12.7912C101.615 12.3661 101.441 11.8166 101.441 11.1427C101.441 10.6762 101.579 10.2615 101.856 9.89863C102.132 9.5254 102.521 9.23511 103.022 9.02776C103.523 8.82041 104.101 8.71674 104.756 8.71674C105.237 8.71674 105.646 8.74784 105.984 8.81004C106.331 8.87225 106.695 8.95519 107.073 9.05886C107.278 9.13144 107.431 9.17291 107.533 9.18327V11.2205H106.321L105.968 10.0386C105.907 9.93492 105.769 9.84161 105.554 9.75867C105.339 9.67573 105.093 9.63426 104.817 9.63426C104.398 9.63426 104.06 9.72757 103.804 9.91418C103.559 10.0904 103.436 10.3392 103.436 10.6606C103.436 10.9509 103.523 11.1946 103.697 11.3915C103.871 11.5782 104.06 11.7233 104.265 11.827C104.469 11.9307 104.848 12.1017 105.4 12.3402C105.953 12.5786 106.408 12.8067 106.766 13.0244C107.134 13.2421 107.436 13.5272 107.672 13.8797C107.917 14.2219 108.04 14.6417 108.04 15.1394C108.04 15.9066 107.743 16.5286 107.15 17.0055C106.556 17.4824 105.702 17.7209 104.587 17.7209C104.065 17.7209 103.595 17.6742 103.175 17.5809C102.766 17.4876 102.29 17.3632 101.748 17.2077L101.411 17.0988V15.0461H102.684L103.037 16.2746Z" fill="white"/>
<path d="M111.869 17.6898C111.225 17.6898 110.749 17.5395 110.442 17.2388C110.135 16.9381 109.982 16.4612 109.982 15.8081V10.1008H108.984V9.29213C109.066 9.26103 109.215 9.20919 109.429 9.13662C109.644 9.05368 109.808 8.98629 109.92 8.93445C110.094 8.79968 110.243 8.56641 110.366 8.23465C110.458 8.01693 110.626 7.47783 110.872 6.61733H112.1L112.161 8.90335H114.509V10.1008H112.176V14.4707C112.176 15.0513 112.192 15.4608 112.222 15.6992C112.253 15.9377 112.32 16.0932 112.422 16.1658C112.524 16.228 112.703 16.2591 112.959 16.2591C113.215 16.2591 113.481 16.2332 113.757 16.1813C114.033 16.1191 114.263 16.0465 114.447 15.9636L114.739 16.8345C114.453 17.0522 114.033 17.2492 113.481 17.4254C112.928 17.6017 112.391 17.6898 111.869 17.6898Z" fill="white"/>
<path d="M115.555 16.6323L116.568 16.5079V10.3807L115.586 10.1008V9.02776L117.965 8.70119H118.011L118.394 9.01221V9.35434L118.348 10.614H118.394C118.466 10.4066 118.635 10.1526 118.901 9.85198C119.167 9.54095 119.499 9.2714 119.898 9.04331C120.307 8.80486 120.747 8.68563 121.218 8.68563C121.443 8.68563 121.637 8.71674 121.801 8.77894V11.1116C121.494 10.8939 121.121 10.785 120.681 10.785C119.934 10.785 119.284 10.9872 118.732 11.3915V16.4923L120.512 16.6323V17.5498H115.555V16.6323Z" fill="white"/>
<path d="M122.779 13.2421C122.779 12.2676 122.968 11.4382 123.346 10.7539C123.735 10.0697 124.252 9.5565 124.896 9.21438C125.541 8.86188 126.242 8.68563 126.999 8.68563C128.288 8.68563 129.28 9.08997 129.976 9.89863C130.682 10.6969 131.034 11.7855 131.034 13.1644C131.034 14.1493 130.84 14.9891 130.451 15.6837C130.073 16.3679 129.561 16.8811 128.917 17.2232C128.283 17.555 127.582 17.7209 126.814 17.7209C125.536 17.7209 124.543 17.3217 123.837 16.5234C123.132 15.7148 122.779 14.621 122.779 13.2421ZM126.937 16.7101C128.093 16.7101 128.671 15.58 128.671 13.3199C128.671 12.138 128.533 11.2412 128.257 10.6295C127.981 10.0075 127.531 9.69646 126.907 9.69646C125.72 9.69646 125.126 10.8265 125.126 13.0866C125.126 14.2685 125.27 15.1705 125.556 15.7925C125.853 16.4042 126.313 16.7101 126.937 16.7101Z" fill="white"/>
<path d="M131.524 8.9189H135.483V9.80532L134.409 9.99194L135.545 14.1286L135.913 15.8236L136.251 14.113L137.632 8.9189H139.488L141.008 14.113L141.376 15.8236L141.744 14.1286L142.818 10.0075L141.698 9.80532V8.9189H144.982V9.80532L144.2 9.97639L141.867 17.6742H140.102L138.552 12.6356L138.199 10.785L137.923 12.6356L136.496 17.6742H134.716L132.261 9.97639L131.524 9.80532V8.9189Z" fill="white"/>
<path d="M149.184 17.7209C147.834 17.7209 146.826 17.3217 146.161 16.5234C145.507 15.7148 145.179 14.6158 145.179 13.2266C145.179 12.2935 145.348 11.4849 145.686 10.8006C146.033 10.1163 146.519 9.59279 147.143 9.22993C147.768 8.86707 148.489 8.68563 149.307 8.68563C150.33 8.68563 151.118 8.96037 151.67 9.50985C152.223 10.049 152.509 10.8213 152.53 11.827C152.53 12.5112 152.489 13.0192 152.407 13.351H147.42C147.461 14.2944 147.681 15.0305 148.08 15.5593C148.479 16.0776 149.046 16.3368 149.783 16.3368C150.182 16.3368 150.591 16.2694 151.011 16.1347C151.44 15.9999 151.778 15.8392 152.023 15.6526L152.407 16.5079C152.131 16.8085 151.681 17.0885 151.057 17.3477C150.443 17.5965 149.819 17.7209 149.184 17.7209ZM150.381 12.4179C150.402 12.1276 150.412 11.9047 150.412 11.7492C150.412 10.3703 149.957 9.68091 149.046 9.68091C148.545 9.68091 148.156 9.88308 147.88 10.2874C147.604 10.6917 147.45 11.4019 147.42 12.4179H150.381Z" fill="white"/>
<path d="M153.754 16.6323L154.767 16.5079V10.3807L153.785 10.1008V9.02776L156.164 8.70119H156.21L156.593 9.01221V9.35434L156.547 10.614H156.593C156.665 10.4066 156.834 10.1526 157.1 9.85198C157.366 9.54095 157.698 9.2714 158.097 9.04331C158.506 8.80486 158.946 8.68563 159.417 8.68563C159.642 8.68563 159.836 8.71674 160 8.77894V11.1116C159.693 10.8939 159.32 10.785 158.88 10.785C158.133 10.785 157.483 10.9872 156.931 11.3915V16.4923L158.711 16.6323V17.5498H153.754V16.6323Z" fill="white"/>
<path d="M50.2583 24.4407L49 24.2386V23.2744H57.4707L57.6242 26.0892H56.3965L55.8288 24.3785L52.5141 24.2075V28.6085L54.8006 28.5618L55.0922 27.1933H56.0743V31.1433H55.1075L54.8006 29.7437L52.5141 29.6815V33.7404L54.862 33.8959V34.8289H49.0767V33.8959L50.2583 33.7404V24.4407Z" fill="white"/>
<path d="M58.6841 33.9114L59.6969 33.787V27.6598L58.7148 27.3799V26.3069L61.0933 25.9803H61.1394L61.523 26.2913V26.6335L61.477 27.8931H61.523C61.5946 27.6857 61.7634 27.4317 62.0294 27.1311C62.2954 26.8201 62.6279 26.5505 63.0269 26.3224C63.4361 26.084 63.876 25.9647 64.3466 25.9647C64.5717 25.9647 64.766 25.9959 64.9297 26.0581V28.3907C64.6228 28.173 64.2494 28.0642 63.8095 28.0642C63.0627 28.0642 62.4131 28.2663 61.8606 28.6707V33.7715L63.6407 33.9114V34.8289H58.6841V33.9114Z" fill="white"/>
<path d="M67.7334 24.7673C67.3651 24.7673 67.0735 24.6584 66.8587 24.4407C66.6439 24.223 66.5364 23.9431 66.5364 23.601C66.5364 23.207 66.6592 22.8804 66.9047 22.6212C67.1503 22.3621 67.4776 22.2325 67.8869 22.2325C68.2961 22.2325 68.6081 22.3465 68.8229 22.5746C69.0378 22.7923 69.1452 23.067 69.1452 23.3988C69.1452 23.8135 69.0224 24.1453 68.7769 24.3941C68.5314 24.6429 68.1886 24.7673 67.7487 24.7673H67.7334ZM66.9201 27.6598L65.8306 27.3644V26.3224L68.6388 25.9803H68.6695L69.0991 26.2913V33.7715L70.1273 33.8959V34.8289H65.8459V33.8959L66.9201 33.7559V27.6598Z" fill="white"/>
<path d="M75.0943 35C73.7439 35 72.7362 34.6009 72.0713 33.8026C71.4165 32.9939 71.0892 31.8949 71.0892 30.5057C71.0892 29.5726 71.258 28.764 71.5956 28.0797C71.9434 27.3955 72.4293 26.8719 73.0534 26.509C73.6774 26.1462 74.3987 25.9647 75.2171 25.9647C76.2401 25.9647 77.0279 26.2395 77.5803 26.789C78.1327 27.3281 78.4192 28.1004 78.4397 29.1061C78.4397 29.7903 78.3987 30.2984 78.3169 30.6301H73.3296C73.3705 31.5735 73.5905 32.3096 73.9895 32.8384C74.3884 33.3568 74.9562 33.6159 75.6928 33.6159C76.0918 33.6159 76.501 33.5486 76.9204 33.4138C77.3501 33.279 77.6877 33.1183 77.9333 32.9317L78.3169 33.787C78.0407 34.0877 77.5905 34.3676 76.9665 34.6268C76.3527 34.8756 75.7286 35 75.0943 35ZM76.2913 29.697C76.3117 29.4067 76.322 29.1838 76.322 29.0283C76.322 27.6495 75.8667 26.96 74.9562 26.96C74.4549 26.96 74.0662 27.1622 73.79 27.5665C73.5137 27.9709 73.3603 28.681 73.3296 29.697H76.2913Z" fill="white"/>
<path d="M82.8715 35C82.2372 35 81.6694 34.8497 81.1682 34.549C80.6669 34.238 80.2679 33.7611 79.9712 33.1183C79.6745 32.4755 79.5262 31.672 79.5262 30.7079C79.5262 29.837 79.7001 29.0439 80.0479 28.3285C80.406 27.6028 80.9277 27.0274 81.6132 26.6023C82.2986 26.1773 83.1222 25.9647 84.0838 25.9647C84.4726 25.9647 84.8409 26.0062 85.1887 26.0892V23.461L83.6848 23.2433V22.388L86.846 22.0769H86.892L87.3217 22.4035V33.8803H88.1504V34.7667C87.4138 34.9222 86.8051 35 86.3243 35C85.9969 35 85.7616 34.943 85.6184 34.8289C85.4854 34.7253 85.4189 34.5127 85.4189 34.1913V33.7559C85.1529 34.1188 84.7897 34.4194 84.3293 34.6579C83.869 34.886 83.383 35 82.8715 35ZM83.6695 33.7092C84.0071 33.7092 84.3038 33.6419 84.5595 33.5071C84.8255 33.3619 85.0352 33.1909 85.1887 32.9939V27.3333C85.1171 27.2296 84.9636 27.1415 84.7283 27.0689C84.5033 26.9963 84.2577 26.96 83.9917 26.96C83.337 26.96 82.8101 27.2503 82.4111 27.8309C82.0224 28.4011 81.828 29.3186 81.828 30.5835C81.828 31.6409 81.9968 32.4289 82.3344 32.9472C82.672 33.4552 83.117 33.7092 83.6695 33.7092Z" fill="white"/>
<path d="M89.9915 23.461L88.8252 23.2588V22.4191L91.6795 22.0769H91.7255L92.1245 22.3724L92.1398 25.8403L92.0324 27.1933C92.3496 26.903 92.7792 26.6335 93.3214 26.3846C93.8739 26.1358 94.4519 26.0114 95.0555 26.0114C95.7 26.0114 96.2013 26.1358 96.5594 26.3846C96.9174 26.6231 97.1681 26.9911 97.3113 27.4888C97.4545 27.9864 97.5261 28.6499 97.5261 29.4793V33.7559L98.5082 33.8959V34.8289H94.4724V33.8959L95.3624 33.7559V29.4793C95.3624 28.9402 95.3266 28.5203 95.255 28.2197C95.1834 27.919 95.0504 27.6961 94.856 27.551C94.6719 27.4058 94.3956 27.3333 94.0273 27.3333C93.7102 27.3333 93.3828 27.411 93.0452 27.5665C92.7179 27.7117 92.4263 27.8879 92.1705 28.0953V33.7559L93.1066 33.8959V34.8289H89.1321V33.8959L89.9915 33.7715V23.461Z" fill="white"/>
<path d="M99.5505 30.5213C99.5505 29.5467 99.7398 28.7173 100.118 28.0331C100.507 27.3488 101.024 26.8356 101.668 26.4935C102.313 26.141 103.014 25.9647 103.771 25.9647C105.06 25.9647 106.052 26.3691 106.748 27.1777C107.453 27.976 107.806 29.0646 107.806 30.4435C107.806 31.4284 107.612 32.2682 107.223 32.9628C106.845 33.647 106.333 34.1602 105.689 34.5024C105.054 34.8341 104.354 35 103.586 35C102.308 35 101.315 34.6009 100.609 33.8026C99.9035 32.9939 99.5505 31.9001 99.5505 30.5213ZM103.709 33.9892C104.865 33.9892 105.443 32.8591 105.443 30.599C105.443 29.4171 105.305 28.5203 105.029 27.9086C104.753 27.2866 104.303 26.9756 103.678 26.9756C102.492 26.9756 101.898 28.1056 101.898 30.3657C101.898 31.5476 102.042 32.4496 102.328 33.0716C102.625 33.6833 103.085 33.9892 103.709 33.9892Z" fill="white"/>
<path d="M110.26 27.3955H108.971V26.5246L110.26 26.2136V25.5293C110.26 24.8554 110.434 24.2386 110.782 23.6787C111.14 23.1189 111.616 22.6783 112.209 22.3569C112.802 22.0251 113.432 21.8592 114.097 21.8592C114.444 21.8592 114.772 21.9111 115.079 22.0147V24.0053C114.976 23.9016 114.772 23.7979 114.465 23.6943C114.168 23.5906 113.856 23.5388 113.529 23.5388C113.13 23.5388 112.843 23.6424 112.67 23.8498C112.506 24.0468 112.424 24.3889 112.424 24.8762V26.198H114.373V27.3955H112.424V33.7715L114.035 33.8959V34.8289H109.048V33.8959L110.26 33.7559V27.3955Z" fill="white"/>
<path fill-rule="evenodd" clip-rule="evenodd" d="M6.82544 12.9438H33.074V20.4789L33.074 30.642H28.9556V21.5888H27.3402V30.642H23.2219V21.5888H16.6775V30.642H12.5592V21.5888L10.9438 21.5888V30.642H6.82546V21.5888L6.82544 12.9438ZM7.82546 20.5888V29.642H9.94381V20.5888L13.5592 20.5888V29.642H15.6775V20.5888H24.2219V29.642H26.3402V20.5888H29.9556V29.642H32.074V21.6987L32.074 13.9438H7.82544L7.82546 20.5888Z" fill="#3A3A3A"/>
<path fill-rule="evenodd" clip-rule="evenodd" d="M20 5.43933L34.9486 13.023L34.7224 13.9689H5.27754L5.05133 13.023L20 5.43933ZM7.36827 12.9689H32.6317L20 6.56066L7.36827 12.9689Z" fill="#3A3A3A"/>
<path d="M15.9763 14.9527H18.1893V19.3787H15.9763V14.9527Z" fill="#3A3A3A"/>
<path d="M18.7928 14.9527H21.1065V19.3787H18.7928V14.9527Z" fill="#3A3A3A"/>
<path d="M21.71 14.9527H23.923V19.3787H21.71V14.9527Z" fill="#3A3A3A"/>
</svg>
