<svg xmlns="http://www.w3.org/2000/svg" width="261" height="84" viewBox="0 0 261 84" fill="none"><g clip-path="url(#clip0)"><path d="M24.2491 30.6236C24.306 30.4876 24.3327 30.3407 24.3273 30.1933C24.322 30.0458 24.2846 29.9013 24.218 29.7699C24.0907 29.4228 23.9492 29.0756 23.7965 28.7398C23.6887 28.5291 23.6308 28.2962 23.6274 28.0592C23.6239 27.8223 23.675 27.5878 23.7767 27.374C24.4188 25.991 25.0242 24.5882 25.6663 23.2053C26.0737 22.3289 26.515 21.4695 26.9591 20.613C27.1402 20.2687 27.4033 19.9671 27.5956 19.6284C27.7382 19.3786 27.8494 19.112 27.9266 18.8345C28.085 18.2313 28.1359 18.1744 28.747 18.1715H28.9365C29.4259 17.7333 29.4853 17.0817 29.7229 16.524C30.416 14.8963 30.9676 13.2089 31.8983 11.6866C32.8873 10.019 34.0779 8.48116 35.4429 7.10812C36.0851 6.47642 36.648 5.75934 37.2958 5.11625C38.8456 3.6107 40.4949 2.21225 42.2322 0.93048C42.4102 0.777644 42.6187 0.665024 42.8437 0.600224C43.0687 0.535425 43.3049 0.519959 43.5363 0.554873C43.4744 0.653944 43.4064 0.748985 43.3326 0.839426C42.6389 1.60143 41.8063 2.22253 40.88 2.6691C40.6807 2.7756 40.4985 2.91183 40.3397 3.07316C39.7485 3.64227 39.1572 4.21137 38.5801 4.78048C38.3622 4.99766 38.1721 5.24143 38.0144 5.50609C37.4146 6.54186 36.4783 7.27032 35.6692 8.1069C34.6819 9.12845 33.7116 10.1386 33.0921 11.4504C32.6912 12.2345 32.2454 12.9946 31.7569 13.7268C30.6587 15.4973 29.8712 17.4445 29.4287 19.4833C29.0864 21.0171 29.061 22.585 28.846 24.1329C28.7821 24.7018 28.8011 25.2769 28.9026 25.8402C28.9959 26.4952 28.9959 27.1601 28.9026 27.815C28.8149 28.4866 28.9422 29.1268 28.9761 29.7813C28.994 29.8618 29.0053 29.9436 29.0101 30.026C28.8516 31.3435 29.474 32.4646 29.8898 33.6427C30.1133 34.2801 30.2406 34.9545 30.4217 35.6118C30.6423 36.4028 30.8488 37.2024 31.1063 37.9821C31.2165 38.2973 31.3876 38.5874 31.6098 38.8358C32.7583 40.1523 33.9191 41.4584 35.0921 42.7541C35.2826 42.9421 35.5 43.1004 35.7371 43.2236C36.9931 43.9606 38.2463 44.7061 39.525 45.4061C40.4387 45.9098 41.3864 46.3565 42.3256 46.8089C43.1318 47.1959 43.6806 47.7536 43.6155 48.7154C43.5983 48.9644 43.5109 49.2032 43.3637 49.4041C43.0657 49.7708 42.7425 50.1159 42.3963 50.437C42.1134 50.6931 41.4712 50.7215 41.1205 50.5223C40.6254 50.2378 40.4444 49.9276 40.5547 49.424C40.5727 49.3485 40.6055 49.2774 40.6511 49.2149C40.6968 49.1524 40.7544 49.0996 40.8206 49.0597C41.013 48.963 41.1035 49.148 41.1742 49.3016C41.4571 49.8508 41.5646 49.8707 41.9946 49.4439C42.0823 49.3585 42.1671 49.2646 42.2605 49.185C42.3936 49.0829 42.4848 48.9352 42.5166 48.7699C42.5484 48.6046 42.5187 48.4333 42.4331 48.2886C42.2616 47.96 42.0527 47.6525 41.8107 47.3723C41.5674 47.0878 41.3439 47.0878 41.0724 47.3723C40.9222 47.5143 40.7969 47.6807 40.7018 47.8646C40.4444 48.4024 40.2096 48.9516 39.9691 49.4951C39.9419 49.5511 39.9265 49.6121 39.9238 49.6744C39.904 50.2776 40.4302 50.5906 40.648 51.0687C40.7612 51.3163 41.0045 51.3191 41.2138 51.3532C41.8842 51.4557 42.4981 51.1512 43.1459 51.0687C43.3666 51.0402 43.5844 50.9463 43.805 50.9321C44.9988 50.8496 46.1219 49.3614 46.1672 48.263C46.1599 48.038 46.106 47.817 46.0087 47.6142C45.6773 46.8757 45.1397 46.25 44.4613 45.813C43.7099 45.287 42.9246 44.8117 42.1106 44.3902C40.6961 43.6675 39.2619 43.0244 37.8475 42.3272C36.406 41.6313 35.0643 40.7431 33.8587 39.6866C33.3695 39.2706 32.9823 38.7467 32.7272 38.1557C32.5341 37.7458 32.306 37.3535 32.0454 36.9833C31.3071 35.8451 30.764 34.6272 30.6989 33.25C30.6395 31.9923 30.2038 30.8284 29.8135 29.6618C29.3688 28.3234 29.2333 26.9006 29.4174 25.5016C29.5452 24.0855 29.7568 22.6782 30.0511 21.2874C30.6661 18.8668 31.6357 16.5518 32.928 14.4183C33.4938 13.4593 34.0992 12.5289 34.7244 11.6097C34.9481 11.2923 35.2235 11.0152 35.5391 10.7902C35.8969 10.5818 36.165 10.2472 36.2916 9.85121C36.4318 9.37554 36.7436 8.96965 37.1657 8.713C37.5495 8.43799 37.8675 8.08024 38.0964 7.66585C38.276 7.39344 38.4953 7.14978 38.747 6.94308C39.5617 6.13495 40.3793 5.32682 41.2081 4.53008C41.3835 4.36504 41.6212 4.26544 41.8135 4.11463C41.9304 4.02758 42.074 3.98448 42.2192 3.9928C42.3644 4.00111 42.5021 4.06033 42.6084 4.16016C42.8659 4.33373 42.8517 4.66666 42.5575 4.71503C42.0568 4.8004 41.9635 5.14186 41.8644 5.53455C41.6749 6.29146 41.4401 7.03699 41.2789 7.81097C41.0571 8.78267 41.1021 9.79673 41.409 10.7447C41.5602 11.2398 41.5602 11.7691 41.409 12.2642C41.2308 12.9158 41.1601 13.5931 41.0186 14.2561C40.9847 14.4358 40.9014 14.6024 40.7782 14.737C39.7909 15.6959 38.798 16.6606 37.6013 17.3492C37.2527 17.5239 36.8867 17.6613 36.5094 17.7589C36.252 17.8386 36.1162 17.6963 36.1247 17.4345C36.1127 17.1488 36.1317 16.8625 36.1812 16.5809C36.3821 15.7557 36.2576 14.9447 36.1162 14.1309C36.0988 14.0201 36.0492 13.917 35.9737 13.8345C35.8982 13.752 35.8001 13.6937 35.6919 13.6671C35.1968 13.4764 35.1487 13.2915 35.3863 12.8134C35.4882 12.6114 35.6211 12.4264 35.7286 12.2272C35.8359 12.043 35.888 11.8316 35.8786 11.6183C35.79 11.6698 35.7067 11.7299 35.6296 11.7976C35.2817 12.1732 34.9705 12.5915 34.5914 12.9358C34.0058 13.4565 33.9464 14.1081 34.0709 14.7996C34.2124 15.5679 34.416 16.3248 34.566 17.0931C34.6235 17.3738 34.6369 17.6619 34.6056 17.9467C34.3664 19.6409 33.7891 21.269 32.9082 22.7329C32.3783 23.6852 31.7798 24.5973 31.1176 25.4618C30.6395 26.0707 30.4019 26.748 30.6565 27.5447C30.735 27.8901 30.786 28.2412 30.8092 28.5947C30.9314 28.5166 31.046 28.427 31.1515 28.3272C31.8735 27.4839 32.5272 26.5837 33.1063 25.6354C33.611 24.8351 34.1598 24.0637 34.7498 23.3248C35.0978 22.8581 35.4118 22.861 35.6919 23.3646C35.8603 23.693 35.9785 24.0451 36.0426 24.4089C36.1917 24.9418 36.2575 25.4947 36.2378 26.048C36.1228 26.5902 35.9233 27.1107 35.6466 27.5902C35.1232 28.6715 34.2972 29.548 33.6155 30.524C33.078 31.2951 32.3736 31.961 32.1105 32.9114C32.0779 33.0093 32.009 33.0909 31.9181 33.139C31.5617 33.3154 31.5589 33.6199 31.6353 33.9329C31.7871 34.6198 32.0208 35.2857 32.3312 35.9163C32.9974 37.1505 33.8768 38.2557 34.9281 39.1801C35.4863 39.6617 36.0855 40.093 36.7187 40.4691C37.8956 41.1682 39.1252 41.7733 40.3963 42.2789C41.2845 42.6488 42.1445 43.0955 42.9988 43.5394C43.8531 43.9833 44.7867 44.4614 45.6297 44.9992C46.2928 45.3917 46.8147 45.9862 47.1198 46.6967C47.4249 47.4072 47.4975 48.1969 47.327 48.9516C47.0939 49.8788 46.6204 50.7271 45.955 51.4101C45.6721 51.7146 45.3892 52.0163 45.1063 52.3036C44.9565 52.4444 44.8408 52.618 44.7682 52.8109C44.6956 53.0038 44.668 53.2109 44.6877 53.4163C44.7034 54.0996 44.89 54.768 45.2301 55.3598C45.5703 55.9516 46.053 56.4477 46.6339 56.8024C47.4458 57.3146 47.6919 57.9406 47.4175 58.8569C47.2449 59.4488 47.0017 60.0179 46.7867 60.5984C46.5315 61.1857 46.4041 61.8212 46.4133 62.4622C46.4075 62.7019 46.4749 62.9376 46.6064 63.1375C46.7379 63.3375 46.9272 63.4921 47.1488 63.5805C47.3957 63.6542 47.6066 63.8176 47.7404 64.039C47.8743 64.2604 47.9215 64.524 47.873 64.7784C47.7626 66.2012 47.955 67.624 48.1389 69.0297C48.1729 69.4404 48.1814 69.8528 48.1643 70.2646C48.1742 70.5461 48.0856 70.8221 47.914 71.0446C47.7424 71.2671 47.4986 71.4221 47.2252 71.4825C46.9517 71.5799 46.666 71.6383 46.3765 71.6561C45.3131 71.7172 44.2463 71.6743 43.1912 71.528C42.6423 71.4731 42.0891 71.4807 41.542 71.5508C40.8913 71.602 40.2407 71.6931 39.5957 71.7927C39.2313 71.8474 38.8719 71.9312 38.5207 72.0431C37.1063 72.5012 35.6919 72.9764 34.2604 73.4459C34.0285 73.5256 33.7965 73.6053 33.573 73.7077C31.6975 74.5784 29.8389 75.4805 27.9492 76.3171C26.3 77.0484 24.6168 77.7 22.9535 78.3943C22.3339 78.6532 21.7003 78.8496 21.1458 79.2764C20.6988 79.6207 20.1246 79.7943 19.6041 80.039C17.7054 80.9014 15.8545 81.8665 14.0595 82.9301C13.5899 83.2146 13.1146 83.4992 12.6451 83.8008C12.1245 84.1252 11.8699 84.0654 11.4739 83.4935C11.8712 82.9704 12.3487 82.5142 12.8883 82.1418C14.1953 81.3536 15.5984 80.7902 16.9817 80.1699C18.3084 79.5752 19.6126 78.9293 20.9421 78.3203C22.9544 77.3908 24.9686 76.4688 26.9846 75.5545C28.3849 74.9227 29.7937 74.3081 31.2024 73.6935C31.7286 73.463 32.2633 73.2553 32.7951 73.0333C32.9518 72.9898 33.0988 72.9164 33.2279 72.8171C34.1586 71.8297 34.7442 70.6687 34.3595 69.2317C34.3024 69.0932 34.2303 68.9615 34.1445 68.839C33.9691 68.8902 33.8135 68.9244 33.6636 68.9813C32.9026 69.2658 32.1558 69.6073 31.3835 69.8719C29.7229 70.441 28.0482 70.9874 26.382 71.5536C25.3948 71.8866 24.4188 72.2508 23.4344 72.5837C23.0864 72.7004 22.713 72.7402 22.3594 72.8455C21.6578 73.0618 20.9676 73.3122 20.2632 73.5199C18.5178 74.0406 16.7667 74.5471 15.0185 75.0508C14.5847 75.176 14.1491 75.287 13.7115 75.3837C13.5184 75.4098 13.3236 75.4212 13.1288 75.4179C13.0956 75.232 13.1259 75.0403 13.2147 74.8739C13.3036 74.7076 13.4458 74.5764 13.6182 74.5016C14.166 74.1386 14.7422 73.8208 15.341 73.5512C16.7174 72.962 18.1635 72.5536 19.6437 72.3362C19.9103 72.3079 20.1649 72.2098 20.382 72.0516C21.2307 71.3317 22.3028 71.1354 23.3212 70.8849C25.1769 70.4297 26.9676 69.7866 28.7724 69.1776C29.4627 68.9443 30.2123 68.8931 30.928 68.7309C31.651 68.6096 32.358 68.4062 33.0355 68.1248C33.7541 67.7634 34.5066 67.5215 35.2421 67.2199C35.5276 67.1098 35.7912 66.9488 36.02 66.7447C36.3481 66.4345 36.2576 66.113 35.8361 65.9451C35.091 65.6278 34.2551 65.6004 33.491 65.8683C32.2406 66.3207 31.0214 66.8585 29.8135 67.3878C28.514 67.9336 27.1636 68.3473 25.7823 68.6228C24.8064 68.8333 23.8559 69.1776 22.9025 69.4764C21.9492 69.7752 20.9902 70.0797 20.0737 70.4553C19.2589 70.7854 18.4838 71.2093 17.6946 71.5935C16.8318 72.026 15.9973 72.5041 15.0354 72.7004C14.4357 72.8228 13.8219 72.8711 13.2137 72.9451C12.8063 72.9935 12.3989 73.0504 11.9916 73.0589C11.5842 73.0675 11.44 72.9081 11.4258 72.4898C11.426 72.3347 11.4577 72.1812 11.519 72.0387C11.5803 71.8964 11.6699 71.7681 11.7822 71.6618C12.3722 71.0852 13.0743 70.6376 13.8445 70.3471C14.3908 70.1164 14.95 69.9178 15.5192 69.7524C16.9704 69.3398 18.4301 68.9528 19.8898 68.5602C21.5305 68.1191 23.1741 67.7065 24.812 67.2427C25.2021 67.1257 25.5809 66.9733 25.9436 66.7874C27.3891 66.0788 28.9393 65.6919 30.4924 65.3163C30.611 65.2893 30.7273 65.2531 30.8403 65.2081C30.8913 65.1854 30.9224 65.1227 30.9818 65.0545C30.8973 64.9064 30.7816 64.7787 30.6428 64.6803C30.504 64.582 30.3455 64.5155 30.1784 64.4854C29.9119 64.3982 29.6503 64.2966 29.3948 64.1809C28.7114 63.8545 28.0118 63.5639 27.2986 63.3102C26.8801 63.1949 26.4385 63.1949 26.0199 63.3102C25.0101 63.5737 24.014 63.8881 23.0355 64.252C21.9248 64.6796 20.7526 64.9236 19.5645 64.9748C18.6014 65.0141 17.6489 65.1914 16.7356 65.5012C14.9449 66.0703 13.1656 66.6963 11.3607 67.2398C10.5528 67.4661 9.73053 67.6372 8.89963 67.752C8.41236 67.8085 7.92124 67.8237 7.43144 67.7976C7.05238 67.7976 6.90527 67.5984 6.81475 67.0378C6.99982 66.9893 7.18947 66.9607 7.38052 66.9524C8.16172 66.9544 8.93755 66.8226 9.67474 66.5626C11.1061 66.1386 12.5376 65.7089 13.9661 65.285C15.4371 64.8382 16.8968 64.3658 18.3679 63.9333C19.0751 63.7256 19.7993 63.5776 20.5178 63.4126C21.3099 63.2276 22.102 63.037 22.8997 62.8776C23.4004 62.7752 23.9096 62.7325 24.4131 62.65C24.6662 62.6116 24.897 62.4824 25.0628 62.2863C25.2287 62.0902 25.3184 61.8404 25.3156 61.5829C25.3156 61.2756 25.2731 60.9654 25.2533 60.6581C25.2222 60.2142 25.1062 59.8045 25.2533 59.3236C25.4004 58.8427 25.1769 58.6406 24.6649 58.6321C23.5843 58.6179 22.5008 58.5923 21.423 58.6492C20.7979 58.6833 20.1812 58.8939 19.556 58.985C18.9308 59.076 18.3311 59.0902 17.7229 59.1614C17.2759 59.2154 16.8374 59.3093 16.3933 59.3805C16.2123 59.4118 16.0284 59.4374 15.8473 59.463C14.9591 59.5939 14.0708 59.7219 13.1825 59.8557C12.5574 59.9524 11.935 60.0549 11.3098 60.1658C10.6111 60.2882 9.89539 60.402 9.21646 60.5557C8.45744 60.7356 7.67168 60.7713 6.89962 60.661C6.53547 60.5934 6.15951 60.6391 5.82182 60.7919C5.55873 60.9199 5.2815 61.011 5.02973 60.7406C4.91046 60.6228 4.83716 60.4658 4.82314 60.2982C4.80913 60.1306 4.85533 59.9635 4.95335 59.8272C5.10789 59.5409 5.34444 59.3079 5.63228 59.1585C6.23048 58.9545 6.84596 58.8059 7.47105 58.7146C7.89972 58.6595 8.33275 58.6472 8.76384 58.6776C9.94959 58.6755 11.1315 58.5429 12.2886 58.2821C13.2156 58.1273 14.1563 58.072 15.0949 58.1171C16.385 58.1792 17.6779 58.1545 18.9647 58.0431C20.0963 57.9264 21.2278 57.7045 22.3594 57.474C23.473 57.2852 24.6033 57.2156 25.7314 57.2663C26.0589 57.282 26.3869 57.2484 26.7045 57.1667C26.8256 57.1297 26.9346 57.0607 27.0199 56.9667C27.1053 56.8728 27.164 56.7575 27.1897 56.6329C27.2155 56.5083 27.2074 56.379 27.1663 56.2586C27.1253 56.1382 27.0527 56.0312 26.9563 55.9488C26.7466 55.789 26.5006 55.6843 26.2406 55.6443C25.1612 55.4884 24.0612 55.564 23.0129 55.8662C21.6449 56.2141 20.2445 56.4172 18.8346 56.4723C17.6691 56.552 16.5008 56.6118 15.3353 56.6971C13.7455 56.811 12.1557 56.9532 10.5658 57.0614C9.3381 57.1467 8.11037 57.2065 6.8883 57.2634C6.47638 57.2545 6.07036 57.363 5.71715 57.5764C5.5813 57.6557 5.44051 57.726 5.29565 57.787C4.79494 57.3573 4.72987 56.9789 5.16552 56.5919C5.42096 56.3533 5.72939 56.1797 6.0651 56.0854C6.59994 55.945 7.15028 55.8733 7.70302 55.8719C8.86962 55.8627 10.0335 55.7561 11.1825 55.5532C11.8275 55.4565 12.4838 55.4337 13.1316 55.3626C13.7383 55.272 14.3529 55.2482 14.9647 55.2915C15.2496 55.2916 15.5338 55.264 15.8134 55.2089C15.9932 55.1674 16.1785 55.1549 16.3622 55.1719C17.3183 55.411 18.2802 55.2658 19.2363 55.2032C19.9492 55.1549 20.6508 55.0695 21.3693 54.9841C21.8134 54.9301 22.2576 54.839 22.7017 54.765C22.7587 54.7649 22.815 54.7516 22.8661 54.726C22.9172 54.7004 22.9617 54.6634 22.9962 54.6176C23.0307 54.5719 23.0542 54.5188 23.065 54.4624C23.0757 54.4061 23.0734 54.348 23.0581 54.2927C23.0242 54.0679 22.9733 53.8488 22.9223 53.6268C22.7045 52.6622 22.4641 51.6976 22.6762 50.6959C22.7413 50.3858 22.5885 50.2293 22.3113 50.161C22.1725 50.1232 22.0304 50.0994 21.887 50.0898C20.945 50.0898 20.0001 50.0358 19.0581 50.0898C17.7113 50.153 16.3618 50.1263 15.0185 50.0102C14.1217 49.9467 13.2211 50.0559 12.365 50.3317C11.0226 50.7889 9.61238 51.0122 8.19524 50.9919C7.3777 50.9549 6.56581 50.7955 5.74827 50.7557C4.33383 50.6874 2.88828 50.6703 1.45687 50.6134C1.26128 50.5993 1.07379 50.5292 0.916555 50.4114C0.696231 50.2282 0.488318 50.0305 0.294205 49.8195C0.0537508 49.589 0.0961837 49.2902 0.121644 49.0057C0.147534 48.8253 0.184378 48.6466 0.231969 48.4707C0.642155 48.4707 1.00991 48.4423 1.36352 48.4707C2.07639 48.539 2.77795 48.6756 3.49649 48.7211C4.86566 48.8065 6.23766 48.8975 7.60966 48.8947C8.42732 48.8478 9.24154 48.7528 10.0481 48.6101C11.065 48.4801 12.0947 48.4897 13.109 48.6386C13.8162 48.7439 14.5234 48.8378 15.2391 48.9232C15.7257 48.9829 16.2321 49.1195 16.6988 49.0398C17.736 48.9049 18.7832 48.8649 19.8276 48.9203C20.6762 48.9203 21.5447 49.0142 22.4018 49.0768C23.1769 49.1309 23.6776 48.6699 24.317 48.115C23.9002 47.9638 23.4728 47.8439 23.0383 47.7565C21.9831 47.6313 20.9506 47.3041 19.87 47.398C19.2391 47.452 18.6111 47.5289 17.9775 47.5744C17.2108 47.6256 16.4386 47.6455 15.6691 47.6967C14.8544 47.7508 14.0397 47.8219 13.2221 47.8902C12.2245 48.0026 11.2161 47.9739 10.2264 47.8049C9.98116 47.7893 9.73509 47.7951 9.49086 47.8219C8.55312 47.8146 7.61641 47.7576 6.68462 47.6512C5.53327 47.5203 4.34232 47.4264 3.24472 48.0012C3.12013 48.0724 2.97741 48.105 2.83447 48.0949C2.69153 48.0848 2.55475 48.0324 2.44132 47.9443C2.20086 47.7878 1.96041 47.6284 1.71713 47.4776C1.36917 47.2642 1.02971 47.0309 0.661959 46.8516C0.371536 46.725 0.137822 46.495 0.00566101 46.2057C0.0995445 46.1545 0.200668 46.118 0.305521 46.0976C0.572007 46.0937 0.838464 46.107 1.10326 46.1374C3.07001 46.4298 5.05579 46.5734 7.04389 46.5671C8.17544 46.5471 9.28435 46.3736 10.4046 46.2825C10.464 46.2825 10.5262 46.2597 10.5856 46.2569C11.8728 46.1858 13.1656 46.0236 14.447 46.0719C15.3419 46.0902 16.2372 46.0598 17.1288 45.9809C18.1274 45.9097 19.109 46.0179 20.1133 46.0463C20.5228 46.0615 20.9328 46.051 21.341 46.015C21.7851 45.9752 21.9068 45.8045 21.8474 45.3662C21.8327 45.1808 21.7976 44.9976 21.7427 44.8199C21.4873 44.0118 21.3988 43.1596 21.4824 42.3158C21.5148 42.0941 21.5678 41.8759 21.6409 41.6642C21.7088 41.3797 21.7766 41.1236 21.8502 40.8106C21.6391 40.7201 21.4191 40.6524 21.1939 40.6085C20.4612 40.5687 19.7257 40.5687 18.9902 40.5374C18.399 40.5118 17.8021 40.4093 17.2137 40.4406C15.7653 40.5146 14.3197 40.6512 12.8714 40.7537C11.8303 40.8305 10.7865 40.8931 9.74546 40.9671C9.58288 40.9747 9.42206 41.0044 9.26738 41.0553C8.98449 41.1606 8.84022 41.024 8.73555 40.7906C8.63088 40.5573 8.77799 40.3866 8.98167 40.3126C9.66342 40.0593 10.3225 39.7435 11.092 39.7606C12.133 39.7606 13.1769 39.6695 14.2207 39.6297C14.9364 39.6012 15.655 39.6012 16.3735 39.5756C16.5984 39.5835 16.8227 39.5498 17.0355 39.476C17.9067 39.0862 18.8092 39.1915 19.6918 39.3252C21.2505 39.5443 22.8035 39.8687 24.3849 39.7805C24.8431 39.7577 25.2335 39.6581 25.4768 39.1943C25.0766 38.8596 24.5816 38.6604 24.0624 38.6252C23.0496 38.5398 22.0341 38.4146 21.0185 38.4061C19.887 38.4061 18.7271 38.5085 17.5814 38.5398C16.5659 38.5683 15.5164 38.7276 14.5404 38.5398C13.174 38.2695 11.8105 38.3435 10.447 38.2325C10.167 38.181 9.88302 38.1544 9.59836 38.1528C9.15458 38.2009 8.71492 38.2818 8.28293 38.3947C7.99626 38.4894 7.687 38.4894 7.40033 38.3947C7.40441 38.0149 7.55353 37.6512 7.81683 37.3789C8.08013 37.1067 8.43743 36.9467 8.81476 36.9321C9.90104 36.9321 10.9873 36.9321 12.0736 36.9037C12.5008 36.9037 12.9223 36.8183 13.3551 36.7671C14.437 36.6508 15.5297 36.6843 16.6026 36.8667C17.2254 36.98 17.8547 37.0542 18.4867 37.0886C19.2244 37.1009 19.9623 37.0677 20.696 36.989C20.8431 36.9748 20.9959 36.7471 21.0921 36.585C21.3495 36.1496 21.4089 36.1069 21.8672 36.3004C22.2434 36.4541 22.6112 36.6305 22.9987 36.7927C23.1041 36.8568 23.2236 36.894 23.3467 36.9008C23.9351 36.8268 24.5037 37.0943 25.1091 36.9264C25.5786 36.7984 25.9294 37.1854 26.1925 37.5126C26.5613 37.9658 26.7551 38.5377 26.7385 39.1232C26.7484 39.3303 26.7168 39.5374 26.6457 39.7321C26.5746 39.9268 26.4654 40.1052 26.3246 40.2567C26.1837 40.4082 26.0141 40.5297 25.8257 40.6141C25.6373 40.6985 25.434 40.744 25.2279 40.748C24.6451 40.7707 24.0511 40.9244 23.4683 40.6626C23.1854 40.5402 23.0496 40.7679 22.9959 41.0041C22.9525 41.2271 22.9317 41.454 22.9336 41.6813C22.9138 42.5662 22.9167 43.4512 22.894 44.3362C22.8629 45.4175 23.3552 46.0435 24.4245 46.2854C24.7752 45.5626 24.3792 44.578 23.3891 43.8411C23.5503 43.2719 23.6946 42.6488 23.9124 42.0569C23.9747 41.8919 24.2491 41.7723 24.4528 41.7097C24.5009 41.6911 24.5533 41.6862 24.6041 41.6953C24.6549 41.7045 24.7022 41.7275 24.741 41.7618C24.7797 41.796 24.8084 41.8403 24.8239 41.8899C24.8394 41.9394 24.8412 41.9922 24.829 42.0427C24.6197 43.1325 25.1345 44.1085 25.2703 45.1415C25.3777 45.9184 25.6169 46.6711 25.9775 47.3667C26.3255 48.0467 25.9351 49.0996 25.2081 49.4752C24.9572 49.6087 24.7654 49.8321 24.6706 50.1012C24.3252 50.8137 24.242 51.6263 24.4358 52.3947C24.5386 52.8402 24.4815 53.3078 24.2745 53.715C24.1614 53.9711 24.0878 54.2443 23.969 54.5943C24.3368 54.6085 24.6168 54.637 24.8969 54.6284C25.4627 54.6114 26.0058 54.5915 26.5574 54.5374C26.962 54.4976 27.061 54.3325 26.9393 53.9541C26.863 53.7207 26.7272 53.5073 26.6366 53.2797C26.2717 52.3606 25.9096 51.4415 25.5673 50.5167C25.5168 50.3168 25.4921 50.1111 25.4938 49.9049C25.4711 49.6829 25.5758 49.5179 25.7908 49.5207C25.9634 49.5155 26.1311 49.5789 26.2576 49.6971C26.4037 49.9453 26.525 50.2074 26.6197 50.4797C27.1289 51.652 27.6069 52.8358 28.1557 53.9882C28.5035 54.6891 28.8956 55.3668 29.3297 56.0171C29.5027 56.299 29.7355 56.539 30.0115 56.7199C30.9309 57.2748 31.6268 58.1085 32.5094 58.7118C33.4655 59.3463 34.4387 59.9524 35.4118 60.5585C35.5839 60.6417 35.7653 60.7038 35.9521 60.7435C35.9889 60.6268 36.0228 60.5671 36.0087 60.5557C35.6155 60.1516 35.2223 59.7504 34.8177 59.3577C34.7187 59.2581 34.5829 59.1955 34.4783 59.1016C34.0723 58.6637 33.5799 58.3158 33.0327 58.0801C32.9533 58.0584 32.8791 58.0206 32.8148 57.969C32.7504 57.9175 32.6973 57.8531 32.6586 57.7801C32.6199 57.707 32.5964 57.6268 32.5898 57.5443C32.5831 57.4618 32.5933 57.3788 32.6197 57.3004C32.6961 56.8736 32.7838 56.4467 32.8347 56.0171C32.9705 54.8788 33.1176 53.7236 33.2081 52.574C33.2534 52.0447 33.2081 51.5069 33.2081 50.9748C33.2081 50.8126 33.2392 50.6504 33.2392 50.4882C33.2756 50.204 33.2661 49.9157 33.2109 49.6345C32.8092 48.4793 32.928 47.3154 33.0921 46.1488C33.1091 46.0463 33.1261 45.9439 33.1374 45.8415C33.2166 45.2354 33.6126 45.0618 34.1133 45.4232C34.278 45.5466 34.4297 45.6868 34.566 45.8415C35.3835 46.735 36.2265 47.6085 37.0073 48.5362C38.269 50.0358 38.7499 51.8228 38.7753 53.7549C38.7923 54.9917 38.813 56.2305 38.8376 57.4711C38.8545 58.2537 38.8772 59.0362 38.9111 59.8215C38.9483 60.1213 38.8896 60.4251 38.7436 60.6891C38.5977 60.9531 38.372 61.1635 38.0992 61.2898C37.9465 61.3695 37.8418 61.5488 37.6438 61.7593C38.3029 62.0667 38.846 62.3455 39.409 62.576C40.484 63.0228 41.5731 63.4297 42.6509 63.8707C43.3043 64.1325 43.9691 64.087 44.682 64.0415C44.669 63.9077 44.6444 63.7753 44.6084 63.6459C44.1191 62.5077 44.3029 61.4349 44.8602 60.3906C45.0922 59.9524 45.3807 59.537 45.6042 59.1073C45.9408 58.4386 45.8503 58.1171 45.2421 57.6845C44.5387 57.1759 44.0098 56.46 43.7287 55.6358C43.491 54.9984 43.2761 54.3553 43.0526 53.7122C42.8857 53.2427 42.8489 53.2199 42.334 53.2341C42.0879 53.2341 41.839 53.2341 41.5957 53.2597C40.5915 53.3622 39.9493 52.8102 39.5108 52.0162C39.1506 51.3971 38.9577 50.694 38.9513 49.9767C38.9448 49.2593 39.125 48.5528 39.474 47.9272C39.6127 47.6597 39.8418 47.3581 39.822 47.1049C39.7937 46.7406 39.3326 46.8203 39.0724 46.6752C38.4896 46.3764 37.8786 46.1374 37.3128 45.8215C36.7802 45.518 36.2772 45.1645 35.8107 44.7659C34.6791 43.7785 33.5872 42.7541 32.4783 41.7439C31.6296 40.9728 31.2081 39.9398 30.7187 38.9382C29.9238 37.302 29.3863 35.5719 28.8064 33.8532C28.4813 32.9639 28.2176 32.0531 28.0171 31.1272C27.7302 29.5539 27.6154 27.9537 27.6748 26.3553C27.7069 25.0347 27.8498 23.7192 28.102 22.4228C28.2519 21.6772 28.4103 20.9317 28.549 20.1833C28.58 19.9245 28.598 19.6643 28.6027 19.4037C28.2535 19.6818 27.9913 20.0552 27.8474 20.4793C27.093 22.3763 26.3547 24.2733 25.6324 26.1703C25.57 26.3987 25.5265 26.6319 25.5023 26.8675C25.8672 26.802 26.1444 26.7309 26.4216 26.7081C26.829 26.6768 26.9535 26.7878 26.9337 27.2004C26.9054 27.8378 26.846 28.4752 26.7951 29.1126C26.746 29.5553 26.7856 30.0035 26.9114 30.4306C27.0372 30.8577 27.2468 31.2552 27.5277 31.5996C27.5839 31.659 27.6315 31.7261 27.6692 31.7988C27.7168 31.9352 27.724 32.0826 27.6899 32.2231C27.6557 32.3635 27.5817 32.4909 27.4768 32.5898C27.3747 32.6624 27.2492 32.6939 27.1251 32.6781C27.001 32.6623 26.8873 32.6003 26.8064 32.5045C26.7526 32.4475 26.6876 32.3992 26.6197 32.3394C26.5546 32.3679 26.4782 32.3736 26.4528 32.4134C26.0454 33.0707 25.4174 33.4549 24.7696 33.8162C24.6766 33.8605 24.5876 33.9129 24.5037 33.9728C23.9577 34.4138 23.9379 34.4764 24.1755 34.9915C24.4584 35.589 24.2151 36.0927 23.7851 36.6675C23.6824 36.5139 23.5961 36.3498 23.5277 36.178C23.4513 35.8366 23.4117 35.4866 23.3467 35.1423C23.3409 34.9861 23.2844 34.8361 23.1858 34.7153C23.0872 34.5945 22.9519 34.5096 22.8007 34.4736C22.7022 34.442 22.6115 34.3896 22.5348 34.3199C22.2315 34.0789 21.8602 33.9404 21.474 33.9244C21.1493 33.8832 20.8364 33.7757 20.5546 33.6085C20.3895 33.5053 20.2555 33.3587 20.167 33.1845C20.0482 32.9569 20.167 32.7748 20.4329 32.7634C21.7993 32.6923 23.1656 32.6211 24.5348 32.5784C25.2165 32.5585 25.4938 32.3963 25.7173 31.7447C25.4825 31.426 25.1685 31.5654 24.8686 31.6138C24.2236 31.7219 23.5843 31.85 22.9393 31.9382C22.7377 31.9803 22.5279 31.9512 22.3452 31.8557C22.1776 31.7524 21.9909 31.6845 21.7963 31.6561C21.6018 31.6277 21.4036 31.6395 21.2137 31.6906C20.739 31.7916 20.2485 31.7916 19.7738 31.6906C19.2476 31.5597 18.6734 31.628 18.1217 31.5882C17.8979 31.5695 17.6779 31.5187 17.4683 31.4374C17.3711 31.3992 17.2928 31.324 17.2504 31.2281C17.208 31.1322 17.205 31.0233 17.242 30.9252C17.2901 30.6976 17.4485 30.6549 17.6522 30.6406C18.4244 30.5581 19.1911 30.413 19.9662 30.3817C20.6009 30.3872 21.2348 30.431 21.8643 30.5126C22.1642 30.5382 22.4669 30.5837 22.7696 30.6008C23.2363 30.6008 23.6974 30.6236 24.2491 30.6236ZM36.1303 70.6061C36.4387 70.165 36.8375 70.1309 37.2902 70.1394C38.4387 70.1622 39.5872 70.1394 40.7357 70.1394C42.1486 70.1097 43.5574 69.9756 44.9507 69.7382C45.3741 69.6708 45.7913 69.5689 46.1983 69.4337C46.7273 69.2658 46.764 69.2289 46.7329 68.6939C46.699 67.8915 46.6452 67.089 46.5773 66.2866C46.5292 65.7175 46.2944 65.524 45.7287 65.5894C44.6198 65.726 43.5731 65.4471 42.5377 65.1284C41.6891 64.8667 40.8404 64.5593 39.9917 64.2748C39.2393 64.0102 38.4868 63.7484 37.7541 63.4354C36.7018 62.9829 35.6692 62.4878 34.6282 62.0126C34.4415 61.9272 34.2604 61.8333 34.0794 61.728C33.3812 61.3421 32.7323 60.872 32.1473 60.328C31.4231 59.665 30.6225 59.0902 29.87 58.4585C29.3891 58.0516 28.9365 57.6049 28.4556 57.1752C28.1183 57.498 27.7581 57.7956 27.3778 58.0658C27.1895 58.1708 27.0376 58.3312 26.9426 58.5255C26.8475 58.7198 26.8138 58.9387 26.846 59.1528C26.8884 59.8102 26.9478 60.4675 27.0412 61.1191C27.0704 61.3787 27.1815 61.622 27.3581 61.8135C27.5347 62.005 27.7677 62.1346 28.0228 62.1833C28.201 62.2289 28.3849 62.2601 28.5631 62.3028C29.5334 62.5447 30.5094 62.7724 31.4712 63.0398C31.9012 63.1622 32.2944 63.4553 32.7244 63.5179C33.4116 63.6389 34.0783 63.8573 34.7046 64.1667C35.2534 64.4142 35.7399 64.5565 36.2633 64.0585C36.6696 64.6126 37.0051 65.2158 37.2619 65.854C37.3059 65.9719 37.316 66.0998 37.291 66.2231C37.266 66.3465 37.2068 66.4602 37.1204 66.5512C36.8715 66.8358 36.6084 67.1402 36.3566 67.439C36.2548 67.5614 36.1049 67.6837 36.0737 67.8288C35.8782 68.7477 35.8996 69.6999 36.136 70.6089L36.1303 70.6061ZM36.8093 60.1772C36.8646 60.0686 36.929 59.9648 37.0016 59.8671C37.491 59.298 37.5674 58.6093 37.5674 57.898C37.5674 56.9276 37.5957 55.9573 37.6013 54.987C37.6013 53.9398 37.6834 52.8898 37.4429 51.8569C37.397 51.7413 37.3767 51.617 37.3835 51.4927C37.4967 51.0232 37.2562 50.6845 36.979 50.3801C36.1303 49.4354 35.2505 48.5077 34.3736 47.5801C34.175 47.4147 33.9652 47.2635 33.7456 47.1276C33.7508 47.4013 33.7754 47.6742 33.8191 47.9443C33.9364 48.4261 34.08 48.9011 34.2491 49.3671C34.5699 50.1491 34.7399 50.9854 34.7498 51.8313C34.7852 53.0737 34.5476 54.3086 34.0539 55.448C33.91 55.7343 33.8448 56.0542 33.8652 56.3744C33.8856 56.6947 33.9908 57.0036 34.1699 57.2691C34.8124 58.276 35.5827 59.1943 36.4613 60.0008C36.5734 60.0714 36.6918 60.1314 36.8149 60.1801L36.8093 60.1772ZM39.9804 6.92885C39.4199 7.19582 38.9252 7.58457 38.532 8.06707C37.671 9.09918 37.1466 10.3728 37.0299 11.715C36.9252 12.7537 37.078 13.7695 37.1685 14.791C37.2183 15.1469 37.293 15.4987 37.392 15.8439C37.8023 15.761 38.1724 15.5403 38.4415 15.2179C40.0483 13.5589 40.6792 11.6268 40.0964 9.33902C40.0445 9.0775 40.0378 8.80893 40.0766 8.54512C40.148 8.00639 40.1173 7.45893 39.9861 6.9317L39.9804 6.92885ZM33.3778 15.215C33.2576 15.341 33.1496 15.4782 33.0553 15.6248C32.566 16.6606 32.0539 17.6906 31.6098 18.7549C31.0638 20.0553 30.8601 21.4467 30.6678 22.8325C30.5629 23.2733 30.5786 23.7345 30.713 24.1671C30.8543 24.1184 30.9838 24.0403 31.093 23.9378C31.2022 23.8353 31.2887 23.7108 31.3467 23.5723C31.6296 23.0459 31.9351 22.5366 32.1954 22.0073C32.3885 21.6926 32.5299 21.3486 32.614 20.9886C32.7359 20.2768 32.9811 19.592 33.3382 18.9654C33.609 18.4794 33.7808 17.944 33.8434 17.3904C33.9061 16.8368 33.8584 16.2763 33.7032 15.7415C33.6206 15.5532 33.5131 15.3771 33.3835 15.2179L33.3778 15.215ZM34.7612 24.9126C34.5122 25.2341 34.3397 25.4504 34.1756 25.6695C33.5363 26.5232 32.8715 27.3569 32.2717 28.2305C31.9634 28.6858 31.6635 29.0471 31.0667 29.0045C31.0186 29.0045 30.9648 29.0614 30.8601 29.124C30.9082 29.8809 30.9563 30.6577 31.0072 31.4345C31.0072 31.648 31.0525 31.85 31.2901 31.9154C31.5278 31.9809 31.6947 31.8158 31.8304 31.6167C32.2859 30.9622 32.73 30.302 33.2166 29.6732C33.9311 28.7949 34.4682 27.7848 34.7979 26.6996C34.9804 26.1172 34.9695 25.491 34.7668 24.9154L34.7612 24.9126ZM25.754 28.3756C25.2618 28.5776 25.1515 28.8081 25.2986 29.2293C25.4457 29.6504 25.5815 30.0829 25.7512 30.5041C25.8161 30.6432 25.8927 30.7765 25.9803 30.9024L26.1105 30.8597C26.0284 30.0545 25.8757 29.2236 25.7597 28.3784L25.754 28.3756Z" fill="#76563B"></path><path d="M28.2745 37.0402C28.2008 37.1885 28.1196 37.3328 28.0313 37.4728C27.7767 37.8285 27.7286 37.948 28.0595 38.1927C28.7272 38.6935 29.0185 39.439 29.457 40.0963C30.1784 41.1691 31.0044 42.1707 31.7823 43.2065C32.0143 43.5167 32.2265 43.8467 32.4641 44.1541C32.5667 44.2742 32.6205 44.4288 32.6148 44.587C32.609 44.7453 32.5441 44.8955 32.433 45.0077C32.2321 45.2923 32.0256 45.5768 31.8333 45.8614C31.5372 46.2723 31.346 46.75 31.2765 47.2526C31.2069 47.7552 31.2612 48.2673 31.4344 48.7439C31.6409 49.313 31.8644 49.902 32.1275 50.4512C32.3032 50.778 32.3448 51.161 32.2434 51.5183C32.0115 52.2866 31.7823 53.0577 31.5956 53.8346C31.5116 54.1749 31.4877 54.5274 31.5249 54.876C31.5491 55.0784 31.5322 55.2836 31.4753 55.4792C31.4184 55.6748 31.3227 55.8569 31.1939 56.0142C30.911 56.3785 30.747 56.3756 30.5433 55.9459C30.2349 55.2943 29.9521 54.6313 29.6494 53.9768C29.2141 53.0444 28.6771 52.1635 28.0482 51.3504C27.9099 51.1766 27.8218 50.9679 27.7936 50.7472C27.7527 49.9833 27.5368 49.2392 27.1628 48.5732C27.067 48.4505 27.0169 48.2981 27.021 48.1422C27.0251 47.9863 27.0833 47.8368 27.1854 47.7195C27.6975 47.065 27.7908 46.2455 28.0115 45.4772C28.034 45.3972 28.034 45.3125 28.0115 45.2325C27.7286 44.2935 27.7908 43.3232 27.7286 42.3642C27.6736 41.2129 27.474 40.0732 27.1345 38.9724C27.0458 38.6998 27.0558 38.4045 27.1628 38.1386C27.234 38.0043 27.2647 37.852 27.2511 37.7003C27.2376 37.5487 27.1803 37.4044 27.0864 37.285C26.7538 36.7581 26.599 36.1374 26.6451 35.515C26.6581 35.2901 26.7219 35.0711 26.8318 34.8748C26.9874 34.5902 27.44 34.5902 27.5447 34.852C27.805 35.5691 28.0284 36.3146 28.2745 37.0402ZM29.01 46.8545C28.4924 47.5061 28.2661 48.1805 28.5207 48.9232C28.8035 49.737 29.1487 50.528 29.4881 51.3219C29.6409 51.6805 29.8389 52.0191 30.0228 52.3606C30.1275 52.5598 30.3368 52.6679 30.4528 52.4602C30.6734 52.0532 30.9789 51.5923 30.9591 51.1683C30.869 50.2045 30.7283 49.2461 30.5376 48.2972C30.3934 47.3752 30.3 46.4618 30.7922 45.5882C31.2845 44.7146 31.2929 44.6748 30.5094 44.0317C30.1953 43.7699 29.9436 43.3886 29.4174 43.3317C29.3852 43.4722 29.3634 43.6148 29.3523 43.7585C29.3523 44.6122 29.6777 45.4118 29.9181 46.2228C30.0006 46.4325 30.0474 46.6547 30.0567 46.8801C30.0415 46.9644 30.0084 47.0444 29.9595 47.1147C29.9107 47.1849 29.8474 47.2437 29.7738 47.287C29.7003 47.3039 29.624 47.3058 29.5497 47.2926C29.4754 47.2794 29.4044 47.2514 29.341 47.2102C29.2151 47.103 29.1038 46.9796 29.01 46.8431V46.8545Z" fill="#76563B"></path><path d="M33.6324 35.8764C32.9054 35.5919 32.7442 35.2333 33.0242 34.4821C33.2762 33.8092 33.5672 33.1517 33.8955 32.513C34.5518 31.224 35.4401 30.0972 36.3199 28.9618C37.5346 27.4338 38.8694 26.0064 40.3114 24.6935C41.2393 23.7844 42.2862 23.007 43.4232 22.3829C43.7357 22.2295 44.0603 22.102 44.3935 22.0016C44.5407 21.9503 44.6982 21.9362 44.8521 21.9605C45.006 21.9848 45.1516 22.0468 45.2761 22.1411C45.2081 22.3482 45.1129 22.5453 44.9932 22.7272C44.4267 23.3482 43.7982 23.9089 43.1176 24.4004C42.0031 25.2313 40.9338 26.1248 39.8475 26.9955C39.7364 27.0874 39.6358 27.1914 39.5476 27.3057C38.5122 28.6317 37.4458 29.935 36.4585 31.2894C35.6845 32.3248 34.9975 33.4232 34.4047 34.5732C34.1699 35.0228 33.8955 35.4297 33.6324 35.8764Z" fill="#76563B"></path><path d="M39.7513 22.0358C40.4868 21.535 41.1657 21.0882 41.8277 20.613C42.2124 20.3285 42.5717 20.0439 42.9592 19.7594C43.3112 19.5011 43.7446 19.3807 44.1785 19.4207C44.306 19.4206 44.4302 19.4621 44.5322 19.5391C44.6343 19.6161 44.7087 19.7243 44.7442 19.8476C44.6949 19.9465 44.6289 20.0361 44.549 20.1122C44.0398 20.4878 43.5108 20.8378 43.0101 21.2191C42.6056 21.5293 42.235 21.8793 41.839 22.2008C40.8517 23.0004 39.8588 23.7943 38.8715 24.5882C38.8064 24.6394 38.747 24.6992 38.6791 24.7447C38.5066 24.8585 38.3029 25.0008 38.1275 24.8187C38.0151 24.6846 37.9565 24.5131 37.9634 24.3378C37.9634 23.9508 38.0596 23.5638 38.0681 23.1768C38.0648 22.8688 38.0373 22.5615 37.9861 22.2577C37.9548 22.0964 37.9151 21.9368 37.8672 21.7797C37.7173 21.1337 37.7965 20.5789 38.3368 20.1065C38.6028 19.8732 38.7385 19.4976 38.962 19.2073C39.1904 18.8914 39.4491 18.5988 39.7343 18.3337C40.5065 17.657 41.374 17.099 42.3086 16.6776C42.6131 16.5598 42.9335 16.4888 43.2591 16.4671C43.3751 16.4529 43.5901 16.5439 43.6099 16.6236C43.6275 16.7783 43.5883 16.9342 43.4995 17.0618C43.3937 17.1879 43.2731 17.3007 43.1403 17.3976C42.1973 18.2455 41.2544 19.0935 40.3114 19.9415C40.0369 20.2059 39.8396 20.5408 39.7408 20.91C39.6421 21.2792 39.6457 21.6685 39.7513 22.0358Z" fill="#76563B"></path><path d="M46.6905 4.22276C46.5801 5.16179 46.4642 6.10081 46.3623 7.04268C46.257 7.77557 46.1908 8.51362 46.1643 9.25365C46.1994 9.72491 46.2944 10.1897 46.4472 10.6366C46.5066 10.8642 46.6197 11.0691 46.3425 11.2285C46.0653 11.3878 45.8814 11.3537 45.6579 11.0435C45.4847 10.7907 45.3493 10.5136 45.2562 10.2211C44.9489 9.17547 44.907 8.06897 45.1346 7.00284C45.2704 6.25447 45.392 5.5004 45.4571 4.74349C45.4712 4.35983 45.4283 3.9762 45.3298 3.60528C45.2364 3.18984 45.2364 3.14146 45.6127 3.03618C45.712 3.00759 45.8131 2.98572 45.9154 2.97073C46.0002 2.95426 46.0876 2.95644 46.1716 2.97712C46.2555 2.9978 46.3341 3.03649 46.4018 3.09054C46.4695 3.14459 46.5248 3.21272 46.5639 3.29027C46.6029 3.36782 46.6249 3.45295 46.6282 3.53984C46.6452 3.76463 46.6282 3.99228 46.6282 4.21992L46.6905 4.22276Z" fill="#76563B"></path><path d="M36.467 17.9837C36.3991 18.2512 36.4019 18.3707 36.3453 18.439C36.0228 18.8317 35.6947 19.2215 35.3467 19.5915C35.2279 19.7167 35.0638 19.8362 34.863 19.6654C34.8284 19.634 34.8008 19.5956 34.7818 19.5527C34.7629 19.5098 34.7531 19.4634 34.7531 19.4165C34.7531 19.3695 34.7629 19.3231 34.7818 19.2803C34.8008 19.2374 34.8284 19.199 34.863 19.1675C35.1068 18.8162 35.3803 18.4868 35.6805 18.1829C35.8276 18.0492 36.1134 18.0663 36.467 17.9837Z" fill="#76563B"></path><path d="M68.1333 3.40041L68.0739 6.9687L69.907 6.98862L72.1277 6.92602L72.3115 7.13089L72.1079 9.20244L69.6722 9.13984L68.0202 9.15976L68.0004 10.2069L68.122 14.387H65.3525L65.494 10.4516L65.3525 1.18943H73.1546L73.3186 1.41423L73.115 3.50285L70.0032 3.38049L68.1333 3.40041Z" fill="#76563B"></path><path d="M79.545 4.87724V7.39838L79.2621 7.50082C79.0224 7.40254 78.7656 7.35321 78.5068 7.35569C77.7204 7.35569 77.0075 7.86884 76.3682 8.89512V10.1841L76.5124 14.387H73.8024L73.9636 10.4516L73.842 5.04513L76.4078 4.81748L76.3879 6.68415H76.552C77.2178 5.45488 78.0466 4.84025 79.0386 4.84025C79.208 4.84206 79.3771 4.85442 79.545 4.87724Z" fill="#76563B"></path><path d="M83.3442 0.552035C83.5929 0.832711 83.721 1.201 83.7006 1.57642C83.7218 1.98239 83.5825 2.38031 83.313 2.68333C83.1752 2.82263 83.0098 2.93113 82.8275 3.00174C82.6452 3.07234 82.4501 3.10347 82.255 3.09309C82.0676 3.10593 81.8795 3.07998 81.7024 3.01685C81.5253 2.95372 81.3629 2.85474 81.2253 2.72602C81.1003 2.58367 81.0045 2.41789 80.9433 2.23819C80.8821 2.05849 80.8568 1.86841 80.8689 1.67886C80.8601 1.48076 80.8905 1.28287 80.9585 1.09673C81.0265 0.910595 81.1307 0.73994 81.2649 0.594716C81.4087 0.454717 81.5796 0.346064 81.767 0.275558C81.9544 0.205052 82.1542 0.174209 82.354 0.184959C82.5353 0.174426 82.7168 0.201586 82.8871 0.264742C83.0575 0.327899 83.213 0.425699 83.3442 0.552035ZM81.0811 10.4516L80.9792 5.04512L83.6468 4.81748L83.5252 10.187L83.6468 14.3898H80.9368L81.0811 10.4516Z" fill="#76563B"></path><path d="M91.4008 12.0309L91.6242 12.2358L91.3612 13.8549C90.6999 14.1997 89.9821 14.4215 89.2423 14.5094C87.4092 14.3196 86.4917 13.4176 86.4899 11.8033L86.5917 10.0959L86.5719 6.57033H85.3102L85.2084 6.42521L85.3498 4.93131H86.5521V3.35204L89.0189 2.55244L89.1999 2.71748L89.1405 4.93131H91.5648L91.6469 5.07358L91.5252 6.57033H89.0981L88.9764 11.1602C88.9453 11.4908 89.0326 11.8218 89.2225 12.0935C89.3301 12.1969 89.4586 12.2758 89.5991 12.3249C89.7397 12.374 89.8891 12.3921 90.0372 12.3781C90.512 12.3673 90.9781 12.2487 91.4008 12.0309Z" fill="#76563B"></path><path d="M94.5804 4.85731H98.6964L99.7346 4.83739L99.7544 6.4565L95.1717 12.6455H98.043L99.7742 12.4805L99.9185 12.6654L99.7346 14.4268L97.3725 14.387H93.6214L92.3173 14.4496V12.8504L96.9425 6.61869H94.2127L92.5153 6.76381L92.3541 6.57886L92.5578 4.81463L94.5804 4.85731Z" fill="#76563B"></path><path d="M112.612 1.70162L112.162 4.09755L111.755 4.26259C111.31 3.94476 110.828 3.68292 110.32 3.48292C109.889 3.30644 109.43 3.21003 108.965 3.19836C108.491 3.17419 108.025 3.33179 107.661 3.63942C107.51 3.7621 107.388 3.91675 107.304 4.09235C107.219 4.26795 107.174 4.46016 107.172 4.65528C107.173 4.85438 107.223 5.05005 107.318 5.22517C107.412 5.40028 107.547 5.5495 107.712 5.65975C108.246 6.03448 108.814 6.35656 109.409 6.62153C110.037 6.9006 110.646 7.21898 111.234 7.57479C111.708 7.87519 112.117 8.26916 112.436 8.73292C112.78 9.2538 112.954 9.86941 112.934 10.4943C112.94 11.2271 112.727 11.9448 112.323 12.5545C111.892 13.1978 111.293 13.7089 110.592 14.0313C109.781 14.407 108.896 14.5928 108.003 14.5748C106.662 14.56 105.337 14.2695 104.111 13.7211L104.498 11.1402L104.804 10.9752C105.33 11.443 105.933 11.8148 106.586 12.0736C107.132 12.3051 107.716 12.4334 108.309 12.452C108.812 12.4829 109.309 12.3258 109.704 12.011C109.86 11.8837 109.986 11.7228 110.073 11.5402C110.159 11.3575 110.204 11.1577 110.204 10.9553C110.208 10.747 110.16 10.5411 110.066 10.3555C109.972 10.17 109.834 10.0105 109.664 9.89105C109.116 9.50782 108.532 9.17814 107.921 8.90649C107.304 8.63884 106.705 8.33087 106.128 7.98454C105.659 7.69306 105.257 7.30516 104.948 6.84633C104.61 6.33069 104.439 5.72229 104.459 5.10487C104.451 4.36567 104.664 3.64116 105.07 3.02479C105.496 2.38794 106.088 1.88104 106.781 1.55934C107.566 1.19309 108.423 1.01113 109.288 1.02723C110.429 1.03104 111.558 1.26017 112.612 1.70162Z" fill="#76563B"></path><path d="M119.772 4.80609C120.177 4.8819 120.572 5.00907 120.946 5.18455L120.496 7.35568L120.272 7.45812C119.71 7.1166 119.072 6.92103 118.417 6.88902C118.138 6.87514 117.861 6.93044 117.608 7.05005C117.356 7.16965 117.137 7.34987 116.971 7.57479C116.631 8.02438 116.462 8.66747 116.462 9.49837C116.462 10.4583 116.645 11.1896 117.011 11.6923C117.189 11.9404 117.426 12.1398 117.7 12.2725C117.974 12.4051 118.277 12.4669 118.581 12.452C119.288 12.4287 119.982 12.2541 120.617 11.9398L120.821 12.102L120.558 14.2134C119.747 14.472 118.902 14.6035 118.052 14.6032C116.748 14.6032 115.729 14.1764 114.994 13.3228C114.258 12.4691 113.892 11.2768 113.896 9.74593C113.896 8.16192 114.297 6.92222 115.098 6.02682C115.9 5.13143 117.013 4.68373 118.439 4.68373C118.886 4.6805 119.332 4.72148 119.772 4.80609Z" fill="#76563B"></path><path d="M128.23 8.44268C128.273 8.03819 128.164 7.63202 127.924 7.30447C127.804 7.17082 127.655 7.0663 127.489 6.99878C127.323 6.93126 127.144 6.90249 126.965 6.91463C126.354 6.91463 125.704 7.19919 125.011 7.79675L124.968 10.1728L125.112 14.3756H122.402L122.544 10.4203L122.422 0.193495L125.132 -0.0113831L125.03 6.19756H125.152C125.859 5.54003 126.696 5.03973 127.607 4.72927C128.64 4.72927 129.424 4.9626 129.961 5.43496C130.499 5.90732 130.759 6.5874 130.745 7.4752L130.682 10.2012L130.784 14.3813H128.074L128.23 8.44268Z" fill="#76563B"></path><path d="M142.216 12.6028L141.97 14.0256C141.512 14.3406 140.976 14.5191 140.422 14.5406C140.057 14.484 139.716 14.3196 139.443 14.0683C139.157 13.7711 138.953 13.403 138.852 13.0012H138.671C138.009 13.6968 137.181 14.2118 136.267 14.498C135.234 14.498 134.448 14.2618 133.913 13.7923C133.378 13.3228 133.115 12.6541 133.129 11.752L133.169 9.33333L133.067 5.03089L135.695 4.80325L135.633 10.85C135.594 11.2348 135.694 11.6208 135.916 11.937C136.031 12.0638 136.174 12.1627 136.332 12.2263C136.491 12.2899 136.662 12.3164 136.832 12.3041C137.503 12.2738 138.136 11.9891 138.606 11.5073V5.04227L141.195 4.81463L141.011 11.9057C140.997 12.0709 141.035 12.2364 141.121 12.378C141.166 12.4285 141.221 12.4676 141.284 12.4923C141.346 12.5171 141.413 12.5266 141.48 12.5203C141.666 12.5156 141.85 12.4888 142.029 12.4406L142.216 12.6028Z" fill="#76563B"></path><path d="M146.453 10.1842L146.595 14.387H143.885L144.029 10.4317L143.907 0.204886L146.615 7.62939e-06L146.453 10.1842Z" fill="#76563B"></path><path d="M150.731 4.85731H154.847L155.885 4.83739L155.908 6.4565L151.322 12.6455H154.196L155.927 12.4805L156.069 12.6654L155.885 14.4268L153.523 14.387H149.775L148.47 14.4496V12.8504L153.096 6.61869H150.366L148.668 6.76381L148.504 6.57886L148.708 4.81463L150.731 4.85731Z" fill="#76563B"></path><path d="M73.7373 26.0081L73.5732 28.0768L71.1093 27.9545H70.2946L70.1927 34.798L70.3143 38.9809H67.5421L67.6863 35.0455L67.5845 27.9545H66.7698L64.2634 28.0768L64.0795 27.852L64.2634 25.7805H73.5732L73.7373 26.0081Z" fill="#76563B"></path><path d="M77.7204 25.1459C77.9691 25.4266 78.0972 25.7949 78.0768 26.1703C78.098 26.5763 77.9587 26.9742 77.6892 27.2772C77.5515 27.4165 77.386 27.525 77.2037 27.5956C77.0214 27.6663 76.8263 27.6974 76.6313 27.687C76.4438 27.6998 76.2557 27.6739 76.0786 27.6108C75.9015 27.5476 75.7391 27.4486 75.6015 27.3199C75.4765 27.1776 75.3807 27.0118 75.3195 26.8321C75.2583 26.6524 75.2331 26.4623 75.2451 26.2728C75.2363 26.0747 75.2668 25.8768 75.3348 25.6906C75.4027 25.5045 75.5069 25.3338 75.6411 25.1886C75.7852 25.0483 75.9566 24.9394 76.1445 24.8689C76.3324 24.7984 76.5328 24.7677 76.7331 24.7789C76.9139 24.7686 77.0949 24.7958 77.2647 24.859C77.4346 24.9221 77.5897 25.0198 77.7204 25.1459ZM75.4573 35.0455L75.3554 29.639L78.023 29.4142L77.9014 34.7837L78.023 38.9866H75.313L75.4573 35.0455Z" fill="#76563B"></path><path d="M86.3626 29.7699L86.0033 31.7618L85.6751 31.8642C85.3085 31.6167 84.9121 31.4169 84.4955 31.2695C84.1619 31.1446 83.8103 31.0754 83.4545 31.0646C83.1742 31.0491 82.8984 31.1406 82.6822 31.3207C82.5919 31.3969 82.5197 31.4924 82.4708 31.6002C82.4218 31.708 82.3974 31.8254 82.3993 31.9439C82.3977 32.0827 82.4314 32.2197 82.4973 32.3417C82.5631 32.4637 82.6589 32.5668 82.7756 32.6411C83.1499 32.8822 83.5493 33.0816 83.9665 33.2358C84.4293 33.416 84.8792 33.628 85.3131 33.8703C85.6739 34.084 85.9831 34.3755 86.2183 34.724C86.4803 35.1212 86.6128 35.5906 86.5974 36.0671C86.5987 36.6053 86.4539 37.1336 86.1787 37.5951C85.8697 38.0878 85.4284 38.4825 84.9057 38.7333C84.2506 39.0454 83.5312 39.1965 82.8067 39.1744C81.7656 39.1621 80.736 38.9536 79.7713 38.5598L80.0768 36.4285L80.3399 36.2634C80.7638 36.6211 81.2411 36.9092 81.7543 37.1171C82.181 37.3137 82.6407 37.4276 83.1094 37.4528C83.4178 37.4687 83.7208 37.3671 83.958 37.1683C84.0549 37.0871 84.1326 36.9852 84.1855 36.87C84.2383 36.7549 84.265 36.6293 84.2635 36.5024C84.2649 36.3637 84.2311 36.2268 84.1652 36.1048C84.0994 35.9828 84.0037 35.8797 83.8873 35.8053C83.5127 35.5653 83.1134 35.3669 82.6964 35.2134C82.1306 34.9649 81.6751 34.742 81.33 34.5447C80.9657 34.3357 80.6556 34.0432 80.4248 33.6911C80.1672 33.2858 80.038 32.8116 80.0542 32.3309C80.0437 31.9148 80.128 31.5018 80.3006 31.1235C80.4732 30.7452 80.7295 30.4117 81.0499 30.1484C81.7176 29.5793 82.6209 29.2947 83.76 29.2947C84.6493 29.2897 85.5318 29.4509 86.3626 29.7699Z" fill="#76563B"></path><path d="M93.6328 29.4C94.0375 29.4758 94.431 29.603 94.8039 29.7784L94.3569 31.9496L94.1306 32.052C93.5694 31.7109 92.9327 31.5154 92.2777 31.4829C92.0003 31.4677 91.7234 31.5213 91.4714 31.6389C91.2193 31.7565 90.9998 31.9345 90.8322 32.1573C90.4889 32.6107 90.3183 33.2528 90.3201 34.0837C90.3201 35.0427 90.504 35.7711 90.8718 36.2776C91.0493 36.5257 91.2857 36.7252 91.5594 36.8578C91.8331 36.9905 92.1355 37.0523 92.439 37.0374C93.1477 37.0147 93.8433 36.8391 94.4786 36.5224L94.6823 36.6874L94.4163 38.7988C93.6058 39.0576 92.7604 39.1891 91.91 39.1886C90.6049 39.1886 89.5865 38.7618 88.8548 37.9081C88.1231 37.0545 87.7562 35.8593 87.7544 34.3228C87.7544 32.7369 88.1551 31.4971 88.9566 30.6036C89.7581 29.7102 90.8737 29.2644 92.3032 29.2663C92.7497 29.2657 93.1952 29.3106 93.6328 29.4Z" fill="#76563B"></path><path d="M102.077 33.0366C102.12 32.6321 102.011 32.2259 101.771 31.8984C101.652 31.7651 101.503 31.6608 101.338 31.5933C101.172 31.5258 100.994 31.4968 100.815 31.5085C100.204 31.5085 99.5517 31.8026 98.8577 32.3907L98.8096 34.7781L98.951 38.9809H96.2636L96.4079 35.0256L96.2636 24.7988L98.9708 24.5939L98.869 30.8028H98.9935C99.7027 30.1421 100.542 29.6389 101.457 29.326C102.491 29.326 103.275 29.5622 103.811 30.0346C104.349 30.5069 104.609 31.1728 104.595 32.0748L104.535 34.798L104.637 38.9809H101.927L102.077 33.0366Z" fill="#76563B"></path><path d="M109.678 34.7781L109.82 38.9809H107.109L107.254 35.0256L107.129 24.7988L109.839 24.5939L109.678 34.7781Z" fill="#76563B"></path><path d="M119.721 34.5533L114.221 34.5931C114.342 36.3004 115.204 37.1541 116.807 37.1541C117.784 37.1209 118.744 36.8763 119.619 36.437L119.842 36.5793L119.435 38.6081C118.506 38.9698 117.52 39.1625 116.524 39.1772C115.027 39.1772 113.854 38.74 113.008 37.8655C112.161 36.9909 111.737 35.7816 111.735 34.2374C111.735 32.7065 112.149 31.4943 112.977 30.6008C113.804 29.7073 114.929 29.2625 116.349 29.2663C117.556 29.2663 118.489 29.5973 119.149 30.2594C119.809 30.9214 120.138 31.8472 120.136 33.0366C120.13 33.435 120.096 33.8324 120.035 34.226L119.721 34.5533ZM117.763 32.7293C117.795 32.2844 117.664 31.8432 117.395 31.4886C117.257 31.3434 117.088 31.2307 116.901 31.1584C116.715 31.0861 116.514 31.056 116.315 31.0703C116.071 31.0633 115.827 31.1058 115.6 31.1952C115.373 31.2847 115.165 31.4193 114.991 31.5911C114.604 32.0077 114.355 32.5345 114.278 33.0992L117.721 33.0167L117.763 32.7293Z" fill="#76563B"></path><path d="M127.749 29.4854V32.0065L127.466 32.109C127.227 32.0107 126.971 31.9613 126.714 31.9638C125.925 31.9638 125.211 32.477 124.572 33.5033V34.7923L124.716 38.9951H122.006L122.168 35.0598L122.046 29.6533L124.614 29.4285L124.595 31.2951H124.756C125.42 30.0659 126.249 29.4503 127.243 29.4484C127.412 29.4505 127.581 29.4628 127.749 29.4854Z" fill="#76563B"></path><path d="M136.434 34.5533L130.934 34.5931C131.057 36.3004 131.919 37.1541 133.52 37.1541C134.497 37.1209 135.456 36.8763 136.332 36.437L136.555 36.5793L136.151 38.611C135.221 38.9729 134.234 39.1656 133.237 39.1801C131.743 39.1801 130.572 38.7428 129.723 37.8683C128.875 36.9938 128.45 35.7844 128.45 34.2402C128.45 32.7093 128.864 31.4971 129.692 30.6037C130.52 29.7102 131.636 29.2644 133.039 29.2663C134.25 29.2663 135.184 29.5973 135.842 30.2593C136.5 30.9214 136.83 31.8472 136.83 33.0366C136.823 33.4349 136.789 33.8324 136.728 34.226L136.434 34.5533ZM134.479 32.7293C134.511 32.2844 134.38 31.8431 134.111 31.4886C133.972 31.3434 133.804 31.2306 133.617 31.1584C133.43 31.0861 133.23 31.056 133.03 31.0703C132.786 31.0633 132.543 31.1057 132.316 31.1952C132.088 31.2847 131.881 31.4193 131.706 31.5911C131.32 32.0077 131.071 32.5345 130.994 33.0992L134.436 33.0167L134.479 32.7293Z" fill="#76563B"></path><path d="M141.166 25.1459C141.415 25.4266 141.543 25.7949 141.523 26.1703C141.544 26.5763 141.405 26.9742 141.135 27.2772C140.997 27.4168 140.831 27.5254 140.648 27.596C140.465 27.6666 140.27 27.6976 140.074 27.687C139.887 27.6996 139.7 27.6736 139.523 27.6104C139.346 27.5473 139.185 27.4484 139.047 27.3199C138.921 27.1784 138.824 27.0128 138.762 26.833C138.701 26.6531 138.675 26.4626 138.688 26.2728C138.679 26.0744 138.71 25.8762 138.778 25.69C138.847 25.5037 138.952 25.3333 139.087 25.1886C139.231 25.0486 139.402 24.94 139.589 24.8695C139.777 24.799 139.976 24.7681 140.176 24.7789C140.357 24.7687 140.539 24.796 140.709 24.8591C140.879 24.9223 141.035 25.0199 141.166 25.1459ZM138.903 35.0455L138.801 29.639L141.469 29.4142L141.347 34.7837L141.469 38.9866H138.759L138.903 35.0455Z" fill="#76563B"></path><path d="M157.438 36.2196C157.903 35.6725 158.336 35.1008 158.735 34.5072C159.093 33.9809 159.409 33.4299 159.681 32.8589L159.772 32.6644H157.143L157.105 32.7488C157.02 32.9485 156.934 33.1379 156.853 33.3196C156.773 33.5014 156.687 33.6728 156.585 33.8494C156.483 34.0261 156.39 34.2078 156.277 34.3972C156.194 34.538 156.1 34.6915 155.996 34.8477C155.757 34.5917 155.508 34.3358 155.248 34.0644C154.942 33.7454 154.638 33.4203 154.334 33.0893C154.03 32.7582 153.731 32.4306 153.436 32.1064C153.184 31.83 152.943 31.5587 152.71 31.295C153.041 31.1272 153.363 30.9435 153.675 30.7447C154.033 30.5185 154.361 30.2521 154.653 29.9513C154.938 29.6576 155.169 29.3202 155.336 28.9531C155.508 28.5567 155.591 28.1303 155.58 27.7014C155.592 27.3089 155.504 26.9196 155.324 26.5666C155.143 26.2136 154.877 25.9074 154.546 25.6743C154.216 25.4401 153.843 25.2665 153.447 25.1624C152.552 24.9359 151.61 24.9465 150.721 25.1931C150.264 25.316 149.832 25.5115 149.442 25.7716C149.059 26.0268 148.737 26.3565 148.496 26.7391C148.245 27.1513 148.117 27.6214 148.126 28.0982C148.126 28.4143 148.177 28.7285 148.277 29.0298C148.377 29.327 148.511 29.6128 148.676 29.8822C148.839 30.1533 149.026 30.4103 149.236 30.65C149.4 30.8394 149.571 31.0186 149.745 31.185C149.421 31.3718 149.11 31.5715 148.818 31.7788C148.472 32.0255 148.159 32.3127 147.888 32.6337C147.611 32.9659 147.392 33.3395 147.242 33.7394C147.073 34.2024 146.991 34.6902 147.001 35.1804C146.992 35.7282 147.101 36.2719 147.322 36.7776C147.532 37.2435 147.85 37.6576 148.252 37.9882C148.683 38.3317 149.182 38.5885 149.719 38.7433C150.34 38.9228 150.986 39.0092 151.635 38.9992C152.443 39.0106 153.248 38.8911 154.015 38.646C154.618 38.4521 155.182 38.1612 155.682 37.786L156.556 38.6818H160L157.438 36.2196ZM152.688 36.9874C152.109 37.0992 151.509 37.0531 150.957 36.8543C150.69 36.7402 150.453 36.5695 150.265 36.3552C150.083 36.139 149.948 35.8901 149.869 35.6232C149.782 35.3353 149.739 35.0371 149.74 34.7376C149.737 34.4779 149.774 34.2191 149.85 33.9697C149.919 33.7572 150.016 33.5535 150.137 33.3631C150.248 33.1901 150.378 33.0288 150.525 32.8819L150.842 32.5748C151.134 32.8768 151.42 33.184 151.694 33.4911C151.967 33.7983 152.305 34.1796 152.605 34.5149C152.905 34.8502 153.211 35.2034 153.519 35.5387C153.787 35.8382 154.085 36.1351 154.382 36.4218C154.268 36.4949 154.148 36.56 154.023 36.6163C153.817 36.7073 153.605 36.7843 153.388 36.8467C153.159 36.9124 152.925 36.962 152.688 36.9951V36.9874ZM152.913 28.5768C152.839 28.7683 152.734 28.9478 152.602 29.1092C152.463 29.2809 152.306 29.4387 152.133 29.5801C151.983 29.7081 151.823 29.8361 151.656 29.9718C151.538 29.8284 151.426 29.6876 151.324 29.5546C151.201 29.3921 151.091 29.2209 150.994 29.0426C150.904 28.8722 150.833 28.6928 150.783 28.5077C150.734 28.3176 150.709 28.1225 150.71 27.9267C150.706 27.7469 150.74 27.5683 150.812 27.402C150.872 27.2582 150.964 27.1283 151.08 27.0206C151.198 26.9154 151.338 26.8344 151.49 26.7826C151.656 26.7249 151.831 26.6963 152.007 26.6981C152.134 26.6988 152.26 26.7195 152.38 26.7595C152.499 26.7968 152.606 26.8619 152.691 26.9489C152.795 27.0568 152.876 27.184 152.927 27.3226C152.995 27.5172 153.026 27.7217 153.021 27.9267C153.027 28.1504 152.991 28.3733 152.913 28.5845V28.5768Z" fill="#76563B"></path><path d="M172.926 26.0081L172.762 28.0768L170.298 27.9545H169.483L169.381 34.798L169.503 38.9809H166.731L166.875 35.0455L166.773 27.9545H165.958L163.452 28.0768L163.268 27.852L163.452 25.7805H172.762L172.926 26.0081Z" fill="#76563B"></path><path d="M179.034 29.4854V32.0065L178.751 32.109C178.511 32.0107 178.254 31.9613 177.995 31.9638C177.209 31.9638 176.496 32.477 175.857 33.5033V34.7923L175.998 38.9951H173.288L173.452 35.0598L173.331 29.6533L175.896 29.4285L175.876 31.2951H176.038C176.703 30.0659 177.531 29.4503 178.521 29.4484C178.693 29.45 178.864 29.4624 179.034 29.4854Z" fill="#76563B"></path><path d="M187.715 34.5533L182.213 34.5931C182.334 36.3004 183.197 37.1541 184.802 37.1541C185.779 37.1205 186.738 36.876 187.613 36.437L187.837 36.5793L187.43 38.6081C186.5 38.9701 185.513 39.1628 184.516 39.1772C183.022 39.1772 181.848 38.739 181.002 37.8655C180.157 36.9919 179.715 35.7911 179.715 34.2459C179.715 32.7008 180.131 31.5029 180.96 30.6094C181.789 29.7159 182.909 29.2663 184.321 29.2663C185.528 29.2663 186.461 29.5973 187.121 30.2594C187.781 30.9214 188.111 31.8472 188.111 33.0366C188.105 33.4349 188.071 33.8324 188.01 34.226L187.715 34.5533ZM185.758 32.7293C185.789 32.2849 185.66 31.8441 185.393 31.4886C185.254 31.3437 185.085 31.2312 184.899 31.1589C184.712 31.0866 184.512 31.0564 184.312 31.0703C184.068 31.0633 183.825 31.1057 183.598 31.1952C183.37 31.2847 183.163 31.4193 182.988 31.5911C182.602 32.0077 182.353 32.5345 182.275 33.0992L185.718 33.0167L185.758 32.7293Z" fill="#76563B"></path><path d="M197.738 30.5354C198.377 31.3435 198.697 32.4817 198.697 33.95C198.697 35.6175 198.286 36.9056 197.464 37.8142C196.641 38.7229 195.483 39.1772 193.99 39.1772C193.532 39.1743 193.075 39.1334 192.623 39.0549L192.686 42.7541H189.995L190.14 35.0285L190.015 29.622L192.604 29.3972L192.584 30.7915H192.725C193.061 30.4581 193.43 30.1597 193.826 29.9008C194.198 29.6644 194.595 29.4679 195.008 29.3146C196.191 29.3222 197.101 29.7291 197.738 30.5354ZM195.619 36.6447C195.987 36.1382 196.171 35.3936 196.171 34.411C196.171 33.4549 196.018 32.7321 195.712 32.2484C195.573 32.0157 195.373 31.8253 195.134 31.6971C194.896 31.5689 194.628 31.5077 194.357 31.5199C193.773 31.5199 193.182 31.814 192.584 32.402L192.564 34.7781L192.604 37.0943C193.05 37.2904 193.531 37.3949 194.018 37.4016C194.326 37.4185 194.634 37.3581 194.913 37.226C195.193 37.094 195.435 36.8942 195.619 36.6447Z" fill="#76563B"></path><path d="M208.287 30.5354C208.926 31.3435 209.246 32.4817 209.246 33.95C209.246 35.6175 208.835 36.9056 208.012 37.8142C207.19 38.7229 206.032 39.1772 204.539 39.1772C204.081 39.1743 203.624 39.1334 203.172 39.0549L203.234 42.7541H200.544L200.686 35.0285L200.564 29.622L203.152 29.3972L203.133 30.7915H203.274C203.61 30.4581 203.979 30.1597 204.375 29.9008C204.747 29.6644 205.144 29.4679 205.557 29.3146C206.743 29.3222 207.653 29.7291 208.287 30.5354ZM206.168 36.6447C206.536 36.1382 206.717 35.3927 206.717 34.411C206.717 33.4293 206.564 32.7321 206.259 32.2484C206.119 32.0151 205.92 31.8242 205.681 31.6959C205.442 31.5676 205.174 31.5068 204.904 31.5199C204.321 31.5199 203.73 31.814 203.133 32.402L203.113 34.7781L203.152 37.0943C203.599 37.2907 204.08 37.3952 204.567 37.4016C204.876 37.4192 205.185 37.3592 205.465 37.2271C205.746 37.095 205.989 36.8949 206.174 36.6447H206.168Z" fill="#76563B"></path><path d="M218.44 34.5533L212.938 34.5931C213.058 36.3004 213.921 37.1541 215.526 37.1541C216.504 37.1205 217.462 36.876 218.338 36.437L218.561 36.5793L218.154 38.6081C217.224 38.9701 216.237 39.1628 215.24 39.1772C213.747 39.1772 212.574 38.74 211.724 37.8655C210.873 36.9909 210.449 35.7816 210.451 34.2374C210.451 32.7065 210.866 31.4943 211.696 30.6008C212.525 29.7073 213.646 29.2596 215.056 29.2577C216.265 29.2577 217.199 29.5888 217.857 30.2508C218.515 30.9129 218.845 31.8386 218.847 33.0281C218.84 33.4264 218.806 33.8238 218.745 34.2175L218.44 34.5533ZM216.491 32.7293C216.522 32.2849 216.393 31.8441 216.126 31.4886C215.987 31.3437 215.818 31.2312 215.631 31.1589C215.445 31.0867 215.245 31.0564 215.045 31.0703C214.801 31.0633 214.558 31.1058 214.33 31.1952C214.103 31.2847 213.896 31.4193 213.721 31.5911C213.334 32.0077 213.085 32.5345 213.008 33.0992L216.451 33.0167L216.491 32.7293Z" fill="#76563B"></path><path d="M226.547 33.0366C226.585 32.6383 226.473 32.2402 226.233 31.9211C226.112 31.7849 225.962 31.678 225.794 31.6085C225.626 31.539 225.444 31.5087 225.263 31.5199C224.652 31.5199 224 31.814 223.308 32.402V34.7781L223.43 38.9809H220.734L220.878 35.0455L220.776 29.639L223.342 29.4142V30.8085H223.486C224.191 30.1513 225.023 29.6484 225.931 29.3317C226.964 29.3317 227.751 29.5679 228.293 30.0403C228.836 30.5126 229.096 31.1785 229.068 32.0805L229.005 34.8037L229.13 38.9866H226.392L226.547 33.0366Z" fill="#76563B"></path><path d="M239.353 30.5468C239.983 31.3606 240.299 32.4912 240.301 33.9386C240.301 35.6213 239.886 36.916 239.056 37.8228C238.227 38.7295 237.079 39.1839 235.614 39.1858C234.831 39.1682 234.057 39.0082 233.331 38.7134L231.916 39.2256L231.591 38.961L231.733 35.0654L231.611 24.7988L234.301 24.5939L234.219 30.8028H234.341C234.678 30.4693 235.047 30.1709 235.444 29.9122C235.817 29.6758 236.213 29.4793 236.626 29.326C237.811 29.326 238.72 29.7329 239.353 30.5468ZM237.204 36.6646C237.583 36.1724 237.769 35.4211 237.769 34.411C237.769 33.4625 237.616 32.7444 237.308 32.2569C237.167 32.0207 236.964 31.8274 236.722 31.6976C236.48 31.5679 236.207 31.5065 235.933 31.5199C235.368 31.5199 234.784 31.8045 234.182 32.3736L234.14 34.7098L234.182 37.026C234.62 37.2535 235.104 37.379 235.597 37.3931C235.903 37.4112 236.209 37.3543 236.489 37.2275C236.769 37.1006 237.014 36.9075 237.204 36.6646Z" fill="#76563B"></path><path d="M248.338 29.972C248.632 30.2091 248.866 30.5136 249.02 30.86C249.174 31.2065 249.244 31.5849 249.223 31.9638C249.223 32.2114 249.184 32.9882 249.102 34.3C249.102 34.6842 249.068 35.0768 249.04 35.4809C249.011 35.885 249 36.2264 249 36.5138C248.985 36.6817 249.02 36.8503 249.102 36.9976C249.149 37.0465 249.207 37.0837 249.27 37.1064C249.334 37.1291 249.402 37.1367 249.469 37.1285C249.648 37.1227 249.826 37.096 249.998 37.0488L250.202 37.211L249.959 38.6337C249.512 38.9251 249.001 39.101 248.471 39.1459C248.092 39.1185 247.734 38.9642 247.453 38.7077C247.158 38.4249 246.96 38.0553 246.887 37.652H246.759C246.178 38.3052 245.462 38.8228 244.66 39.1687C243.682 39.1554 242.914 38.8955 242.358 38.389C242.074 38.1271 241.852 37.8058 241.705 37.4479C241.558 37.09 241.491 36.7042 241.509 36.3175C241.476 35.7353 241.66 35.1616 242.027 34.7098C242.453 34.2792 243.009 34.0022 243.608 33.9216L246.72 33.3268V32.4874C246.72 31.5996 246.284 31.1528 245.416 31.1528C244.957 31.1604 244.503 31.2571 244.081 31.4374C243.529 31.6777 243.004 31.9773 242.516 32.3309L242.312 32.2085L242.007 30.4045C242.59 30.036 243.22 29.7488 243.88 29.5508C244.528 29.3605 245.201 29.2646 245.877 29.2663C246.927 29.2663 247.748 29.5015 248.338 29.972ZM244.559 35.1764C244.372 35.2146 244.204 35.3149 244.081 35.461C243.971 35.6295 243.918 35.8291 243.931 36.0301C243.921 36.1801 243.941 36.3304 243.99 36.4726C244.038 36.6147 244.114 36.7457 244.213 36.8581C244.319 36.958 244.445 37.0349 244.581 37.0838C244.718 37.1328 244.864 37.1528 245.008 37.1427C245.54 37.1427 246.095 36.8268 246.68 36.198L246.72 34.6813L244.559 35.1764Z" fill="#76563B"></path><path d="M261 37.1968L260.757 38.6195C260.299 38.935 259.761 39.1127 259.206 39.1317C258.842 39.0772 258.502 38.9136 258.23 38.6622C257.943 38.3653 257.739 37.9971 257.639 37.5951H257.455C256.793 38.2907 255.965 38.8057 255.051 39.0919C254.019 39.0919 253.235 38.8557 252.697 38.3833C252.16 37.911 251.899 37.2318 251.914 36.3459L251.953 33.9272L251.851 29.6333L254.479 29.4085L254.42 35.461C254.379 35.8459 254.48 36.2324 254.703 36.548C254.818 36.6748 254.961 36.7737 255.119 36.8373C255.278 36.9008 255.449 36.9274 255.619 36.915C256.289 36.8847 256.923 36.5988 257.39 36.1155V29.6333L259.979 29.4085L259.795 36.4996C259.78 36.6652 259.82 36.8311 259.908 36.972C259.952 37.0225 260.007 37.0618 260.069 37.0866C260.131 37.1113 260.198 37.1208 260.264 37.1142C260.45 37.1097 260.634 37.0829 260.813 37.0346L261 37.1968Z" fill="#76563B"></path><path d="M75.047 51.0118L74.4558 53.5102L74.1899 53.5528C73.6256 53.2154 73.0284 52.937 72.4077 52.722C71.8645 52.5481 71.2974 52.4617 70.7274 52.4659C69.5204 52.4659 68.6378 52.8282 68.0795 53.5528C67.5213 54.2775 67.2384 55.466 67.2309 57.1183C67.2001 58.0003 67.3207 58.8811 67.5873 59.722C67.7803 60.3076 68.1745 60.805 68.6991 61.1248C69.3149 61.4451 70.0036 61.5972 70.6962 61.5659C70.9653 61.5676 71.2341 61.5467 71.4996 61.5032C71.8132 61.4476 72.1231 61.3725 72.4275 61.2785L72.4671 60.1402L72.4275 58.0488L74.9735 57.8638L74.9141 59.7106L74.9735 62.926C73.5265 63.4398 72.007 63.7165 70.4728 63.7455C68.4322 63.7455 66.8999 63.1859 65.8759 62.0667C64.8518 60.9474 64.3398 59.3416 64.3398 57.2492C64.3398 54.9728 64.9339 53.2275 66.122 52.0134C67.3101 50.7993 68.998 50.1951 71.1856 50.2008C72.5166 50.1806 73.8354 50.4576 75.047 51.0118Z" fill="#76563B"></path><path d="M88.1419 63.5748L88.306 57.6305C88.306 56.6203 87.876 56.1138 87.0217 56.1138C86.4106 56.1138 85.7723 56.387 85.1065 56.9333L85.0443 59.3919L85.1688 63.5748H82.4587L82.62 57.6305C82.6638 57.2247 82.5515 56.8173 82.306 56.4923C82.1829 56.3592 82.0321 56.2552 81.8643 56.1878C81.6965 56.1204 81.516 56.0912 81.3357 56.1024C80.7378 56.1024 80.0778 56.387 79.3555 56.9561V59.3634L79.4771 63.5663H76.7868L76.9311 59.6309L76.8293 54.2244L79.3752 53.9996V55.3939H79.5167C80.2269 54.7331 81.0674 54.2299 81.9835 53.9171C83.5054 53.9171 84.4766 54.4293 84.8972 55.4537H85.0188C85.7722 54.7435 86.6783 54.2176 87.6667 53.9171C88.6992 53.9171 89.4856 54.1533 90.0203 54.6256C90.5549 55.098 90.8124 55.7638 90.7841 56.663L90.7247 59.389L90.8463 63.572L88.1419 63.5748Z" fill="#76563B"></path><path d="M101.09 55.1406C101.721 55.9545 102.037 57.0851 102.037 58.5325C102.037 60.2114 101.623 61.5061 100.795 62.4167C99.9675 63.3272 98.819 63.7816 97.3499 63.7797C96.5679 63.7604 95.7957 63.6004 95.0698 63.3073L93.6554 63.8195L93.3272 63.552L93.4715 59.6593L93.3386 49.4041L96.026 49.1992L95.9468 55.4081H96.0684C96.4039 55.0741 96.7727 54.7756 97.1688 54.5175C97.5406 54.2811 97.9359 54.0846 98.3485 53.9313C99.546 53.9237 100.46 54.3268 101.09 55.1406ZM98.9397 61.2585C99.3169 60.7653 99.5055 60.0141 99.5055 59.0049C99.5055 58.0564 99.3527 57.3383 99.0472 56.8508C98.906 56.6141 98.7035 56.4205 98.4613 56.2907C98.2191 56.1609 97.9464 56.0997 97.6724 56.1138C97.1066 56.1138 96.522 56.3984 95.9185 56.9675L95.8789 59.3065L95.9185 61.6199C96.356 61.8494 96.8397 61.9759 97.3329 61.9898C97.6396 62.0081 97.9461 61.951 98.226 61.8236C98.5059 61.6962 98.7509 61.5023 98.9397 61.2585Z" fill="#76563B"></path><path d="M114.773 59.3919L114.852 63.5748H112.105L112.227 59.6394L112.207 58.1028L109.254 58.0801L106.583 58.1228L106.564 59.3919L106.665 63.5748H103.902L104.043 59.6394L103.902 50.3744H106.691L106.612 55.8264L109.424 55.8691L112.173 55.8264L112.105 50.3744H114.917L114.773 59.3919Z" fill="#76563B"></path></g><defs><clipPath id="clip0"><rect width="261" height="84" fill="white"></rect></clipPath></defs></svg>