<svg xmlns="http://www.w3.org/2000/svg" xmlns:xlink="http://www.w3.org/1999/xlink" x="0px" y="0px" viewBox="0 0 450 120" style="enable-background:new 0 0 450 120;" xml:space="preserve"><style type="text/css">	.st0{display:none;}	.st1{fill:#CC0033;}</style><g id="Ebene_1" class="st0">			<image style="display:inline;overflow:visible;" width="200" height="61" transform="matrix(2.2516 0 0 2.2516 -2.0307 -8.6729)">	</image>			<text transform="matrix(1 0 0 1 -484.6468 -132.9089)" style="display:inline; font-family:'MyriadPro-Regular'; font-size:90.6717px;">goodquest</text></g><g id="Ebene_2">	<g>		<path d="M44.4,24c-0.2,3.2-0.4,6.7-0.4,12.1v25.5c0,10.1-2,16.2-6.3,20c-4.3,4-10.4,5.3-16,5.3c-5.3,0-11.1-1.3-14.6-3.6l2-6.1    c2.9,1.8,7.4,3.4,12.9,3.4c8.2,0,14.1-4.3,14.1-15.3v-4.9H36c-2.4,4.1-7.2,7.3-14,7.3c-10.9,0-18.7-9.2-18.7-21.4    C3.4,31.5,13.1,23,23.2,23c7.6,0,11.8,4,13.7,7.6H37l0.4-6.6H44.4z M36.1,41.4c0-1.4-0.1-2.5-0.5-3.6c-1.5-4.6-5.3-8.4-11.2-8.4    c-7.6,0-13.1,6.4-13.1,16.6c0,8.6,4.4,15.8,13,15.8c4.9,0,9.3-3.1,11.1-8.2c0.5-1.4,0.6-2.9,0.6-4.3V41.4z"></path>		<path d="M97,45.6c0,16.2-11.2,23.3-21.9,23.3c-11.9,0-21-8.7-21-22.6c0-14.7,9.6-23.3,21.8-23.3C88.4,23,97,32.2,97,45.6z     M62.1,46.1c0,9.6,5.5,16.9,13.3,16.9c7.6,0,13.3-7.2,13.3-17c0-7.4-3.7-16.9-13.1-16.9C66.2,29,62.1,37.7,62.1,46.1z"></path>		<path d="M146.7,45.6c0,16.2-11.2,23.3-21.9,23.3c-11.9,0-21-8.7-21-22.6c0-14.7,9.6-23.3,21.8-23.3    C138.2,23,146.7,32.2,146.7,45.6z M111.9,46.1c0,9.6,5.5,16.9,13.3,16.9c7.6,0,13.3-7.2,13.3-17c0-7.4-3.7-16.9-13.1-16.9    C116,29,111.9,37.7,111.9,46.1z"></path>		<path d="M194.7,3.5v53c0,3.9,0.1,8.3,0.4,11.3h-7.2l-0.4-7.6h-0.2c-2.4,4.9-7.8,8.6-15,8.6c-10.6,0-18.8-9-18.8-22.3    c-0.1-14.6,9-23.6,19.7-23.6c6.7,0,11.2,3.2,13.2,6.7h0.2V3.5H194.7z M186.7,41.9c0-1-0.1-2.4-0.4-3.4c-1.2-5.1-5.5-9.2-11.5-9.2    c-8.3,0-13.1,7.3-13.1,17c0,8.9,4.4,16.2,13,16.2c5.3,0,10.2-3.5,11.7-9.5c0.3-1.1,0.4-2.2,0.4-3.4V41.9z"></path>		<path class="st1" d="M237.9,61.1h-0.2c-2.4,4.4-7.3,7.8-14.3,7.8c-10.2,0-18.6-8.9-18.6-22.2c0-16.4,10.6-23.7,19.9-23.7    c6.8,0,11.3,3.4,13.5,7.6h0.2l0.3-6.6h7.5c-0.2,3.7-0.3,7.5-0.3,12.1v49.8h-8V61.1z M237.9,41.8c0-1.1-0.1-2.4-0.4-3.4    c-1.2-4.9-5.4-9.1-11.4-9.1c-8.3,0-13.2,7-13.2,16.9c0,8.7,4.2,16.3,13,16.3c5.2,0,9.6-3.2,11.4-8.7c0.4-1.1,0.6-2.6,0.6-3.8V41.8    z"></path>		<path class="st1" d="M295.7,56c0,4.5,0.1,8.5,0.4,12H289l-0.5-7.2h-0.2c-2.1,3.5-6.7,8.2-14.5,8.2c-6.9,0-15.1-3.8-15.1-19.2V24h8    v24.3c0,8.3,2.5,14,9.8,14c5.3,0,9.1-3.7,10.5-7.3c0.5-1.2,0.7-2.6,0.7-4.1V24h8V56z"></path>		<path class="st1" d="M313.4,47.4c0.2,10.8,7.1,15.2,15.1,15.2c5.7,0,9.2-1,12.1-2.3l1.4,5.7c-2.8,1.3-7.6,2.7-14.6,2.7    c-13.5,0-21.6-8.9-21.6-22.1c0-13.2,7.8-23.7,20.6-23.7c14.3,0,18.1,12.6,18.1,20.7c0,1.6-0.2,2.9-0.3,3.7H313.4z M336.8,41.7    c0.1-5.1-2.1-13-11.1-13c-8.1,0-11.6,7.4-12.2,13H336.8z"></path>		<path class="st1" d="M353.3,59.8c2.4,1.5,6.5,3.2,10.5,3.2c5.8,0,8.5-2.9,8.5-6.5c0-3.8-2.3-5.9-8.2-8.1    c-7.9-2.8-11.6-7.2-11.6-12.4c0-7.1,5.7-12.9,15.1-12.9c4.4,0,8.3,1.3,10.8,2.7l-2,5.8c-1.7-1.1-4.9-2.5-9-2.5    c-4.7,0-7.3,2.7-7.3,6c0,3.6,2.6,5.3,8.3,7.4c7.6,2.9,11.5,6.7,11.5,13.2c0,7.7-6,13.1-16.4,13.1c-4.8,0-9.2-1.2-12.3-3    L353.3,59.8z"></path>		<path class="st1" d="M399.9,11.4V24h11.4v6.1h-11.4v23.7c0,5.4,1.5,8.5,6,8.5c2.1,0,3.6-0.3,4.6-0.5l0.4,6c-1.5,0.6-4,1.1-7.1,1.1    c-3.7,0-6.7-1.2-8.6-3.4c-2.3-2.4-3.1-6.3-3.1-11.4V30.1h-6.8V24h6.8V13.5L399.9,11.4z"></path>		<circle class="st1" cx="435" cy="57" r="10.8"></circle>		<g>			<path d="M241.1,91.2V116h-3.2V91.2H241.1z"></path>			<path d="M251.4,94h-7.5v-2.7h18.4V94h-7.6V116h-3.2V94z"></path>			<path d="M272.3,112.1c1.4,0.9,3.5,1.6,5.7,1.6c3.3,0,5.2-1.7,5.2-4.2c0-2.3-1.3-3.6-4.7-4.9c-4.1-1.4-6.6-3.5-6.6-7     c0-3.9,3.2-6.7,8-6.7c2.5,0,4.4,0.6,5.5,1.2l-0.9,2.6c-0.8-0.4-2.5-1.2-4.7-1.2c-3.4,0-4.7,2-4.7,3.7c0,2.3,1.5,3.5,4.9,4.8     c4.2,1.6,6.3,3.6,6.3,7.3c0,3.8-2.8,7.1-8.7,7.1c-2.4,0-5-0.7-6.3-1.6L272.3,112.1z"></path>			<path d="M312.1,103.4c0,8.5-5.2,13.1-11.5,13.1c-6.6,0-11.2-5.1-11.2-12.6c0-7.9,4.9-13,11.5-13C307.7,90.8,312.1,96,312.1,103.4     z M292.9,103.8c0,5.3,2.9,10.1,7.9,10.1c5.1,0,8-4.7,8-10.3c0-4.9-2.6-10.1-7.9-10.1C295.5,93.4,292.9,98.3,292.9,103.8z"></path>			<path d="M316.3,91.2h3.2v22.1h10.6v2.7h-13.8V91.2z"></path>			<path d="M335.5,91.2v14.7c0,5.6,2.5,7.9,5.8,7.9c3.7,0,6-2.4,6-7.9V91.2h3.2v14.5c0,7.6-4,10.8-9.4,10.8c-5.1,0-8.9-2.9-8.9-10.6     V91.2H335.5z"></path>			<path d="M360.9,94h-7.5v-2.7h18.4V94h-7.6V116h-3.2V94z"></path>			<path d="M377.7,91.2V116h-3.2V91.2H377.7z"></path>			<path d="M404.5,103.4c0,8.5-5.2,13.1-11.5,13.1c-6.6,0-11.2-5.1-11.2-12.6c0-7.9,4.9-13,11.5-13C400.1,90.8,404.5,96,404.5,103.4     z M385.2,103.8c0,5.3,2.9,10.1,7.9,10.1c5.1,0,8-4.7,8-10.3c0-4.9-2.6-10.1-7.9-10.1C387.9,93.4,385.2,98.3,385.2,103.8z"></path>			<path d="M408.6,116V91.2h3.5l8,12.6c1.8,2.9,3.3,5.5,4.5,8.1l0.1,0c-0.3-3.3-0.4-6.3-0.4-10.2V91.2h3V116H424l-7.9-12.6     c-1.7-2.8-3.4-5.6-4.6-8.3l-0.1,0c0.2,3.1,0.3,6.1,0.3,10.2V116H408.6z"></path>			<path d="M432.4,112.1c1.4,0.9,3.5,1.6,5.7,1.6c3.3,0,5.2-1.7,5.2-4.2c0-2.3-1.3-3.6-4.7-4.9c-4.1-1.4-6.6-3.5-6.6-7     c0-3.9,3.2-6.7,8-6.7c2.5,0,4.4,0.6,5.5,1.2l-0.9,2.6c-0.8-0.4-2.5-1.2-4.7-1.2c-3.4,0-4.7,2-4.7,3.7c0,2.3,1.5,3.5,4.9,4.8     c4.2,1.6,6.3,3.6,6.3,7.3c0,3.8-2.8,7.1-8.7,7.1c-2.4,0-5-0.7-6.3-1.6L432.4,112.1z"></path>		</g>	</g></g></svg>