<svg xmlns="http://www.w3.org/2000/svg" xmlns:xlink="http://www.w3.org/1999/xlink" x="0px" y="0px" viewBox="0 0 300 250" style="enable-background:new 0 0 300 250;" xml:space="preserve"><style type="text/css">	.st0{display:none;fill:#FFFFFF;}	.st1{fill:#192B46;}	.st2{fill:#010202;}	.st3{fill:#FBB917;}	.st4{fill:#625B25;}	.st5{fill:#FFFFFF;}</style><g id="Ebene_2">	<path class="st0" d="M185.2-140.3c81.9,0,163.8,0,245.6,0c0,140.5,0,280.9,0,421.4c-170.9,0-341.7,0-512.6,0  c0-140.5,0-280.9,0-421.4c88.9,0,177.7,0,266.6,0c0,0.1,0.1,0.2,0.1,0.3C185.1-140.1,185.2-140.2,185.2-140.3z M209.7,198.2  c0.7-0.2,1.3-0.3,1.8-0.5c4.2-1.8,8.5-3.6,12.7-5.3c8-3.2,15.9-6.3,23.9-9.5c3.6-1.4,7.1-2.9,10.7-4.3c7.3-3,14.6-6,22-9  c7.9-3.2,15.8-6.4,23.7-9.5c3.3-1.3,6.6-2.3,9.9-3.5c1.7-0.6,3.3-1.6,4.9-2.3c9.2-3.9,18.4-7.7,27.6-11.5c7.4-3,14.8-5.9,22.2-8.8  c1.2-0.5,1.3-1,0.9-2c-1.2-2.9-2.4-5.8-3.6-8.6c-3.3-8.1-6.6-16.2-9.9-24.3c-2.6-6.3-5.2-12.7-7.7-19.1  c-3.4-8.4-6.7-16.8-10.1-25.2c-0.6-1.4-0.8-2.9-1.4-4.3c-1.1-2.6-2.5-5-3.5-7.6c-2-5-3.9-10.1-5.9-15.1c-2.6-6.5-5.4-13-8-19.6  c-1.8-4.4-3.3-8.9-5.1-13.3c-1-2.5-2.4-5-3.4-7.5c-1.9-4.6-3.7-9.2-5.5-13.8c-0.6-1.6-0.5-1.9,1-2.4c3.6-1.3,7.1-2.6,10.7-4  c4.6-1.8,9.1-3.8,13.6-5.6c4.3-1.7,8.6-3.3,12.9-5.1c5.1-2,10.1-4.2,15.2-6.2c6.4-2.6,12.9-5.1,19.3-7.7c7.7-3.1,15.4-6.3,23.1-9.4  c8.8-3.5,17.7-7.1,26.5-10.5c1.5-0.6,1.5-1.1,1-2.4c-4.8-11.8-9.5-23.6-14.3-35.3c-2.6-6.6-5.3-13.1-7.8-19.7  c-0.5-1.3-1.2-1.7-2.5-1.1c-2.7,1.2-5.5,2.4-8.2,3.5c-9.2,3.7-18.5,7.5-27.7,11.2c-10,4-20,8.1-30,12.2  c-12.5,5.1-25.1,10.1-37.7,15.2c-6,2.4-11.9,4.8-17.9,7.2c-12.5,5-25,10-37.4,15.1c-6.1,2.5-12.2,5-18.4,7.5  c-12.3,5-24.6,9.9-36.9,14.8c-7.1,2.9-14.2,5.8-21.4,8.7c-6.9,2.8-13.8,5.5-20.7,8.2c-4,1.6-7.9,3.2-11.9,4.7  c-4.8,1.9-9.6,3.7-14.4,5.6c-1,0.4-1.4,0.9-0.9,2c0.8,1.7,1.5,3.5,2.2,5.2c2.3,5.6,4.5,11.2,6.8,16.7c3.2,8.1,6.5,16.1,9.7,24.2  c0.3,0.7,0.2,1.2-0.7,1.6c-2,0.7-4,1.7-6,2.5c-7.6,3-15.3,6-22.9,9c-7.8,3.1-15.7,6.2-23.5,9.4c-3.2,1.3-6.4,2.9-9.6,4.2  c-5.6,2.3-11.3,4.4-17,6.6c-3.8,1.5-7.6,3.1-11.4,4.6c-1.1,0.4-2.2,0.7-3.2,1.2c-3.2,1.4-6.3,2.9-9.4,4.2c-3.8,1.6-7.8,3-11.6,4.6  c-5.2,2.1-10.4,4.2-15.7,6.3c-1.7,0.7-3.4,1.4-5.2,2.2c-0.9,0.4-1.8,0.5-2.3-0.7c-0.8-2.2-1.6-4.4-2.5-6.5  C-4.9,66.2-8.5,57.5-12,48.8c-1.7-4.3-3.4-8.6-5-12.9c-0.4-1.2-1-1.5-2.2-1c-2.8,1.3-5.6,2.5-8.5,3.6c-3.5,1.4-7,2.7-10.5,4.1  c-7.1,2.9-14.2,5.9-21.3,8.8c-4,1.6-8.1,3.2-12.2,4.8c-2.5,1-4.9,2-7.4,2.9c-0.6,0.2-1,0.4-0.7,1.3c1.3,3,2.4,6,3.7,8.9  c1.1,2.6,2.3,5.1,3.4,7.7c1,2.4,1.7,4.9,2.7,7.3c2,4.9,4.2,9.8,6.3,14.7c1.4,3.4,2.6,7,3.9,10.4c2.4,6.2,5,12.3,7.5,18.5  c2.6,6.4,5.4,12.9,7.9,19.3c4.2,10.4,8.2,20.8,12.4,31.3c1.7,4.2,3.5,8.3,5.2,12.5c3,7.3,5.9,14.7,8.9,22  c2.9,7.2,5.9,14.4,8.8,21.7c3.4,8.4,6.7,16.8,10.1,25.2c2.4,6,4.9,12,7.3,18c0.5,1.2,1,1.3,2.1,0.9c2.1-0.9,4.2-1.6,6.3-2.5  c17.5-7,35-14.1,52.5-21.1c1.2-0.5,1.4-1,1-2.2c-1.5-3.5-2.9-7.1-4.3-10.6c-2.5-6.2-4.9-12.5-7.3-18.7c-1-2.4-2.2-4.8-3.2-7.2  c-3.8-9.2-7.4-18.5-11.2-27.8c-3.7-9.2-7.5-18.3-11.2-27.5c-1.9-4.6-3.7-9.3-5.6-13.9c-0.8-2.1-1.7-4.2-2.6-6.3  c-0.4-0.9-0.1-1.3,0.7-1.6c2.5-0.9,5-1.9,7.5-2.9c21.3-8.6,42.6-17.1,63.9-25.7c15.8-6.4,31.5-12.7,47.3-19.1  c5.9-2.4,11.9-4.8,17.8-7.3c1.4-0.6,2-0.4,2.4,1.1c0.7,2.2,1.5,4.3,2.3,6.4c1.9,4.6,3.8,9.2,5.7,13.9c1,2.4,1.9,4.8,2.9,7.1  c2.4,5.9,4.9,11.8,7.2,17.7c1.4,3.5,2.8,7.1,4.1,10.6c1.3,3.3,2.6,6.7,3.9,10c1.1,2.9,2.3,5.9,3.5,8.8c1.4,3.3,2.8,6.6,4.2,9.9  c1.6,3.9,3.2,7.9,4.8,11.8c1.3,3.3,2.7,6.6,4,9.9C207.9,193.6,208.8,195.9,209.7,198.2z M185.8-139.2c-1.4,0-2.9-0.1-4.3,0  c-6.6,0.8-12.8,2.5-18.3,6.6c-3.1,2.3-6.1,4.5-8.6,7.4c-5.3,6.1-8.7,13-9.7,21.1c-0.9,7.6,0.2,14.9,3.2,21.9c2.5,5.8,6,11,11,15  c9.6,7.8,20.6,11.6,32.9,9.7c9.9-1.6,18.5-6,25.1-14c4.2-5.2,7.3-10.9,9-17.3c1.2-4.6,1.3-9.4,0.8-14.2c-0.4-4-1.6-7.7-2.9-11.4  c-1.9-5-5-9.2-8.8-13c-4.3-4.3-9.2-7.8-15.1-9.8C195.5-138.8,190.7-139.6,185.8-139.2z"></path>	<g>		<path class="st1" d="M155.9,5.2c0,0.1-0.1,0.1-0.1,0.2c0-0.1-0.1-0.1-0.1-0.2C155.8,5.2,155.9,5.2,155.9,5.2z"></path>		<path class="st2" d="M169.9,198.6c-0.5-1.3-1-2.6-1.5-3.9c-0.8-1.9-1.5-3.8-2.3-5.6c-0.9-2.3-1.8-4.5-2.7-6.7   c-0.8-1.9-1.6-3.7-2.4-5.6c-0.7-1.7-1.3-3.3-2-5c-0.7-1.9-1.5-3.8-2.2-5.7c-0.8-2-1.6-4-2.4-6c-1.4-3.4-2.8-6.7-4.1-10.1   c-0.6-1.4-1.1-2.7-1.7-4.1c-1.1-2.6-2.2-5.3-3.2-7.9c-0.5-1.2-0.9-2.4-1.3-3.6c-0.3-0.8-0.6-1-1.4-0.6c-3.4,1.4-6.8,2.8-10.2,4.2   c-9,3.6-18,7.3-27,10.9c-12.2,4.9-24.3,9.8-36.5,14.7c-1.4,0.6-2.8,1.1-4.3,1.7c-0.5,0.2-0.6,0.4-0.4,0.9c0.5,1.2,1,2.4,1.5,3.6   c1.1,2.6,2.1,5.3,3.2,8c2.1,5.2,4.3,10.5,6.4,15.7c2.1,5.3,4.2,10.6,6.4,15.9c0.6,1.4,1.3,2.7,1.8,4.1c1.4,3.6,2.8,7.1,4.2,10.7   c0.8,2,1.6,4.1,2.4,6.1c0.3,0.7,0.1,1-0.6,1.2c-10,4-20,8-30,12.1c-1.2,0.5-2.4,0.9-3.6,1.4c-0.6,0.3-0.9,0.2-1.2-0.5   c-1.4-3.4-2.8-6.8-4.2-10.3c-1.9-4.8-3.8-9.6-5.8-14.4c-1.7-4.1-3.4-8.3-5-12.4c-1.7-4.2-3.4-8.4-5.1-12.6c-1-2.4-2-4.7-3-7.1   c-2.4-5.9-4.7-11.9-7.1-17.9c-1.5-3.7-3-7.4-4.5-11c-1.4-3.5-2.9-7-4.3-10.6c-0.8-2-1.4-4-2.2-6c-1.2-2.8-2.4-5.6-3.6-8.4   c-0.6-1.4-1-2.8-1.5-4.2c-0.6-1.5-1.3-2.9-1.9-4.4c-0.7-1.7-1.4-3.4-2.1-5.1c-0.2-0.5,0-0.6,0.4-0.7c1.4-0.6,2.8-1.1,4.2-1.7   c2.3-0.9,4.7-1.8,7-2.7c4.1-1.7,8.1-3.4,12.2-5c2-0.8,4-1.6,6-2.4c1.6-0.7,3.2-1.4,4.9-2.1c0.7-0.3,1-0.1,1.3,0.6   c0.9,2.5,1.9,4.9,2.9,7.4c2,5,4,10,6.1,14.9c0.5,1.2,0.9,2.5,1.4,3.7c0.3,0.7,0.8,0.6,1.3,0.4c1-0.4,2-0.8,3-1.2   c3-1.2,6-2.4,8.9-3.6c2.2-0.9,4.4-1.7,6.6-2.6c1.8-0.8,3.6-1.6,5.4-2.4c0.6-0.3,1.2-0.4,1.8-0.7c2.2-0.9,4.3-1.8,6.5-2.6   c3.2-1.3,6.5-2.5,9.7-3.8c1.9-0.7,3.7-1.6,5.5-2.4c4.5-1.8,8.9-3.6,13.4-5.4c4.4-1.7,8.7-3.4,13.1-5.2c1.2-0.5,2.3-1,3.4-1.4   c0.5-0.2,0.6-0.5,0.4-0.9c-1.8-4.6-3.7-9.2-5.5-13.8c-1.3-3.2-2.6-6.4-3.9-9.6c-0.4-1-0.8-2-1.2-3c-0.3-0.6-0.1-0.9,0.5-1.1   c2.7-1.1,5.5-2.1,8.2-3.2c2.3-0.9,4.5-1.8,6.8-2.7c3.9-1.6,7.9-3.1,11.8-4.7c4.1-1.6,8.1-3.3,12.2-5c7-2.8,14.1-5.6,21.1-8.5   c3.5-1.4,7-2.9,10.5-4.3c7.1-2.9,14.3-5.7,21.4-8.6c3.4-1.4,6.8-2.8,10.2-4.1c7.2-2.9,14.3-5.8,21.5-8.7   c5.7-2.3,11.4-4.6,17.1-6.9c5.3-2.1,10.6-4.2,15.8-6.4c1.6-0.6,3.2-1.3,4.7-2c0.8-0.3,1.2-0.1,1.5,0.6c1.5,3.8,3,7.5,4.5,11.3   c2.7,6.7,5.4,13.5,8.2,20.2c0.3,0.7,0.3,1.1-0.6,1.4c-5.1,2-10.1,4-15.2,6c-4.4,1.8-8.8,3.6-13.2,5.4c-3.7,1.5-7.4,2.9-11,4.4   c-2.9,1.2-5.8,2.4-8.7,3.6c-2.5,1-4.9,1.9-7.4,2.9c-2.6,1.1-5.2,2.2-7.8,3.2c-2,0.8-4.1,1.6-6.1,2.3c-0.9,0.3-0.9,0.5-0.6,1.4   c1.1,2.6,2.1,5.3,3.2,7.9c0.6,1.5,1.4,2.8,2,4.3c1,2.5,1.9,5.1,2.9,7.6c1.5,3.7,3.1,7.4,4.6,11.2c1.2,2.9,2.2,5.8,3.4,8.6   c0.6,1.5,1.4,2.9,2,4.4c0.3,0.8,0.5,1.6,0.8,2.4c1.9,4.8,3.8,9.6,5.8,14.4c1.5,3.6,2.9,7.3,4.4,10.9c1.9,4.6,3.8,9.3,5.7,13.9   c0.7,1.6,1.3,3.3,2.1,4.9c0.3,0.6,0.2,0.9-0.5,1.2c-4.2,1.6-8.5,3.3-12.7,5c-5.3,2.2-10.5,4.4-15.8,6.6c-1,0.4-1.9,0.9-2.8,1.3   c-1.9,0.7-3.8,1.3-5.7,2c-4.5,1.8-9,3.6-13.5,5.4c-4.2,1.7-8.4,3.4-12.6,5.2c-2,0.8-4.1,1.7-6.1,2.5c-4.5,1.8-9.1,3.6-13.7,5.4   c-2.4,1-4.8,2-7.3,3C170.7,198.4,170.4,198.5,169.9,198.6z M200.1,182.2c-0.9-2.3-1.8-4.5-2.7-6.7c-3.5-8.8-7.1-17.5-10.6-26.2   c-2.7-6.8-5.5-13.6-8.2-20.4c-2.9-7.2-5.8-14.3-8.7-21.5c-1.7-4.3-3.4-8.5-5.2-12.8c-1.4-3.4-2.9-6.8-4.3-10.2   c-1.2-2.9-2.3-5.8-3.4-8.8c-1.5-3.8-2.9-7.5-4.4-11.3c-0.1-0.4-0.3-0.6-0.7-0.3c-1,0.5-2,0.9-3,1.3c-3.7,1.5-7.3,3.1-11,4.6   c-2.1,0.9-4.3,1.7-6.5,2.5c-2.1,0.8-4.3,1.6-6.4,2.5c-0.3,0.1-0.6,0.3-0.8,0.4c3.7,9.2,7.4,18.4,11.2,27.5   c-2.9,1.2-5.6,2.3-8.4,3.4c-4.7,1.9-9.5,3.8-14.2,5.7c-6,2.4-11.9,4.8-17.9,7.2c-3.1,1.2-6.1,2.4-9.2,3.7   c-3.6,1.4-7.2,2.9-10.8,4.4c-4.7,1.9-9.4,3.8-14,5.7c-3.8,1.5-7.6,3.1-11.4,4.6c-0.5,0.2-0.7,0.1-0.9-0.4   c-3.5-8.8-7-17.5-10.4-26.3c-0.2-0.6-0.5-0.7-1.2-0.5c-1.8,0.8-3.5,1.6-5.3,2.3c-7.1,2.9-14.2,5.8-21.4,8.6   c-0.6,0.2-0.7,0.5-0.5,1.1c1.1,2.7,2.2,5.5,3.4,8.2c1,2.6,2.1,5.1,3.1,7.7c2.3,5.8,4.7,11.5,7,17.3c1.7,4.2,3.3,8.4,5,12.6   c0.9,2.4,2,4.7,3,7c2.4,5.9,4.8,11.8,7.2,17.7c2.3,5.7,4.7,11.5,7,17.2c2.4,6,4.8,11.9,7.2,17.9c1.5,3.6,2.9,7.2,4.4,10.9   c0.4,0.9,0.4,1,1.3,0.6c7.6-3.1,15.2-6.2,22.9-9.2c1.4-0.6,2.7-1.1,4.1-1.7c-0.1-0.3-0.1-0.5-0.2-0.7c-1.5-3.7-3-7.4-4.5-11.1   c-2.8-6.9-5.6-13.8-8.4-20.7c-3.5-8.7-7-17.3-10.5-26c-0.7-1.8-1.6-3.6-2.3-5.5c-0.5-1.4-0.6-1.4,0.8-2c0.1,0,0.1-0.1,0.2-0.1   c6.8-2.7,13.5-5.5,20.3-8.2c7.8-3.2,15.7-6.3,23.5-9.5c7.2-2.9,14.4-5.8,21.6-8.7c6.3-2.5,12.6-5.1,18.9-7.7   c1.1-0.4,1.1-0.5,1.5,0.6c0.9,2.2,1.8,4.5,2.7,6.7c1.7,4.2,3.5,8.5,5.2,12.7c2.6,6.3,5.1,12.7,7.7,19c2.2,5.4,4.4,10.8,6.5,16.1   c1.2,3,2.4,6,3.6,9c0.2,0.5,0.5,0.8,1.1,0.5c0.5-0.3,1.1-0.5,1.6-0.7c7.6-3,15.1-6.1,22.7-9.1C198.2,183,199.1,182.6,200.1,182.2z    M290.6,38.5c-0.1-0.2-0.1-0.3-0.1-0.4c-1.5-3.5-3-7-4.4-10.6c-1.9-4.8-3.8-9.6-5.7-14.4c-0.3-0.7-0.6-0.8-1.3-0.5   c-1.2,0.6-2.4,1.1-3.6,1.6c-4.8,1.9-9.6,3.9-14.3,5.8c-4.8,2-9.7,3.9-14.5,5.8c-5.7,2.3-11.3,4.6-17,6.9   c-6.9,2.8-13.9,5.6-20.8,8.4c-6.6,2.6-13.1,5.3-19.6,8c-5.2,2.1-10.3,4.2-15.5,6.2c-5.5,2.2-11.1,4.4-16.6,6.6   c-0.3,0.1-0.7,0.3-1,0.5c1.1,2.6,2.1,5.2,3.2,7.7c2.3,5.7,4.5,11.4,6.8,17.1c0.3,0.7,0.6,0.9,1.3,0.6c1.4-0.6,2.9-1.2,4.3-1.7   c7.2-2.9,14.3-5.7,21.5-8.6c0.6-0.3,1-0.1,1.2,0.5c1.4,3.5,2.8,6.9,4.2,10.4c4,10,8.1,20,12.1,30c3.4,8.5,6.9,17,10.3,25.6   c3.4,8.3,6.7,16.7,10.1,25c0.1,0.2,0.5,0.5,0.7,0.4c0.5-0.1,0.9-0.4,1.3-0.5c2.7-1.1,5.4-2.2,8-3.2c4.9-2,9.8-3.9,14.7-5.9   c0.6-0.2,0.7-0.5,0.5-1.1c-0.5-1.3-1.1-2.7-1.6-4c-1.4-3.5-2.9-7-4.3-10.5c-1.9-4.8-3.8-9.6-5.8-14.3c-1.4-3.4-2.7-6.8-4.1-10.2   c-1.6-3.8-3.1-7.7-4.7-11.5c-1.8-4.4-3.6-8.9-5.4-13.3c-0.8-2-1.6-4-2.4-6c-2.8-7-5.6-13.9-8.4-20.9c-0.3-0.7-0.1-1,0.5-1.2   c3.3-1.3,6.6-2.7,10-4c10.3-4.1,20.5-8.3,30.8-12.4c7.9-3.2,15.8-6.4,23.7-9.5C286.7,40,288.6,39.2,290.6,38.5z M227.5,171   c-0.1-0.4-0.2-0.5-0.3-0.7c-0.6-1.5-1.2-2.9-1.7-4.4c-0.8-2-1.6-3.9-2.4-5.9c-3.5-8.7-7-17.3-10.5-26c-3.2-8-6.5-16-9.7-24   c-3.6-9-7.2-17.9-10.7-26.9c-0.2-0.6-0.5-0.8-1.2-0.5c-1.9,0.8-3.8,1.6-5.7,2.4c-1,0.4-2.1,0.6-3,1.1c-0.9,0.5-1.7,0.9-2.6,1.3   c-2.4,0.9-4.7,1.8-7,2.8c-1.2,0.5-2.4,1.1-3.7,1.5c-0.7,0.3-0.8,0.6-0.5,1.2c1.7,4,3.3,8.1,4.9,12.1c2.5,6.1,4.9,12.2,7.4,18.3   c2.6,6.4,5.2,12.9,7.8,19.3c3.1,7.6,6.1,15.2,9.2,22.9c1.9,4.8,3.9,9.7,5.8,14.5c0.3,0.7,0.6,0.8,1.3,0.5c3.5-1.5,7-2.9,10.5-4.3   c3.8-1.5,7.6-3,11.4-4.6C227,171.4,227.3,171.1,227.5,171z"></path>		<path class="st1" d="M156.3,5.9c2.8-0.2,5.6,0.3,8.2,1.2c3.3,1.1,6.1,3.1,8.6,5.6c2.2,2.1,3.9,4.5,5,7.4c0.8,2.1,1.4,4.2,1.7,6.5   c0.3,2.8,0.3,5.5-0.4,8.1c-1,3.6-2.7,6.9-5.1,9.9c-3.7,4.6-8.6,7.1-14.3,8c-7.1,1.1-13.3-1-18.8-5.5c-2.8-2.3-4.8-5.3-6.3-8.6   c-1.7-4-2.4-8.1-1.8-12.5c0.6-4.6,2.5-8.6,5.5-12.1c1.4-1.7,3.1-2.9,4.9-4.2c3.1-2.3,6.7-3.3,10.4-3.8   C154.6,5.8,155.5,5.9,156.3,5.9z M136.7,31c0.4,2.4,1,4.8,2.2,7c1.6,3.1,3.8,5.6,6.8,7.5c3.4,2.2,7,3.4,10.9,3.5c2,0,4-0.5,6-1.2   c9.8-3.3,14.9-13.2,13.2-22.2c-1.6-8.3-8.6-15-17.2-16c-3.9-0.5-7.5,0.4-11,2.1c-3.2,1.6-5.7,3.9-7.6,6.8c-1.8,2.7-2.9,5.7-3.1,9   c0,0-0.1,0-0.1,0.1c0,0,0,0.1,0,0.1c0,0.1,0,0.2,0,0.3c0,0.1,0,0.2,0,0.4c0,0.1,0,0.2,0,0.3C136.7,29.5,136.7,30.2,136.7,31z"></path>		<path class="st3" d="M200.1,182.2c-1,0.4-1.9,0.8-2.9,1.2c-7.6,3.1-15.1,6.1-22.7,9.1c-0.5,0.2-1.1,0.4-1.6,0.7   c-0.6,0.3-0.9,0-1.1-0.5c-1.2-3-2.4-6-3.6-9c-2.2-5.4-4.4-10.8-6.5-16.1c-2.6-6.3-5.1-12.7-7.7-19c-1.7-4.2-3.4-8.5-5.2-12.7   c-0.9-2.2-1.8-4.5-2.7-6.7c-0.4-1.1-0.4-1.1-1.5-0.6c-6.3,2.6-12.6,5.1-18.9,7.7c-7.2,2.9-14.4,5.8-21.6,8.7   c-7.8,3.2-15.7,6.3-23.5,9.5c-6.8,2.7-13.5,5.4-20.3,8.2c-0.1,0-0.1,0.1-0.2,0.1c-1.5,0.5-1.4,0.5-0.8,2c0.7,1.8,1.5,3.7,2.3,5.5   c3.5,8.7,7,17.3,10.5,26c2.8,6.9,5.6,13.8,8.4,20.7c1.5,3.7,3,7.4,4.5,11.1c0.1,0.2,0.1,0.4,0.2,0.7c-1.4,0.6-2.8,1.1-4.1,1.7   c-7.6,3.1-15.2,6.2-22.9,9.2c-0.9,0.4-0.9,0.4-1.3-0.6c-1.4-3.6-2.9-7.2-4.4-10.9c-2.4-6-4.8-11.9-7.2-17.9   c-2.3-5.7-4.7-11.5-7-17.2c-2.4-5.9-4.8-11.8-7.2-17.7c-1-2.4-2-4.7-3-7c-1.7-4.2-3.3-8.4-5-12.6c-2.3-5.8-4.6-11.5-7-17.3   c-1-2.6-2.1-5.1-3.1-7.7c-1.1-2.7-2.2-5.5-3.4-8.2c-0.2-0.6-0.1-0.8,0.5-1.1c7.1-2.9,14.2-5.7,21.4-8.6c1.8-0.7,3.6-1.5,5.3-2.3   c0.6-0.3,0.9-0.1,1.2,0.5c3.5,8.8,7,17.5,10.4,26.3c0.2,0.5,0.4,0.6,0.9,0.4c3.8-1.5,7.6-3.1,11.4-4.6c4.7-1.9,9.4-3.8,14-5.7   c3.6-1.4,7.2-2.9,10.8-4.4c3.1-1.2,6.1-2.4,9.2-3.7c6-2.4,11.9-4.8,17.9-7.2c4.7-1.9,9.5-3.8,14.2-5.7c2.8-1.1,5.5-2.3,8.4-3.4   c-3.7-9.2-7.4-18.3-11.2-27.5c0.2-0.1,0.5-0.3,0.8-0.4c2.1-0.8,4.3-1.7,6.4-2.5c2.2-0.8,4.4-1.6,6.5-2.5c3.7-1.5,7.3-3.1,11-4.6   c1-0.4,2-0.9,3-1.3c0.4-0.2,0.6,0,0.7,0.3c1.5,3.8,2.9,7.5,4.4,11.3c1.1,2.9,2.2,5.9,3.4,8.8c1.4,3.4,2.9,6.8,4.3,10.2   c1.8,4.2,3.5,8.5,5.2,12.8c2.9,7.2,5.8,14.3,8.7,21.5c2.7,6.8,5.5,13.6,8.2,20.4c3.5,8.8,7.1,17.5,10.6,26.2   C198.3,177.6,199.2,179.8,200.1,182.2z"></path>		<path class="st3" d="M290.6,38.5c-2,0.8-3.9,1.5-5.9,2.3c-7.9,3.2-15.8,6.4-23.7,9.5c-10.3,4.1-20.5,8.3-30.8,12.4   c-3.3,1.3-6.6,2.7-10,4c-0.6,0.2-0.8,0.5-0.5,1.2c2.8,7,5.6,13.9,8.4,20.9c0.8,2,1.6,4,2.4,6c1.8,4.4,3.6,8.9,5.4,13.3   c1.5,3.8,3.1,7.7,4.7,11.5c1.4,3.4,2.7,6.8,4.1,10.2c1.9,4.8,3.8,9.6,5.8,14.3c1.4,3.5,2.8,7,4.3,10.5c0.5,1.3,1.1,2.7,1.6,4   c0.2,0.5,0.1,0.8-0.5,1.1c-4.9,1.9-9.8,3.9-14.7,5.9c-2.7,1.1-5.4,2.2-8,3.2c-0.4,0.2-0.9,0.5-1.3,0.5c-0.2,0-0.7-0.2-0.7-0.4   c-3.4-8.3-6.7-16.7-10.1-25c-3.4-8.5-6.9-17-10.3-25.6c-4-10-8.1-20-12.1-30c-1.4-3.5-2.8-6.9-4.2-10.4c-0.3-0.6-0.6-0.8-1.2-0.5   c-7.1,2.9-14.3,5.8-21.5,8.6c-1.4,0.6-2.9,1.1-4.3,1.7c-0.7,0.3-1.1,0.1-1.3-0.6c-2.3-5.7-4.5-11.4-6.8-17.1   c-1-2.5-2.1-5.1-3.2-7.7c0.3-0.2,0.6-0.4,1-0.5c5.5-2.2,11.1-4.4,16.6-6.6c5.2-2.1,10.4-4.2,15.5-6.2c6.6-2.6,13.1-5.3,19.6-8   c6.9-2.8,13.9-5.6,20.8-8.4c5.7-2.3,11.3-4.6,17-6.9c4.8-2,9.7-3.9,14.5-5.8c4.8-1.9,9.6-3.9,14.3-5.8c1.2-0.5,2.4-1,3.6-1.6   c0.7-0.3,1-0.2,1.3,0.5c1.9,4.8,3.7,9.6,5.7,14.4c1.4,3.5,2.9,7,4.4,10.6C290.6,38.1,290.6,38.2,290.6,38.5z"></path>		<path class="st3" d="M227.5,171c-0.3,0.2-0.5,0.4-0.8,0.5c-3.8,1.5-7.6,3-11.4,4.6c-3.5,1.4-7,2.8-10.5,4.3   c-0.7,0.3-1,0.2-1.3-0.5c-1.9-4.9-3.9-9.7-5.8-14.5c-3.1-7.6-6.1-15.2-9.2-22.9c-2.6-6.4-5.2-12.9-7.8-19.3   c-2.5-6.1-4.9-12.2-7.4-18.3c-1.6-4-3.3-8.1-4.9-12.1c-0.3-0.7-0.2-1,0.5-1.2c1.3-0.4,2.5-1,3.7-1.5c2.3-0.9,4.7-1.9,7-2.8   c0.9-0.3,1.8-0.8,2.6-1.3c0.9-0.5,2-0.7,3-1.1c1.9-0.8,3.8-1.6,5.7-2.4c0.7-0.3,1-0.1,1.2,0.5c3.6,9,7.1,18,10.7,26.9   c3.2,8,6.5,16,9.7,24c3.5,8.7,7,17.3,10.5,26c0.8,2,1.6,3.9,2.4,5.9c0.6,1.5,1.2,2.9,1.7,4.4C227.3,170.4,227.4,170.6,227.5,171z"></path>		<path class="st3" d="M136.7,28c0-0.1,0-0.2,0-0.3c0-0.1,0-0.1,0-0.2c0.2-3.3,1.4-6.3,3.1-9c1.9-2.9,4.4-5.2,7.6-6.8   c3.6-1.7,7.1-2.6,11-2.1c8.5,1,15.6,7.7,17.2,16c1.7,9-3.4,18.9-13.2,22.2c-1.9,0.6-4,1.2-6,1.2c-3.9-0.1-7.6-1.3-10.9-3.5   c-3-1.9-5.2-4.4-6.8-7.5c-1.1-2.2-1.8-4.5-2.2-7c0-0.8,0-1.6,0-2.4c0-0.1,0-0.2,0-0.3C136.7,28.2,136.7,28.1,136.7,28z"></path>		<path class="st4" d="M136.7,28.7c0,0.8,0,1.6,0,2.4C136.7,30.2,136.7,29.5,136.7,28.7z"></path>		<path class="st4" d="M136.7,28c0,0.1,0,0.2,0,0.4C136.7,28.2,136.7,28.1,136.7,28z"></path>		<path class="st4" d="M136.7,27.5c0,0.1,0,0.1,0,0.2C136.7,27.6,136.6,27.6,136.7,27.5C136.6,27.5,136.7,27.5,136.7,27.5z"></path>	</g></g><g id="Ebene_1">	<path class="st5" d="M-270.6,398.4c-0.2,0-0.4,0-0.6,0c-0.1-0.2-0.1-0.4-0.2-0.6c-1.1-2.8-2.3-5.7-3.4-8.5c-1.5-3.7-3-7.3-4.5-11  c-0.3-0.8-0.7-1.6-1-2.5c-0.1-0.1-0.1-0.3-0.3-0.4c-0.1,0.1-0.3,0.1-0.5,0.2c-4.8,1.9-9.6,3.9-14.3,5.8c-5,2-10.1,4.1-15.1,6.1  c-0.7,0.3-0.7,0.2-0.4,1c1.3,3.1,2.5,6.2,3.8,9.3c0.1,0.2,0.1,0.4,0.2,0.6c-3.8,0-7.6,0-11.3,0c-0.1-0.2-0.1-0.3-0.2-0.5  c-0.2-0.6-0.5-1.3-0.8-1.9c-2.3-5.8-4.7-11.6-7-17.4c-0.7-1.6-1.3-3.2-2-4.8c-0.1-0.2-0.2-0.3-0.1-0.6c0.1-0.1,0.3-0.1,0.4-0.2  c0.7-0.3,1.5-0.6,2.2-0.9c2.2-0.9,4.3-1.7,6.5-2.6c0.2-0.1,0.4-0.2,0.6-0.2c0.2,0.1,0.2,0.3,0.3,0.4c0.6,1.5,1.2,3.1,1.9,4.6  c0.5,1.3,1.1,2.7,1.6,4c0.1,0.2,0.1,0.4,0.3,0.5c0.2,0,0.4-0.1,0.6-0.2c4.1-1.7,8.2-3.3,12.3-5c5.7-2.3,11.3-4.6,17-6.8  c0.7-0.3,0.7-0.3,0.4-0.9c-1.1-2.8-2.3-5.6-3.4-8.4c-0.1-0.2-0.1-0.4-0.2-0.6c0.2-0.1,0.4-0.2,0.6-0.3c1.4-0.6,2.9-1.2,4.3-1.7  c1.5-0.6,2.9-1.2,4.4-1.8c0.2-0.1,0.3-0.2,0.5-0.1c0.1,0.2,0.2,0.4,0.3,0.6c0.8,2,1.6,3.9,2.4,5.9c2.5,6.2,5,12.5,7.5,18.7  c2.1,5.2,4.2,10.5,6.4,15.7c0.2,0.5,0.3,0.6-0.4,0.9c-2.2,0.9-4.4,1.8-6.6,2.7c-0.5,0.2-1.1,0.4-1.6,0.7  C-270.4,398.1-270.6,398.2-270.6,398.4z"></path>	<path class="st5" d="M-234,335c0,3.5,0,7,0,10.5c-1.1,0.5-2.3,0.9-3.4,1.4c-4.1,1.7-8.2,3.3-12.3,5c-1.4,0.6-2.8,1.1-4.2,1.7  c-0.2,0.1-0.4,0.1-0.5,0.3c0,0.3,0.2,0.5,0.2,0.7c2.4,5.9,4.8,11.8,7.1,17.7c1.8,4.5,3.6,9,5.4,13.5c0.2,0.6,0.2,0.6-0.3,0.8  c-2.6,1.1-5.3,2.1-7.9,3.2c-0.1,0-0.2,0.1-0.3,0.1c-0.2-0.1-0.2-0.3-0.3-0.5c-0.7-1.6-1.3-3.2-2-4.8c-1.4-3.6-2.9-7.2-4.3-10.8  c-1.6-4.1-3.3-8.1-4.9-12.2c-0.5-1.2-1-2.5-1.5-3.7c-0.1-0.2-0.1-0.4-0.4-0.5c-0.2,0.1-0.4,0.1-0.6,0.2c-1,0.4-1.9,0.8-2.9,1.2  c-1.8,0.7-3.6,1.5-5.5,2.2c-0.2,0.1-0.4,0.2-0.7,0.2c-0.1-0.1-0.1-0.3-0.2-0.4c-1.1-2.6-2.1-5.3-3.2-7.9c-0.2-0.6-0.2-0.6,0.4-0.8  c4.4-1.8,8.7-3.5,13.1-5.3c6.2-2.5,12.4-5,18.6-7.5C-241,337.8-237.5,336.4-234,335z"></path>	<path d="M-234,347.1c-1.1,0.5-2.3,0.9-3.4,1.4c-4.9,2-9.9,4-14.8,6c-0.1,0.1-0.3,0.1-0.4,0.2c-0.1,0.2,0.1,0.4,0.1,0.6  c1.4,3.4,2.8,6.8,4.1,10.2c2.8,7,5.7,14,8.5,21c0.1,0.2,0.2,0.4,0.3,0.7c-0.1,0.1-0.3,0.1-0.4,0.2c-1.9,0.8-3.8,1.6-5.8,2.3  c-6.8,2.8-13.7,5.5-20.5,8.3c-0.2,0.1-0.5,0.1-0.6,0.3c-1.2,0-2.5,0-3.7,0c0-0.2,0.2-0.2,0.4-0.3c0.5-0.2,1.1-0.4,1.6-0.7  c2.2-0.9,4.4-1.8,6.6-2.7c0.6-0.3,0.6-0.3,0.4-0.9c-2.1-5.2-4.2-10.5-6.4-15.7c-2.5-6.2-5-12.5-7.5-18.7c-0.8-2-1.6-3.9-2.4-5.9  c-0.1-0.2-0.2-0.4-0.3-0.6c-0.2-0.1-0.4,0-0.5,0.1c-1.5,0.6-2.9,1.2-4.4,1.8c-1.4,0.6-2.9,1.2-4.3,1.7c-0.2,0.1-0.4,0.2-0.6,0.3  c0.1,0.2,0.1,0.4,0.2,0.6c1.1,2.8,2.3,5.6,3.4,8.4c0.3,0.6,0.3,0.6-0.4,0.9c-5.7,2.3-11.3,4.6-17,6.8c-4.1,1.7-8.2,3.3-12.3,5  c-0.2,0.1-0.4,0.2-0.6,0.2c-0.2-0.1-0.2-0.3-0.3-0.5c-0.5-1.3-1.1-2.7-1.6-4c-0.6-1.5-1.2-3.1-1.9-4.6c-0.1-0.2-0.1-0.3-0.3-0.4  c-0.2,0-0.4,0.1-0.6,0.2c-2.2,0.9-4.3,1.7-6.5,2.6c-0.7,0.3-1.5,0.6-2.2,0.9c-0.2,0.1-0.3,0.1-0.4,0.2c-0.1,0.3,0,0.4,0.1,0.6  c0.6,1.6,1.3,3.2,2,4.8c2.3,5.8,4.7,11.6,7,17.4c0.3,0.6,0.5,1.3,0.8,1.9c0.1,0.2,0.1,0.3,0.2,0.5c-0.5,0-1.1,0-1.6,0  c-0.1-0.2-0.1-0.4-0.2-0.6c-3.3-8.3-6.7-16.5-10-24.8c-0.1-0.2-0.1-0.3-0.2-0.5c0.1-0.2,0.4-0.2,0.5-0.3c3-1.2,6.1-2.4,9.1-3.7  c0.8-0.3,1.6-0.6,2.4-1c0.1-0.1,0.3-0.1,0.4-0.2c0.2,0.1,0.2,0.3,0.3,0.4c1.1,2.8,2.3,5.6,3.4,8.4c0.1,0.3,0.2,0.5,0.3,0.8  c0.2,0,0.4-0.1,0.6-0.2c3-1.2,6.1-2.5,9.1-3.7c5.9-2.4,11.7-4.7,17.6-7.1c0.2-0.1,0.3-0.1,0.5-0.2c0-0.2-0.1-0.3-0.1-0.5  c-1-2.5-2-5-3.1-7.6c-0.2-0.4-0.4-0.9-0.5-1.3c0-0.1-0.1-0.2-0.1-0.3c0.2-0.2,0.4-0.2,0.6-0.3c3.4-1.4,6.9-2.8,10.3-4.2  c9.3-3.7,18.5-7.5,27.8-11.2c5.6-2.2,11.1-4.5,16.7-6.7c0.2-0.1,0.3-0.1,0.5-0.2c0,0.5,0,1.1,0,1.6c-3.5,1.4-7,2.8-10.6,4.3  c-6.2,2.5-12.4,5-18.6,7.5c-4.4,1.8-8.7,3.5-13.1,5.3c-0.6,0.2-0.6,0.2-0.4,0.8c1.1,2.6,2.1,5.3,3.2,7.9c0.1,0.1,0.1,0.3,0.2,0.4  c0.3,0,0.5-0.1,0.7-0.2c1.8-0.7,3.6-1.5,5.5-2.2c1-0.4,1.9-0.8,2.9-1.2c0.2-0.1,0.4-0.1,0.6-0.2c0.3,0.1,0.3,0.3,0.4,0.5  c0.5,1.2,1,2.5,1.5,3.7c1.6,4.1,3.3,8.1,4.9,12.2c1.4,3.6,2.9,7.2,4.3,10.8c0.7,1.6,1.3,3.2,2,4.8c0.1,0.2,0.1,0.4,0.3,0.5  c0.1,0,0.2,0,0.3-0.1c2.6-1.1,5.3-2.1,7.9-3.2c0.5-0.2,0.5-0.2,0.3-0.8c-1.8-4.5-3.6-9-5.4-13.5c-2.4-5.9-4.8-11.8-7.1-17.7  c-0.1-0.2-0.2-0.5-0.2-0.7c0.1-0.2,0.3-0.3,0.5-0.3c1.4-0.6,2.8-1.1,4.2-1.7c4.1-1.7,8.2-3.3,12.3-5c1.1-0.5,2.3-0.9,3.4-1.4  C-234,346.1-234,346.6-234,347.1z M-260,393.9c0.2-0.1,0.4-0.1,0.6-0.2c0.8-0.3,1.5-0.6,2.3-0.9c1.6-0.7,3.3-1.3,4.9-2  c0.2-0.1,0.4-0.1,0.5-0.3c-0.1-0.2-0.2-0.4-0.3-0.7c-0.9-2.3-1.9-4.7-2.8-7c-2.6-6.5-5.3-13-7.9-19.6c-0.4-1.1-0.9-2.2-1.3-3.3  c-0.1-0.2-0.1-0.4-0.3-0.5c-0.1,0-0.3,0.1-0.5,0.2c-1.9,0.8-3.7,1.5-5.6,2.3c-0.6,0.2-1.2,0.5-1.7,0.7c-0.1,0-0.2,0.1-0.3,0.2  c0,0.1,0,0.2,0.1,0.3C-268.3,373.3-264.1,383.6-260,393.9z"></path>	<path d="M-272.8,398.4c-0.5-1.2-0.9-2.3-1.4-3.5c-2.3-5.7-4.6-11.3-6.9-17c-0.1-0.2-0.2-0.4-0.2-0.5c-0.1,0-0.1-0.1-0.1-0.1  c0,0,0,0-0.1,0c-9.2,3.7-18.4,7.4-27.6,11.1c-0.1,0-0.2,0.1-0.2,0.1c-0.1,0.2,0.1,0.4,0.1,0.6c1.2,2.9,2.3,5.8,3.5,8.7  c0.1,0.2,0.1,0.4,0.2,0.6c-0.5,0-1.1,0-1.6,0c-0.1-0.2-0.1-0.4-0.2-0.6c-1.2-3.1-2.5-6.2-3.8-9.3c-0.3-0.8-0.3-0.7,0.4-1  c5-2,10.1-4.1,15.1-6.1c4.8-1.9,9.6-3.9,14.3-5.8c0.2-0.1,0.3-0.1,0.5-0.2c0.2,0.1,0.3,0.2,0.3,0.4c0.3,0.8,0.7,1.6,1,2.5  c1.5,3.7,3,7.3,4.5,11c1.1,2.8,2.3,5.7,3.4,8.5c0.1,0.2,0.1,0.4,0.2,0.6C-271.7,398.4-272.2,398.4-272.8,398.4z"></path>	<path d="M-341.5,388.2c0.1-0.4,0-0.6-0.4-0.8c-0.1,0-0.1,0-0.2-0.1c-1.8-0.5-3.3-2.8-2.5-5.2c0.6-1.8,2.3-3,4.1-2.9  c1.9,0.1,3.5,1.4,3.9,3.3c0.5,2.1-0.7,4.2-2.7,4.9c-0.2,0.1-0.3,0.1-0.5,0.2c0,0.1,0,0.3,0,0.4c0,0.1,0,0.2,0,0.4  c0.3,0.1,0.7,0.1,0.9,0.3c0.1,0.1,0.3,0.3,0.4,0.5c0.1,0,0.2,0.1,0.4,0.1c0.4,0.1,0.6,0.3,0.8,0.7c0,0.1,0.1,0.1,0.1,0.2  c0.5,0,0.9-0.1,1.4-0.1c0.1-0.1,0.2-0.3,0.3-0.4c0.1-0.1,0.2-0.2,0.3-0.3c0.3-0.2,0.8-0.1,0.8,0.3c0,0.2,0.1,0.4,0.1,0.6  c0,0.5,0,1,0,1.5c0,0.1,0,0.2,0,0.2c0,0.4-0.2,0.6-0.5,0.6c-0.3,0-0.6-0.1-0.7-0.3c-0.1-0.1-0.1-0.3-0.2-0.4c-0.1,0-0.3,0-0.4,0  c-3.2,0-6.5,0-9.7,0c-0.1,0-0.1,0-0.2,0c-0.3,0-0.5,0.1-0.5,0.4c-0.1,0.3-0.3,0.4-0.5,0.4c-0.3,0-0.5-0.2-0.6-0.4  c-0.1-0.2-0.1-0.4-0.1-0.7c0-0.5,0-0.9-0.1-1.4c0-0.1,0-0.3,0-0.4c0.1-0.3,0.3-0.5,0.6-0.5c0.3,0,0.5,0.1,0.6,0.3c0,0,0,0,0,0.1  c0.1,0.4,0.3,0.5,0.7,0.5c0.5,0,0.9,0,1.4,0c0.2,0,0.4-0.1,0.5-0.3c0.1-0.3,0.3-0.4,0.6-0.5C-342.7,389-342.1,388.6-341.5,388.2z   M-339,380.7c-0.4,0-0.6,0.2-0.8,0.5c-0.1,0.2-0.2,0.4-0.3,0.6c-0.2,0.3-0.4,0.5-0.7,0.5c-0.7,0.1-1,0.6-1,1.3  c0.1,0.7,0.9,1.5,1.8,0.9c0.5-0.3,0.7-0.8,0.5-1.4c-0.1-0.4-0.1-0.8,0.2-1.1c0.1-0.1,0.2-0.3,0.3-0.4  C-338.8,381.3-338.8,381-339,380.7z"></path>	<path d="M-371.8,388.3c-0.5,0.1-6.9,0.1-7.4,0c-0.2-0.3-0.1-0.7-0.1-1c0.2-1.3,1-2.1,2.1-2.7c0.2-0.1,0.3-0.2,0.5-0.2  c0.2-0.1,0.3-0.2,0.3-0.4c0-0.2,0.1-0.4,0.2-0.5c0.2-0.3,0.2-0.6,0.2-0.9c0-0.5,0-1-0.1-1.6c-0.1,0-0.2,0-0.3,0  c-1.8-0.1-5.4,0-5.9,0.1c-0.1,0.5-0.1,0.9,0.2,1.3c0.2,0.3,0.4,0.6,0.6,0.9c0.2,0.2,0.3,0.5,0.3,0.8c0,0.1,0,0.2,0,0.3  c0,2.4,0,4.8,0,7.1c0,0.2,0,0.3,0,0.5c-0.1,0.4-0.3,0.7-0.7,0.7c-0.5,0.1-0.9,0-1.4,0.1c-0.2,0-0.4,0-0.6-0.1  c-0.4-0.1-0.6-0.3-0.7-0.7c0-0.2,0-0.3,0-0.5c0-1.8,0.1-3.6,0.1-5.4c0-0.3,0-0.6-0.1-1c0-0.3,0.1-0.6,0.2-0.8  c0-0.1-0.1-0.2-0.1-0.3c-0.2-0.4-0.1-0.6,0.2-0.8c0.3-0.2,0.4-0.4,0.6-0.6c0.2-0.3,0.3-0.7,0.3-1.1c0-0.3,0-0.6,0.1-0.8  c0.1-0.3,0.3-0.5,0.6-0.6c0.2,0,0.4,0,0.6,0c1.9,0,3.7,0,5.6,0c0.2,0,0.4,0,0.6,0c0.4,0.1,0.6,0.3,0.6,0.6c0,0.4,0.1,0.8,0,1.2  c0,0.5,0,0.9,0.1,1.3c0.1,0.3,0.2,0.5,0.3,0.8c0,0.2,0.1,0.3,0.3,0.3c0.2,0.1,0.5,0.2,0.7,0.3c1.3,0.8,2,1.9,2,3.4  C-371.8,388.1-371.8,388.2-371.8,388.3z"></path>	<path d="M-268.4,340.5c0,4.5-3.7,8.3-8.4,8.3c-4.5,0-8.3-3.6-8.3-8.4c0-4.9,4-8.3,8.4-8.3C-272.2,332.2-268.4,335.9-268.4,340.5z   M-276.8,333.6c-3.9,0-6.9,3.3-6.9,7c0,3.5,2.9,6.8,6.9,6.8c3.8,0,6.9-2.9,6.9-6.9C-269.9,336.3-273.3,333.6-276.8,333.6z"></path>	<path d="M-454.4,386.5c0.2-0.1,0.3-0.2,0.4-0.2c0.6-0.4,1.3-0.8,1.9-1.2c0.1-0.1,0.3-0.2,0.5-0.2c0.3-0.1,0.5,0,0.6,0.3  c0,0.2,0,0.4,0.1,0.6c0,0.2,0,0.4,0.1,0.6c0.1-0.1,0.3-0.1,0.4-0.2c0.6-0.3,1.2-0.7,1.8-1c0.2-0.1,0.4-0.2,0.6-0.3  c0.1,0,0.2,0,0.3,0c0.2,0.2,0.2,0.5,0.2,0.7c0,0.3,0,0.6,0,0.8c0,1.7,0,3.5,0,5.2c0,0,0,0,0,0.1c0,0.7-0.2,0.9-1,0.9  c-2.7,0-5.4,0-8.1,0c-0.2,0-0.5,0-0.7,0c-0.3-0.1-0.4-0.2-0.5-0.5c0-0.1,0-0.2,0-0.2c0-1.5,0-3.1,0-4.6c0-0.1,0-0.3,0-0.4  c0.1-0.2,0.2-0.4,0.4-0.6c0.7-0.4,1.4-0.9,2.1-1.3c0.5-0.3,0.8-0.1,0.8,0.4C-454.4,385.8-454.4,386.1-454.4,386.5z M-455.7,388.7  c0,0,0.3,0,0.4,0c0.2,0,0.3-0.2,0.3-0.3c0-0.2,0-0.3,0-0.5c0-0.2-0.2-0.3-0.3-0.3c-0.3,0-0.6,0-1,0c-0.2,0-0.3,0.1-0.3,0.3  c0,0.1,0,0.3,0,0.4c0,0.3,0.2,0.4,0.5,0.5C-455.9,388.7-455.8,388.7-455.7,388.7z M-449.7,387.6  C-449.7,387.6-449.7,387.6-449.7,387.6c-0.2,0-0.3,0-0.5,0c-0.2,0-0.3,0.2-0.4,0.4c0,0.1,0,0.2,0,0.3c0,0.3,0.2,0.4,0.4,0.4  c0.2,0,0.4,0,0.6,0c0.4,0,0.6-0.2,0.6-0.7c0-0.3-0.1-0.5-0.5-0.5C-449.5,387.6-449.6,387.6-449.7,387.6z M-452.7,387.6  C-452.7,387.6-452.7,387.6-452.7,387.6c-0.1,0-0.2,0-0.3,0c0,0-0.1,0-0.1,0c-0.2,0-0.3,0.1-0.4,0.4c0,0.1,0,0.3,0,0.4  c0,0.2,0.2,0.4,0.4,0.4c0.3,0,0.5,0,0.8,0c0.2,0,0.3-0.1,0.4-0.2c0.2-0.4,0-0.9-0.5-0.9C-452.5,387.6-452.6,387.6-452.7,387.6z"></path>	<path d="M-336.3,347.3c-0.2,0-0.3,0-0.5,0c-0.6,0-1.3,0-1.9,0c-0.2-0.2-0.1-0.3-0.1-0.5c0-1.3,0-2.6,0-3.9c0-0.3,0-0.5-0.1-0.8  c-0.1-0.4-0.3-0.7-0.7-0.7c-0.3-0.1-0.6-0.1-0.9,0c-0.3,0.1-0.6,0.2-0.9,0.4c0,0.6,0,1.2,0,1.8c0,0.6,0,1.2,0,1.8  c0,0.6,0,1.2,0,1.8c-0.5,0.1-1.8,0.1-2.4,0c-0.1-0.1-0.1-0.3-0.1-0.5c0-1.3,0-2.5,0-3.8c0-0.3,0-0.6-0.1-0.8  c-0.1-0.5-0.4-0.7-0.8-0.8c-0.3-0.1-0.6,0-0.9,0.1c-0.2,0.1-0.5,0.2-0.7,0.3c-0.1,0.6,0,1.2,0,1.8c0,0.6,0,1.2,0,1.8  c0,0.6,0,1.2,0,1.8c-0.4,0.1-0.8,0.1-1.3,0.1c-0.4,0-0.8,0-1.1,0c-0.1-0.1-0.1-0.1-0.1-0.1c0,0,0,0,0-0.1c0-2.4,0-4.8,0-7.2  c0-0.1,0-0.2,0-0.3c0.1,0,0.2-0.1,0.3-0.1c0.6,0,1.2,0,1.8,0c0.1,0,0.2,0,0.3,0c0,0.2,0,0.5,0.1,0.7c0.1,0,0.2-0.1,0.3-0.1  c0.3-0.2,0.6-0.4,0.9-0.5c0.5-0.3,1.1-0.4,1.7-0.3c0.8,0.1,1.4,0.4,1.8,1.1c0,0,0.1,0.1,0.1,0.2c0.1-0.1,0.2-0.1,0.3-0.2  c0.4-0.2,0.7-0.5,1.1-0.7c0.7-0.4,1.4-0.5,2.1-0.3c0.7,0.1,1.2,0.5,1.5,1.1c0.2,0.4,0.3,0.8,0.3,1.2c0,0.2,0,0.5,0,0.7  c0,1.4,0,2.8,0,4.2C-336.2,346.9-336.3,347.1-336.3,347.3z"></path>	<path d="M-321.2,342.9c0,0.8,0,1.5,0,2.2c0,0.7,0,1.5,0,2.2c-0.5,0.1-1.7,0.1-2.6,0.1c0-0.1-0.1-0.2-0.1-0.4c0-0.7,0-1.4,0-2.1  c0-2.4,0-4.8,0-7.1c0-0.2,0-0.4,0-0.6c0.3-0.1,0.6,0,0.9-0.1c0.3,0,0.6,0,0.9,0c0.3,0,0.6,0,0.9,0c0,0.2,0,0.3,0,0.4  c0,0.9,0,1.8,0,2.7c0,0.2,0,0.4,0,0.5c0.5,0.1,3.2,0.1,3.8,0c0-0.1,0-0.3,0-0.4c0-0.9,0-1.8,0-2.7c0-0.2,0-0.4,0-0.6  c0.5-0.1,0.9,0,1.3,0c0.4,0,0.9,0,1.3,0c0.1,0.9,0,1.7,0,2.6c0,0.8,0,1.7,0,2.5s0,1.7,0,2.5c0,0.8,0,1.7,0,2.6  c-0.3,0.1-0.6,0.1-0.9,0.1c-0.3,0-0.6,0-0.9,0c-0.3,0-0.6,0-0.9,0c0-0.2,0-0.3,0-0.5c0-1.1,0-2.3,0-3.4c0-0.2,0-0.4,0-0.5  C-317.8,342.8-320.5,342.8-321.2,342.9z"></path>	<path d="M-351.2,346.8c-0.1,0-0.1,0.1-0.2,0.1c-1.4,0.5-2.8,0.8-4.3,0.7c-0.6,0-1.3-0.1-1.9-0.3c-1.6-0.6-2.6-1.6-3.1-3.2  c-0.3-1.2-0.3-2.3,0-3.5c0.5-1.8,1.7-3,3.6-3.5c1-0.3,2-0.3,3-0.2c0.9,0.1,1.8,0.3,2.6,0.7c0.1,0,0.2,0.1,0.3,0.1  c0,0.8,0,1.5,0,2.3c-0.2,0.1-0.3,0.1-0.4,0c-0.3-0.2-0.6-0.4-0.9-0.6c-0.9-0.5-1.8-0.7-2.8-0.6c-1.3,0.1-2.3,0.9-2.6,2.2  c-0.2,0.9-0.2,1.8,0.1,2.6c0.3,0.9,0.9,1.5,1.8,1.8c0.7,0.3,1.4,0.2,2.2,0.2c0.1-0.4,0.1-1.5,0-2c-0.6-0.1-1.3,0-2-0.1  c-0.1-0.6,0-1.2,0-1.8c0.1,0,0.2-0.1,0.3-0.1c1.4,0,2.8,0,4.2,0c0.1,0,0.1,0,0.3,0c0.1,0.4,0,0.8,0,1.2c0,0.4,0,0.9,0,1.3  c0,0.4,0,0.8,0,1.2C-351.2,345.9-351.1,346.4-351.2,346.8z"></path>	<path d="M-451,342.9c-0.5-0.1-3.3-0.1-3.8,0c-0.1,0.1-0.1,0.3-0.1,0.5c0,1.1,0,2.3,0,3.4c0,0.2,0,0.4,0,0.5c-0.4,0.1-1.9,0.1-2.6,0  c0-0.1,0-0.2,0-0.3c0-0.1,0-0.2,0-0.2c0-3.1,0-6.1,0-9.2c0-0.2,0-0.3,0-0.5c0.5-0.1,2-0.1,2.6,0c0,0.1,0,0.3,0,0.4  c0,0.9,0,1.8,0,2.7c0,0.2,0,0.4,0,0.5c0.1,0,0.1,0.1,0.2,0.1c1.2,0,2.3,0,3.5,0c0.1,0,0.1,0,0.2-0.1c0.1-0.6,0-1.2,0-1.8  c0-0.6,0-1.2,0-1.8c0.1,0,0.2-0.1,0.2-0.1c0.7,0,1.5,0,2.2,0c0.1,0,0.1,0,0.2,0.1c0,0.1,0,0.2,0,0.3c0,1,0,9.5,0,9.9  c-0.4,0.1-0.8,0-1.3,0.1c-0.4,0-0.8,0-1.2,0c-0.2-0.2-0.1-0.3-0.1-0.5c0-1.1,0-2.3,0-3.4C-451,343.3-451,343.1-451,342.9z"></path>	<path d="M-421,392.7c0-0.2-0.1-0.3-0.1-0.4c0-0.2,0-0.4,0.2-0.4c0.3-0.1,0.3-0.3,0.4-0.5c0.8-2.1,1.5-4.3,1.7-6.6  c0.1-0.7,0.1-1.5,0.1-2.2c0-0.1,0-0.2,0-0.3c0-0.4,0.2-0.5,0.5-0.5c0.4,0,0.8,0,1.2,0c0.3,0,0.6,0,1,0c0.4,0,0.6,0.2,0.6,0.6  c0,0.4,0,0.7,0,1.1c0.1,1.7,0.4,3.3,0.8,5c0.3,1,0.6,1.9,0.9,2.9c0,0.1,0.1,0.2,0.1,0.3c0.1,0.2,0.2,0.3,0.4,0.3c0.2,0,0.3,0,0.5,0  c1.4,0,2.8,0,4.2,0c0.1,0,0.3,0,0.5,0c0.1,0.2,0,0.4,0.1,0.7c-0.1,0-0.2,0.1-0.3,0.1c-0.1,0-0.2,0-0.3,0c-4,0-8.1,0-12.1,0  C-420.6,392.7-420.8,392.7-421,392.7z"></path>	<path d="M-415.7,337.6c0.1,0.8,0,1.9,0,2.3c-0.1,0-0.2,0-0.3-0.1c-0.1-0.1-0.2-0.1-0.3-0.2c-1-0.6-2-0.9-3.2-0.9  c-0.3,0-0.7,0.1-1,0.2c-0.2,0.1-0.4,0.2-0.5,0.3c-0.3,0.3-0.3,0.9,0.1,1.1c0.2,0.1,0.4,0.2,0.7,0.3c0.5,0.1,1,0.2,1.5,0.3  c0.5,0.1,1.1,0.3,1.6,0.5c0.2,0.1,0.4,0.2,0.6,0.3c0.8,0.5,1.2,1.2,1.3,2.1c0.1,1.1-0.3,2-1.2,2.6c-0.7,0.5-1.4,0.8-2.3,0.9  c-1.7,0.3-3.4,0.1-5-0.6c-0.1,0-0.2-0.1-0.3-0.1c0-0.8,0-1.6,0-2.4c0.1-0.1,0.3-0.1,0.4,0c0.1,0.1,0.2,0.2,0.3,0.2  c1.1,0.7,2.3,1.1,3.7,1.1c0.4,0,0.8-0.1,1.1-0.3c0.2-0.1,0.4-0.3,0.5-0.6c0-0.3-0.1-0.6-0.3-0.8c-0.2-0.2-0.5-0.3-0.8-0.3  c-0.6-0.1-1.1-0.2-1.7-0.4c-0.4-0.1-0.8-0.3-1.2-0.4c-0.1,0-0.3-0.1-0.4-0.2c-1.8-0.9-2-3.5-0.5-4.7c0.7-0.6,1.5-0.9,2.4-1  c1.6-0.2,3.1,0,4.6,0.5C-415.8,337.5-415.8,337.5-415.7,337.6z"></path>	<path d="M-331.6,347.3c-0.7,0-1.5,0-2.3,0c0-0.1,0-0.2-0.1-0.3c0-0.1,0-0.2,0-0.3c0-3.2,0-6.3,0-9.5c0-0.2,0-0.4,0-0.5  c0.4-0.1,1.8-0.1,2.4,0c0,0.1,0,0.2,0,0.4c0,0.9,0,1.8,0,2.7c0,0.2,0,0.4,0,0.6c0.1-0.1,0.2-0.1,0.3-0.1c0.2-0.1,0.5-0.3,0.7-0.4  c0.8-0.4,1.6-0.5,2.4-0.2c0.7,0.2,1.2,0.6,1.5,1.2c0.3,0.4,0.4,0.9,0.5,1.4c0.2,0.9,0.2,1.8,0,2.7c-0.2,0.6-0.4,1.2-0.9,1.6  c-0.7,0.7-1.5,1.1-2.5,1.1c-0.7,0-1.4-0.1-2-0.5C-331.4,347.1-331.5,347.2-331.6,347.3z M-331.3,345.6c0.4,0.2,0.8,0.2,1.2,0.2  c0.9-0.1,1.5-0.6,1.7-1.5c0,0,0-0.1,0-0.1c0.1-0.5,0.1-1,0-1.5c0-0.3-0.1-0.5-0.2-0.7c-0.1-0.2-0.3-0.4-0.6-0.5  c-0.6-0.3-1.5-0.1-2.1,0.3C-331.4,342.4-331.4,345.1-331.3,345.6z"></path>	<path d="M-406,343.9c-0.6,0-1.3,0-1.9,0c-0.6,0-1.2,0-1.9,0c-0.6,0-1.2,0-1.9,0c0,0.7,0.3,1.2,0.9,1.5c0.3,0.2,0.7,0.3,1,0.3  c1.1,0.1,2.1-0.1,3-0.7c0.1-0.1,0.2-0.1,0.3-0.2c0.1,0,0.1,0,0.2,0c0.1,0.4,0.1,1.4,0,2c-0.5,0.3-1.1,0.4-1.7,0.5  c-1.1,0.2-2.2,0.2-3.3-0.1c-0.4-0.1-0.9-0.3-1.3-0.5c-0.8-0.5-1.4-1.2-1.6-2.1c-0.2-0.8-0.2-1.7,0-2.5c0.4-1.3,1.2-2.2,2.6-2.6  c1-0.3,2-0.3,3-0.1c1.2,0.3,2,1,2.4,2.3C-405.9,342.4-405.8,343.2-406,343.9z M-408.5,342.4c0.1-0.3,0-0.5-0.1-0.8  c-0.1-0.2-0.3-0.4-0.5-0.5c-0.7-0.3-1.3-0.2-1.9,0.1c-0.4,0.3-0.6,0.7-0.6,1.2c0.1,0,0.2,0,0.3,0c0.9,0,1.8,0,2.7,0  C-408.5,342.4-408.5,342.4-408.5,342.4z"></path>	<path d="M-367.2,346.9c-0.1,0.1-0.2,0.1-0.3,0.2c-1.5,0.6-3.1,0.7-4.7,0.3c-0.2,0-0.4-0.1-0.5-0.1c-1.6-0.5-2.5-1.8-2.5-3.4  c0-0.5,0-1.1,0.1-1.6c0.4-1.5,1.4-2.3,2.9-2.7c0.9-0.2,1.8-0.2,2.7,0c1.6,0.4,2.2,1.5,2.4,2.7c0.1,0.5,0,1.1,0.1,1.6  c0,0.1,0,0.1-0.1,0.2c-0.5,0.1-0.9,0-1.4,0c-0.5,0-0.9,0-1.4,0c-0.5,0-0.9,0-1.4,0c-0.5,0-0.9,0-1.4,0c0,0.6,0.2,1,0.7,1.4  c0.4,0.3,0.8,0.4,1.2,0.4c1.1,0.1,2.1-0.1,3-0.6c0.1-0.1,0.2-0.1,0.3-0.2c0.1,0,0.1,0,0.2,0c0,0.1,0,0.2,0,0.3  C-367.2,345.8-367.2,346.3-367.2,346.9z M-369.6,342.4c0.1-0.6-0.2-1.1-0.7-1.4c-0.6-0.3-1.3-0.2-1.8,0.1c-0.4,0.3-0.6,0.7-0.6,1.2  C-372.3,342.5-370.1,342.5-369.6,342.4z"></path>	<path d="M-426,389.3c0,0.6-0.2,1-0.6,1.4c-0.5,0.5-1,1-1.4,1.4c-0.3,0.3-0.8,0.5-1.2,0.5c-0.3,0-0.6,0-0.8,0c-1.9,0-3.8,0-5.7,0  c-0.7,0-1.3-0.2-1.7-0.7c-0.4-0.4-0.8-0.8-1.2-1.2c-0.5-0.5-0.8-1.1-0.7-1.8c0-0.4,0.1-0.8,0.1-1.3c0.1,0,0.2-0.1,0.3-0.1  c1,0,2.1,0,3.1,0c0.3,0,0.5,0,0.8-0.1c0.5-0.1,0.9,0.1,1.1,0.5c0.1,0.2,0.2,0.4,0.3,0.5c0.4,0.5,0.8,0.7,1.4,0.7c1.9,0,3.7,0,5.6,0  C-426.4,389.3-426.2,389.3-426,389.3z M-435.6,391.7c0.4,0,0.8-0.4,0.8-0.8c0-0.4-0.4-0.9-0.8-0.8c-0.4,0-0.8,0.4-0.8,0.9  C-436.4,391.4-436.1,391.7-435.6,391.7z M-432.7,391.7c0.4,0,0.8-0.3,0.8-0.8c0-0.4-0.4-0.8-0.8-0.8c-0.4,0-0.8,0.4-0.8,0.8  C-433.5,391.3-433.1,391.7-432.7,391.7z M-429,390.9c0-0.5-0.5-0.8-0.8-0.8c-0.4,0-0.8,0.4-0.8,0.8c0,0.3,0.4,0.8,0.8,0.8  C-429.3,391.7-429,391.4-429,390.9z"></path>	<path d="M-444.5,338.9c-0.6,0-1.1,0-1.6,0c-0.2-0.3-0.1-0.6-0.1-0.9c0-0.3,0-0.6,0-0.9c0.1,0,0.3,0,0.4,0c2.8-0.1,5.1,0,5.6,0.1  c0.1,0.4,0.1,1.1,0,1.7c-0.5,0.1-1,0-1.6,0.1c0,0.1-0.1,0.2-0.1,0.3c0,2,0,4.1,0,6.1c0,0.1,0,0.1,0,0.2c0.5,0.1,1.1,0,1.6,0.1  c0.1,0.3,0.1,0.6,0.1,0.9c0,0.3,0,0.6,0,0.9c-0.7,0.1-1.3,0-2,0c-0.7,0-1.4,0-2,0c-0.7,0-1.3,0-2,0c-0.1-0.6,0-1.1,0-1.7  c0.3-0.1,0.5-0.1,0.8-0.1c0.3,0,0.5,0,0.8,0c0.2-0.2,0.1-0.4,0.1-0.6c0-1.8,0-3.6,0-5.4C-444.5,339.3-444.5,339.1-444.5,338.9z"></path>	<path d="M-433.1,347.3c-0.4,0.1-1.8,0.1-2.6,0c-0.1-0.2-0.1-0.4-0.1-0.5c0-1.8,0-3.6,0-5.4c0-0.6,0-1.2,0-1.9c0-0.1,0-0.3,0-0.5  c-0.5-0.1-1.1,0-1.6,0c-0.5,0-1,0-1.5,0c-0.1-0.4-0.1-1.3,0-1.9c0.1,0,0.2,0,0.3,0c2.8,0,5.6,0,8.4,0c0.1,0,0.2,0,0.3,0  c0.1,0.3,0,0.6,0.1,0.9c0,0.3,0,0.6,0,0.9c-0.1,0.2-0.3,0.2-0.5,0.2c-0.7,0-1.4,0-2.2,0c-0.2,0-0.4,0-0.6,0.1c0,0.5,0,1.1,0,1.6  c0,0.5,0,1.1,0,1.6c0,0.5,0,1.1,0,1.6s0,1.1,0,1.6C-433.1,346.2-433.1,346.7-433.1,347.3z"></path>	<path d="M-395.5,339.6c0.2,0.1,0.2,0.4,0.2,0.6c0.5,1.4,0.9,2.8,1.4,4.1c0.1,0.2,0.1,0.4,0.3,0.5c0.3-0.9,0.6-1.8,0.9-2.6  c0.3-0.9,0.5-1.7,0.9-2.6c0.8,0,1.6,0,2.4,0c0.1,0.2,0,0.3,0,0.4c-0.6,1.6-1.3,3.3-1.9,4.9c-0.2,0.6-0.5,1.3-0.7,1.9  c-0.1,0.2-0.1,0.3-0.2,0.5c-0.4,0.1-1.8,0.1-2.8,0c0-0.1-0.1-0.2-0.1-0.3c-0.9-2.4-1.8-4.7-2.7-7.1c0-0.1-0.1-0.2-0.1-0.3  C-397.6,339.6-396.3,339.5-395.5,339.6z"></path>	<path d="M-376.3,340c0,0.7,0,1.3,0,2c-0.2,0.1-0.3,0.1-0.4,0c-0.2-0.1-0.3-0.2-0.5-0.3c-0.6-0.4-1.4-0.7-2.1-0.5  c-0.8,0.1-1.3,0.6-1.5,1.4c-0.2,0.6-0.2,1.2,0,1.8c0.2,0.7,0.7,1.1,1.4,1.3c0.9,0.2,1.7,0,2.5-0.5c0.1-0.1,0.2-0.1,0.3-0.2  c0.1-0.1,0.2-0.1,0.4-0.1c0,0,0.1,0.1,0.1,0.1c0,0.6,0,1.3,0,1.9c-0.5,0.3-0.9,0.4-1.4,0.5c-1.1,0.2-2.2,0.2-3.2-0.2  c-1.5-0.5-2.3-1.5-2.6-3.1c-0.1-0.6-0.1-1.2,0.1-1.9c0.3-1.3,1.2-2.2,2.5-2.7c1.5-0.5,3-0.4,4.5,0.2  C-376.5,339.9-376.4,340-376.3,340z"></path>	<path d="M-448.7,384.1c0-0.5,0.1-0.9,0.1-1.3c0.1-0.9,0.2-1.8,0.3-2.7c0-0.2,0.1-0.5,0.1-0.7c0.1-0.3,0.2-0.5,0.5-0.5  c0.4,0,0.8,0,1.2,0c0.4,0,0.5,0.1,0.5,0.5c0,0.1,0,0.2,0.1,0.3c0.3,2,0.5,3.9,0.8,5.9c0.2,1.5,0.3,3,0.5,4.4c0.1,0.5,0.1,1,0.2,1.5  c0,0.2,0,0.4,0,0.6c0,0.3-0.1,0.4-0.4,0.4c-0.1,0-0.1,0-0.2,0c-0.6,0-1.2,0-1.8,0c0,0-0.1,0-0.1-0.1c0-0.2,0-0.4,0-0.6  c0-2.1,0-4.1,0-6.2c0-0.2,0-0.4,0-0.6c-0.1-0.7-0.6-1.1-1.2-1.1C-448.2,384.1-448.4,384.1-448.7,384.1z"></path>	<path d="M-404.1,339.6c0.5-0.1,2-0.1,2.4,0c0.1,0.3,0,0.6,0.1,0.9c0.2,0,0.3-0.1,0.4-0.2c0.6-0.4,1.2-0.7,1.9-0.8  c0.3,0,0.5-0.1,0.8,0c0.1,0.4,0.1,1.8,0,2.3c-1-0.1-2-0.2-3.1,0.2c0,0.2,0,0.4,0,0.6c0,1.3,0,2.6,0,3.8c0,0.2,0,0.4,0,0.6  c-0.4,0.1-1.7,0.1-2.4,0c-0.1-0.2-0.1-0.4-0.1-0.6c0-2,0-3.9,0-5.9c0-0.3,0-0.6,0-0.8C-404.1,339.9-404.1,339.8-404.1,339.6z"></path>	<path d="M-411,388c0-0.2,0-0.4,0-0.7c0-1.8,0-3.7,0-5.5c0-0.2,0-0.4,0-0.6c0-0.2,0.1-0.3,0.3-0.3c0.3,0,0.6,0,0.9,0  c0.2,0,0.4,0.2,0.4,0.4c0,0.2,0,0.3,0,0.5c0,1.8,0,3.7,0,5.5c0,0.2,0,0.4,0,0.6c0.2,0,0.3,0,0.4,0.1c0.2,0.1,0.4,0.2,0.4,0.4  c0,0.1,0,0.2,0,0.3c0,0.5,0,1,0,1.5c0,0.1,0,0.1,0,0.2c0,0.4-0.2,0.5-0.5,0.5c-1.2,0-2.3,0-3.5,0c-0.3-0.5-0.4-1-0.5-1.4  c-0.2-0.5-0.4-0.9-0.5-1.5C-412.7,388-411.8,388.1-411,388z"></path>	<path d="M-395.5,384.1c0.2,0,0.3,0.1,0.4,0.1c0.2,0,0.4,0.1,0.6,0.1c0.4,0.1,0.6,0.3,0.6,0.6c0,0.6,0.1,1.2,0,1.9  c0,0.5-0.4,0.8-0.9,0.8c-0.8,0-1.7,0-2.5,0c-0.5,0-0.8-0.3-0.8-0.8c0-0.1,0-0.2,0-0.3c0-0.4,0-0.8,0-1.2c0-0.1,0-0.3,0-0.4  c0.1-0.4,0.3-0.6,0.8-0.7c0.2,0,0.5,0,0.7,0c0.1-0.2,0.2-0.4,0.2-0.6c0-0.5-0.4-0.8-0.9-0.6c-0.2,0.1-0.3,0.2-0.4,0.3  c-0.5,0.2-1.1-0.1-1.2-0.7c0-0.3,0.1-0.6,0.4-0.8c0.3-0.2,0.5-0.2,0.8-0.1c0.1,0.1,0.2,0.1,0.3,0.2c0.2,0.1,0.5,0.2,0.7,0  c0.5-0.3,1-0.3,1.5,0c0.4,0.2,0.8,0.1,1.1,0c0.1-0.1,0.2-0.1,0.3-0.2c0.4-0.2,0.7-0.1,1,0.2c0.3,0.3,0.3,0.6,0.1,0.9  c-0.2,0.4-0.6,0.5-1,0.4c-0.2-0.1-0.3-0.1-0.5-0.2c-0.3-0.1-0.5-0.2-0.8-0.1c-0.4,0-0.5,0.2-0.6,0.6  C-395.6,383.7-395.5,383.9-395.5,384.1z"></path>	<path d="M-385.4,347.3c-0.9,0-1.6,0-2.4,0c-0.1-0.2-0.1-0.4-0.1-0.6c0-1.8,0-3.5,0-5.3c0-0.5,0-0.9,0-1.4c0-0.1,0-0.3,0-0.5  c0.4-0.2,0.8-0.1,1.2-0.1c0.4,0,0.8,0,1.2,0c0.1,0.7,0,1.3,0,1.9c0,0.6,0,1.3,0,1.9s0,1.3,0,1.9  C-385.3,346-385.3,346.7-385.4,347.3z"></path>	<path d="M-399.1,385c0.1,0.4,0.1,1.2,0,1.7c-0.3,0-0.6,0-0.9,0c-0.6,0-1.1,0.2-1.1,1.1c0,1.4,0,2.8,0,4.1c0,0.2,0,0.4,0,0.6  c-0.6,0.1-1.1,0.1-1.6,0c0-0.1,0-0.2,0-0.3c0-1.5,0-3,0-4.5c0-0.3,0-0.6,0.1-0.9c0.2-0.9,0.8-1.5,1.7-1.7  C-400.3,385-399.7,385-399.1,385z"></path>	<path d="M-429.8,388.4c-0.5,0-0.9,0-1.4,0c-0.7,0-1.2-0.4-1.4-1.1c-0.3-0.8,0.2-1.6,1-1.8c0.2,0,0.4-0.1,0.6-0.1  c0.9,0,1.8-0.1,2.7-0.1c0.5,0,0.9,0.2,1.3,0.7c0.7,0.8,0.1,2.2-0.9,2.3c-0.2,0-0.4,0-0.6,0.1C-429,388.5-429.4,388.4-429.8,388.4  C-429.8,388.4-429.8,388.4-429.8,388.4z M-429.5,387.4c0-0.4,0-0.7-0.1-0.9c-0.1,0-0.2,0-0.3,0c-0.1,0.3-0.1,0.6-0.1,0.9  C-429.8,387.4-429.7,387.4-429.5,387.4z"></path>	<path d="M-393,386.7c0-0.4,0-0.8,0-1.1c0-0.1,0-0.3,0-0.4c1.4-0.5,2.8,0.1,3.4,1.2c0.2,0.3,0.3,0.6,0.3,1c0,1.6,0,3.2,0,4.8  c0,0.1,0,0.3,0,0.4c-0.5,0.1-1.1,0.1-1.5,0c-0.1-0.2-0.1-0.4-0.1-0.5c0-1.3,0-2.7,0-4c0-0.2,0-0.4,0-0.6c-0.1-0.4-0.3-0.6-0.7-0.6  c-0.2,0-0.4,0-0.6,0C-392.5,386.7-392.7,386.7-393,386.7z"></path>	<path d="M-436.4,383.7c0.3,0,0.5,0,0.7,0c0.2,0,0.3,0,0.5,0c0.3,0,0.4,0.2,0.4,0.4c0,0.1,0,0.1,0,0.2c0,0.7,0,1.4,0,2  c0,0.1,0,0.2,0,0.3c-0.6,0.1-1.3,0-1.9,0c-0.6,0-1.2,0-1.8,0c0-0.2-0.1-0.3-0.1-0.4c0-0.6,0-1.2,0-1.8c0-0.6,0.1-0.7,0.6-0.9  c0.1,0,0.1,0,0.2-0.1c0.1-0.2,0.1-0.4,0.1-0.6c0-0.3,0-0.6,0-1c0-0.3,0.2-0.4,0.4-0.4c0.1,0,0.2,0,0.3,0c0.4,0,0.5,0.1,0.5,0.5  c0,0.2,0,0.5,0,0.7C-436.4,383.2-436.4,383.4-436.4,383.7z"></path>	<path d="M-360.4,386.9c0.3-0.7,0.6-1.3,1-1.8c0.8-0.9,1.2-1.9,1.2-3c0-0.7,0-1.4-0.1-2.1c0-0.2-0.1-0.4,0-0.6  c0.1,0,0.2,0.1,0.2,0.1c0.3,0.6,0.7,1.3,1,1.9c0.4,0.9,1,1.5,1.9,2c0.6,0.3,1.3,0.6,1.9,0.9c0.2,0.1,0.3,0.1,0.5,0.3  c-0.1,0-0.2,0-0.3,0c-0.8,0-1.6,0-2.4,0c-0.8,0-1.5,0.1-2.1,0.4c-0.4,0.2-0.8,0.4-1.2,0.7c-0.5,0.3-1,0.7-1.4,1  C-360.2,386.8-360.3,386.8-360.4,386.9z M-357,384.1c0.5-0.1,0.4-0.6,0.3-0.7c-0.1-0.1-0.2-0.2-0.3-0.3c-0.3-0.2-0.7,0-0.7,0.4  C-357.8,383.9-357.6,384.2-357,384.1z"></path>	<path d="M-357.9,391.2c0-0.2,0-0.5,0-0.7c0-1.2,0-2.5,0.1-3.7c0-0.1,0-0.2,0-0.3c0-0.3,0.2-0.6,0.5-0.7c0.2-0.1,0.4-0.3,0.8-0.3  c0,0.4,0.1,0.7,0.1,1c0,1.3,0.1,2.6,0.1,3.8c0,0.2,0,0.3,0,0.5c0,0.3,0.1,0.5,0.4,0.6c0.1,0.1,0.2,0.1,0.3,0.2  c0.2,0.2,0.2,0.4,0,0.6c-0.1,0.2-0.3,0.3-0.5,0.3c-0.3,0-0.6,0.1-0.8,0.1c-0.3,0-0.7,0-1,0c-0.2,0-0.3,0-0.5-0.1  c-0.3-0.1-0.4-0.2-0.5-0.5c0-0.3,0.1-0.4,0.3-0.5c0.1-0.1,0.2-0.1,0.4-0.2C-358.1,391.3-358,391.3-357.9,391.2z"></path>	<path d="M-366,386.6c0.5-0.7,1-1.5,1.5-2.2c0.4-0.5,0.6-1.1,0.7-1.7c0.1-0.5,0.1-0.9,0-1.4c0-0.6,0-1.3,0-2  c0.1,0.1,0.2,0.1,0.2,0.2c0.3,0.5,0.5,1.1,0.8,1.6c0.3,0.7,0.7,1.3,1.2,1.7c0.3,0.3,0.7,0.5,1.1,0.7c0.2,0.1,0.5,0.2,0.7,0.4  c0,0.2-0.1,0.3-0.1,0.4c-0.1,0.2-0.3,0.3-0.5,0.3c-0.2,0-0.3,0-0.5,0c-1-0.1-1.9,0.2-2.8,0.7c-0.5,0.3-0.9,0.6-1.3,0.9  C-365.2,386.4-365.5,386.6-366,386.6z M-363.2,383.6c0,0.7,0.9,0.5,1,0.1c0-0.1,0-0.1,0-0.2c0-0.2-0.1-0.4-0.2-0.5  C-362.6,383-363.2,383.2-363.2,383.6z"></path>	<path d="M-362.2,385.4c0.1,0.2,0.1,0.4,0.1,0.6c0,0.9,0,1.9,0.1,2.8c0,0.6,0.1,1.2,0.1,1.8c0,0.5,0.2,0.8,0.6,1  c0.3,0.2,0.4,0.5,0.2,0.8c-0.1,0.1-0.2,0.2-0.4,0.2c-0.1,0-0.1,0-0.2,0c-0.7,0-1.5,0-2.2,0c-0.3,0-0.5-0.1-0.6-0.4  c0-0.2,0.1-0.6,0.3-0.7c0.5-0.2,0.6-0.6,0.6-1c0-1.2,0.1-2.3,0.1-3.5c0-0.7,0.2-1.2,0.9-1.4C-362.4,385.6-362.3,385.5-362.2,385.4z  "></path>	<path d="M-372.6,390.2c-0.5-0.1-4.6-0.1-5.6-0.1c-0.1,0-0.2,0-0.3,0.1c-0.1,0.4,0,0.9,0,1.3c0,0.2,0,0.5,0,0.7  c0,0.3-0.2,0.4-0.5,0.4c-0.2,0-0.3-0.1-0.3-0.3c0-0.1,0-0.3,0-0.4c0-0.4,0-0.8,0-1.2c0-0.1,0-0.3,0-0.5c-0.2,0-0.4-0.1-0.5-0.1  c-0.2-0.1-0.3-0.4-0.1-0.5c0.1-0.1,0.3-0.2,0.4-0.2c0.2,0,0.3,0,0.5,0c2.5,0,4.9,0,7.4,0c0.2,0,0.3,0,0.5,0c0.2,0,0.3,0.2,0.3,0.4  c0,0.2-0.1,0.3-0.3,0.4c-0.2,0-0.3,0-0.5,0.2c0,0.5,0,1,0,1.5c0,0.4,0,0.4-0.4,0.8c-0.3-0.2-0.4-0.4-0.4-0.7c0-0.4,0-0.7,0-1.1  C-372.6,390.6-372.6,390.4-372.6,390.2z"></path>	<path d="M-432,359.9c0-0.2,0-0.4,0-0.6c0-0.1,0-0.1,0-0.2c0.1,0.1,0.2,0.1,0.4,0.2c0.4,0.2,0.8,0.3,1.2,0.4c0.3,0.1,0.7,0,1-0.1  c0.2-0.1,0.4-0.2,0.5-0.4c0.2-0.3,0.2-0.9-0.3-1.1c-0.3-0.1-0.7-0.2-1-0.3c-0.3-0.1-0.6-0.1-0.9-0.2c-0.5-0.2-0.8-0.6-0.9-1.1  c0-0.5,0.2-1,0.6-1.2c0.2-0.1,0.5-0.3,0.7-0.3c0.8-0.1,1.6-0.1,2.3,0.3c0.1,0.3,0.1,0.5,0,0.8c-0.2-0.1-0.3-0.1-0.4-0.2  c-0.5-0.2-1-0.3-1.5-0.3c-0.2,0-0.4,0.1-0.6,0.2c-0.3,0.1-0.5,0.4-0.5,0.7c0,0.4,0.2,0.6,0.5,0.7c0.3,0.1,0.5,0.1,0.8,0.2  c0.3,0.1,0.6,0.1,0.8,0.2c0.1,0,0.1,0,0.2,0.1c1,0.4,1.2,1.5,0.4,2.3c-0.3,0.3-0.7,0.5-1.1,0.5C-430.4,360.3-431.2,360.3-432,359.9  z"></path>	<path d="M-344.6,357.1c0.1,0,0.2,0,0.3-0.1c0.4-0.2,0.8-0.2,1.2-0.2c0.7,0.1,1.3,0.6,1.4,1.3c0.1,0.5,0,1-0.4,1.4  c-0.7,0.9-2.6,0.9-3-0.5c-0.1-0.2-0.1-0.5-0.2-0.8c-0.1-0.6,0-1.2,0.2-1.8c0.4-1.3,1.5-1.9,2.9-1.6c0.1,0.2,0.1,0.4,0,0.5  c-0.1,0.1-0.2,0-0.3,0C-343.7,355.3-344.4,355.9-344.6,357.1z M-344.6,357.7c0,0.3,0,0.6,0,0.9c0,0.2,0.1,0.5,0.3,0.7  c0.3,0.4,0.7,0.5,1.1,0.4c0.4-0.1,0.7-0.4,0.7-0.8c0-0.2,0-0.4,0-0.6c0-0.5-0.4-0.8-0.8-0.9C-343.8,357.4-344.2,357.5-344.6,357.7z  "></path>	<path d="M-353.9,360.3c-0.1-0.3-0.1-0.4,0-0.6c0.6,0.1,1.2,0.2,1.7-0.3c0.4-0.3,0.5-0.7,0.6-1.2c-0.2-0.1-0.3,0-0.4,0.1  c-0.5,0.2-1,0.2-1.4,0.1c-0.5-0.2-0.9-0.5-1-1.1c-0.2-1,0.3-2,1.2-2.2c1.1-0.2,2,0.2,2.3,1.4c0.2,0.7,0.1,1.4-0.1,2.1  c-0.3,1.2-1.2,1.8-2.3,1.7C-353.5,360.3-353.7,360.3-353.9,360.3z M-351.6,357.5c0.1-0.5,0-0.9-0.1-1.3c-0.2-0.5-0.6-0.7-1.2-0.7  c-0.5,0.1-0.8,0.4-0.9,0.9c0,0.1,0,0.2,0,0.3c0,0.6,0.4,1,1,1C-352.4,357.8-352,357.7-351.6,357.5z"></path>	<path d="M-456.5,355.1c0.3,0,0.6-0.1,0.9,0c0.6,1.7,1.2,3.3,1.8,5c-0.2,0.1-0.4,0.1-0.7,0.1c-0.3-0.4-0.3-1-0.6-1.4  c-0.6-0.1-1.7-0.1-2.2,0c-0.2,0.4-0.3,0.9-0.5,1.3c-0.2,0-0.4,0-0.6,0C-458.3,359.7-456.8,355.7-456.5,355.1z M-456.9,358.1  c0.5,0,1.1,0,1.6,0c-0.1-0.6-0.6-1.9-0.8-2.2C-456.3,356.3-456.8,357.7-456.9,358.1z"></path>	<path d="M-333,356.4c0.2,0,0.4,0,0.6,0c0,0.1,0.1,0.2,0.1,0.2c0,0,0.1,0,0.1,0c0.2-0.1,0.4-0.2,0.7-0.3c0.7-0.2,1.4,0.1,1.7,0.8  c0.3,0.7,0.3,1.4,0,2.2c-0.3,0.8-1.1,1.2-2,1c-0.2,0-0.3-0.1-0.5-0.2c-0.1,0.5,0,1-0.1,1.5c-0.1,0-0.2,0-0.3,0c-0.1,0-0.2,0-0.3,0  c0-0.1-0.1-0.2-0.1-0.2c0-1.6,0-3.2,0-4.8C-333,356.5-333,356.5-333,356.4z M-332.4,359.4c0.4,0.2,0.7,0.3,1.1,0.2  c0.3-0.1,0.6-0.2,0.7-0.6c0.2-0.6,0.2-1.2,0-1.8c-0.1-0.3-0.4-0.4-0.7-0.5c-0.4,0-0.8,0.1-1.2,0.4  C-332.4,358-332.4,358.7-332.4,359.4z"></path>	<path d="M-423.1,354.9c0.2-0.1,0.4-0.1,0.6,0c0.1,0.3,0,0.6,0,0.9c0,0.3,0,0.6,0,0.9c0.1-0.1,0.2-0.1,0.3-0.2  c0.2-0.1,0.3-0.2,0.5-0.2c0.7-0.2,1.3,0.1,1.6,0.7c0.4,0.8,0.4,1.7,0,2.5c-0.5,0.8-1.1,0.9-1.8,0.8c-0.3-0.1-0.6-0.1-1-0.1  c-0.1,0-0.1,0-0.2,0c0-0.1,0-0.2,0-0.3c0-1.6,0-3.2,0-4.8C-423.1,355.1-423.1,355-423.1,354.9z M-422.4,359.5  c0.3,0.2,0.6,0.3,1,0.2c0.4,0,0.7-0.2,0.9-0.5c0.3-0.6,0.3-1.2,0-1.9c-0.1-0.3-0.4-0.4-0.7-0.4c-0.5,0-0.8,0.1-1.2,0.4  C-422.4,358-422.4,358.7-422.4,359.5z"></path>	<path d="M-335,355.1c0.3,0,0.4,0,0.6,0c0,0.2,0,0.3,0,0.4c0,0.9,0,1.8,0,2.7c0,0.3,0,0.6-0.1,0.9c-0.1,0.6-0.5,1-1.1,1.1  c-0.5,0.1-1,0.1-1.5,0c-0.6-0.2-1-0.6-1.1-1.2c-0.1-0.3-0.1-0.5-0.1-0.8c0-1,0-1.9,0-2.9c0-0.1,0-0.1,0-0.2c0.2-0.1,0.4-0.1,0.6,0  c0,0.2,0,0.3,0,0.5c0,0.8,0,1.6,0,2.4c0,0.2,0,0.5,0.1,0.7c0.1,0.5,0.4,0.8,0.9,0.9c0.2,0,0.4,0.1,0.6,0c0.6-0.1,0.9-0.3,1-0.9  c0-0.2,0.1-0.4,0.1-0.6c0-0.8,0-1.7,0-2.5C-335,355.5-335,355.3-335,355.1z"></path>	<path d="M-443.5,354.8c0.2,0,0.4,0,0.5,0c0,0.1,0.1,0.1,0.1,0.2c0,0.1,0,0.3,0,0.4c0,1.4,0,2.9,0,4.3c0,0.1,0,0.3,0,0.5  c-0.3,0.1-0.6,0.1-0.7-0.2c-0.2,0.1-0.3,0.2-0.4,0.2c-0.8,0.3-1.8,0.2-2.1-0.9c-0.2-0.5-0.2-1.1,0-1.6c0.3-1,1.2-1.6,2.2-1.3  c0.1,0,0.2,0.1,0.4,0.1c0-0.1,0.1-0.2,0.1-0.3c0-0.3,0-0.6,0-0.8C-443.5,355.1-443.5,355-443.5,354.8z M-443.6,357  c-0.3-0.2-0.6-0.2-1-0.2c-0.4,0-0.7,0.2-0.9,0.6c-0.2,0.6-0.2,1.1,0,1.7c0.1,0.3,0.4,0.5,0.7,0.5c0.4,0,0.7-0.1,1-0.3  c0.1-0.1,0.2-0.2,0.2-0.4c0-0.6,0-1.2,0-1.8C-443.6,357.1-443.6,357.1-443.6,357z"></path>	<path d="M-328.5,357c0-0.2,0-0.4,0-0.6c0.6-0.2,1.3-0.3,1.9-0.1c0.6,0.1,0.9,0.5,1,1c0,0.1,0,0.3,0,0.4c0,0.7,0,1.4,0,2  c0,0.1,0,0.2,0,0.4c-0.1,0-0.2,0-0.3,0c-0.1,0-0.2,0-0.3,0c0-0.1-0.1-0.2-0.1-0.3c-0.1,0-0.1,0-0.2,0.1c-0.4,0.3-0.8,0.4-1.2,0.3  c-0.5,0-1-0.4-1.1-0.9c-0.1-0.6,0.1-1.1,0.6-1.4c0.4-0.2,0.8-0.3,1.2-0.3c0.2,0,0.5,0,0.7-0.1c0.1-0.2,0.1-0.3,0-0.5  c-0.1-0.1-0.2-0.2-0.3-0.3c-0.3-0.1-0.6-0.1-0.9-0.1C-327.9,356.9-328.2,356.9-328.5,357z M-326.3,358.2c-0.4,0-0.8,0-1.2,0.1  c-0.1,0-0.3,0.1-0.4,0.2c-0.1,0.1-0.2,0.2-0.2,0.4c-0.1,0.4,0.1,0.7,0.5,0.8c0.5,0.1,1-0.1,1.4-0.5  C-326.3,358.9-326.2,358.6-326.3,358.2z"></path>	<path d="M-324.3,354.9c0.2-0.1,0.4-0.1,0.6,0c0.1,0.6,0,1.1,0.1,1.8c0.2-0.1,0.4-0.2,0.5-0.3c0.3-0.1,0.6-0.2,1-0.1  c0.5,0.1,0.8,0.4,0.9,0.9c0,0.2,0.1,0.3,0.1,0.5c0,0.8,0,1.5,0,2.3c0,0.1,0,0.1,0,0.2c-0.2,0-0.4,0-0.6,0c0-0.1,0-0.3,0-0.4  c0-0.6,0-1.2,0-1.8c0-0.2,0-0.4,0-0.6c-0.1-0.4-0.3-0.6-0.7-0.6c-0.4,0-0.6,0.1-1.2,0.5c0,0.9,0,1.8,0,2.8  c-0.2,0.2-0.4,0.1-0.6,0.1c0-0.1-0.1-0.2-0.1-0.3c0-1.5,0-3.1,0-4.6C-324.4,355.1-324.3,355-324.3,354.9z"></path>	<path d="M-438.4,359.3c0,0.3,0,0.4,0,0.6c-0.7,0.4-1.5,0.5-2.3,0.2c-0.6-0.2-0.9-0.6-1.1-1.2c-0.1-0.5-0.1-0.9,0-1.4  c0.3-1.1,1.6-1.7,2.6-1.1c0.3,0.2,0.6,0.5,0.7,0.8c0.1,0.3,0.2,0.7,0.1,1.1c-0.4,0.1-0.9,0-1.3,0c-0.5,0-0.9,0-1.3,0  c-0.1,0.6,0.2,1.1,0.7,1.3c0.5,0.2,0.9,0.1,1.3-0.1C-438.9,359.5-438.7,359.4-438.4,359.3z M-439.1,357.8c0-0.5-0.2-0.8-0.5-0.9  c-0.6-0.2-1.2,0.1-1.5,0.7c0,0.1,0,0.2,0,0.3C-440.4,357.8-439.5,357.8-439.1,357.8z"></path>	<path d="M-393.1,358.3c-0.9,0.1-1.8,0-2.7,0c-0.1,0.3,0,0.5,0.1,0.7c0.1,0.2,0.3,0.4,0.6,0.5c0.5,0.2,0.9,0.1,1.4,0  c0.2-0.1,0.4-0.2,0.6-0.3c0.1,0.2,0.1,0.4,0,0.6c-0.7,0.3-1.4,0.4-2.1,0.2c-0.7-0.2-1.1-0.6-1.2-1.3c-0.1-0.5-0.1-1,0.1-1.5  c0.4-1.2,1.7-1.4,2.6-1c0.3,0.1,0.5,0.4,0.6,0.6C-393.1,357.4-393,357.9-393.1,358.3z M-393.7,357.8c0-0.5-0.1-0.8-0.5-0.9  c-0.4-0.2-0.8-0.1-1.2,0.1c-0.3,0.2-0.4,0.5-0.4,0.8C-395.1,357.8-394.5,357.8-393.7,357.8z"></path>	<path d="M-415.5,359.3c0,0.2,0,0.4,0,0.6c-0.7,0.3-1.4,0.5-2.1,0.2c-0.7-0.2-1.1-0.7-1.2-1.4c0-0.3-0.1-0.7,0-1  c0.3-1.5,1.7-1.8,2.6-1.3c0.2,0.1,0.4,0.3,0.5,0.5c0.2,0.4,0.3,0.9,0.2,1.4c-0.9,0.1-1.8,0-2.7,0c-0.1,0.3,0,0.5,0.1,0.7  c0.1,0.2,0.3,0.4,0.6,0.5c0.5,0.2,0.9,0.1,1.4,0C-415.9,359.5-415.8,359.4-415.5,359.3z M-416.1,357.8c0-0.5-0.2-0.8-0.7-1  c-0.6-0.1-1.1,0-1.4,0.7c0,0.1,0,0.2,0,0.3C-417.6,357.8-416.6,357.8-416.1,357.8z"></path>	<path d="M-411.3,354.9c0.2-0.1,0.4-0.1,0.6,0c0.1,0.5,0,1.1,0,1.6c0,0.5,0,1,0,1.5c0.1,0,0.1,0,0.1,0c0,0,0,0,0.1,0c0,0,0,0,0,0  c0.5-0.6,1.1-1.1,1.6-1.7c0.2,0,0.4,0,0.7,0c-0.1,0.1-0.1,0.2-0.2,0.2c-0.4,0.4-0.8,0.8-1.2,1.2c-0.1,0.1-0.2,0.2-0.3,0.3  c0.2,0.3,0.4,0.5,0.6,0.7c0.2,0.2,0.4,0.4,0.6,0.6c0.2,0.2,0.4,0.4,0.6,0.7c-0.3,0.1-0.5,0-0.8,0c-0.5-0.5-1-1.1-1.5-1.6  c-0.3,0.2-0.4,0.3-0.4,0.7c0,0.3,0,0.6,0,0.9c-0.2,0.1-0.4,0.1-0.6,0c0-0.1,0-0.2,0-0.2c0-1.6,0-3.2,0-4.9  C-411.4,355-411.4,354.9-411.3,354.9z"></path>	<path d="M-357.6,357.6c0-0.2,0-0.3,0-0.5c0.3-0.1,0.5-0.1,0.8-0.2c0.3-0.1,0.5-0.3,0.6-0.6c0-0.4-0.1-0.6-0.4-0.8  c-0.3-0.1-0.7-0.1-1,0c-0.3,0.1-0.6,0.2-0.9,0.3c-0.1-0.2,0-0.4,0-0.6c0.2-0.2,0.5-0.3,0.8-0.3c0.4-0.1,0.7-0.1,1.1,0  c0.3,0,0.5,0.1,0.7,0.3c0.5,0.4,0.6,1.1,0.2,1.6c-0.2,0.2-0.3,0.3-0.6,0.4c0.1,0,0.1,0.1,0.2,0.1c0.9,0.3,1,1.5,0.5,2.2  c-0.3,0.4-0.7,0.6-1.1,0.6c-0.7,0.1-1.3,0-1.9-0.3c-0.1-0.2-0.1-0.4,0-0.7c0.4,0.1,0.7,0.2,1.1,0.3c0.3,0.1,0.6,0,0.9-0.1  c0.6-0.2,0.8-1,0.5-1.5c-0.2-0.3-0.4-0.3-0.7-0.4C-357.2,357.7-357.4,357.7-357.6,357.6z"></path>	<path d="M-348.6,357.6c0-0.2,0-0.3,0-0.5c0.1,0,0.1-0.1,0.2-0.1c0.2,0,0.4-0.1,0.7-0.1c0.2-0.1,0.4-0.2,0.5-0.4  c0.2-0.4,0-0.8-0.4-1c-0.3-0.1-0.7-0.1-1.1,0c-0.3,0.1-0.6,0.2-0.9,0.3c-0.1-0.2-0.1-0.4-0.1-0.6c0.2-0.2,0.5-0.3,0.8-0.3  c0.4,0,0.7,0,1.1,0c0.2,0,0.4,0.1,0.6,0.2c0.8,0.4,0.8,1.4,0.2,1.9c-0.1,0.1-0.3,0.2-0.4,0.3c0.1,0.1,0.3,0.1,0.4,0.2  c0.4,0.2,0.6,0.5,0.6,1c0.1,0.9-0.5,1.7-1.5,1.8c-0.6,0.1-1.2,0-1.8-0.3c-0.1-0.2-0.1-0.4,0-0.7c0.1,0,0.2,0.1,0.3,0.1  c0.3,0.1,0.6,0.2,0.9,0.3c0.2,0,0.4,0,0.6,0c0.6-0.1,1-0.6,0.9-1.2c0-0.3-0.2-0.6-0.5-0.7c-0.1,0-0.3-0.1-0.4-0.1  C-348.3,357.7-348.4,357.7-348.6,357.6z"></path>	<path d="M-385,355.9c-0.1-0.2-0.1-0.4,0-0.7c0.7-0.3,1.4-0.4,2.1-0.2c0.6,0.2,1,0.7,1,1.3c0,0.4-0.1,0.8-0.3,1.1  c-0.2,0.2-0.3,0.5-0.5,0.7c-0.4,0.4-0.7,0.7-1.1,1c-0.1,0.1-0.3,0.3-0.4,0.4c0.2,0.1,0.5,0.1,0.7,0.1c0.2,0,0.5,0,0.7,0  c0.2,0,0.4,0,0.6,0c0.2,0,0.4,0,0.6,0c0.1,0.2,0.1,0.3,0,0.5c-0.4,0.1-2.9,0.1-3.4,0c0-0.1,0-0.2,0-0.3c0-0.2,0.1-0.4,0.2-0.5  c0.3-0.2,0.6-0.5,0.8-0.7c0.4-0.4,0.7-0.7,1.1-1.1c0.2-0.3,0.4-0.6,0.4-0.9c0-0.5-0.3-0.9-0.8-1c-0.4,0-0.7,0-1,0.2  C-384.6,355.8-384.8,355.8-385,355.9z"></path>	<path d="M-363.2,355.9c0-0.3,0-0.4,0-0.6c0.1-0.2,0.3-0.2,0.5-0.2c0.5-0.1,0.9-0.2,1.4-0.1c0.8,0.1,1.2,0.7,1.2,1.5  c0,0.3-0.1,0.7-0.3,1c-0.2,0.2-0.4,0.5-0.6,0.7c-0.4,0.4-0.8,0.7-1.2,1.1c-0.1,0.1-0.2,0.2-0.3,0.3c0.1,0.1,0.2,0.1,0.3,0.1  c0.6,0,1.2,0,1.9,0c0.1,0,0.3,0,0.5,0c0,0.2,0,0.3,0,0.5c0,0-0.1,0.1-0.1,0.1c-1.1,0-2.2,0-3.2,0c0,0-0.1,0-0.1-0.1  c0-0.2,0-0.4,0-0.6c0.1-0.1,0.2-0.2,0.3-0.3c0.5-0.5,1-0.9,1.4-1.4c0.2-0.2,0.3-0.3,0.4-0.5c0.2-0.2,0.3-0.5,0.3-0.8  c0-0.5-0.3-0.9-0.8-1c-0.4,0-0.7,0-1,0.2C-362.8,355.8-362.9,355.8-363.2,355.9z"></path>	<path d="M-370.1,358.1c0.3,0,0.5,0,0.7,0.1c0.1,0.2,0.1,0.3,0.1,0.5c-0.2,0-0.4,0.1-0.7,0.1c0,0.1-0.1,0.2-0.1,0.4  c0,0.3,0,0.6,0,0.9c-0.2,0.1-0.4,0.1-0.6,0c-0.1-0.4,0-0.9-0.1-1.3c-0.1,0-0.2-0.1-0.4-0.1c-0.5,0-0.9,0-1.4,0c-0.2,0-0.4,0-0.6,0  c-0.1-0.4-0.1-0.8,0.2-1.1c0.7-0.7,1.3-1.5,1.9-2.3c0.2-0.3,0.5-0.4,0.9-0.2c0.1,0.5,0,1,0,1.5  C-370.1,357.1-370.1,357.6-370.1,358.1z M-372.5,358.1c0.4,0.1,1.4,0.1,1.8,0c0-0.2,0-0.4,0-0.7c0-0.2,0-0.5,0-0.7  c0-0.2,0.1-0.4-0.1-0.7C-371.3,356.4-372.3,357.7-372.5,358.1z"></path>	<path d="M-402.7,354.8c0.2,0,0.4,0,0.5,0c0.2,0.6,0,1.2,0.1,1.8c0.2-0.1,0.4-0.2,0.5-0.3c0.4-0.2,0.7-0.2,1.1-0.1  c0.4,0.1,0.6,0.3,0.7,0.7c0.1,0.2,0.1,0.4,0.1,0.6c0,0.8,0,1.6,0,2.4c0,0.1,0,0.1,0,0.2c-0.2,0-0.4,0-0.6,0c0-0.1,0-0.3,0-0.4  c0-0.6,0-1.2,0-1.8c0-0.2,0-0.4,0-0.6c-0.1-0.4-0.3-0.5-0.6-0.5c-0.4,0-0.7,0.1-1.1,0.3c-0.1,0.1-0.1,0.2-0.1,0.3  c0,0.4,0,0.8,0,1.2c0,0.4,0,0.9,0,1.3c-0.2,0.2-0.4,0.1-0.6,0.1c0-0.1-0.1-0.1-0.1-0.2c0-1.6,0-3.2,0-4.9  C-402.7,355-402.7,355-402.7,354.8z"></path>	<path d="M-452.4,360.2c-0.2,0-0.4,0-0.6,0c-0.1-0.4,0-0.8-0.1-1.2c0-0.4,0-0.9,0-1.3c0-0.4,0-0.8,0-1.3c0.2,0,0.4,0,0.6,0  c0,0.1,0.1,0.2,0.1,0.3c0.1,0,0.1,0,0.2,0c0.2-0.1,0.4-0.2,0.7-0.3c0.3-0.1,0.5-0.1,0.8,0c0.4,0.1,0.7,0.4,0.8,0.8  c0.1,0.2,0.1,0.4,0.1,0.6c0,0.8,0,1.5,0,2.3c0,0.1,0,0.1,0,0.2c-0.2,0-0.4,0-0.6,0c0-0.2,0-0.3,0-0.5c0-0.6,0-1.1,0-1.7  c0-0.2,0-0.5-0.1-0.7c-0.1-0.3-0.2-0.4-0.5-0.4c-0.4-0.1-0.8,0.1-1.2,0.4c-0.1,0.1-0.1,0.3-0.1,0.4c0,0.6,0,1.3,0,1.9  C-452.3,359.7-452.3,359.9-452.4,360.2z"></path>	<path d="M-406.6,356.4c0,0.2,0,0.3,0,0.5c0,0.6,0,1.1,0,1.7c0,0.2,0,0.3,0,0.5c0.1,0.5,0.3,0.7,0.8,0.6c0.4,0,0.7-0.2,1-0.4  c0-0.1,0-0.3,0-0.4c0-0.6,0-1.3,0-1.9c0-0.2,0-0.3,0-0.5c0.2,0,0.4,0,0.6,0c0,0.1,0,0.2,0,0.3c0,1.1,0,2.3,0,3.5  c-0.2,0.1-0.4,0.1-0.6,0c0-0.1-0.1-0.2-0.2-0.3c-0.1,0.1-0.2,0.1-0.4,0.2c-0.3,0.2-0.6,0.2-0.9,0.2c-0.6,0-1-0.3-1.1-0.9  c0-0.2-0.1-0.3-0.1-0.5c0-0.8,0-1.5,0-2.3c0-0.1,0-0.2,0-0.3C-407,356.4-406.8,356.4-406.6,356.4z"></path>	<path d="M-375.3,359.6c0.4,0,0.7,0,1,0.1c0,0.1,0,0.2,0,0.2c0,0.1,0,0.1,0,0.2c-0.4,0.1-2.1,0.1-2.7,0c0,0-0.1-0.1-0.1-0.1  c0-0.1,0-0.2,0-0.3c0.3-0.2,0.7,0,1-0.1c0.1-0.4,0.1-2.7,0-3.3c-0.3-0.2-0.7,0-1-0.1c-0.1-0.1-0.1-0.2,0-0.4c0.1,0,0.2,0,0.3-0.1  c0.6-0.1,0.6-0.1,0.9-0.7c0.1,0,0.3,0,0.4,0c0.1,0.5,0,1,0,1.5c0,0.5,0,1,0,1.5C-375.3,358.6-375.3,359.1-375.3,359.6z"></path>	<path d="M-387.5,359.6c0.3,0,0.6,0,0.9,0.1c0,0.1,0,0.1,0.1,0.2c0,0.1,0,0.1,0,0.2c0,0-0.1,0.1-0.1,0.1c-0.8,0-1.7,0-2.5,0  c-0.1,0-0.1,0-0.2-0.1c0-0.1,0-0.3,0-0.4c0.3-0.2,0.7,0,1-0.1c0,0,0.1-0.1,0.1-0.1c0-1,0-2,0-2.9c0-0.1,0-0.1,0-0.2  c-0.3,0-0.7,0-1-0.1c0-0.1,0-0.2,0-0.3c0,0,0.1-0.1,0.1-0.1c0.1,0,0.2,0,0.3,0c0.4,0,0.7-0.2,0.8-0.7c0.2,0,0.3,0,0.5,0  c0,0.1,0,0.2,0,0.3c0,1.2,0,2.4,0,3.7C-387.5,359.2-387.5,359.4-387.5,359.6z"></path>	<path d="M-385.4,338.4c-0.4,0.1-1.9,0.1-2.5,0c-0.1-0.3,0-0.6-0.1-0.9c0-0.3,0-0.6,0-0.9c0.3-0.1,0.6-0.1,0.9-0.1  c0.3,0,0.6,0,0.8,0c0.3,0,0.6,0,0.8,0C-385.3,337.1-385.3,338-385.4,338.4z"></path>	<path d="M-412.4,379.8c-0.6,0.3-1.1,0.4-1.6,0.5c-0.4,0.1-0.7,0.1-1.1,0.1c-0.2,0-0.3,0.1-0.5,0.1c-0.3,0-0.5,0.2-0.5,0.5  c0,0.1-0.1,0.1-0.1,0.2c-0.5,0-0.9,0.1-1.4,0c0-1,0.6-1.7,1.6-1.7c0.4,0,0.8,0.1,1.2,0.1c0.7,0.1,1.4,0.2,2.1,0.2  C-412.6,379.8-412.5,379.8-412.4,379.8z"></path>	<path d="M-414.4,356.4c0.2,0,0.4,0,0.6,0c0,0.2,0,0.3,0.1,0.4c0,0,0.1,0,0.1,0c0.1-0.1,0.3-0.2,0.4-0.2c0.3-0.2,0.7-0.2,1.1-0.1  c0,0.1,0.1,0.2,0.1,0.3c0,0.1,0,0.2,0,0.3c-0.2,0.2-0.3,0.1-0.5,0.1c-0.4,0-0.7,0.1-1,0.3c-0.2,0.1-0.3,0.3-0.3,0.5  c0,0.6,0,1.2,0,1.8c0,0.2,0,0.4,0,0.6c-0.2,0-0.4,0-0.6,0C-414.5,359.7-414.5,357.1-414.4,356.4z"></path>	<path d="M-436.7,356.8c0.5-0.4,1-0.6,1.6-0.5c0.1,0.2,0.1,0.4,0.1,0.6c-0.3,0-0.6,0-0.9,0.1c-0.3,0.1-0.6,0.2-0.8,0.5  c-0.1,0.9,0,1.7,0,2.6c-0.2,0.1-0.4,0.1-0.6,0c-0.1-0.4-0.1-3.1,0-3.8c0.2-0.1,0.4-0.1,0.6,0C-436.7,356.5-436.7,356.6-436.7,356.8  z"></path>	<path d="M-319.9,354.9c0.2-0.1,0.4-0.1,0.6,0c0,0.1,0,0.2,0,0.3c0,1.6,0,3.3,0,4.9c-0.1,0-0.2,0-0.3,0c-0.1,0-0.2,0-0.3,0  c0-0.1-0.1-0.2-0.1-0.3c0-1.6,0-3.1,0-4.7C-319.9,355.1-319.9,355-319.9,354.9z"></path>	<path d="M-397.6,360.2c-0.2,0-0.4,0-0.6,0c0-0.1-0.1-0.2-0.1-0.3c0-1.6,0-3.2,0-4.7c0-0.1,0-0.2,0-0.3c0.2-0.1,0.4-0.1,0.6,0  c0,0.1,0,0.1,0,0.2C-397.6,356.7-397.6,358.4-397.6,360.2z"></path>	<path d="M-425,354.9c0.2-0.1,0.4-0.1,0.6,0c0,0.1,0,0.2,0,0.3c0.1,1.8,0,4.4-0.1,4.9c-0.2,0.1-0.4,0.1-0.6,0c0-0.1,0-0.2,0-0.3  c0-1.5,0-3.1,0-4.6C-425,355.1-425,355-425,354.9z"></path>	<path d="M-373.5,391c-0.3,0.4-0.8,0.7-1.6,0.7c-0.9,0.1-1.8-0.1-2.6-0.7c0.1,0,0.2-0.1,0.3-0.1c1.2,0,2.5,0,3.7,0  C-373.7,391-373.6,391-373.5,391z"></path>	<path d="M-426.4,360.2c-0.2,0-0.4,0-0.6,0c-0.1-0.3,0-0.6-0.1-1c0-0.3,0-0.6,0-1c0-0.3,0-0.6,0-0.9c0-0.3,0-0.6,0-1  c0.2,0,0.3,0,0.5,0c0,0.1,0.1,0.1,0.1,0.2c0,0.1,0,0.3,0,0.4c0,0.9,0,1.8,0,2.8C-426.3,359.8-426.4,359.9-426.4,360.2z"></path>	<path d="M-367.9,359.2c0.3-0.1,0.5-0.1,0.8,0c0,0.1,0,0.2,0,0.2c-0.2,0.6-0.5,1.2-0.8,1.8c-0.1,0.3-0.1,0.3-0.6,0.2  C-368.3,360.7-368.1,359.9-367.9,359.2z"></path>	<path d="M-380.7,358.2c0-0.2,0-0.4,0-0.5c0.4-0.1,1.6-0.1,2.1,0c0.1,0.2,0.1,0.3,0,0.5C-379,358.2-380,358.3-380.7,358.2z"></path>	<path d="M-427,355.7c0-0.2,0-0.4,0-0.6c0.2-0.1,0.4-0.1,0.7,0c0,0.2,0,0.4,0,0.6C-426.5,355.7-426.7,355.7-427,355.7z"></path>	<path class="st5" d="M-260,393.9c-4.2-10.3-8.3-20.6-12.5-30.8c0-0.1-0.1-0.2-0.1-0.3c0.1-0.1,0.2-0.1,0.3-0.2  c0.6-0.2,1.2-0.5,1.7-0.7c1.9-0.8,3.7-1.5,5.6-2.3c0.2-0.1,0.3-0.1,0.5-0.2c0.3,0.1,0.3,0.3,0.3,0.5c0.4,1.1,0.9,2.2,1.3,3.3  c2.6,6.5,5.3,13,7.9,19.6c0.9,2.3,1.9,4.7,2.8,7c0.1,0.2,0.2,0.5,0.3,0.7c-0.1,0.2-0.3,0.2-0.5,0.3c-1.6,0.7-3.3,1.3-4.9,2  c-0.8,0.3-1.5,0.6-2.3,0.9C-259.6,393.7-259.7,393.8-260,393.9z"></path>	<path class="st5" d="M-276.8,333.6c3.4-0.1,6.9,2.6,6.9,6.9c0,3.9-3.1,6.9-6.9,6.9c-4,0-6.8-3.3-6.9-6.8  C-283.7,337-280.7,333.6-276.8,333.6z"></path>	<path d="M-340,383.5c-0.2,0.2-0.4,0.3-0.6,0.3c-0.5-0.3-0.5-0.5,0.1-0.8C-340.3,383.2-340.1,383.3-340,383.5z"></path></g></svg>