<svg xmlns="http://www.w3.org/2000/svg" xmlns:xlink="http://www.w3.org/1999/xlink" id="Ebene_1" x="0px" y="0px" viewBox="0 0 324.9 132.3" style="enable-background:new 0 0 324.9 132.3;" xml:space="preserve"><style type="text/css">	.st0{fill:#FCD2A0;}	.st1{fill:#747373;}</style><g>	<g>		<path class="st0" d="M195.3,115c-12.2-7.6-20.8-16.3-27-25.1c7.8-16.8,17.7-29.4,17.7-29.4c11.4-18.4-21.6-3.4-21.6-3.4   c-18.2,9.5,8.7,4.2,8.7,4.2c9.5-2,1.2,7.2,1.2,7.2c-3.7,4.9-7.1,10-10,14.9c-15.4-27.8-8.1-55.4-8.1-55.4   c10-38.2,28.6-3.4,28.6-3.4c7.5,12.5,4.7-0.2,4.7-0.2c-22.2-50.8-39.8-3-39.8-3c-8.5,29.5-1.2,54.9,8.3,73   c-7.4,14-11.3,24.9-11.3,24.9c-3.3,12,5.2,11.4,5.2,11.4c7.4,0.4,7.3-8.9,7.3-8.9c0.4-6.3,1.8-12.6,3.8-18.7   c8.4,13.2,16.6,20.7,16.6,20.7c12.3,12.3,19.8,6,19.8,6C207.8,122.2,195.3,115,195.3,115z"></path>		<path class="st0" d="M181.9,42.8c-3.2,6-8.3,9.5-11.3,7.9c-3-1.6-2.7-7.8,0.5-13.8c3.3-6,8.3-9.5,11.3-7.9   C185.4,30.6,185.1,36.8,181.9,42.8z"></path>	</g>	<g>		<path class="st1" d="M7.4,99.7c0,2.6,0.4,3.4,1.7,3.5c0.8,0.1,1.1,0.2,1.1,0.7c0,0.4-0.3,0.6-0.6,0.6l-0.5,0   c-0.5-0.1-1.1-0.1-1.7-0.1c-0.5-0.1-1-0.1-1.6-0.1c-0.5,0-1.6,0.1-3.3,0.2c-0.2,0-0.4,0-0.5,0c-0.4,0-0.6-0.2-0.6-0.6   c0-0.5,0.3-0.6,1.1-0.7c1.4-0.1,1.7-0.9,1.7-3.5V76.8c0-2.6-0.4-3.4-1.7-3.5c-0.8-0.1-1.1-0.2-1.1-0.7c0-0.4,0.3-0.6,0.6-0.6   L2.6,72c0.8,0,0.8,0,1.7,0.1c0.5,0,1,0,1.6,0c0.5,0,1.6,0,3.3-0.1C9.3,72,9.5,72,9.6,72c0.4,0,0.6,0.2,0.6,0.6   c0,0.5-0.3,0.6-1.1,0.7c-1.4,0.1-1.7,0.9-1.7,3.5V99.7z"></path>		<path class="st1" d="M17.6,82.8c0,0.5,0.1,0.8,0.4,0.8c0.1,0,0.1,0,0.7-0.6c1.5-1.6,3.3-2.5,5-2.5c1.9,0,3.5,0.9,4.2,2.5   c0.5,1,0.8,2.8,0.8,4.9v11.6c0,3,0.2,3.5,1.7,3.8c0.7,0.1,0.9,0.2,0.9,0.6c0,0.3-0.2,0.5-0.5,0.5c-0.2,0-0.3,0-0.6-0.1   c-0.6,0-2.2-0.1-3-0.1l-2.7,0.1c-0.2,0.1-0.4,0.1-0.6,0.1c-0.3,0-0.5-0.2-0.5-0.5c0-0.4,0.2-0.5,0.9-0.6c1.5-0.3,1.7-0.8,1.7-3.8   V87.9c0-2.3-0.3-3.6-1.2-4.5c-0.7-0.7-1.6-1.1-2.6-1.1c-1.4,0-2.7,0.7-3.6,1.9c-0.9,1.2-1.1,1.8-1.1,4.1v11.1c0,3,0.2,3.5,1.7,3.8   c0.7,0.1,0.9,0.2,0.9,0.6c0,0.3-0.2,0.5-0.6,0.5c-0.2,0-0.3,0-0.5-0.1c-0.6,0-2.2-0.1-3-0.1c-0.5,0-2.2,0.1-2.7,0.1   c-0.2,0.1-0.4,0.1-0.5,0.1c-0.4,0-0.5-0.2-0.5-0.5c0-0.4,0.2-0.5,0.9-0.6c1.5-0.3,1.7-0.8,1.7-3.8V87.1c0-2.7,0-2.8-1.7-2.8   c-0.4-0.1-0.5-0.2-0.5-0.4c0-0.2,0.1-0.3,0.3-0.5c1.6-0.9,2.5-1.7,3.7-2.8c0.2-0.1,0.3-0.2,0.5-0.2c0.2,0,0.3,0.2,0.3,0.7V82.8z"></path>		<path class="st1" d="M45.2,100.9c0,1,0.1,1.5,0.4,1.5c0.2,0,0.5-0.3,0.7-0.8c0.2-0.4,0.4-0.8,0.6-1.2c0.2-0.4,0.3-0.5,0.5-0.5   c0.2,0,0.3,0.1,0.3,0.4l0,0.8c0,0.2,0,0.5,0,0.6c0,0.5-0.2,0.8-0.8,1.2c0,0-0.3,0.2-0.6,0.4c-0.8,0.5-0.8,0.5-1.8,1.3l-0.6,0.3   c-0.2,0.1-0.4,0.2-0.5,0.2c-0.2,0-0.4-0.3-0.5-1v-0.4c0-0.4,0-0.4-0.1-1.1c0-0.7-0.1-0.9-0.3-0.9c-0.1,0-0.1,0-1,0.9   c-1.8,1.8-2.4,2.2-3.6,2.2c-3.6,0-6.4-5.3-6.4-11.9c0-7.1,3.1-12.5,7.2-12.5c1.1,0,2.2,0.4,3.1,1.3c0.1,0.1,0.3,0.2,0.3,0.2   c0.3,0,0.3-0.2,0.3-0.9v-8.3c0-1.4-0.2-1.8-1.3-2c-0.9-0.1-0.9-0.1-0.9-0.5c0-0.3,0-0.3,0.9-0.7c0.9-0.3,1.6-0.7,2.5-1.2   c0.7-0.4,0.8-0.5,1-0.5c0.3,0,0.3,0,0.3,1.6V100.9z M42.7,87.7c0-3.8-1.4-6-3.6-6c-2.8,0-4.6,4.3-4.6,10.7   c0,6.3,1.8,10.3,4.6,10.3c1.2,0,2.4-0.6,3.1-1.7c0.4-0.6,0.6-1.3,0.6-2.7V87.7z"></path>		<path class="st1" d="M54.7,99.5c0,3,0.2,3.5,1.7,3.8c0.7,0.1,0.9,0.2,0.9,0.6c0,0.3-0.2,0.5-0.6,0.5c-0.2,0-0.3,0-0.5-0.1   c-0.6,0-2.2-0.1-2.9-0.1c-0.6,0-2.3,0.1-2.8,0.1c-0.2,0.1-0.4,0.1-0.6,0.1c-0.4,0-0.6-0.2-0.6-0.5c0-0.4,0.2-0.5,0.9-0.6   c1.5-0.3,1.7-0.8,1.7-3.8V86.3c0-1.6-0.3-2.1-1.5-2.2c-0.7,0-0.9-0.1-0.9-0.5c0-0.4,0-0.4,1.2-0.9c0.8-0.3,1.7-0.9,2.6-1.9   c0.5-0.5,0.6-0.6,0.8-0.6c0.2,0,0.3,0.2,0.3,0.8V99.5z"></path>		<path class="st1" d="M70,85.2c0.1-0.5,0.2-1,0.2-1.4c0-1.1-0.5-1.5-1.8-1.5c-0.7,0-1-0.2-1-0.6c0-0.4,0.3-0.6,0.7-0.6h0.3   c0.9,0,1.9,0.1,3.3,0.1c0.4,0,0.9,0,1.2-0.1h0.5c0.5,0,0.7,0.2,0.7,0.6c0,0.4-0.2,0.6-0.9,0.7c-1,0.1-1.5,0.8-2.3,3.2L65.6,104   c-0.2,0.7-0.3,0.8-0.5,0.8c-0.3,0-0.3-0.1-0.5-0.8l-4.9-18.8c-0.6-2.2-1-2.8-2.1-2.9c-0.7-0.1-1-0.3-1-0.7c0-0.4,0.3-0.6,0.8-0.6   c0.1,0,0.1,0,2.6,0.2c2.4,0,3.2,0,3.6-0.1C63.7,81,63.8,81,64,81c0.3,0,0.6,0.2,0.6,0.5c0,0.4-0.3,0.6-0.9,0.7   c-1.4,0.2-1.7,0.4-1.7,1.3c0,0.3,0,0.6,0.1,0.9l3.8,14.5L70,85.2z"></path>		<path class="st1" d="M79.9,99.5c0,3,0.2,3.5,1.7,3.8c0.7,0.1,0.9,0.2,0.9,0.6c0,0.3-0.2,0.5-0.6,0.5c-0.2,0-0.3,0-0.6-0.1   c-0.6,0-2.2-0.1-2.9-0.1c-0.6,0-2.3,0.1-2.8,0.1c-0.2,0.1-0.4,0.1-0.5,0.1c-0.4,0-0.6-0.2-0.6-0.5c0-0.4,0.2-0.5,0.9-0.6   c1.5-0.3,1.7-0.8,1.7-3.8V86.3c0-1.6-0.3-2.1-1.5-2.2c-0.7,0-0.9-0.1-0.9-0.5c0-0.4,0-0.4,1.2-0.9c0.8-0.3,1.7-0.9,2.6-1.9   c0.5-0.5,0.6-0.6,0.8-0.6c0.2,0,0.3,0.2,0.3,0.8V99.5z"></path>		<path class="st1" d="M97.3,100.9c0,1,0.1,1.5,0.4,1.5c0.2,0,0.5-0.3,0.7-0.8c0.2-0.4,0.4-0.8,0.6-1.2c0.2-0.4,0.3-0.5,0.5-0.5   c0.2,0,0.3,0.1,0.3,0.4l0,0.8c0,0.2,0,0.5,0,0.6c0,0.5-0.2,0.8-0.8,1.2c0,0-0.3,0.2-0.6,0.4c-0.8,0.5-0.8,0.5-1.8,1.3l-0.6,0.3   c-0.2,0.1-0.4,0.2-0.5,0.2c-0.2,0-0.4-0.3-0.5-1v-0.4c0-0.4,0-0.4-0.1-1.1c0-0.7-0.1-0.9-0.3-0.9c-0.1,0-0.1,0-1,0.9   c-1.8,1.8-2.4,2.2-3.6,2.2c-3.6,0-6.4-5.3-6.4-11.9c0-7.1,3.1-12.5,7.2-12.5c1.1,0,2.2,0.4,3.1,1.3c0.1,0.1,0.3,0.2,0.3,0.2   c0.3,0,0.3-0.2,0.3-0.9v-8.3c0-1.4-0.2-1.8-1.3-2c-0.9-0.1-0.9-0.1-0.9-0.5c0-0.3,0-0.3,0.9-0.7c0.9-0.3,1.6-0.7,2.5-1.2   c0.7-0.4,0.8-0.5,1-0.5c0.3,0,0.3,0,0.3,1.6V100.9z M94.7,87.7c0-3.8-1.4-6-3.6-6c-2.8,0-4.6,4.3-4.6,10.7   c0,6.3,1.8,10.3,4.6,10.3c1.2,0,2.4-0.6,3.1-1.7c0.4-0.6,0.5-1.3,0.5-2.7V87.7z"></path>		<path class="st1" d="M115.8,99.1c0,2.3,0.2,2.7,1.1,2.8c0.7,0,0.9,0.1,0.9,0.4c0,0.3-0.3,0.5-1.2,1.1c-0.4,0.2-0.8,0.4-1.2,0.7   c-1.3,0.8-1.5,0.9-1.8,0.9c-0.3,0-0.3-0.2-0.3-0.9v-1.9c0-0.5-0.1-0.8-0.3-0.8c-0.2,0-0.4,0.2-0.9,0.7c-2.1,2.2-3,2.8-4.7,2.8   c-1.3,0-2.5-0.5-3.3-1.5c-1-1.1-1.4-2.6-1.4-5.3V86c0-3-0.2-3.5-1.7-3.8c-0.7-0.1-0.9-0.2-0.9-0.6c0-0.3,0.2-0.5,0.5-0.5   c0.2,0,0.3,0,0.6,0c0.6,0,2.3,0.1,2.6,0.1l0.8,0c0.5,0,0.7,0.3,0.7,1.1v14.8c0,4,1,5.8,3.3,5.8c1.4,0,2.8-0.8,3.7-2.1   c0.8-1.1,1-1.9,1-3.6V86c-0.1-3.2-0.3-3.5-1.8-3.8c-0.7-0.1-0.9-0.2-0.9-0.6c0-0.3,0.2-0.5,0.5-0.5c0.2,0,0.3,0,0.6,0   c0.6,0,0.6,0,1.4,0l1.5,0c0.3,0,0.6,0,0.7,0c0.4,0,0.5,0.2,0.5,1.1V99.1z"></path>		<path class="st1" d="M132.8,98.8c0,2.4,0.4,3.6,1.3,3.6c0.8,0,1.1-0.5,1.8-2.2c0.1-0.3,0.3-0.5,0.5-0.5c0.3,0,0.4,0.2,0.4,0.5   c0,0.4-0.2,1.2-0.6,2c-0.9,1.8-2,2.7-3.1,2.7c-1.3,0-2.1-1-2.7-3.3c-0.1-0.3-0.2-0.5-0.3-0.5c-0.1,0-0.3,0.1-0.6,0.5   c-2.2,2.4-3.7,3.4-5.3,3.4c-1.9,0-3.3-1.9-3.3-4.3c0-2.3,1.1-4,4.2-6.7l4-3.4c1.1-0.9,1.2-1.2,1.2-2.4v-3.3c0-2.2-0.6-3.3-1.8-3.3   c-0.9,0-2.1,0.7-2.8,1.6c-0.5,0.6-0.9,1.7-1.4,3.3c-0.3,1.2-0.6,1.7-1.3,2.3c-0.5,0.4-1.2,0.8-1.6,0.8c-0.5,0-0.8-0.5-0.8-1.2   c0-1.3,0.8-3.2,2-4.5c1.8-2.1,4.4-3.3,6.9-3.3c2.5,0,3.3,1,3.3,3.9V98.8z M130.2,92.3c0-0.7-0.1-1-0.3-1c-0.3,0-1.1,0.7-2.9,2.3   c-2.1,1.9-3.4,4.3-3.4,6.2c0,1.8,0.8,3,2.1,3c1.1,0,2.3-0.8,3.6-2.4c0.8-1,1-1.5,1-2.7V92.3z"></path>		<path class="st1" d="M143.1,99.5c0,3,0.2,3.5,1.7,3.8c0.7,0.1,0.9,0.2,0.9,0.6c0,0.3-0.2,0.5-0.5,0.5c-0.2,0-0.3,0-0.5-0.1   c-0.6,0-2.2-0.1-3-0.1c-0.6,0-2.2,0.1-2.7,0.1c-0.2,0.1-0.4,0.1-0.5,0.1c-0.4,0-0.6-0.2-0.6-0.5c0-0.4,0.2-0.5,0.9-0.6   c1.5-0.3,1.7-0.8,1.7-3.8V74.2c0-1.9-0.4-2.7-1.5-2.8c-0.9,0-1.1-0.1-1.1-0.5c0-0.3,0.3-0.5,1-0.8c1-0.3,2-0.9,3.3-2   c0.1-0.1,0.3-0.2,0.4-0.2c0.3,0,0.3,0.1,0.3,0.9V99.5z"></path>		<path class="st1" d="M198.7,80L198.7,80c0.1,0.6-0.1,1-0.5,1c-0.3,0-0.5-0.3-0.8-1.5c-0.8-3-1.1-3.7-1.9-4.9   c-0.9-1.2-2-1.9-3.2-1.9c-4,0-6.7,6.2-6.7,15.4c0,9.7,2.7,16,6.9,16c3.1,0,4.7-2.7,5.5-9.1c0.1-0.5,0.3-0.8,0.6-0.8   c0.3,0,0.5,0.3,0.5,1.3v6.3c0,1-0.1,1.3-0.5,1.6c-1.1,1.1-3.6,1.9-5.6,1.9c-6.4,0-10.9-6.9-10.9-16.5c0-10.1,4.5-17.4,10.9-17.4   c1.6,0,3.6,0.5,4.8,1.3c0.6,0.3,0.8,0.7,0.8,1.8L198.7,80z"></path>		<path class="st1" d="M216.7,92.8c0,6.7-3.5,12.2-7.8,12.2c-4.2,0-7.7-5.6-7.7-12.4c0-6.8,3.5-12.4,7.7-12.4   C213.3,80.2,216.7,85.7,216.7,92.8z M204,92.2c0,3.3,0.8,7,2,9.4c0.7,1.4,1.9,2.3,2.9,2.3c1,0,2.2-1,2.9-2.3c1.2-2.4,2-6,2-9.2   c0-5.9-2.3-11.1-4.9-11.1C206.4,81.3,204,86.5,204,92.2z"></path>		<path class="st1" d="M228.6,85.7c0,0.6-0.2,0.9-0.4,0.9c-0.3,0-0.4,0-0.9-2c-0.7-2.5-1.4-3.4-3-3.4c-1.7,0-3.3,1.7-3.3,3.6   c0,1.1,0.5,2.1,1.4,3.1c0.4,0.4,1,0.9,2.5,2c3.4,2.5,4.5,4.3,4.5,7.4c0,4.4-2.9,7.5-6.9,7.5c-1.1,0-2.2-0.2-3-0.7   c-0.6-0.3-0.8-0.6-0.8-1.4v-5.3c0-0.5,0.2-0.8,0.5-0.8c0.3,0,0.4,0.2,0.5,0.8c0.2,1.3,0.7,2.9,1.2,3.9c0.8,1.5,1.5,2.1,2.5,2.1   c1.9,0,3.5-2,3.5-4.5c0-1.9-0.8-3.2-3.1-4.9c-2.9-2.2-3.2-2.5-3.8-3.3c-0.9-1.2-1.4-2.6-1.4-4.3c0-3.8,2.5-6.4,6.1-6.4   c2.1,0,3.6,0.7,3.6,1.6V85.7z"></path>		<path class="st1" d="M237.1,83.2c0,0.5,0.1,0.6,0.3,0.6c0.3,0,0.3,0,1.2-1c1.5-1.6,2.8-2.4,4.2-2.4c1.8,0,2.9,0.8,3.8,2.9   c0.2,0.4,0.4,0.7,0.6,0.7c0.2,0,0.3-0.1,2.3-2c1.1-1.1,2.2-1.6,3.5-1.6c1.5,0,3,0.7,3.9,1.9c0.8,1.1,1,1.9,1,4.8v12.2   c0,3,0.2,3.5,1.7,3.8c0.7,0.1,0.9,0.2,0.9,0.6c0,0.3-0.2,0.5-0.5,0.5c-0.2,0-0.3,0-0.6-0.1c-0.6,0-2.2-0.1-3-0.1l-2.7,0.1   c-0.2,0.1-0.4,0.1-0.6,0.1c-0.4,0-0.5-0.2-0.5-0.5c0-0.4,0.2-0.5,0.9-0.6c1.5-0.3,1.7-0.8,1.7-3.8V87.2c0-3.1-1.1-4.7-3.3-4.7   c-1.4,0-2.8,0.8-3.6,2.1c-0.7,1-0.9,1.8-0.9,3.8v11c0,3,0.2,3.5,1.7,3.8c0.7,0.1,0.9,0.2,0.9,0.6c0,0.3-0.2,0.5-0.6,0.5   c-0.2,0-0.3,0-0.5-0.1c-0.6,0-2.2-0.1-3-0.1c-0.5,0-2.2,0.1-2.7,0.1c-0.2,0.1-0.4,0.1-0.5,0.1c-0.4,0-0.6-0.2-0.6-0.5   c0-0.4,0.2-0.5,0.9-0.6c1.5-0.3,1.7-0.8,1.7-3.8V88.8c0-4.1-1.1-6.1-3.2-6.1c-1.2,0-2.7,0.7-3.6,1.8c-0.8,0.8-1,1.7-1,3.4v11.6   c0,3,0.2,3.5,1.7,3.8c0.7,0.1,0.9,0.2,0.9,0.6c0,0.3-0.2,0.5-0.6,0.5c-0.2,0-0.3,0-0.6-0.1c-0.5,0-2.2-0.1-2.9-0.1   c-0.6,0-2.2,0.1-2.8,0.1c-0.2,0.1-0.4,0.1-0.5,0.1c-0.4,0-0.6-0.2-0.6-0.5c0-0.4,0.2-0.5,0.9-0.6c1.5-0.3,1.7-0.8,1.7-3.8V87.8   c0-2.9-0.3-3.5-1.5-3.5c-0.9-0.1-1-0.2-1-0.6c0-0.3,0.1-0.4,0.8-0.6c0.8-0.3,2.8-1.7,3.2-2.3c0.4-0.4,0.6-0.5,0.8-0.5   c0.2,0,0.3,0.2,0.3,0.5V83.2z"></path>		<path class="st1" d="M265.3,91.6c-0.6,0-0.8,0.3-0.8,1.3c0,5.7,2.1,9.9,5,9.9c2,0,3.2-1.2,4.3-4.3c0.1-0.2,0.2-0.4,0.4-0.4   c0.3,0,0.4,0.2,0.4,0.6c0,0.9-0.3,2-0.9,3c-1.1,2.1-2.8,3.3-4.8,3.3c-4.3,0-7.2-4.8-7.2-12.1c0-7.3,3.2-12.7,7.5-12.7   c3.4,0,5.5,3.3,5.5,8.9c0,2.1-0.2,2.5-1.1,2.5H265.3z M269.6,90.5c1.8,0,2.6-1.1,2.6-3.6c0-3.1-1.3-5.6-3-5.6   c-1.6,0-3.1,1.6-3.9,4.2c-0.4,1.2-0.7,3.1-0.7,3.9c0,0.8,0.3,1.1,1,1.1H269.6z"></path>		<path class="st1" d="M281.2,98.5c0,2.9,0.5,4.2,1.7,4.2c0.8,0,1.6-0.9,2.3-2.5c0.1-0.3,0.3-0.4,0.4-0.4c0.2,0,0.4,0.2,0.4,0.5   c0,0.7-0.6,2-1.2,2.9c-0.9,1.3-1.9,1.9-3,1.9c-0.8,0-1.7-0.4-2.2-1.2c-0.7-1-0.9-2.1-0.9-4.9V83.8c0-0.8-0.2-1.1-0.8-1.1h-1.1   c-0.4,0-0.6-0.2-0.6-0.4c0-0.2,0.1-0.4,0.5-0.9c1.2-1.6,3.1-4.7,3.6-6.2c0.2-0.6,0.4-0.8,0.6-0.8c0.2,0,0.3,0.2,0.3,0.7v4.9   c0,0.8,0.2,1.1,0.9,1.1h2.1c0.8,0,0.9,0.1,0.9,0.9c0,0.5-0.2,0.7-0.8,0.7H282c-0.7,0-0.8,0.1-0.8,1.1V98.5z"></path>		<path class="st1" d="M293,99.5c0,3,0.2,3.5,1.7,3.8c0.7,0.1,0.9,0.2,0.9,0.6c0,0.3-0.2,0.5-0.6,0.5c-0.2,0-0.3,0-0.6-0.1   c-0.5,0-2.2-0.1-2.9-0.1c-0.6,0-2.3,0.1-2.8,0.1c-0.2,0.1-0.4,0.1-0.6,0.1c-0.4,0-0.5-0.2-0.5-0.5c0-0.4,0.2-0.5,0.9-0.6   c1.5-0.3,1.7-0.8,1.7-3.8V86.3c0-1.6-0.3-2.1-1.5-2.2c-0.7,0-0.9-0.1-0.9-0.5c0-0.4,0-0.4,1.2-0.9c0.8-0.3,1.7-0.9,2.6-1.9   c0.5-0.5,0.6-0.6,0.8-0.6c0.2,0,0.3,0.2,0.3,0.8V99.5z"></path>		<path class="st1" d="M309.3,86.3c0,0.9-0.2,1.4-0.6,1.4c-0.3,0-0.6-0.4-0.8-1.2c-0.2-0.7-0.9-2.8-1.2-3.5c-0.4-1.1-1.1-1.6-2-1.6   c-2.8,0-5.1,4.7-5.1,10.5c0,6.4,2,10.5,5.1,10.5c1.9,0,3.7-1.8,4.4-4.4c0.1-0.5,0.3-0.6,0.5-0.6c0.2,0,0.4,0.2,0.4,0.6   c0,0.9-0.4,2.4-1,3.4c-1.2,2.4-2.9,3.6-5.1,3.6c-4.1,0-7-4.8-7-11.6c0-7.6,3.7-13.2,8.8-13.2c1.1,0,2.5,0.3,3.1,0.8   c0.5,0.3,0.7,0.8,0.7,1.5V86.3z"></path>		<path class="st1" d="M322.6,85.7c0,0.6-0.2,0.9-0.4,0.9c-0.3,0-0.4,0-0.9-2c-0.7-2.5-1.4-3.4-3-3.4c-1.7,0-3.3,1.7-3.3,3.6   c0,1.1,0.5,2.1,1.4,3.1c0.4,0.4,1,0.9,2.5,2c3.4,2.5,4.5,4.3,4.5,7.4c0,4.4-2.9,7.5-6.9,7.5c-1.1,0-2.2-0.2-3.1-0.7   c-0.6-0.3-0.8-0.6-0.8-1.4v-5.3c0-0.5,0.2-0.8,0.5-0.8c0.3,0,0.4,0.2,0.5,0.8c0.2,1.3,0.7,2.9,1.2,3.9c0.8,1.5,1.5,2.1,2.5,2.1   c2,0,3.5-2,3.5-4.5c0-1.9-0.8-3.2-3.1-4.9c-2.9-2.2-3.2-2.5-3.8-3.3c-0.9-1.2-1.4-2.6-1.4-4.3c0-3.8,2.5-6.4,6.1-6.4   c2.1,0,3.6,0.7,3.6,1.6V85.7z"></path>	</g>	<path class="st1" d="M79.2,76.1c-0.8,1.4-2,2.3-2.7,1.9c-0.7-0.4-0.7-1.9,0.1-3.3c0.8-1.4,2-2.3,2.7-1.9  C80.1,73.2,80,74.7,79.2,76.1z"></path>	<path class="st1" d="M54.1,76.1c-0.8,1.4-2,2.3-2.7,1.9c-0.7-0.4-0.7-1.9,0.1-3.3c0.8-1.4,2-2.3,2.7-1.9  C54.9,73.2,54.9,74.7,54.1,76.1z"></path>	<path class="st1" d="M292.5,76.1c-0.8,1.4-2,2.3-2.7,1.9c-0.7-0.4-0.7-1.9,0.1-3.3c0.8-1.4,2-2.3,2.7-1.9  C293.3,73.2,293.3,74.7,292.5,76.1z"></path></g></svg>