<svg xmlns="http://www.w3.org/2000/svg" id="Ebene_1" viewBox="0 0 426.76 128.2"><defs><style>.cls-1{fill:#cd1719;}.cls-2{fill:#1d1d1b;}</style></defs><polygon class="cls-2" points="426.76 128.2 426.76 110.13 1.66 110.13 1.66 128.2 426.76 128.2 426.76 128.2"></polygon><path class="cls-2" d="M34.7,43.98v-11.03H5.74v11.03l4.93,1.17v38.28c0,3.59-1.79,5.56-5.29,5.56-1.17,0-2.42-.18-3.59-.45l-1.79,10.76c3.5,1.17,8.52,2.15,12.64,2.15,11.83,0,17.75-5.65,17.75-17.12V45.06l4.3-1.08h0Zm57.29,44.92l-4.03-.9V49.45l-1.25-1.26h-21.34v11.03l4.03,1.52v26.9c-1.79,.81-3.32,1.25-5.29,1.25-3.05,0-4.75-1.52-4.75-4.48V49.45l-1.26-1.26h-21.34v11.03l4.03,1.17,.09,26.63c.09,9.5,5.2,14.43,14.88,14.43,6.1,0,11.21-2.15,15.69-5.74l3.23,4.57h17.3v-11.39h0Zm59.17,.27l-3.77-1.17v-26.72c0-9.06-5.56-14.34-14.79-14.34-5.65,0-11.48,2.24-16.59,6.19l-2.06-4.93h-18.2v11.03l4.04,1.17v27.61l-4.04,1.17v11.03h26.63v-11.03l-4.04-1.17v-25.64c1.88-.9,3.68-1.34,5.65-1.34,3.05,0,4.75,1.52,4.75,4.48v33.8l.9,.9h21.52v-11.03h0Zm55.5-45.81l-12.1-1.08-.72,.72c-.18,3.68-1.26,5.56-2.78,7.08-3.59-2.06-8.43-3.14-14.43-3.14-13.45,0-21.88,7.26-21.88,17.66,0,8.07,4.3,13.27,11.57,15.51-4.03,2.42-6.63,5.83-6.63,10.31,0,2.69,.72,4.66,1.79,6.1-5.83,2.51-8.61,6.1-8.61,11.21,0,8.07,7.98,12.55,21.34,12.55,17.12,0,27.17-8.43,27.17-19.36,0-19.46-27.08-10.76-27.08-17.3,0-.81,.27-1.52,.81-2.15h.72c14.79,0,22.68-6.9,22.68-18.02,0-2.96-.63-5.56-1.88-7.8,5.47-.63,10.22-3.05,10.67-11.66l-.63-.63h0Zm-30.39,29.05c-3.14,0-4.84-2.51-4.84-7.71,0-5.83,1.79-8.61,4.93-8.61,3.41,0,5.38,2.6,5.38,8.07s-1.88,8.25-5.47,8.25h0Zm7.17,33.26c0,3.05-3.5,4.66-7.35,4.66-5.65,0-9.05-2.15-9.05-5.74,0-1.44,.45-2.87,1.26-4.21,6.81,1.7,15.15,.63,15.15,5.29h0Zm80.15-16.5l-3.77-1.08v-26.9c0-9.06-5.47-14.26-14.97-14.26-5.11,0-9.77,1.43-14.08,4.21l-.09-21.97-1.52-1.08-20.98,1.26v11.03l4.03,1.17v46.44l-4.03,1.17v11.03h26.63v-11.03l-4.04-1.17v-25.82c1.79-.81,3.59-1.17,5.56-1.17,3.14,0,4.84,1.52,4.84,4.57v33.71l.9,.9h21.52v-11.03h0Zm54.24,.09c-2.24,0-3.23-1.17-3.23-3.5v-20.53c0-12.19-7.17-18.29-21.43-18.29-7.44,0-16.23,1.43-23.4,3.5l1.79,12.55c4.93-.99,9.68-1.52,13.9-1.52,6.99,0,10.58,2.96,10.58,8.7v.18h-10.67c-11.74,0-18.38,5.29-18.38,14.52,0,10.04,7.44,16.59,18.11,16.59,5.2,0,9.5-1.52,12.91-4.3,2.15,2.87,5.92,4.3,11.3,4.3,3.32,0,6.45-.45,10.04-1.25v-11.03c-.54,0-.99,.09-1.52,.09h0Zm-32.72-4.93c0-3.23,1.61-5.02,5.83-5.02h5.11v10.13c-1.34,.54-2.69,.81-3.94,.81-4.3,0-6.99-2.24-6.99-5.92h0Zm93.15,4.84l-3.77-1.17v-26.72c0-9.06-5.56-14.34-14.79-14.34-5.65,0-11.48,2.24-16.59,6.19l-2.06-4.93h-18.2v11.03l4.03,1.17v27.61l-4.03,1.17v11.03h26.63v-11.03l-4.03-1.17v-25.64c1.88-.9,3.68-1.34,5.65-1.34,3.05,0,4.75,1.52,4.75,4.48v33.8l.9,.9h21.52v-11.03h0Zm35.32-20.8c-6.19-2.24-12.46-3.05-12.46-7.53,0-2.78,1.97-3.94,4.93-3.94,1.25,0,2.42,.18,3.68,.45l.9,6.54h11.83l.9-14.34c-6.28-1.88-12.91-2.69-19.28-2.69-13.27,0-21.79,6.63-21.79,17.3,0,8.52,5.47,12.28,11.12,14.79,6.19,2.78,12.82,3.86,12.82,8.43,0,2.69-1.88,3.86-5.38,3.86-1.17,0-2.69-.18-4.3-.54l-1.43-7.44h-11.74l-.72,15.24c5.74,1.61,12.73,2.96,20.35,2.96,13.9,0,22.59-7.35,22.59-17.57,0-9.68-6.01-13.27-12.01-15.51h0Z"></path><polygon class="cls-1" points="16.68 26 34.88 9.95 24.04 0 8.44 18.38 16.68 26 16.68 26"></polygon></svg>