<?xml version="1.0" encoding="utf-8"?>
<!-- Generator: Adobe Illustrator 27.7.0, SVG Export Plug-In . SVG Version: 6.00 Build 0)  -->
<svg version="1.1" id="Ebene_1" xmlns="http://www.w3.org/2000/svg" xmlns:xlink="http://www.w3.org/1999/xlink" x="0px" y="0px"
	 viewBox="0 0 883.2 445.4" style="enable-background:new 0 0 883.2 445.4;" xml:space="preserve">
<style type="text/css">
	.st0{fill:#6BB44A;}
	.st1{fill:#FFFFFF;}
	.st2{fill:#524F51;}
	.st3{fill:none;}
</style>
<g id="Ebene_1_00000078726300988025908730000002464427624928149672_">
</g>
<g>
	<g id="XMLID_00000050662982919871585810000000375179293866657194_">
		<g>
			<path class="st0" d="M814.1,283.2c0,4.8-0.9,9.3-2.7,13.5c0.5,2.1,0.8,4.2,0.9,6.3c0.3,6.8-1.2,13.6-4.5,19.7
				c-3.8,7.1-9.9,12.6-17.6,16c-4.9,2.2-10.2,3.9-15.7,5c-5.3,1.1-10.7,1.6-16,1.6c-12.1,0-23-2.3-32.6-6.9
				c-0.9-0.4-1.9-0.9-2.9-1.5c-5.2,4.1-13.3,8.1-24.9,8.1c-5,0-9.8-0.8-14.3-2.3c-5.3,1.7-11,2.6-16.9,2.6c-6.5,0-12.6-1-18.4-3
				c-0.4,0.1-0.7,0.2-1.1,0.3c-4.7,3.4-10.3,5.7-16.4,6.9l-1.4,0.2c-0.9,0.1-2.2,0.3-3.8,0.6c-3,0.5-5.9,0.7-8.7,0.8
				c-0.6,0-1.2,0-1.8,0c-13.9,0-25.9-3.3-35.7-9.9c-1.5,1-3.1,1.9-4.7,2.6c-6,2.9-12.4,5.1-19.1,6.6c-6.5,1.5-13.2,2.3-19.8,2.4
				c-15,0.3-28.5-2.3-40.2-7.6c-1.6-0.7-3.2-1.5-4.8-2.4c-2.8,2.1-5.8,3.9-9.1,5.2l-0.8,0.3c-3.4,1.3-7.4,2.3-12.1,3
				c-4.3,0.7-7.9,1-11,1.1c-0.6,0-1.1,0-1.7,0c-17.9,0-32.6-4.4-43.9-13.1c-7.4,9.9-19.3,15.8-33.2,16.4c-6.7,0.3-13.1-0.7-18.8-2.9
				c-6.7,3-14,4.6-21.9,4.9c-1.2,0-2.4,0.1-3.5,0.1c-13.3,0-24.9-3.2-34.5-9.6c-1.3,0.8-2.6,1.5-3.9,2.1c-6,2.9-12.4,5.1-19.1,6.6
				c-6.5,1.5-13.2,2.3-19.8,2.4c-0.8,0-1.6,0-2.4,0c-14,0-26.7-2.6-37.8-7.6c-5.3-2.4-10.3-5.4-14.7-8.9c-2.9,2.9-6.1,5.5-9.5,7.8
				c-10.2,6.8-22,10.4-35.1,10.7c-0.5,0-1,0-1.4,0c-7.7,0-15-1.3-21.9-3.8c-5.7,2.7-12.1,4.1-19.1,4.3c-0.3,0.2-0.7,0.2-1.1,0.2
				c-25.5,0-43-17.4-43.5-43.3l-2-97.5c-0.3-16.1,6.2-26.3,11.7-32.1c5.5-5.7,15.4-12.6,31.2-13c0.4,0,0.8,0,1.2,0
				c15.2,0,25.1,6.3,30.6,11.5c0.9,0.8,1.7,1.7,2.5,2.6l-0.8-37.1h-0.2c-0.4,0-0.8,0-1.1,0c-14.9,0-24.3-6.2-29.6-11.4
				c-5.2-5.1-11.5-14.4-11.8-29.3c-0.3-15.2,5.9-24.9,11.1-30.3c5.2-5.3,14.5-11.7,29.7-12l89.4-1.8c0.4,0,0.8,0,1.1,0
				c14.9,0,24.3,6.2,29.6,11.4c5.2,5.1,11.4,14.2,11.8,28.7c5.5,1.8,9.7,4.4,12.8,6.9c7.6-6.8,16.7-10.2,27.7-10.4
				c0.4,0,0.8,0,1.1,0c8,0,15.6,1.7,22,4.9c5.5-2.4,11.6-3.7,18.1-3.9c0.4,0,0.7,0,1.1,0c6.6,0,12.8,1.2,18.4,3.6
				c6.4-2.8,13.5-4.4,21-4.8c6.7-0.4,13.3,0.8,19,3.5c4.9-1.7,10.2-2.6,15.9-2.6h0.1c7.2,0,13.8,1.4,19.6,4.2
				c7.5-2.9,15.6-4.4,24.2-4.4h0.2c24,0.1,37.8,10.8,45.1,19.7c9.4,11.5,13.9,26.7,13.8,46.5l-0.1,33.3c6,0.5,11.7,1.5,17,3.2
				c0.3-14.9,6.4-24.4,11.7-29.9c5.5-5.7,15.4-12.6,31.2-13c0.4,0,0.8,0,1.1,0c15.2,0,25.1,6.3,30.6,11.5
				c5.9,5.5,12.9,15.5,13.3,31.8l0.4,19.6c5.8-3.1,12.1-5,18.8-5.9c2.2-8.1,6.4-13.6,9.7-16.9c5.1-5.1,14.2-11.2,28.5-11.2
				c14,0,23.1,6,28.2,11c3.8,3.7,8.4,9.9,10.5,19c5.6-1.5,11.5-2.3,17.6-2.3c11.5,0,21.9,2.6,30.9,7.8c9.5,5.4,16.9,13.2,22,23.1
				C811.7,261.7,814.1,272,814.1,283.2z M803.9,294.8c1.7-3.5,2.5-7.3,2.5-11.4c0-9.9-2-18.9-6.1-26.8c-4.4-8.5-10.7-15.2-18.8-19.9
				c-7.8-4.5-16.8-6.7-26.9-6.7c-6.9,0-13.4,1.1-19.5,3.3l-4.8,1.7l-0.5-5.1c-1-9.4-5.4-15.5-8.9-18.9c-4.1-4-11.3-8.7-22.6-8.7
				c-11.5,0-18.8,4.8-22.8,8.9c-2.9,2.9-6.7,8-8.2,15.8l-0.6,3l-3.1,0.2c-7.9,0.6-15.3,2.9-21.8,7.1c-0.7,0.4-1.4,0.9-2.1,1.4
				l-6.2,4.4l-0.7-34.2c-0.3-13.5-6-21.6-10.8-26.1c-4.6-4.4-13-9.6-26.1-9.3c-13.1,0.3-21.2,5.9-25.6,10.5
				c-4.5,4.7-9.7,13-9.5,26.4l0.2,9.8l-5.7-2.4c-7.2-3-15.1-4.6-23.7-4.9l-3.9-0.1l0.1-41c0-17.9-3.9-31.4-12-41.4
				c-6.2-7.6-18-16.7-38.9-16.8h-0.2c-8.2,0-15.8,1.5-22.8,4.5l-1.8,0.7l-1.7-0.9c-5.1-2.7-11.1-4.1-17.6-4.1h-0.1
				c-5.3,0-10.2,0.9-14.6,2.7l-1.7,0.7l-1.6-0.9c-4.8-2.6-10.5-3.7-16.5-3.4c-7.2,0.4-13.9,2-19.8,4.8l-1.7,0.8l-1.7-0.9
				c-5.2-2.5-11-3.8-17.6-3.6c-6.1,0.1-11.7,1.4-16.6,3.9l-1.9,1l-1.9-1c-5.9-3.3-13.2-5-21-4.9c-10.1,0.2-18.2,3.6-24.8,10.5
				l-2.8,3l-3-2.8c-2.9-2.7-7.8-6.4-15.1-8.2l-3.1-0.8l0.1-3.2c0-0.7,0-1.5,0-2.2c-0.2-12.2-5.3-19.6-9.4-23.7
				c-4.3-4.2-12.1-9.3-24.9-9.1l-89.4,1.8c-12.4,0.3-20,5.4-24.1,9.6c-4.2,4.3-9.1,12-8.9,24.5c0.2,12.2,5.3,19.6,9.4,23.7
				c4.3,4.2,12.1,9.3,24.9,9.1l8.2-0.2l1.7,85.1l-8.3-23.4c-1.8-5.1-4.7-9.6-8.5-13.2c-4.2-4.3-12.2-9.3-24.8-9.3c-0.3,0-0.7,0-1,0
				c-13.1,0.3-21.1,5.9-25.6,10.5c-4.5,4.7-9.7,13-9.5,26.4l2,97.5c0.4,21.5,14.4,35.4,35.5,35.4c0.3,0,0.7,0,1,0
				c6.4-0.1,12.2-1.5,17.2-4.2l1.6-0.9l1.7,0.7c6.7,2.7,14.1,4,21.9,3.9c11.5-0.2,21.9-3.4,30.8-9.3c3.9-2.6,7.5-5.8,10.6-9.3l2.6-3
				l3,2.6c4.6,4,9.9,7.4,15.7,10.1c10.1,4.6,21.7,6.9,34.5,6.9c0.7,0,1.5,0,2.3,0c6.1-0.1,12.2-0.9,18.2-2.2c6.1-1.4,12-3.4,17.4-6
				c1.8-0.8,3.5-1.8,5.1-3l2.4-1.6l2.3,1.7c8.6,6.4,19.4,9.6,32,9.6c1,0,2.1,0,3.2-0.1c7.4-0.3,14.3-2,20.4-4.9l1.7-0.8l1.7,0.7
				c5.1,2.2,10.8,3.2,17,2.9c13.1-0.5,23.5-6.3,29.2-16.4l2.5-4.3l3.7,3.4c10.1,9.3,24.3,14,42.1,14c0.5,0,1,0,1.6,0
				c2.8,0,6-0.4,9.9-1c4.2-0.7,7.7-1.5,10.6-2.6l0.6-0.2c3.3-1.4,6.4-3.3,9-5.6l2.2-2l2.5,1.5c2.1,1.2,4.3,2.4,6.5,3.4
				c10.1,4.6,21.7,6.9,34.5,6.9c0.7,0,1.5,0,2.2,0c6.1-0.1,12.2-0.9,18.2-2.2c6.1-1.4,12-3.4,17.4-6c2-0.9,4-2.1,5.8-3.5l2.4-1.8
				l2.4,1.8c8.8,6.6,20,9.9,33.2,9.9c0.6,0,1.1,0,1.7,0c2.4,0,5-0.3,7.6-0.7c1.7-0.3,3-0.5,3.9-0.6l1-0.2c5.3-1,10-3,13.9-5.9
				l0.7-0.5l0.8-0.2c0.9-0.2,1.7-0.4,2.6-0.7l1.3-0.4l1.3,0.5c5.2,2,10.9,3,16.9,3c5.5,0,10.7-0.9,15.6-2.6l1.4-0.5l1.4,0.5
				c3.9,1.5,8.2,2.3,12.8,2.3c10.8,0,17.8-4.3,21.8-7.9l2.2-2l2.6,1.6c1.7,1.1,3.2,1.9,4.7,2.6c8.4,4.1,18.2,6.1,29.1,6.1
				c4.8,0,9.7-0.5,14.4-1.4c4.9-1,9.6-2.5,14-4.5c6.1-2.7,10.8-7,13.8-12.5c2.6-4.8,3.8-10.2,3.6-15.5c-0.1-2.1-0.4-4.1-1-6.1
				l-0.4-1.4L803.9,294.8z"/>
			<path class="st1" d="M806.4,283.4c0,4.1-0.8,7.9-2.5,11.4l-0.7,1.3l0.4,1.4c0.6,2,0.9,4,1,6.1c0.2,5.3-1,10.7-3.6,15.5
				c-3,5.5-7.7,9.8-13.8,12.5c-4.4,2-9.1,3.5-14,4.5c-4.7,0.9-9.6,1.4-14.4,1.4c-10.9,0-20.7-2-29.1-6.1c-1.5-0.7-3-1.5-4.7-2.6
				l-2.6-1.6l-2.2,2c-4,3.6-11,7.9-21.8,7.9c-4.6,0-8.9-0.8-12.8-2.3l-1.4-0.5l-1.4,0.5c-4.9,1.7-10.1,2.6-15.6,2.6
				c-6,0-11.7-1-16.9-3l-1.3-0.5l-1.3,0.4c-0.9,0.3-1.7,0.5-2.6,0.7l-0.8,0.2l-0.7,0.5c-3.9,2.9-8.6,4.9-13.9,5.9l-1,0.2
				c-0.9,0.1-2.2,0.3-3.9,0.6c-2.6,0.4-5.2,0.7-7.6,0.7c-0.6,0-1.1,0-1.7,0c-13.2,0-24.4-3.3-33.2-9.9l-2.4-1.8l-2.4,1.8
				c-1.8,1.4-3.8,2.6-5.8,3.5c-5.4,2.6-11.3,4.6-17.4,6c-6,1.3-12.1,2.1-18.2,2.2c-0.7,0-1.5,0-2.2,0c-12.8,0-24.4-2.3-34.5-6.9
				c-2.2-1-4.4-2.2-6.5-3.4l-2.5-1.5l-2.2,2c-2.6,2.3-5.7,4.2-9,5.6l-0.6,0.2c-2.9,1.1-6.4,1.9-10.6,2.6c-3.9,0.6-7.1,1-9.9,1
				c-0.6,0-1.1,0-1.6,0c-17.8,0-32-4.7-42.1-14l-3.7-3.4l-2.5,4.3c-5.7,10.1-16.1,15.9-29.2,16.4c-6.2,0.3-11.9-0.7-17-2.9l-1.7-0.7
				l-1.7,0.8c-6.1,2.9-13,4.6-20.4,4.9c-1.1,0.1-2.2,0.1-3.2,0.1c-12.6,0-23.4-3.2-32-9.6l-2.3-1.7l-2.4,1.6c-1.6,1.2-3.3,2.2-5.1,3
				c-5.4,2.6-11.3,4.6-17.4,6c-6,1.3-12.1,2.1-18.2,2.2c-0.8,0-1.6,0-2.3,0c-12.8,0-24.4-2.3-34.5-6.9c-5.8-2.7-11.1-6.1-15.7-10.1
				l-3-2.6l-2.6,3c-3.1,3.5-6.7,6.7-10.6,9.3c-8.9,5.9-19.3,9.1-30.8,9.3c-7.8,0.1-15.2-1.2-21.9-3.9l-1.7-0.7l-1.6,0.9
				c-5,2.7-10.8,4.1-17.2,4.2c-0.3,0-0.7,0-1,0c-21.1,0-35.1-13.9-35.5-35.4l-2-97.5c-0.2-13.4,5-21.7,9.5-26.4
				c4.5-4.6,12.5-10.2,25.6-10.5c0.3,0,0.7,0,1,0c12.6,0,20.6,5,24.8,9.3c3.8,3.6,6.7,8.1,8.5,13.2l8.3,23.4l-1.7-85.1l-8.2,0.2
				c-12.8,0.2-20.6-4.9-24.9-9.1c-4.1-4.1-9.2-11.5-9.4-23.7c-0.2-12.5,4.7-20.2,8.9-24.5c4.1-4.2,11.7-9.3,24.1-9.6l89.4-1.8
				c12.8-0.2,20.6,4.9,24.9,9.1c4.1,4.1,9.2,11.5,9.4,23.7c0,0.7,0,1.5,0,2.2l-0.1,3.2l3.1,0.8c7.3,1.8,12.2,5.5,15.1,8.2l3,2.8
				l2.8-3c6.6-6.9,14.7-10.3,24.8-10.5c7.8-0.1,15.1,1.6,21,4.9l1.9,1l1.9-1c4.9-2.5,10.5-3.8,16.6-3.9c6.6-0.2,12.4,1.1,17.6,3.6
				l1.7,0.9l1.7-0.8c5.9-2.8,12.6-4.4,19.8-4.8c6-0.3,11.7,0.8,16.5,3.4l1.6,0.9l1.7-0.7c4.4-1.8,9.3-2.7,14.6-2.7h0.1
				c6.5,0,12.5,1.4,17.6,4.1l1.7,0.9l1.8-0.7c7-3,14.6-4.5,22.8-4.5h0.2c20.9,0.1,32.7,9.2,38.9,16.8c8.1,10,12,23.5,12,41.4
				l-0.1,41l3.9,0.1c8.6,0.3,16.5,1.9,23.7,4.9l5.7,2.4l-0.2-9.8c-0.2-13.4,5-21.7,9.5-26.4c4.4-4.6,12.5-10.2,25.6-10.5
				c13.1-0.3,21.5,4.9,26.1,9.3c4.8,4.5,10.5,12.6,10.8,26.1l0.7,34.2l6.2-4.4c0.7-0.5,1.4-1,2.1-1.4c6.5-4.2,13.9-6.5,21.8-7.1
				l3.1-0.2l0.6-3c1.5-7.8,5.3-12.9,8.2-15.8c4-4.1,11.3-8.9,22.8-8.9c11.3,0,18.5,4.7,22.6,8.7c3.5,3.4,7.9,9.5,8.9,18.9l0.5,5.1
				l4.8-1.7c6.1-2.2,12.6-3.3,19.5-3.3c10.1,0,19.1,2.2,26.9,6.7c8.1,4.7,14.4,11.4,18.8,19.9C804.4,264.5,806.4,273.5,806.4,283.4z
				"/>
		</g>
		<g>
		</g>
	</g>
	<path class="st0" d="M206.1,123.9l28.2-0.6c9.1-0.2,13.6-4.8,13.4-13.7c-0.2-9-4.8-13.4-13.9-13.2l-89.5,1.8
		c-9.1,0.2-13.6,4.8-13.4,13.7c0.2,9,4.8,13.4,13.9,13.2l28.2-0.6l1.7,84.6c0.1,5.3,1.6,9.3,4.6,12.2c2.9,2.9,7,4.3,12.3,4.2
		c5.5-0.1,9.6-1.7,12.3-4.7s4-7.1,3.9-12.4L206.1,123.9z"/>
	<path class="st0" d="M408,155.8c1.7-2.6,2.6-6,2.5-10.3c-0.2-5-1.2-8.4-3-10.3c-1.8-1.8-4.4-2.6-7.9-2.4c-7.4,0.4-13.6,2.7-18.5,7
		c-3.3,2.9-5.7,6.5-7.2,10.7v-0.8c-0.1-5.1-1.5-9.1-4.2-11.8s-6.6-4-11.6-3.9s-8.9,1.6-11.5,4.4c-2.6,2.8-3.9,6.8-3.8,11.9l1.2,59.5
		c0.2,10.8,5.8,16.1,16.7,15.8c5.3-0.1,9.3-1.6,11.9-4.4c2.7-2.8,4-6.8,3.9-12.1l-0.6-29.5c-0.1-5.7,1.2-10.1,4-13.1
		s7.4-4.9,13.7-5.6l4.1-0.4C402.8,159.9,406.2,158.3,408,155.8z"/>
	<path class="st0" d="M480.1,221.4c2.7,2.8,6.7,4.1,11.8,4.2c5.1,0,9.1-1.4,11.9-4.1c2.8-2.7,4.1-6.8,4.2-12l0.1-37.7
		c0-12.9-2.5-22.5-7.6-28.8c-5.1-6.2-12.9-9.4-23.4-9.4c-6.8,0-12.9,1.5-18.2,4.4c-4.3,2.4-7.7,5.6-10.4,9.7
		c-0.3-4.1-1.6-7.4-3.8-9.7c-2.6-2.8-6.5-4.1-11.5-4.2c-5,0-8.9,1.4-11.6,4.1c-2.7,2.8-4.1,6.7-4.1,11.8l-0.1,59.5
		c0,0.8,0,1.6,0.1,2.4h-0.1v12.1v11.1l-6.4,0.1c-8,0.1-12,4.1-11.9,11.9c0.1,7.9,4.2,11.8,12.2,11.7l6.1-0.1l0.4,29.3
		c0.2,12.6,3.6,21.9,10.1,28.1c6.6,6.1,16.5,9.1,30,8.9c1.8,0,4.1-0.3,7-0.7c2.9-0.5,5.1-1,6.8-1.6c2.7-1.1,4.6-2.9,5.7-5.4
		c1-2.5,1.5-5.5,1.5-9.1c-0.1-4.4-0.7-7.3-1.9-8.5c-1.2-1.2-2.8-1.8-4.7-1.6c-1.3,0-2.8,0.2-4.3,0.6c-1.6,0.4-3.2,0.6-4.8,0.6
		c-4.6,0.1-7.9-0.9-10-3s-3.2-5.3-3.3-9.7l-0.4-28.2l14.7-0.2c8.1-0.1,12.2-4.1,12-12c-0.1-7.8-4.2-11.6-12.4-11.5l-14.5,0.2
		l0.1-11.1v-12c0,0,0,0-0.1,0c0-0.6,0.1-1.3,0.1-2l0.1-34.5c0-5.1,1.5-9.2,4.3-12.3c2.9-3,6.7-4.6,11.5-4.6c3.6,0,6.3,1.2,8.2,3.4
		c1.8,2.3,2.8,6.1,2.8,11.5l-0.1,36.5C476,214.6,477.3,218.6,480.1,221.4z"/>
	<path class="st0" d="M176.2,246.4c-5.9-3.6-12.7-5.3-20.3-5.2c-6.6,0.1-12.5,1.8-17.7,5c-3.6,2.2-6.4,4.9-8.3,8l-0.7-34.2
		c-0.1-5.3-1.6-9.2-4.5-11.9s-6.9-4-12-3.9c-5,0.1-8.9,1.6-11.6,4.4c-2.7,2.8-4,6.9-3.9,12.1l2,97.5c0.2,10.8,5.6,16.1,16.1,15.8
		c5-0.1,8.9-1.6,11.5-4.4c2.1-2.3,3.4-5.4,3.7-9.3c2,3.4,5,6.3,8.9,8.6c5.4,3.2,11.5,4.7,18.3,4.6c7.7-0.2,14.4-2.2,20.1-6
		c5.7-3.8,10.1-9.2,13.2-16.3c3.1-7,4.5-15.2,4.3-24.7c-0.2-9.7-2-17.9-5.4-24.7C186.7,255.1,182.1,250,176.2,246.4z M158.9,304.6
		c-3,3.7-7,5.5-11.7,5.6c-4.9,0.1-9-1.6-12.1-5.1c-3.2-3.5-4.9-9.2-5-17.1c-0.2-8,1.3-13.8,4.3-17.4s7-5.4,11.9-5.5
		c4.8-0.1,8.8,1.6,12,5.1s4.9,9.2,5,17.2C163.4,295.1,162,300.9,158.9,304.6z"/>
	<path class="st0" d="M294,284c-0.2-9.2-2.1-17.2-5.8-24.1c-3.7-6.8-8.8-12-15.3-15.6s-14.3-5.3-23.3-5.1c-9,0.2-16.9,2.3-23.9,6.3
		c-6.9,4-12.3,9.5-16.2,16.5s-5.7,15-5.5,24.1c0.2,9.5,2.5,17.6,6.8,24.5s10.5,12.1,18.4,15.7s17.3,5.3,28,5.1
		c4.8-0.1,9.5-0.7,14.3-1.7c4.7-1.1,9.1-2.6,13.3-4.6c2.7-1.3,4.7-3,5.8-5.2c1.2-2.2,1.6-4.5,1.5-6.9c-0.2-2.3-0.9-4.4-2.2-6.2
		c-1.3-1.8-3.1-3.1-5.4-3.8c-2.3-0.7-5-0.5-8.1,0.8s-6.3,2.3-9.7,3c-3.4,0.7-6.4,1.1-9.1,1.2c-7.9,0.2-13.8-1.5-17.6-5.1
		c-2.6-2.4-4.3-5.9-5.3-10.6l51.1-1C291.4,291.1,294.1,288.7,294,284z M241.9,262.7c2.7-1.8,5.8-2.7,9.6-2.8c5-0.1,9,1.4,11.8,4.5
		c2.5,2.7,3.9,6.7,4.3,12l-33.3,0.7c0.3-2.5,0.8-4.7,1.6-6.7C237.3,267.1,239.3,264.5,241.9,262.7z"/>
	<path class="st0" d="M390.6,251.7c-0.2-5.1-1.7-9-4.6-11.7c-2.9-2.6-6.9-3.9-12-3.6c-5.1,0.2-9,1.7-11.7,4.6
		c-2.6,2.9-3.9,6.9-3.6,12l1.4,34.5c0.2,5.1-1,9.3-3.6,12.6c-2.6,3.2-6.1,4.9-10.4,5.1c-3.8,0.2-6.7-0.8-8.6-2.9s-2.9-5.3-3.1-9.6
		v-32.1l0,0v-0.5v-6V254l-0.1-45.3c0-0.2,0-0.4,0-0.6l-0.2-59.5c-0.1-5.1-1.6-9.1-4.4-11.8s-7.8-4-12.9-3.9s-8.1,1.6-10.8,4.4
		c-2.7,2.8-4,6.8-3.9,11.9l-0.3,34.5c0.1,5.1-1.2,9.3-3.9,12.5c-2.7,3.2-6.2,4.8-10.5,4.9c-3.8,0.1-6.7-0.9-8.5-3.1
		c-1.8-2.1-2.8-5.3-2.9-9.6l0.2-38.6c-0.1-5.1-1.6-9.1-4.4-11.8s-6.8-4-11.9-3.9s-9.1,1.6-11.8,4.4c-2.7,2.8-4,6.8-3.9,11.9
		l-0.2,37.7c0.3,12.8,3.2,22.3,8.8,28.6c5.6,6.2,14.1,9.2,25.5,9c6.5-0.1,12-1.8,16.7-5c3.2-2.2,5.4-5,7.3-8.5v48.3l0,0V293
		c0.5,12.8,3.7,22.3,9.4,28.4c5.8,6.1,14.3,8.9,25.7,8.5c6.5-0.3,12-2,16.6-5.4c3.2-2.3,5.9-5.3,8-8.9c0.6,3.7,2,6.5,4.3,8.6
		c2.9,2.6,6.8,3.9,11.8,3.7c10.3-0.4,15.2-6,14.8-16.8L390.6,251.7z"/>
	<path class="st0" d="M572.5,277.5c-0.2-9.2-2.1-17.2-5.8-24.1c-3.7-6.8-8.8-12-15.3-15.6s-14.3-5.3-23.3-5.1s-16.9,2.3-23.9,6.3
		c-6.9,4-12.3,9.5-16.2,16.5c-3.9,7-5.7,15-5.5,24.1c0.2,9.5,2.5,17.6,6.8,24.5s10.5,12.1,18.4,15.7c7.9,3.6,17.3,5.3,28,5.1
		c4.8-0.1,9.5-0.7,14.3-1.7c4.7-1.1,9.1-2.6,13.3-4.6c2.7-1.3,4.7-3,5.8-5.2c1.2-2.2,1.6-4.5,1.5-6.9c-0.2-2.3-0.9-4.4-2.2-6.2
		c-1.3-1.8-3.1-3.1-5.4-3.8c-2.3-0.7-5-0.5-8.1,0.8s-6.3,2.3-9.7,3s-6.4,1.1-9.1,1.2c-7.9,0.2-13.8-1.5-17.6-5.1
		c-2.6-2.4-4.3-5.9-5.3-10.6l51.1-1C569.9,284.6,572.6,282.2,572.5,277.5z M520.4,256.2c2.7-1.8,5.8-2.7,9.6-2.8
		c5-0.1,9,1.4,11.8,4.5c2.5,2.7,3.9,6.7,4.3,12l-33.3,0.7c0.3-2.5,0.8-4.7,1.6-6.7C515.8,260.6,517.8,258,520.4,256.2z"/>
	<path class="st2" d="M786.4,283.3c0-6.7-1.3-12.6-3.9-17.7c-2.6-5-6.2-8.9-11-11.6c-4.7-2.7-10.4-4.1-17-4.1s-12.4,1.4-17.5,4.3
		c-5.1,2.8-9.2,6.8-12.1,11.8c-2.9,5-4.4,10.9-4.4,17.5c0,6.9,1.5,12.9,4.6,18s7.5,9,13.2,11.8s12.6,4.1,20.4,4.1
		c3.5,0,7-0.4,10.4-1.1c3.5-0.7,6.7-1.8,9.8-3.2c2-0.9,3.5-2.1,4.3-3.7c0.9-1.6,1.3-3.3,1.2-5s-0.6-3.2-1.5-4.6s-2.2-2.3-3.9-2.9
		s-3.6-0.4-5.9,0.5c-2.3,0.9-4.7,1.6-7.2,2c-2.5,0.5-4.7,0.7-6.6,0.7c-5.8,0-10.1-1.3-12.8-4c-1.9-1.8-3.1-4.4-3.7-7.8h37.4
		C784.4,288.5,786.4,286.8,786.4,283.3z M748.6,267c2-1.3,4.3-1.9,7-1.9c3.7,0,6.5,1.2,8.5,3.5c1.8,2,2.8,5,3,8.9h-24.4
		c0.3-1.8,0.7-3.4,1.3-4.9C745.1,270.1,746.7,268.2,748.6,267z"/>
	<path class="st2" d="M638.1,316c-2.9,0-5.2-0.9-6.9-2.6s-2.5-4-2.5-6.8s0.8-5,2.5-6.7s4-2.5,6.9-2.5c3,0,5.3,0.8,7,2.5
		c1.6,1.7,2.4,3.9,2.4,6.7c0,2.8-0.8,5.1-2.4,6.8C643.4,315.1,641.1,316,638.1,316z"/>
	<path class="st3" d="M674.8,267.2c-3.6,0-6.5,1.3-8.8,3.9s-3.4,6.8-3.4,12.7c0,5.8,1.1,10,3.4,12.6c2.3,2.6,5.2,3.9,8.8,3.9
		c3.5,0,6.4-1.3,8.7-3.9s3.4-6.8,3.4-12.6c0-5.9-1.1-10.1-3.4-12.7C681.2,268.5,678.3,267.2,674.8,267.2z"/>
	<path class="st0" d="M622.6,306.5c0-3.5,0.9-6.5,2.5-9c-0.4,0-0.7,0.1-1,0.1c-2.8,0.1-5-0.9-6.8-2.9s-2.7-5.2-2.8-9.6l-1.5-75.8
		c-0.1-5.3-1.6-9.2-4.5-11.9s-6.9-4-12-3.9c-5,0.1-8.9,1.6-11.6,4.4c-2.7,2.8-4,6.9-3.9,12.1l1.6,76.9c0.3,12.5,3.2,21.7,8.7,27.8
		c5.6,6.1,14.1,9,25.6,8.7c1.6,0,3.2-0.2,5-0.5s3.2-0.5,4.1-0.6c1.8-0.4,3.4-0.9,4.7-1.7c-1.5-0.7-2.8-1.6-4-2.8
		C624,314.9,622.6,311.1,622.6,306.5z"/>
	<path class="st2" d="M707,225.2c-2.1-2-4.9-3-8.6-3c-3.8,0-6.7,1-8.7,3s-3,5-3,8.8v25.2c-1.5-2.3-3.6-4.3-6.3-5.9
		c-3.9-2.3-8.2-3.4-13-3.4c-5.5,0-10.4,1.4-14.7,4.1s-7.6,6.6-10,11.6s-3.6,11-3.6,18.1c0,2.7,0.2,5.2,0.6,7.7
		c4.2,0.3,7.5,1.6,9.9,4.1c2.7,2.8,4,6.4,4,11c0,2.5-0.4,4.7-1.2,6.7c0.1,0.1,0.2,0.1,0.3,0.2c4.2,2.7,9.1,4.1,14.7,4.1
		c5,0,9.4-1.2,13.3-3.6c2.8-1.7,4.9-3.9,6.4-6.4c0.6,6.5,4.4,9.8,11.5,9.8c3.8,0,6.6-1,8.6-3s3-5,3-8.8v-71.4
		C710.1,230.2,709,227.3,707,225.2z M683.5,296.3c-2.3,2.6-5.2,3.9-8.7,3.9c-3.6,0-6.5-1.3-8.8-3.9s-3.4-6.8-3.4-12.6
		c0-5.9,1.1-10.1,3.4-12.7c2.3-2.6,5.2-3.9,8.8-3.9c3.5,0,6.4,1.3,8.7,3.9s3.4,6.8,3.4,12.7C686.9,289.5,685.8,293.7,683.5,296.3z"
		/>
</g>
</svg>
