<?xml version="1.0" encoding="utf-8"?>
<!-- Generator: Adobe Illustrator 25.4.1, SVG Export Plug-In . SVG Version: 6.00 Build 0)  -->
<svg version="1.1" id="Ebene_1" xmlns="http://www.w3.org/2000/svg" xmlns:xlink="http://www.w3.org/1999/xlink" x="0px" y="0px"
	 viewBox="0 0 300 200" style="enable-background:new 0 0 300 200;" xml:space="preserve">
<style type="text/css">
	.st0{fill:#D1D6DA;}
	.st1{fill:#B22029;}
	.st2{fill-rule:evenodd;clip-rule:evenodd;fill:#B22029;}
	.st3{fill-rule:evenodd;clip-rule:evenodd;fill:#FFFFFF;}
</style>
<g>
	<path class="st0" d="M101,17.5"/>
	<path class="st0" d="M102.3,16.2"/>
	<g>
		<polygon class="st1" points="125.8,33.1 124.8,23.4 123.4,23.5 123.2,22.1 125.9,20.4 127.3,20.3 128.6,32.8 		"/>
		<path class="st2" d="M136.5,22.4l0.2,2.8c0,0.4,0.2,0.7,0.5,1c0.3,0.3,0.6,0.4,1,0.4c0.4,0,0.7-0.2,1-0.5c0.3-0.3,0.4-0.6,0.4-1
			l-0.2-2.8c0-0.4-0.2-0.7-0.5-1c-0.3-0.3-0.6-0.4-1-0.4c-0.4,0-0.7,0.2-1,0.5C136.6,21.7,136.4,22,136.5,22.4z M139.5,26.4
			c-0.1,0.9-0.5,1.4-1.3,1.5l-1.4,0.1c-0.8,0-1.4-0.2-2-0.7c-0.6-0.5-0.9-1.2-0.9-1.9l-0.2-2.8c0-0.8,0.2-1.4,0.7-2
			c0.5-0.6,1.2-0.9,1.9-0.9l2.8-0.2c0.8,0,1.4,0.2,2,0.7c0.6,0.5,0.9,1.2,0.9,1.9l0.3,4.9c0.1,1.3-0.3,2.5-1.3,3.5
			c-0.9,1-2,1.6-3.4,1.6l-2.1,0.1l-0.1-1.4l1.4-0.1c0.8,0,1.4-0.4,1.9-0.9c0.5-0.6,0.8-1.3,0.7-2L139.5,26.4z"/>
		<path class="st2" d="M163.4,29.4l0.2-2.8c0-0.4-0.1-0.7-0.4-1c-0.3-0.3-0.6-0.4-1-0.5c-0.4,0-0.7,0.1-1,0.4
			c-0.3,0.3-0.4,0.6-0.5,1l-0.2,2.8c0,0.4,0.1,0.7,0.4,1c0.3,0.3,0.6,0.4,1,0.5c0.4,0,0.7-0.1,1-0.4
			C163.3,30.1,163.4,29.8,163.4,29.4z M160.9,25c0.1-0.5,0.2-0.8,0.5-1c0.2-0.2,0.6-0.3,1-0.3l1.4,0.1c0.8,0,1.4,0.4,1.9,0.9
			c0.5,0.6,0.8,1.3,0.7,2l-0.2,2.8c0,0.8-0.4,1.4-0.9,1.9c-0.6,0.5-1.3,0.8-2,0.7l-2.8-0.2c-0.8,0-1.4-0.4-1.9-0.9
			c-0.5-0.6-0.8-1.3-0.7-2l0.3-4.9c0.1-1.3,0.6-2.5,1.6-3.4c1-0.9,2.2-1.3,3.5-1.3l2.1,0.1l-0.1,1.4l-1.4-0.1c-0.8,0-1.4,0.2-2,0.7
			c-0.6,0.5-0.9,1.2-0.9,1.9L160.9,25z"/>
		<path class="st2" d="M170.2,20l8.4,0.9l-0.2,1.4l-5.6-0.6l-0.3,2.8l2.8,0.3c0.8,0.1,1.4,0.4,1.9,1c0.5,0.6,0.7,1.3,0.6,2.1
			l-0.3,2.8c-0.1,0.8-0.4,1.4-1,1.9c-0.6,0.5-1.3,0.7-2,0.6l-2.8-0.3c-1.6-0.2-2.5-1.2-2.5-3.1l1.4,0.1c0,0.9,0.4,1.4,1.2,1.5
			l1.4,0.1c0.4,0,0.7-0.1,1-0.3c0.3-0.2,0.5-0.6,0.5-0.9l0.3-2.8c0-0.4-0.1-0.7-0.3-1c-0.2-0.3-0.6-0.5-0.9-0.5l-4.2-0.4L170.2,20z"
			/>
		<polygon class="st2" points="48.9,106.6 48.9,94 49.5,94 55.5,100 61.5,94 62.9,94 62.9,106.6 60.1,106.6 60.1,98.9 55.2,103.8 
			50.3,98.9 50.3,106.6 		"/>
		<polygon class="st2" points="72.9,106.6 72.9,94 79.9,94 79.9,95.4 75.7,95.4 75.7,99.6 78.5,99.6 78.5,101 75.7,101 75.7,105.2 
			79.9,105.2 79.9,106.6 		"/>
		<path class="st2" d="M89.8,106.6v-9.8c0-0.8,0.3-1.4,0.8-2c0.6-0.6,1.2-0.8,2-0.8h2.8c0.8,0,1.4,0.3,2,0.8c0.6,0.6,0.8,1.2,0.8,2
			v9.8h-2.8V101h-2.8v5.6H89.8z M92.6,99.6h2.8v-2.8c0-0.4-0.1-0.7-0.4-1c-0.3-0.3-0.6-0.4-1-0.4c-0.4,0-0.7,0.1-1,0.4
			c-0.3,0.3-0.4,0.6-0.4,1V99.6z"/>
		<polygon class="st2" points="109.6,106.6 109.6,95.4 106.8,95.4 106.8,94 115.2,94 115.2,95.4 112.4,95.4 112.4,106.6 		"/>
		<path class="st2" d="M185.5,106.6V94h5.6c0.8,0,1.4,0.3,2,0.8c0.6,0.6,0.8,1.2,0.8,2v1.4c0,0.8-0.3,1.4-0.8,2
			c-0.6,0.6-1.2,0.8-2,0.8h-2.8v5.6H185.5z M188.3,99.6h1.4c0.4,0,0.7-0.1,1-0.4c0.3-0.3,0.4-0.6,0.4-1v-1.4c0-0.4-0.1-0.7-0.4-1
			c-0.3-0.3-0.6-0.4-1-0.4h-1.4V99.6z"/>
		<path class="st2" d="M203,94h2.8c0.8,0,1.4,0.3,2,0.8c0.6,0.6,0.8,1.2,0.8,2v7c0,0.8-0.3,1.4-0.8,2c-0.6,0.6-1.2,0.8-2,0.8H203
			c-0.8,0-1.4-0.3-2-0.8c-0.6-0.6-0.8-1.2-0.8-2v-7c0-0.8,0.3-1.4,0.8-2C201.6,94.3,202.3,94,203,94z M203,96.8v7
			c0,0.4,0.1,0.7,0.4,1s0.6,0.4,1,0.4c0.4,0,0.7-0.1,1-0.4c0.3-0.3,0.4-0.6,0.4-1v-7c0-0.4-0.1-0.7-0.4-1c-0.3-0.3-0.6-0.4-1-0.4
			c-0.4,0-0.7,0.1-1,0.4C203.2,96.1,203,96.4,203,96.8z"/>
		<rect x="217.3" y="94" class="st2" width="2.8" height="12.6"/>
		<polygon class="st2" points="229,106.6 229,94 229.7,94 237.5,101 237.5,94 238.9,94 238.9,106.6 238.2,106.6 230.4,99.6 
			230.4,106.6 		"/>
		<polygon class="st2" points="248.8,106.6 248.8,95.4 246,95.4 246,94 254.5,94 254.5,95.4 251.6,95.4 251.6,106.6 		"/>
		<path class="st2" d="M76,149.7l2.3,1.3c0.6,0.4,1.1,0.9,1.2,1.6c0.2,0.7,0.1,1.4-0.3,2.1l-3.4,6.2c-0.4,0.7-0.9,1.1-1.6,1.4
			c-0.7,0.2-1.4,0.2-2-0.2l-2.3-1.3c-0.6-0.4-1.1-0.9-1.3-1.6c-0.2-0.7-0.1-1.4,0.3-2.1l3.4-6.2c0.4-0.7,0.9-1.1,1.6-1.4
			S75.3,149.3,76,149.7z M74.6,152.1l-3.4,6.2c-0.2,0.3-0.2,0.7-0.1,1c0.1,0.4,0.3,0.6,0.6,0.8c0.3,0.2,0.7,0.2,1,0.1
			c0.4-0.1,0.6-0.3,0.8-0.7l3.4-6.2c0.2-0.3,0.2-0.7,0.1-1.1c-0.1-0.4-0.3-0.6-0.6-0.8c-0.3-0.2-0.7-0.2-1-0.1
			C75.1,151.6,74.8,151.8,74.6,152.1z"/>
		<path class="st2" d="M77.1,164.6l5.3-11.5l4.8,2.2c0.7,0.3,1.1,0.8,1.4,1.5c0.2,0.7,0.2,1.4-0.1,2.1l-0.3,0.7
			c-0.3,0.6-0.7,1-1.3,1.4c-0.6,0.4-1.4,0.3-2.2-0.1l1.2,0.6c0.3,0.2,0.6,0.4,0.7,0.8s0.1,0.7-0.1,1.1l-2.1,4.5l-2.4-1.1l1.8-3.8
			c0.2-0.3,0.2-0.7,0.1-1.1c-0.1-0.4-0.3-0.6-0.7-0.8l-1.2-0.6l-2.4,5.1L77.1,164.6z M82.5,159.4l1.2,0.6c0.3,0.2,0.7,0.2,1,0
			c0.4-0.1,0.6-0.4,0.8-0.7l0.6-1.3c0.2-0.3,0.2-0.7,0.1-1.1c-0.1-0.4-0.4-0.6-0.7-0.8l-1.2-0.6L82.5,159.4z"/>
		
			<rect x="85.4" y="162.8" transform="matrix(0.3679 -0.9298 0.9298 0.3679 -94.6333 189.0266)" class="st2" width="12.6" height="2.7"/>
		<path class="st2" d="M100.4,166.5l3.8,1.3l-1.3,4c-0.3,0.9-0.8,1.5-1.5,1.7s-1.3,0.3-1.9,0.1l-2.5-0.8c-0.7-0.2-1.2-0.7-1.5-1.4
			c-0.3-0.7-0.4-1.4-0.1-2.1l2.2-6.7c0.2-0.7,0.7-1.3,1.4-1.6c0.7-0.4,1.3-0.4,2.1-0.2l2.5,0.8c1.6,0.5,2.1,1.7,1.6,3.5l-1.3-0.4
			c0.2-0.9-0.1-1.5-0.8-1.8l-1.3-0.4c-0.3-0.1-0.7-0.1-1,0.1c-0.3,0.2-0.6,0.4-0.7,0.8l-2.2,6.7c-0.1,0.4-0.1,0.7,0.1,1.1
			c0.2,0.3,0.4,0.6,0.8,0.7c0.8,0.2,1.4-0.1,1.7-0.9l0.9-2.7l-1.3-0.4L100.4,166.5z"/>
		
			<rect x="102.6" y="168.5" transform="matrix(0.2585 -0.966 0.966 0.2585 -83.2824 231.0905)" class="st2" width="12.6" height="2.7"/>
		<polygon class="st2" points="112.5,177.3 115,164.9 115.6,165 121.5,173.4 122.9,166.5 124.2,166.8 121.7,179.1 121.1,179 
			115.2,170.7 113.8,177.5 		"/>
		<path class="st2" d="M124.5,179.6l1.3-9.7c0.1-0.8,0.4-1.4,1-1.9c0.6-0.5,1.2-0.7,2-0.6l2.6,0.3c0.7,0.1,1.3,0.4,1.8,1.1
			c0.4,0.6,0.6,1.3,0.5,2.1l-1.3,9.7l-2.6-0.3l0.7-5.6l-2.6-0.3l-0.7,5.6L124.5,179.6z M128.1,173l2.6,0.3l0.4-2.8
			c0-0.4,0-0.7-0.3-1c-0.2-0.3-0.5-0.5-0.9-0.5c-0.4,0-0.7,0-1,0.3c-0.3,0.2-0.5,0.5-0.5,0.9L128.1,173z"/>
		<polygon class="st2" points="135.2,180.9 136.1,168.3 138.7,168.4 138,179.6 142,179.9 141.9,181.3 		"/>
		<path class="st2" d="M162.4,180.5l-0.7-9.8c-0.1-0.8,0.1-1.4,0.6-2c0.5-0.6,1-0.9,1.8-1l2.6-0.2c0.7-0.1,1.3,0.2,1.9,0.7
			c0.5,0.5,0.8,1.2,0.9,1.9l0.7,9.8l-2.6,0.2l-0.4-5.6l-2.6,0.2l0.4,5.6L162.4,180.5z M164.4,173.3l2.6-0.2l-0.2-2.8
			c0-0.4-0.2-0.7-0.5-1c-0.3-0.3-0.6-0.4-0.9-0.3c-0.4,0-0.6,0.2-0.9,0.5c-0.2,0.3-0.3,0.6-0.3,1L164.4,173.3z"/>
		
			<rect x="173.2" y="166.6" transform="matrix(0.9905 -0.1373 0.1373 0.9905 -22.0963 25.601)" class="st2" width="2.6" height="12.6"/>
		<path class="st2" d="M180.6,178.4l-2.5-12.4l5.1-1c0.7-0.1,1.3,0,1.9,0.5c0.6,0.4,1,1,1.1,1.8l0.2,0.8c0.1,0.6,0,1.2-0.2,1.9
			s-0.9,1.1-1.8,1.2l1.3-0.3c0.3-0.1,0.7,0,1,0.2c0.3,0.2,0.5,0.5,0.6,0.9l1,4.9l-2.5,0.5l-0.8-4.1c-0.1-0.4-0.3-0.7-0.6-0.9
			c-0.3-0.2-0.6-0.3-1-0.2l-1.3,0.3l1.1,5.5L180.6,178.4z M181.7,171l1.3-0.3c0.3-0.1,0.6-0.3,0.8-0.6c0.2-0.3,0.3-0.7,0.2-1
			l-0.3-1.4c-0.1-0.4-0.3-0.7-0.6-0.9c-0.3-0.2-0.6-0.3-1-0.2l-1.3,0.3L181.7,171z"/>
		<path class="st2" d="M194.5,165.1l-1.2,0.3c-0.4-0.9-0.9-1.2-1.5-1c-0.4,0.1-0.7,0.3-0.9,0.6c-0.2,0.3-0.2,0.7-0.1,1.1
			c0.1,0.3,0.3,0.6,0.6,0.9l3.5,2.5c0.6,0.5,1.1,1,1.3,1.7l0.2,0.7c0.2,0.7,0.1,1.4-0.2,2.1c-0.3,0.7-0.9,1.1-1.5,1.3l-1.2,0.3
			c-0.8,0.2-1.5,0.2-2.1-0.2c-0.5-0.3-0.9-1-1.2-1.9l1.2-0.3c0,0.1,0,0.2,0.1,0.2c0.1,0.4,0.3,0.6,0.6,0.7c0.3,0.1,0.6,0.1,0.9,0.1
			c0.4-0.1,0.7-0.3,0.9-0.6c0.1-0.3,0.1-0.7,0-1.1c-0.1-0.3-0.3-0.6-0.6-0.9l-3.5-2.5c-0.6-0.5-1.1-1-1.3-1.7l-0.2-0.7
			c-0.2-0.7-0.1-1.4,0.2-2.1c0.3-0.7,0.9-1.1,1.5-1.3l1.2-0.3C192.8,162.6,193.9,163.3,194.5,165.1z"/>
		<polygon class="st2" points="200.8,173.3 197.3,162.7 194.8,163.5 194.4,162.2 201.7,159.7 202.2,161 199.7,161.9 203.3,172.5 		
			"/>
		<path class="st2" d="M207.1,171.2l-4.8-11.7l4.8-1.9c0.7-0.3,1.3-0.2,2,0.1c0.7,0.3,1.2,0.8,1.4,1.5l0.3,0.7
			c0.2,0.6,0.3,1.2,0.1,1.9c-0.1,0.7-0.7,1.2-1.5,1.6l1.2-0.5c0.3-0.1,0.7-0.1,1,0c0.3,0.2,0.6,0.4,0.7,0.8l1.9,4.6l-2.4,1l-1.6-3.9
			c-0.1-0.4-0.4-0.6-0.7-0.8c-0.3-0.2-0.7-0.2-1,0l-1.2,0.5l2.1,5.2L207.1,171.2z M206.8,163.7l1.2-0.5c0.3-0.1,0.6-0.4,0.7-0.7
			c0.1-0.4,0.1-0.7,0-1.1l-0.5-1.3c-0.1-0.4-0.4-0.6-0.7-0.8c-0.3-0.2-0.7-0.2-1,0l-1.2,0.5L206.8,163.7z"/>
		<polygon class="st2" points="216.7,167.1 211.2,155.8 217,152.9 217.6,154.2 214.2,155.9 216,159.7 218.3,158.6 218.9,159.8 
			216.6,161 218.4,164.7 221.9,163 222.6,164.3 		"/>
		<path class="st2" d="M225,163l-4.9-8.5c-0.4-0.7-0.5-1.4-0.3-2.1c0.2-0.7,0.6-1.3,1.2-1.6l2.2-1.3c0.6-0.4,1.3-0.4,2-0.2
			c0.7,0.2,1.3,0.7,1.6,1.3l4.9,8.5l-2.2,1.3l-2.8-4.9l-2.2,1.3l2.8,4.9L225,163z M223.8,155.7l2.2-1.3l-1.4-2.4
			c-0.2-0.3-0.5-0.6-0.8-0.7c-0.4-0.1-0.7-0.1-1,0.1c-0.3,0.2-0.5,0.4-0.6,0.8c-0.1,0.4,0,0.7,0.2,1L223.8,155.7z"/>
		<polygon class="st2" points="234.3,157.7 227.1,147.3 227.5,147 235.4,148.8 236.4,140.8 237.4,140.1 244.6,150.5 242.6,151.9 
			238.2,145.6 237.3,152.2 230.9,150.7 235.3,157 		"/>
	</g>
	<path class="st3" d="M201.1,20.6c-16.5-4.7-34-7-51.1-7c-12.7,0-25.4,1.2-37.8,3.7c-3.7,0.7-7.4,1.6-11.1,2.6
		c1.2-2.1,2.2-3.2,2.3-3.8c0-0.6-0.6-0.2-2.7,2c-0.6,0.7-1.2,1.5-1.8,2.4c-9.4,2.7-18.6,6.3-27.3,10.7c-5.9,3-11.8,6.6-17.1,10.4
		c-6.1,4.4-11.7,9.5-16.7,15.2c-4.9,5.6-9,12-12,18.9c-2.2,5-3.7,10.2-4.5,15.6l0,0.3h2.4h99.1c0.2,0.7,0.6,1.3,1.2,1.9
		c1.4,1.1,2.1,2.8,2.4,4.5c0.9,4.8-1.1,5.4-1.2,8.3c0,0.9,0.1,1.8,0.2,2.7H48.7c0,0,0,0,0,0h-2.7c0,0,0,0,0,0H25.5h-4.2l0.1,0.3
		c1.6,9.6,5.5,18.8,11.1,26.8c3.9,5.6,8.4,10.7,13.5,15.2c5.5,4.9,11.5,9.3,17.9,13c5.9,3.5,12.1,6.6,18.5,9.2
		c21,8.6,44.7,12.7,67.6,12.7c12.7,0,25.4-1.2,37.8-3.7c14-2.8,27.9-7.5,40.6-13.9c5.9-3,11.8-6.6,17.1-10.4
		c6.1-4.4,11.7-9.5,16.7-15.2c4.9-5.6,9-12,12-18.9c1.7-3.8,2.9-7.7,3.8-11.8l0.7-3.3h-1.9h-1.4c0,0,0,0,0,0h-21.4c0,0,0,0,0,0h-2.7
		c0,0,0,0,0,0h-74.9c0.2-0.9,0.3-1.8,0.2-2.7c-0.1-3-2-3.5-1.2-8.3c0.3-1.7,1-3.4,2.4-4.5c0.6-0.6,1-1.2,1.2-1.9h94.2h5.5l-0.1-0.4
		c-1.5-9.9-5.5-19.4-11.3-27.6C263.6,58.1,259,53,254,48.5c-5.5-4.9-11.5-9.3-17.9-13c-5.9-3.5-12.1-6.6-18.5-9.2
		c-4.6-1.9-9.3-3.5-14.1-5c-0.7-1.2-1.5-2.2-2.3-3.1c-2.1-2.2-2.8-2.5-2.7-2C198.5,16.8,199.8,18.1,201.1,20.6z M104.8,43.4
		c3.3-1.1,6.7-2,10.1-2.8c11.7-2.8,23.3-4.2,35.2-4.2c12,0,23.5,1.3,35.2,4.1c3.8,0.9,7.6,2,11.4,3.2c-3.5,3.1-8.2,5.5-13.8,6.6
		c-2.4,0.5-5.7,1-9.9,1.3c-2.1,0.2-2.4,0.4-3.5-0.2c-0.3-0.2-1.8-1.4-2.6-1.9c-0.8-0.5-2-1-3.2-0.6c-0.2,0.1-3,1.4-6.2,1.3
		c-0.4,0-1.2-0.3-2.2-0.6c-2.5-0.8-6.6-0.8-9,0c-0.9,0.3-1.7,0.6-2,0.6c-3.2,0.1-6-1.2-6.2-1.3c-1.2-0.4-2.4,0.1-3.2,0.6
		c-0.8,0.5-2.3,1.7-2.6,1.9c-1,0.6-1.3,0.3-3.5,0.2c-4.2-0.3-7.4-0.8-9.9-1.3C113.2,49.2,108.3,46.7,104.8,43.4z M205.5,47.1
		c5.7,2.3,11.2,5.1,16.6,8.2c7.5,4.4,14.3,10.3,20,17.4c2.9,3.6,5.3,7.6,7.3,11.9c0.6,1.3,1.1,2.7,1.5,4h-71.7
		c-0.3-1.6-0.8-3.1-1.2-4.5c-0.2-0.7-0.3-1.2-0.3-1.2s0.2,0.1,1.1,0.3c0.9,0.2,19.6,7.2,31.6-5.9c0.3-0.3,0.8-0.9,0.1-1.3
		c-12.6-2.8-20.6-9.2-30.8-11.3c-0.3-0.1-0.5-0.1-0.5-0.1s0.5-0.1,1.8-0.4c6.5-1.4,15.1-5.9,20.2-11.4
		C203,51.2,204.4,49.2,205.5,47.1z M122.7,88.7H49.4c1.8-6.2,4.9-11.8,9.1-16.6c7.6-8.7,15.9-15.4,25.8-20.4
		c3.8-1.9,7.8-3.7,11.7-5.3c1.1,2.3,2.7,4.5,4.5,6.4c5.1,5.5,13.7,10,20.2,11.4c1.4,0.3,1.8,0.4,1.8,0.4s-0.2,0-0.5,0.1
		c-10.2,2.1-18.2,8.5-30.8,11.3c-0.7,0.4-0.2,0.9,0.1,1.3c12,13.1,30.7,6.2,31.6,5.9c0.9-0.2,1.1-0.3,1.1-0.3s-0.1,0.5-0.3,1.2
		C123.5,85.6,122.9,87.2,122.7,88.7z M198.8,41.5c-2-0.7-4-1.3-5.9-1.9c-11.6-3.4-23.5-5.4-35.5-5.9c-12-0.6-24.1,0.3-35.9,2.5
		c-6.3,1.2-12.6,2.8-18.8,4.9c-3.5-4.4-4.9-10-3.5-15.9c0.1-0.5,0.3-1,0.4-1.4c1.7-0.5,3.4-0.9,5.1-1.4c15.1-3.8,29.8-5.5,45.4-5.6
		c12.5,0,25,1.2,37.2,3.7c5.2,1,10.3,2.3,15.3,3.8c0.1,0.3,0.2,0.6,0.2,0.9C204.2,31.3,202.6,37,198.8,41.5z M94.9,43.9
		c-4,1.6-7.9,3.3-11.7,5.2c-9.9,5-19,12.2-26.6,21c-4.7,5.2-8,11.6-9.9,18.6H24.9c0.4-2,0.9-4,1.6-5.9c6.3-19.4,21.9-34.4,39-44.6
		c9.6-5.7,20.2-10.2,31-13.6c-1.5,3.1-2.6,6.6-3,10C93.3,37.7,93.8,40.9,94.9,43.9z M205.6,25.3c7.3,2.4,14.4,5.3,21.4,8.8
		c5.9,3,11.4,6.3,16.7,10.2c11.7,8.5,21.7,19.4,27.7,32.8c1.7,3.8,2.9,7.7,3.7,11.7h-21.4c-0.3-0.9-0.5-1.7-0.8-2.5
		c-1.8-4.7-4.1-9.1-7-13c-2.9-4-6.2-7.7-9.7-11c-3.9-3.6-8.3-6.9-12.8-9.5c-5.3-3.1-10.9-5.9-16.6-8.3c1.3-3.2,1.8-6.6,1.6-9.9
		C208,31.4,207,28.2,205.6,25.3z M175.6,112.1h75c-1.8,5.9-4.8,11.2-8.8,15.8c-5.3,6-11,11-17.5,15.3c-7.1,4.7-14.5,8.4-22.3,11.4
		c-16.9,6.3-34.1,9.1-51.7,9.1l-0.5,0l0,0c-24.9,0.5-49.6-6-71.7-18.9c-7.5-4.4-14.3-10.3-20-17.4c-2.9-3.6-5.3-7.6-7.3-11.9
		c-0.5-1.1-0.9-2.1-1.3-3.2h76.6c1.4,3.3,3.7,6.3,5.1,9.4c3.1,6.3,3.2,10.1,3,12.3c-0.3,2.4-1.1,7.2-0.5,8.8
		c0.4,0.6,1.6,2.9,2.5,4.5c0.7,1,1.5,2.2,2.9,2.9c4.2,1.5,11,1.2,11.5,1.1c0.1,0,0.2,0,0.1,0c0,0,0,0,0,0c0,0,0.1,0,0.1,0
		c0.5,0,7.3,0.3,11.5-1.1c1.5-0.8,2.2-1.9,2.9-2.9c0.9-1.7,2.1-3.9,2.5-4.5c0.6-1.6-0.2-6.4-0.5-8.8c-0.3-2.1-0.1-5.9,3-12.3
		C171.9,118.4,174.2,115.4,175.6,112.1z M163.1,141.6c0.2,0.4,0.2,0.9-0.2,1.1c-0.2,0.1-1.4,0-2,0.9c-0.4,0.4-0.8,0.9-1.3,1.6
		c-1.2,1.4-0.9,0-0.9-0.3c0.1-0.8,0.3-2.1,1.2-2.8C160.8,141.3,162.2,140.3,163.1,141.6z M138.8,141.6c0.9-1.3,2.3-0.3,3.2,0.6
		c0.9,0.7,1.1,2,1.2,2.8c0,0.3,0.3,1.7-0.9,0.3c-0.5-0.8-0.9-1.3-1.3-1.6c-0.6-0.9-1.8-0.7-2-0.9C138.6,142.5,138.6,142,138.8,141.6
		z M46.9,112.1c0.2,0.6,0.4,1.1,0.6,1.6c1.8,4.7,4.1,9.1,7,13c2.9,4,6.2,7.7,9.7,11c3.9,3.6,8.3,6.9,12.8,9.5
		c22.3,13.1,47.8,19.7,72.9,19.2l0.5,0c27.5,0.2,59.1-7.4,82.1-25.8c4-3.2,7.7-6.8,11.2-10.7c4.5-5,7.8-11.1,9.7-17.8h21.6
		c-0.4,1.7-0.8,3.4-1.4,5.1c-6.3,19.4-21.9,34.4-39,44.6c-12,7.1-25.5,12.4-39.1,15.9c-15,3.8-30,5.6-45.4,5.6
		c-12.7,0-24.7-1.2-37.2-3.7c-13.9-2.8-27.1-7.3-39.8-13.6c-5.9-3-11.4-6.3-16.7-10.2c-11.7-8.5-21.7-19.4-27.7-32.8
		c-1.5-3.5-2.7-7.1-3.5-10.9H46.9z M171.9,97c0-0.1,0.8-1.8,1.1,1c0.3,1.9,0.1,3.3-0.1,4.4c-0.6,2.6-4.6,6-7.6,5
		c-0.3-0.1-0.5-0.2-0.5-0.2c-0.6-0.3,0.1-0.9,0.3-1C166.2,105.3,169.3,102.4,171.9,97z M130,97c2.6,5.4,5.7,8.3,6.9,9.2
		c0.2,0.2,0.9,0.7,0.3,1c-0.1,0-0.2,0.1-0.5,0.2c-3,1-7-2.5-7.6-5c-0.3-1.1-0.4-2.6-0.1-4.4C129.2,95.2,129.9,96.9,130,97z"/>
</g>
</svg>
