<svg xmlns="http://www.w3.org/2000/svg" xmlns:xlink="http://www.w3.org/1999/xlink" id="Ebene_1" x="0px" y="0px" viewBox="0 0 200 44.3" style="enable-background:new 0 0 200 44.3;" xml:space="preserve"><image style="display:none;overflow:visible;" width="240" height="60" xlink:href="Logo_Website_240x60px.png" transform="matrix(0.24 0 0 0.24 71 15.1318)"></image><g>	<path d="M7.8,6.7l16.1,22.2V6.7h5.5V39h-5L8.4,16.8V39H2.8V6.7H7.8z"></path>	<path d="M56.1,28c0,0.4,0,1.2,0,2.1H39.8c0.4,1.9,2.7,4.4,6.1,4.4c3.8,0,6-2.2,6-2.2l2.8,4.1c0,0-3.5,3.1-8.8,3.1  c-6.6,0-11.7-5.1-11.7-11.5c0-6.4,4.7-11.5,11-11.5C51.1,16.6,56.1,21.2,56.1,28z M50.6,26c-0.1-1.9-1.8-4.4-5.5-4.4  c-3.5,0-5.2,2.5-5.3,4.4H50.6z"></path>	<path d="M60.2,31.3V17.1h5.5v12.6c0,3.2,1.5,4.6,4.3,4.6c2.9,0,4.3-2.7,4.3-2.7V17.1h5.5V39h-5.2v-3.2c0,0-2.1,3.7-6.5,3.7  C64,39.5,60.2,36.5,60.2,31.3z"></path>	<path d="M154,28.1c0,0.4,0,1.2,0,2h-16.1c0.4,1.9,2.6,4.4,6.1,4.4c3.8,0,5.9-2.2,5.9-2.2l2.7,4.1c0,0-3.4,3.1-8.6,3.1  c-6.6,0-11.6-5-11.6-11.3c0-6.3,4.6-11.3,10.8-11.3C149,16.8,154,21.4,154,28.1z M148.5,26.2c-0.1-1.9-1.8-4.4-5.4-4.4  c-3.5,0-5.1,2.5-5.3,4.4H148.5z"></path>	<path d="M172.8,17.5l-1.9,4.9c0,0-1-0.5-2.6-0.5c-3.3,0-4.8,2.9-4.8,2.9V39H158V17.4h5.2v3.1c0,0,1.9-3.7,5.9-3.7  C171,16.8,172.8,17.5,172.8,17.5z"></path>	<path d="M181.7,25.9l7.7-8.5h7.1L187,27.6L197.2,39H190l-8.2-9.4V39h-5.5V4.6h5.5V25.9z"></path>	<polygon points="127.7,7.1 127.7,39 122.7,39 106.8,17.1 106.8,39 106.7,39 106.7,39.9 101.3,39.9 84.8,16.6 77.9,6.6 84.2,6.6   92.6,18.2 101.3,30.4 101.3,7.1 106.3,7.1 122.2,29 122.2,7.1  "></polygon></g></svg>