<svg xmlns="http://www.w3.org/2000/svg" xmlns:xlink="http://www.w3.org/1999/xlink" id="Ebene_1" x="0px" y="0px" viewBox="0 0 200 64" style="enable-background:new 0 0 200 64;" xml:space="preserve"><style type="text/css">	.st0{enable-background:new    ;}	.st1{fill:#FFFFFF;}	.st2{fill:#F08374;}</style><g class="st0">	<path class="st1" d="M25.6,14.2c1.3,1.3,1.9,3.1,1.9,5.6v9.7h-4.9v-8.9c0-1.3-0.3-2.3-0.9-3c-0.6-0.7-1.4-1-2.5-1  c-1.2,0-2.2,0.4-3,1.1c-0.7,0.8-1.1,1.9-1.1,3.4v8.4h-4.9V12.6h4.7v2c0.7-0.7,1.5-1.3,2.4-1.7c1-0.4,2-0.6,3.2-0.6  C22.6,12.3,24.3,12.9,25.6,14.2z"></path>	<path class="st1" d="M32.2,9.4c-0.6-0.5-0.9-1.2-0.9-2s0.3-1.4,0.9-2c0.6-0.5,1.3-0.8,2.2-0.8c0.9,0,1.6,0.3,2.2,0.8  c0.6,0.5,0.8,1.1,0.8,1.9c0,0.8-0.3,1.5-0.8,2s-1.3,0.8-2.2,0.8C33.5,10.2,32.8,9.9,32.2,9.4z M32,12.6h4.9v16.9H32V12.6z"></path>	<path class="st1" d="M44.8,28.6c-1.4-0.7-2.6-1.8-3.4-3.1c-0.8-1.3-1.2-2.8-1.2-4.5c0-1.7,0.4-3.2,1.2-4.5c0.8-1.3,1.9-2.4,3.4-3.1  c1.4-0.7,3.1-1.1,4.9-1.1c1.8,0,3.3,0.4,4.7,1.1c1.3,0.7,2.3,1.8,2.9,3.2l-3.8,2c-0.9-1.6-2.2-2.3-3.8-2.3c-1.3,0-2.3,0.4-3.2,1.3  c-0.8,0.8-1.3,2-1.3,3.4c0,1.4,0.4,2.6,1.3,3.4c0.8,0.8,1.9,1.3,3.2,1.3c1.7,0,2.9-0.8,3.8-2.3l3.8,2.1c-0.6,1.3-1.6,2.4-2.9,3.1  c-1.3,0.8-2.9,1.1-4.7,1.1C47.8,29.7,46.2,29.4,44.8,28.6z"></path>	<path class="st1" d="M63.1,28.6c-1.4-0.7-2.5-1.8-3.3-3.1c-0.8-1.3-1.2-2.8-1.2-4.5c0-1.7,0.4-3.2,1.2-4.5c0.8-1.3,1.9-2.4,3.3-3.1  c1.4-0.7,3-1.1,4.8-1.1s3.4,0.4,4.8,1.1c1.4,0.7,2.5,1.8,3.3,3.1c0.8,1.3,1.2,2.8,1.2,4.5c0,1.7-0.4,3.2-1.2,4.5  c-0.8,1.3-1.9,2.4-3.3,3.1s-3,1.1-4.8,1.1S64.5,29.4,63.1,28.6z M71,24.4c0.8-0.8,1.2-2,1.2-3.4c0-1.4-0.4-2.6-1.2-3.4  c-0.8-0.9-1.8-1.3-3.1-1.3c-1.3,0-2.3,0.4-3.1,1.3c-0.8,0.8-1.2,2-1.2,3.4c0,1.4,0.4,2.6,1.2,3.4c0.8,0.8,1.9,1.3,3.1,1.3  C69.2,25.7,70.2,25.3,71,24.4z"></path>	<path class="st1" d="M106.6,6.1v23.4h-4.7v-2c-1.2,1.5-3,2.2-5.3,2.2c-1.6,0-3-0.4-4.3-1.1c-1.3-0.7-2.3-1.7-3-3.1  c-0.7-1.3-1.1-2.9-1.1-4.6c0-1.7,0.4-3.3,1.1-4.6c0.7-1.3,1.7-2.3,3-3.1s2.7-1.1,4.3-1.1c2.2,0,3.9,0.7,5.1,2V6.1H106.6z   M100.6,24.4c0.8-0.8,1.2-2,1.2-3.4c0-1.4-0.4-2.6-1.2-3.4c-0.8-0.9-1.8-1.3-3.1-1.3c-1.3,0-2.3,0.4-3.1,1.3  c-0.8,0.8-1.2,2-1.2,3.4c0,1.4,0.4,2.6,1.2,3.4s1.9,1.3,3.1,1.3C98.7,25.7,99.7,25.3,100.6,24.4z"></path>	<path class="st1" d="M128.2,12.6v16.9h-4.7v-2c-0.7,0.7-1.4,1.3-2.3,1.7c-0.9,0.4-1.9,0.6-2.9,0.6c-2.2,0-4-0.6-5.3-1.9  c-1.3-1.3-2-3.2-2-5.7v-9.6h4.9v8.8c0,2.7,1.1,4.1,3.4,4.1c1.2,0,2.1-0.4,2.8-1.1c0.7-0.8,1.1-1.9,1.1-3.4v-8.4H128.2z"></path>	<path class="st1" d="M150,6.1v23.4h-4.7v-2c-1.2,1.5-3,2.2-5.3,2.2c-1.6,0-3-0.4-4.3-1.1c-1.3-0.7-2.3-1.7-3-3.1  c-0.7-1.3-1.1-2.9-1.1-4.6c0-1.7,0.4-3.3,1.1-4.6c0.7-1.3,1.7-2.3,3-3.1s2.7-1.1,4.3-1.1c2.2,0,3.9,0.7,5.1,2V6.1H150z M144,24.4  c0.8-0.8,1.2-2,1.2-3.4c0-1.4-0.4-2.6-1.2-3.4c-0.8-0.9-1.8-1.3-3.1-1.3c-1.3,0-2.3,0.4-3.1,1.3c-0.8,0.8-1.2,2-1.2,3.4  c0,1.4,0.4,2.6,1.2,3.4s1.9,1.3,3.1,1.3C142.1,25.7,143.1,25.3,144,24.4z"></path>	<path class="st1" d="M171,22.4h-12.8c0.2,1,0.8,1.9,1.6,2.5s1.9,0.9,3.2,0.9c0.9,0,1.7-0.1,2.3-0.4c0.7-0.3,1.3-0.7,1.9-1.2  l2.6,2.8c-1.6,1.8-3.9,2.7-7,2.7c-1.9,0-3.6-0.4-5.1-1.1c-1.5-0.7-2.6-1.8-3.4-3.1c-0.8-1.3-1.2-2.8-1.2-4.5c0-1.7,0.4-3.2,1.2-4.5  s1.9-2.4,3.2-3.1c1.4-0.7,2.9-1.1,4.6-1.1c1.7,0,3.2,0.4,4.5,1.1s2.4,1.7,3.2,3.1c0.8,1.3,1.1,2.9,1.1,4.6  C171.1,21.1,171.1,21.6,171,22.4z M159.5,17c-0.8,0.6-1.2,1.5-1.4,2.6h8.3c-0.2-1.1-0.6-1.9-1.4-2.6c-0.8-0.6-1.7-1-2.8-1  C161.2,16,160.3,16.3,159.5,17z"></path>	<path class="st1" d="M181.7,22.8l-2.4,2.3v4.3h-4.9V6.1h4.9v13.2l7.2-6.8h5.9l-7,7.2l7.7,9.8H187L181.7,22.8z"></path></g><g class="st0">	<path class="st2" d="M14.2,52.3l2.2-8.8h2l-3.5,11.7h-1.4L9.9,43.5h2L14.2,52.3z"></path>	<path class="st2" d="M24.4,55.5c-1.5,0-2.6-0.4-3.4-1.3c-0.8-0.9-1.2-2.2-1.2-3.8v-1.4c0-1.8,0.4-3.1,1.1-4.1  c0.8-1,1.8-1.5,3.2-1.5c1.4,0,2.4,0.4,3.1,1.3c0.7,0.9,1,2.2,1,4.1V50h-6.6v0.3c0,1.3,0.2,2.2,0.7,2.7s1.2,0.9,2,0.9  c0.6,0,1.1-0.1,1.5-0.3c0.4-0.2,0.8-0.6,1.2-1l1,1.2C27.4,54.9,26.1,55.5,24.4,55.5z M24.2,44.9c-0.8,0-1.4,0.3-1.8,0.8  s-0.6,1.4-0.7,2.5h4.6V48c-0.1-1.1-0.3-1.9-0.6-2.4S24.9,44.9,24.2,44.9z"></path>	<path class="st2" d="M35.5,45.3c-0.3-0.1-0.6-0.1-0.9-0.1c-1,0-1.7,0.5-2.1,1.6v8.4h-1.9V43.5h1.9l0,1.2c0.5-0.9,1.2-1.4,2.2-1.4  c0.3,0,0.6,0,0.8,0.2L35.5,45.3z"></path>	<path class="st2" d="M43.1,52.2c0-0.4-0.2-0.8-0.5-1.1c-0.3-0.3-0.9-0.6-1.8-1c-1-0.4-1.8-0.8-2.2-1.1c-0.4-0.3-0.7-0.6-0.9-1  c-0.2-0.4-0.3-0.8-0.3-1.4c0-1,0.3-1.7,1-2.4s1.6-0.9,2.7-0.9c1.1,0,2.1,0.3,2.8,1c0.7,0.7,1,1.5,1,2.6H43c0-0.5-0.2-1-0.5-1.4  c-0.4-0.4-0.8-0.6-1.4-0.6c-0.6,0-1,0.1-1.3,0.4s-0.5,0.7-0.5,1.2c0,0.4,0.1,0.7,0.4,0.9c0.2,0.2,0.8,0.6,1.7,0.9  c1.4,0.6,2.4,1.1,2.9,1.6c0.5,0.5,0.8,1.2,0.8,2c0,1-0.4,1.8-1.1,2.5c-0.7,0.6-1.6,0.9-2.8,0.9c-1.2,0-2.2-0.4-3-1.1  c-0.8-0.7-1.1-1.6-1.1-2.7H39c0,0.7,0.2,1.2,0.6,1.5c0.4,0.4,0.9,0.6,1.6,0.6c0.6,0,1.1-0.1,1.5-0.4C42.9,53.1,43.1,52.7,43.1,52.2  z"></path>	<path class="st2" d="M49.7,40.4c0,0.3-0.1,0.6-0.3,0.8c-0.2,0.2-0.5,0.3-0.8,0.3c-0.4,0-0.6-0.1-0.8-0.3s-0.3-0.5-0.3-0.8  c0-0.3,0.1-0.6,0.3-0.8c0.2-0.2,0.5-0.3,0.8-0.3s0.6,0.1,0.8,0.3C49.6,39.8,49.7,40.1,49.7,40.4z M49.6,55.2h-1.9V43.5h1.9V55.2z"></path>	<path class="st2" d="M56.7,53.8c0.6,0,1.1-0.2,1.5-0.6c0.4-0.4,0.6-1,0.6-1.7h1.8c0,1.1-0.4,2.1-1.2,2.8c-0.8,0.7-1.7,1.1-2.8,1.1  c-1.5,0-2.6-0.5-3.3-1.4c-0.8-0.9-1.1-2.3-1.1-4.1v-1.3c0-1.8,0.4-3.1,1.1-4c0.8-0.9,1.9-1.4,3.3-1.4c1.2,0,2.2,0.4,2.9,1.1  s1.1,1.8,1.1,3.1h-1.8c0-0.9-0.3-1.5-0.6-2c-0.4-0.4-0.9-0.7-1.5-0.7c-0.9,0-1.5,0.3-1.9,0.8s-0.6,1.5-0.6,2.8V50  c0,1.4,0.2,2.4,0.6,2.9S55.8,53.8,56.7,53.8z"></path>	<path class="st2" d="M64.8,44.7c0.7-0.9,1.7-1.4,2.8-1.4c2.1,0,3.1,1.4,3.2,4.2v7.8h-1.9v-7.7c0-0.9-0.2-1.6-0.5-2S67.6,45,67,45  c-0.5,0-0.9,0.2-1.3,0.5c-0.4,0.3-0.7,0.7-0.9,1.2v8.5h-1.9V38.6h1.9V44.7z"></path>	<path class="st2" d="M77.8,55.5c-1.5,0-2.6-0.4-3.4-1.3c-0.8-0.9-1.2-2.2-1.2-3.8v-1.4c0-1.8,0.4-3.1,1.1-4.1  c0.8-1,1.8-1.5,3.2-1.5c1.4,0,2.4,0.4,3.1,1.3s1,2.2,1,4.1V50h-6.6v0.3c0,1.3,0.2,2.2,0.7,2.7s1.2,0.9,2,0.9c0.6,0,1.1-0.1,1.5-0.3  c0.4-0.2,0.8-0.6,1.2-1l1,1.2C80.8,54.9,79.5,55.5,77.8,55.5z M77.6,44.9c-0.8,0-1.4,0.3-1.8,0.8c-0.4,0.5-0.6,1.4-0.7,2.5h4.6V48  c-0.1-1.1-0.3-1.9-0.6-2.4C78.8,45.2,78.3,44.9,77.6,44.9z"></path>	<path class="st2" d="M88.8,45.3c-0.3-0.1-0.6-0.1-0.9-0.1c-1,0-1.7,0.5-2.1,1.6v8.4H84V43.5h1.9l0,1.2c0.5-0.9,1.2-1.4,2.2-1.4  c0.3,0,0.6,0,0.8,0.2L88.8,45.3z"></path>	<path class="st2" d="M96.7,54.2c-0.6,0.8-1.6,1.2-2.8,1.2c-1.1,0-1.9-0.4-2.4-1.1c-0.5-0.7-0.8-1.8-0.8-3.2v-7.6h1.9V51  c0,1.8,0.5,2.7,1.6,2.7c1.2,0,2-0.5,2.4-1.6v-8.7h1.9v11.7h-1.8L96.7,54.2z"></path>	<path class="st2" d="M103.3,43.5l0.1,1.3c0.7-1,1.7-1.5,2.9-1.5c2.1,0,3.1,1.4,3.2,4.2v7.8h-1.9v-7.7c0-0.9-0.2-1.6-0.5-2  s-0.8-0.6-1.4-0.6c-0.5,0-0.9,0.2-1.3,0.5c-0.4,0.3-0.7,0.7-0.9,1.2v8.5h-1.9V43.5H103.3z"></path>	<path class="st2" d="M111.9,48.8c0-1.8,0.3-3.2,1-4.1c0.7-0.9,1.6-1.4,2.9-1.4c1.2,0,2.1,0.5,2.7,1.5l0.1-1.3h1.7v11.8  c0,1.5-0.4,2.6-1.1,3.3s-1.8,1.2-3.1,1.2c-0.6,0-1.2-0.1-1.9-0.4c-0.7-0.3-1.3-0.6-1.6-1.1l0.8-1.3c0.8,0.8,1.7,1.2,2.6,1.2  c1.6,0,2.4-0.9,2.5-2.6v-1.5c-0.6,0.9-1.5,1.4-2.6,1.4c-1.2,0-2.2-0.5-2.8-1.4s-1-2.2-1.1-3.9V48.8z M113.8,49.9  c0,1.3,0.2,2.3,0.6,2.9c0.4,0.6,1,0.9,1.9,0.9c1,0,1.7-0.5,2.1-1.5v-5.9c-0.5-1-1.2-1.4-2.1-1.4c-0.9,0-1.5,0.3-1.9,0.9  c-0.4,0.6-0.6,1.6-0.6,2.8V49.9z"></path>	<path class="st2" d="M128.9,52.2c0-0.4-0.2-0.8-0.5-1.1c-0.3-0.3-0.9-0.6-1.8-1c-1-0.4-1.8-0.8-2.2-1.1c-0.4-0.3-0.7-0.6-0.9-1  s-0.3-0.8-0.3-1.4c0-1,0.3-1.7,1-2.4s1.6-0.9,2.7-0.9c1.1,0,2.1,0.3,2.8,1c0.7,0.7,1,1.5,1,2.6h-1.9c0-0.5-0.2-1-0.5-1.4  c-0.4-0.4-0.8-0.6-1.4-0.6c-0.6,0-1,0.1-1.3,0.4c-0.3,0.3-0.5,0.7-0.5,1.2c0,0.4,0.1,0.7,0.4,0.9c0.2,0.2,0.8,0.6,1.7,0.9  c1.4,0.6,2.4,1.1,2.9,1.6c0.5,0.5,0.8,1.2,0.8,2c0,1-0.4,1.8-1.1,2.5s-1.6,0.9-2.8,0.9c-1.2,0-2.2-0.4-3-1.1  c-0.8-0.7-1.1-1.6-1.1-2.7h1.9c0,0.7,0.2,1.2,0.6,1.5c0.4,0.4,0.9,0.6,1.6,0.6c0.6,0,1.1-0.1,1.5-0.4  C128.7,53.1,128.9,52.7,128.9,52.2z"></path>	<path class="st2" d="M135.1,43.5l0,1.1c0.7-0.9,1.7-1.3,2.8-1.3c1.3,0,2.2,0.6,2.7,1.7c0.7-1.1,1.8-1.7,3.1-1.7  c2.2,0,3.3,1.3,3.3,4v7.9h-1.9v-7.7c0-0.9-0.2-1.5-0.5-1.9c-0.3-0.4-0.8-0.6-1.5-0.6c-0.6,0-1,0.2-1.4,0.7c-0.4,0.4-0.6,1-0.6,1.7  v7.9h-1.9v-7.8c0-1.6-0.7-2.4-2-2.4c-1,0-1.7,0.5-2.1,1.5v8.8h-1.9V43.5H135.1z"></path>	<path class="st2" d="M156.1,55.2c-0.1-0.3-0.2-0.7-0.2-1.3c-0.7,1-1.5,1.5-2.6,1.5c-1.1,0-1.9-0.3-2.5-0.9s-0.9-1.4-0.9-2.5  c0-1.2,0.4-2.1,1.2-2.8c0.8-0.7,1.9-1.1,3.3-1.1h1.4v-1.2c0-0.7-0.2-1.2-0.5-1.5c-0.3-0.3-0.8-0.4-1.4-0.4c-0.6,0-1,0.2-1.4,0.5  c-0.4,0.3-0.5,0.8-0.5,1.3H150c0-0.6,0.2-1.2,0.5-1.7c0.4-0.5,0.8-1,1.4-1.3c0.6-0.3,1.3-0.5,2-0.5c1.2,0,2.1,0.3,2.7,0.9  c0.6,0.6,0.9,1.5,1,2.6v5.9c0,0.9,0.1,1.7,0.4,2.4v0.2H156.1z M153.5,53.7c0.5,0,0.9-0.1,1.3-0.4c0.4-0.3,0.7-0.6,0.9-1v-2.8h-1.1  c-0.9,0-1.6,0.2-2.2,0.6c-0.5,0.4-0.8,0.9-0.8,1.7c0,0.7,0.1,1.1,0.4,1.4C152.4,53.6,152.9,53.7,153.5,53.7z"></path>	<path class="st2" d="M163.6,49.9l-1,1.2v4.2h-1.9V38.6h1.9v10l3.7-5h2.3l-3.7,4.9l4.2,6.8h-2.2L163.6,49.9z"></path>	<path class="st2" d="M172.8,55.2h-1.9V38.6h1.9V55.2z"></path>	<path class="st2" d="M180,55.5c-1.5,0-2.6-0.4-3.4-1.3c-0.8-0.9-1.2-2.2-1.2-3.8v-1.4c0-1.8,0.4-3.1,1.1-4.1c0.8-1,1.8-1.5,3.2-1.5  c1.4,0,2.4,0.4,3.1,1.3s1,2.2,1,4.1V50h-6.6v0.3c0,1.3,0.2,2.2,0.7,2.7s1.2,0.9,2,0.9c0.6,0,1.1-0.1,1.5-0.3c0.4-0.2,0.8-0.6,1.2-1  l1,1.2C182.9,54.9,181.7,55.5,180,55.5z M179.8,44.9c-0.8,0-1.4,0.3-1.8,0.8c-0.4,0.5-0.6,1.4-0.7,2.5h4.6V48  c-0.1-1.1-0.3-1.9-0.6-2.4C181,45.2,180.5,44.9,179.8,44.9z"></path>	<path class="st2" d="M191,45.3c-0.3-0.1-0.6-0.1-0.9-0.1c-1,0-1.7,0.5-2.1,1.6v8.4h-1.9V43.5h1.9l0,1.2c0.5-0.9,1.2-1.4,2.2-1.4  c0.3,0,0.6,0,0.8,0.2L191,45.3z"></path></g></svg>