<svg xmlns="http://www.w3.org/2000/svg" xmlns:xlink="http://www.w3.org/1999/xlink" id="Ebene_1" x="0px" y="0px" viewBox="0 0 483.5 132.9" style="enable-background:new 0 0 483.5 132.9;" xml:space="preserve"><style type="text/css">	.st0{fill-rule:evenodd;clip-rule:evenodd;fill:#62A521;}	.st1{fill:#357DA0;}	.st2{fill:#62A521;}	.st3{display:none;}	.st4{display:inline;fill-rule:evenodd;clip-rule:evenodd;fill:#62A521;}	.st5{display:inline;}</style><g>	<path class="st0" d="M41,39.3c-3.4,1.6-4.1,0.2-6.9,3c-2.8,2.8-6.9,4.4-7.3,6.5c-0.5,2.2-2.3,4.3-6.2,3.4c-3.9-0.9-7.3-4.5-5.4-9.5  s6.8-14.3,7.5-17.1c0.7-2.8,0.5-3.7,2.7-6.5s5.2-7.2,5.2-7.2l-1.5-2.7l-1.6-2.8c-1.9-2.7-1.4-4.3,2.2-2.6L37.4,8  c7.9,0.4,15,3,21.1,8.2c7,6,11.4,14.9,11.4,24.8c0,18.1-14.7,32.8-32.8,32.8C19,73.9,4.3,59.2,4.3,41.1c0-8,2.9-15.4,7.7-21.1  c-3.4,4.9-5.5,10.9-5.5,17.3c0,13,8.2,24,19.6,28.3l0,0l0,0c3.3,1.2,6.9,1.9,10.6,1.9c15.4,0,24.6-9.8,28.1-24.3  c0,0-0.9,2.2-3.1,5.2c2.2-6.1,4.7-14.9-1.6-25.3c0,0.8-0.1,1.4-0.2,2.3C56.6,15.3,48.6,11.7,38.7,9.7c17.8,5.1,23.2,28.2,10.1,36.7  c0,0,3.5-4.4,3.9-10.5C50.5,46.7,32.6,51,28.4,59.4C31.3,49,48.7,43.1,45.1,34.9c0.4-1.7-0.4-3.8-2-4.5  C46.1,33.1,44.1,37.8,41,39.3"></path></g><g>	<g>		<path class="st1" d="M475,100.1c-13.5-5.5-30.2-9.4-48.1-11.7c-1.8-0.2-3.7-0.5-5.5-0.7c-6.7-0.7-14.4-1.1-22.5-1.1   c-12.4,0-23.6,0.9-32.1,2.3l0,0c-1.3,0.2-2.6,0.5-3.9,0.7c-18.1,3.6-37.1,8.5-55.8,12.3c-12.2,2.8-29.6,5.9-50.1,8   c-28.1,2.9-54.2,3.5-68.5,2.4c-0.1,0-0.2,0-0.3,0c14.4,5.6,34.3,8.6,54.3,8.8c46.6,0.3,85.3-12.4,127.5-17.5   c1.1-0.1,2.1-0.3,3.2-0.4c21.8-2.6,44.7-3.2,67.7-3.3c8.1,0,16.2,0,24.3,0.1C468.3,100.2,471.6,100.2,475,100.1z"></path>	</g>	<g>		<path class="st1" d="M360.8,86.2l-5.9,0.2c-2.1,0.1-4.3,0.2-6.5,0.4c-2.2,0.2-4.4,0.3-6.4,0.5c-0.4,0-0.8,0.1-1.2,0.1   c-0.3,0-0.5,0.1-0.8,0.1s-0.5,0.1-0.8,0.1c-4.2,0.4-7.7,0.8-7.7,0.8c-31,3.4-63.2,7.5-95.1,6.3c-35.2-1-67.8-8.5-104.5-6.9   c-22.2,0.9-43.2,5.2-58.7,11.7c67.4-7.9,92.5,6.8,148.7,8h14.7c27.1,0,59-9.5,88.8-15.4"></path>	</g></g><g>	<path class="st2" d="M75.3,69.2l2.6-4.5c3.4,2.7,9.1,4.8,15.1,4.8c8.1,0,11.4-2.7,11.4-6.9c0-11.1-27.5-2.3-27.5-19.1  c0-6.9,6-12.1,16.8-12.1c5.5,0,11.5,1.5,15,4l-2.5,4.6c-3.7-2.6-8.2-3.6-12.5-3.6c-7.7,0-11.1,3-11.1,7c0,11.5,27.5,2.8,27.5,19.1  c0,7.3-6.5,12.1-17.5,12.1C85.5,74.4,78.7,72.2,75.3,69.2z"></path>	<path class="st2" d="M143,71.5c-2.3,2-5.7,3-9,3c-8,0-12.4-4.5-12.4-12.4V36.4H114v-4.8h7.6v-9.3h5.7v9.3h12.9v4.8h-12.9v25.4  c0,5,2.6,7.8,7.3,7.8c2.3,0,4.7-0.7,6.3-2.2L143,71.5z"></path>	<path class="st2" d="M147.5,69.2l2.6-4.5c3.4,2.7,9.1,4.8,15.1,4.8c8.1,0,11.4-2.7,11.4-6.9c0-11.1-27.5-2.3-27.5-19.1  c0-6.9,6-12.1,16.8-12.1c5.5,0,11.5,1.5,15,4l-2.5,4.6c-3.7-2.6-8.2-3.6-12.5-3.6c-7.7,0-11.1,3-11.1,7c0,11.5,27.5,2.8,27.5,19.1  c0,7.3-6.5,12.1-17.5,12.1C157.8,74.4,151,72.2,147.5,69.2z"></path>	<path class="st2" d="M229.9,54.6h-35.5c0.6,8.9,7.4,14.8,16.7,14.8c5.2,0,9.8-1.9,13-5.6l3.2,3.7c-3.8,4.5-9.7,6.9-16.4,6.9  c-13.2,0-22.3-9-22.3-21.6s8.8-21.6,20.8-21.6S230,40,230,52.8C230,53.3,229.9,53.9,229.9,54.6z M194.4,50.3h30.1  c-0.7-8.3-6.8-14.1-15.1-14.1C201.1,36.2,195.1,42,194.4,50.3z"></path>	<path class="st2" d="M278.7,54.6h-35.5c0.6,8.9,7.4,14.8,16.7,14.8c5.2,0,9.8-1.9,13-5.6l3.2,3.7c-3.8,4.5-9.7,6.9-16.4,6.9  c-13.2,0-22.3-9-22.3-21.6s8.8-21.6,20.8-21.6s20.6,8.8,20.6,21.6C278.7,53.3,278.7,53.9,278.7,54.6z M243.1,50.3h30.1  c-0.7-8.3-6.8-14.1-15.1-14.1C249.9,36.2,243.9,42,243.1,50.3z"></path>	<path class="st2" d="M288.1,49.7h21.2v5h-21.2V49.7z"></path>	<path class="st2" d="M370.5,17.5V74h-5.9V48h-35.4v26h-6V17.5h6v25.2h35.4V17.5H370.5z"></path>	<path class="st2" d="M424.7,54.6h-35.5c0.6,8.9,7.4,14.8,16.7,14.8c5.2,0,9.8-1.9,13-5.6l3.2,3.7c-3.8,4.5-9.7,6.9-16.4,6.9  c-13.2,0-22.3-9-22.3-21.6s8.8-21.6,20.8-21.6s20.6,8.8,20.6,21.6C424.8,53.3,424.7,53.9,424.7,54.6z M389.2,50.3h30.1  c-0.7-8.3-6.8-14.1-15.1-14.1C396,36.2,389.9,42,389.2,50.3z"></path>	<path class="st2" d="M474.8,31.6V74h-5.5v-7.8c-3,5.2-8.5,8.2-15.3,8.2c-10.8,0-17.9-6.1-17.9-18.2V31.6h5.7v24.1  c0,9,4.7,13.6,12.8,13.6c8.9,0,14.5-5.7,14.5-15.4V31.6H474.8z"></path></g><g class="st3">	<path class="st4" d="M45.8-115.4c-3.4,1.6-4.1,0.2-6.9,3c-2.8,2.8-6.9,4.4-7.3,6.5c-0.5,2.2-2.3,4.3-6.2,3.4S18.1-107,20-112  s6.8-14.3,7.5-17.1c0.7-2.8,0.5-3.7,2.7-6.5s5.2-7.2,5.2-7.2l-1.5-2.7l-1.6-2.8c-1.9-2.7-1.4-4.3,2.2-2.6l7.7,4.1  c7.9,0.4,15,3,21.1,8.2c7,6,11.4,14.9,11.4,24.8C74.7-95.7,60-81,41.9-81S9.1-95.7,9.1-113.8c0-8,2.9-15.4,7.7-21.1  c-3.4,4.9-5.5,10.9-5.5,17.3c0,13,8.2,24,19.6,28.3l0,0l0,0c3.3,1.2,6.9,1.9,10.6,1.9c15.4,0,24.6-9.8,28.1-24.3  c0,0-0.9,2.2-3.1,5.2c2.2-6.1,4.7-14.9-1.6-25.3c0,0.8-0.1,1.4-0.2,2.3c-3.5-10.1-11.4-13.7-21.4-15.7  c17.8,5.1,23.2,28.2,10.1,36.7c0,0,3.5-4.4,3.9-10.5C55-108.3,37.1-103.9,33-95.5c2.9-10.4,20.3-16.4,16.7-24.6  c0.4-1.7-0.4-3.8-2-4.5C50.9-121.7,48.9-116.9,45.8-115.4"></path></g><g class="st3">	<g class="st5">		<path class="st1" d="M479.8-54.6c-13.5-5.5-30.2-9.4-48.1-11.7c-1.8-0.2-3.7-0.5-5.5-0.7c-6.7-0.7-14.4-1.1-22.5-1.1   c-12.4,0-23.6,0.9-32.1,2.3l0,0c-1.3,0.2-2.6,0.5-3.9,0.7c-18.1,3.6-37.1,8.5-55.8,12.3c-12.2,2.8-29.6,5.9-50.1,8   c-28.1,2.9-54.2,3.5-68.5,2.4c-0.1,0-0.2,0-0.3,0c14.4,5.6,34.3,8.6,54.3,8.8c46.6,0.3,85.3-12.4,127.5-17.5   c1.1-0.1,2.1-0.3,3.2-0.4c21.8-2.6,44.7-3.2,67.7-3.3c8.1,0,16.2,0,24.3,0.1C473.2-54.6,476.4-54.5,479.8-54.6z"></path>	</g>	<g class="st5">		<path class="st1" d="M365.7-68.5l-5.9,0.2c-2.1,0.1-4.3,0.2-6.5,0.4c-2.2,0.2-4.4,0.3-6.4,0.5c-0.4,0-0.8,0.1-1.2,0.1   c-0.3,0-0.5,0.1-0.8,0.1s-0.5,0.1-0.8,0.1c-4.2,0.4-7.7,0.8-7.7,0.8c-31,3.4-63.2,7.5-95.1,6.3c-35.2-1-67.8-8.5-104.5-6.9   c-22.2,0.9-43.2,5.2-58.7,11.7c67.4-7.9,92.5,6.8,148.7,8h14.7c27.1,0,59-9.5,88.8-15.4"></path>	</g></g><text transform="matrix(1 0 0 1 78.0001 -80.6911)" style="display:none;fill:#62A521;enable-background:new    ; font-family:'Montserrat-Regular'; font-size:80.7442px;">stsee-Heu</text></svg>