<svg xmlns="http://www.w3.org/2000/svg" xmlns:xlink="http://www.w3.org/1999/xlink" id="Ebene_1" x="0px" y="0px" viewBox="0 0 600 120" style="enable-background:new 0 0 600 120;" xml:space="preserve"><style type="text/css">	.st0{fill:#2368B1;}	.st1{fill:#73B955;}	.st2{fill:url(#SVGID_1_);}	.st3{fill:url(#SVGID_00000140720760493738627130000015537296735013306256_);}	.st4{fill:url(#SVGID_00000036239757601367062720000015585422523335525774_);}</style><g>	<path class="st0" d="M160.4,58V5.2h23c2.4,0,4.6,0.5,6.5,1.5c2,1,3.7,2.3,5.2,3.9c1.5,1.6,2.6,3.5,3.4,5.5c0.8,2.1,1.2,4.1,1.2,6.2   c0,2.4-0.4,4.6-1.3,6.7c-0.8,2.1-2,3.9-3.6,5.5c-1.6,1.5-3.4,2.7-5.5,3.3L201.8,58h-9.4L181,39.6h-12.2V58H160.4z M168.8,32.3h14.5   c1.5,0,2.9-0.5,4.1-1.4c1.2-0.9,2.1-2.1,2.8-3.6c0.7-1.5,1-3.1,1-4.9c0-1.8-0.4-3.5-1.2-5c-0.8-1.5-1.8-2.7-3.1-3.5   c-1.2-0.9-2.6-1.3-4.1-1.3h-14.1V32.3z"></path>	<path class="st0" d="M224.8,5.2h7.9L253.2,58h-8.8l-5.2-14.4h-21.1L213,58h-8.8L224.8,5.2z M237.1,37.5l-8.3-23.1l-8.4,23.1H237.1z   "></path>	<path class="st0" d="M259.8,58V5.2h18.7c5.7,0,10.5,1.2,14.2,3.5c3.8,2.4,6.7,5.5,8.6,9.5c1.9,4,2.9,8.4,2.9,13.3   c0,5.4-1.1,10-3.2,14c-2.1,4-5.1,7-9,9.2c-3.9,2.2-8.4,3.3-13.6,3.3H259.8z M295.8,31.5c0-3.7-0.7-7-2-9.8   c-1.4-2.8-3.3-5.1-5.9-6.7c-2.6-1.6-5.7-2.5-9.3-2.5h-10.3v38.1h10.3c3.7,0,6.9-0.8,9.4-2.5c2.6-1.7,4.5-4,5.8-6.8   C295.1,38.4,295.8,35.2,295.8,31.5z"></path>	<path class="st0" d="M313,58V5.2h8.4V58H313z"></path>	<path class="st0" d="M355.2,58.4c-3.7,0-7.1-0.7-10.2-2.2c-3.1-1.5-5.7-3.5-8-6.1c-2.3-2.6-4-5.4-5.2-8.6c-1.2-3.2-1.8-6.5-1.8-9.9   c0-3.5,0.6-6.9,1.9-10.1c1.3-3.2,3.1-6.1,5.4-8.6c2.3-2.5,5-4.5,8-6c3.1-1.5,6.4-2.2,10.1-2.2c3.8,0,7.3,0.8,10.3,2.3   c3.1,1.5,5.7,3.6,7.9,6.2c2.2,2.6,3.9,5.5,5.1,8.6c1.2,3.2,1.8,6.4,1.8,9.8c0,3.5-0.6,6.8-1.9,10c-1.2,3.2-3,6.1-5.3,8.6   c-2.3,2.5-5,4.5-8,5.9C362.3,57.7,358.9,58.4,355.2,58.4z M338.5,31.6c0,2.5,0.4,4.9,1.2,7.3c0.8,2.3,1.9,4.4,3.3,6.2   c1.5,1.8,3.2,3.2,5.3,4.3c2.1,1,4.4,1.6,7,1.6c2.7,0,5.1-0.5,7.1-1.6c2.1-1.1,3.8-2.6,5.3-4.4c1.4-1.9,2.5-3.9,3.3-6.2   c0.7-2.3,1.1-4.6,1.1-7c0-2.5-0.4-4.9-1.2-7.2c-0.8-2.3-1.9-4.3-3.4-6.1c-1.5-1.8-3.3-3.2-5.3-4.3c-2.1-1-4.4-1.6-6.9-1.6   c-2.7,0-5.1,0.5-7.2,1.6c-2.1,1.1-3.8,2.6-5.2,4.4c-1.4,1.8-2.5,3.9-3.3,6.2C338.9,26.9,338.5,29.2,338.5,31.6z"></path>	<path class="st0" d="M389.2,58V5.2h8.4v45.5h28.3V58H389.2z"></path>	<path class="st0" d="M453.1,58.4c-3.7,0-7.1-0.7-10.2-2.2c-3.1-1.5-5.7-3.5-8-6.1c-2.3-2.6-4-5.4-5.2-8.6c-1.2-3.2-1.8-6.5-1.8-9.9   c0-3.5,0.6-6.9,1.9-10.1c1.3-3.2,3.1-6.1,5.4-8.6c2.3-2.5,5-4.5,8-6c3.1-1.5,6.4-2.2,10.1-2.2c3.8,0,7.3,0.8,10.3,2.3   c3.1,1.5,5.7,3.6,7.9,6.2c2.2,2.6,3.9,5.5,5.1,8.6c1.2,3.2,1.8,6.4,1.8,9.8c0,3.5-0.6,6.8-1.9,10c-1.2,3.2-3,6.1-5.3,8.6   c-2.3,2.5-5,4.5-8,5.9C460.2,57.7,456.9,58.4,453.1,58.4z M436.5,31.6c0,2.5,0.4,4.9,1.2,7.3c0.8,2.3,1.9,4.4,3.3,6.2   c1.5,1.8,3.2,3.2,5.3,4.3c2.1,1,4.4,1.6,7,1.6c2.7,0,5.1-0.5,7.1-1.6c2.1-1.1,3.8-2.6,5.3-4.4c1.4-1.9,2.5-3.9,3.3-6.2   c0.7-2.3,1.1-4.6,1.1-7c0-2.5-0.4-4.9-1.2-7.2c-0.8-2.3-1.9-4.3-3.4-6.1c-1.5-1.8-3.3-3.2-5.3-4.3c-2.1-1-4.4-1.6-6.9-1.6   c-2.7,0-5.1,0.5-7.2,1.6c-2.1,1.1-3.8,2.6-5.2,4.4c-1.4,1.8-2.5,3.9-3.3,6.2C436.8,26.9,436.5,29.2,436.5,31.6z"></path>	<path class="st0" d="M508.8,58.4c-3.5,0-6.7-0.7-9.7-2.2c-3-1.4-5.7-3.4-7.9-5.9c-2.3-2.5-4-5.4-5.3-8.6c-1.3-3.2-1.9-6.7-1.9-10.3   c0-3.6,0.6-7,1.9-10.2c1.3-3.2,3-6,5.3-8.4c2.3-2.5,4.9-4.4,8-5.8c3.1-1.4,6.4-2.1,9.9-2.1c5.1,0,9.3,1.1,12.8,3.2   c3.4,2.1,6,4.9,7.8,8.4l-6.4,4.6c-1.4-2.9-3.4-5-6-6.5c-2.5-1.4-5.3-2.2-8.3-2.2c-2.5,0-4.8,0.5-6.8,1.6c-2,1-3.7,2.5-5.2,4.3   c-1.4,1.8-2.5,3.9-3.3,6.2c-0.8,2.3-1.2,4.7-1.2,7.3c0,2.7,0.4,5.2,1.3,7.5c0.8,2.3,2,4.4,3.6,6.1c1.5,1.8,3.3,3.1,5.4,4.1   c2.1,1,4.3,1.5,6.7,1.5c2.9,0,5.7-0.7,8.3-2.2c2.6-1.5,5-3.7,7.3-6.6v8.5C520.4,55.8,515,58.4,508.8,58.4z M524.1,37.5h-11v-6.3   h18.1V58h-7.1V37.5z"></path>	<path class="st0" d="M540.7,58V5.2h8.4V58H540.7z"></path>	<path class="st0" d="M597.2,50.7V58h-36.2V5.2h35.6v7.4h-27.2v15.1h23.6v6.8h-23.6v16.1H597.2z"></path></g><g>	<path class="st1" d="M179.5,78.3c2.1,0.9,3.7,2.3,4.7,4c1,1.7,1.6,3.7,1.6,6c0,2.3-0.5,4.4-1.6,6.2c-1.1,1.9-2.7,3.3-4.8,4.4   s-4.8,1.7-7.9,1.7h-6.7v13.9h-5.3V76.9h12.5C174.8,76.9,177.4,77.3,179.5,78.3z M177.9,94.1c1.5-1.3,2.3-3.2,2.3-5.6   c0-2.3-0.7-4.1-2.1-5.3c-1.4-1.2-3.5-1.8-6.3-1.8h-7.1v14.7h6.3C174,96.1,176.3,95.4,177.9,94.1z"></path>	<path class="st1" d="M216.8,76.9l14.1,37.3v0.3h-5.6l-3.9-10.7h-16l-3.9,10.7h-5.4v-0.3l14.1-37.3H216.8z M207,99.3h12.8l-6.4-17.4   L207,99.3z"></path>	<path class="st1" d="M252,112.8c-2.6-1.6-4.5-3.8-5.8-6.7c-1.3-2.9-1.9-6.3-1.9-10.3c0-4.6,0.8-8.3,2.4-11.2   c1.6-2.9,3.7-5.1,6.3-6.4c2.6-1.3,5.4-2,8.5-2c2.4,0,4.5,0.3,6.5,0.9c2,0.6,3.9,1.4,5.7,2.6l-2.3,4.1c-3-1.9-6.3-2.8-9.7-2.8   c-4,0-7,1.3-8.9,3.9c-1.9,2.6-2.9,6.2-2.9,10.7c0,4.7,1,8.4,3,11c2,2.7,5,4,8.9,4c2,0,3.8-0.3,5.3-0.8c1.6-0.5,3.2-1.2,4.8-2.1   l2.1,3.9c-2.1,1.2-4.1,2.1-6,2.7c-2,0.6-4.1,0.9-6.5,0.9C257.9,115.2,254.6,114.4,252,112.8z"></path>	<path class="st1" d="M303,94.9l17.4,19.2v0.3H314l-17.2-19.2v19.2h-5.3V76.9h5.3v17.9l16.9-17.9h6.1v0.3L303,94.9z"></path>	<path class="st1" d="M342.7,109.9h18.5v4.5h-23.8V76.9h23.5v4.5h-18.2v11.7h15.9l-0.6,4.4h-15.3V109.9z"></path>	<path class="st1" d="M405.8,98.2c1.3,1.7,1.9,3.6,1.9,5.7c0,2-0.5,3.8-1.5,5.4c-1,1.6-2.6,2.8-4.6,3.7c-2.1,0.9-4.5,1.4-7.5,1.4   h-13.6V76.9h13.1c2.6,0,4.9,0.4,6.8,1.2c1.9,0.8,3.3,2,4.4,3.4c1,1.5,1.5,3.1,1.5,5c0,1.8-0.5,3.4-1.5,4.9c-1,1.4-2.6,2.5-4.8,3.3   C402.5,95.3,404.5,96.5,405.8,98.2z M385.8,81.3v11.8h7c2.4,0,4.3-0.5,5.7-1.5c1.5-1,2.2-2.6,2.2-4.7c0-1.1-0.3-2.1-0.8-2.9   s-1.3-1.5-2.4-2c-1.1-0.5-2.4-0.7-3.9-0.7H385.8z M400.2,108.3c1.2-1.2,1.9-2.7,1.9-4.5c0-2-0.7-3.5-2-4.7   c-1.3-1.2-3.3-1.7-5.9-1.7h-8.4v12.7h8.4C397,110.1,399,109.5,400.2,108.3z"></path>	<path class="st1" d="M432.6,113.1c-2.3-1.4-4-3.2-5.2-5.6c-1.1-2.4-1.7-5.1-1.7-8.1V76.9h5.3v21.4c0,8.2,3.5,12.3,10.6,12.3   c3.6,0,6.2-1,7.8-3.1c1.6-2.1,2.4-5,2.4-8.8V76.9h5.3v22.4c0,3.7-0.7,6.7-2.1,9.1c-1.4,2.4-3.3,4.1-5.7,5.2   c-2.4,1.1-5.1,1.6-8.2,1.6C437.8,115.2,434.9,114.5,432.6,113.1z"></path>	<path class="st1" d="M480.4,114c-2.3-0.8-4.3-1.8-6-3.2l2.6-3.8c1.5,1.2,3.3,2.1,5.3,2.7c2,0.6,3.8,0.9,5.5,0.9   c2.8,0,4.9-0.5,6.4-1.5c1.5-1,2.2-2.5,2.2-4.6c0-1.2-0.3-2.2-0.8-3c-0.5-0.8-1.4-1.5-2.6-2.1c-1.2-0.6-2.9-1.3-5.1-2.1l-1-0.3   c-2.4-0.9-4.4-1.7-5.9-2.5c-1.5-0.8-2.7-1.9-3.7-3.3c-0.9-1.4-1.4-3.1-1.4-5.1c0-2.2,0.6-4,1.8-5.5c1.2-1.5,2.7-2.6,4.7-3.3   c1.9-0.7,4-1.1,6.2-1.1c2.3,0,4.5,0.3,6.6,0.9c2.1,0.6,4.1,1.5,6.1,2.8l-2.4,3.8c-1.7-1.1-3.3-1.9-4.9-2.4   c-1.6-0.5-3.4-0.7-5.3-0.7c-2.1,0-3.8,0.4-5.1,1.3c-1.4,0.9-2,2.2-2,3.9c0,0.9,0.2,1.7,0.7,2.4c0.4,0.7,1.2,1.4,2.3,2   c1.1,0.6,2.6,1.3,4.6,2l1,0.3c2.6,0.9,4.7,1.7,6.2,2.5c1.5,0.8,2.9,1.9,4,3.4c1.1,1.5,1.7,3.4,1.7,5.8c0,2.4-0.6,4.3-1.7,6   c-1.1,1.6-2.7,2.8-4.8,3.7c-2.1,0.8-4.6,1.2-7.4,1.2C485.2,115.2,482.7,114.8,480.4,114z"></path>	<path class="st1" d="M525.8,112.8c-2.6-1.6-4.5-3.8-5.8-6.7s-1.9-6.3-1.9-10.3c0-4.6,0.8-8.3,2.4-11.2c1.6-2.9,3.7-5.1,6.3-6.4   c2.6-1.3,5.4-2,8.5-2c2.4,0,4.5,0.3,6.5,0.9c2,0.6,3.9,1.4,5.7,2.6l-2.3,4.1c-3-1.9-6.3-2.8-9.7-2.8c-4,0-7,1.3-8.9,3.9   c-1.9,2.6-2.9,6.2-2.9,10.7c0,4.7,1,8.4,3,11c2,2.7,5,4,8.9,4c2,0,3.8-0.3,5.3-0.8c1.6-0.5,3.2-1.2,4.8-2.1l2.1,3.9   c-2.1,1.2-4.1,2.1-6,2.7c-2,0.6-4.1,0.9-6.5,0.9C531.6,115.2,528.4,114.4,525.8,112.8z"></path>	<path class="st1" d="M591.3,76.9h5.3v37.6h-5.3V97.6h-20.8v16.9h-5.3V76.9h5.3v16.2h20.8V76.9z"></path></g><g>	<linearGradient id="SVGID_1_" gradientUnits="userSpaceOnUse" x1="23.822" y1="55.2542" x2="121.6286" y2="55.2542">		<stop offset="0" style="stop-color:#4DAAD5"></stop>		<stop offset="1" style="stop-color:#026D9D"></stop>	</linearGradient>	<path class="st2" d="M27.3,105.7c-1.9,0-3.4-1.5-3.4-3.4V50.8h71.4c10.8,0,19.6-8.8,19.6-19.6S106,11.7,95.2,11.7H27.3   c-1.9,0-3.4-1.5-3.4-3.4s1.5-3.4,3.4-3.4h67.9c14.6,0,26.4,11.9,26.4,26.4s-11.9,26.4-26.4,26.4H30.7v44.5   C30.7,104.1,29.2,105.7,27.3,105.7z"></path></g><g>			<linearGradient id="SVGID_00000095316919350941173840000004708913231121863830_" gradientUnits="userSpaceOnUse" x1="99.0711" y1="30.9731" x2="114.7184" y2="30.9731">		<stop offset="0" style="stop-color:#CCDA63"></stop>		<stop offset="1" style="stop-color:#7DBA40"></stop>	</linearGradient>	<path style="fill:url(#SVGID_00000095316919350941173840000004708913231121863830_);" d="M102.5,34.2h7.8c1.4,0,2.8,0.2,4.1,0.4   c0.5-3.1,0.2-5.9,0-7c-1.3-0.2-2.7-0.3-4.1-0.3h-7.8c-1.9,0-3.4,1.5-3.4,3.4S100.6,34.2,102.5,34.2z"></path>			<linearGradient id="SVGID_00000023274082438575843930000012811171612851657637_" gradientUnits="userSpaceOnUse" x1="2.8152" y1="70.784" x2="136.992" y2="70.784">		<stop offset="0" style="stop-color:#CCDA63"></stop>		<stop offset="1" style="stop-color:#7DBA40"></stop>	</linearGradient>	<path style="fill:url(#SVGID_00000023274082438575843930000012811171612851657637_);" d="M137,54c0-10.7-6.3-19.9-15.4-24.1   c0.2,4.5-0.6,7.5-0.6,7.5l0,0c5.5,3.5,9.2,9.7,9.2,16.7c0,10.9-8.9,19.8-19.8,19.8H81.6L41.7,33.9c-4.2-4.2-9.8-6.5-15.7-6.5   c0,0,0,0,0,0c-12.8,0-23.2,10.4-23.2,23.2v6.9c0,12.1,9.2,22,21,23.1v-6.9c-8-1.1-14.1-7.9-14.1-16.1v-6.9c0-9,7.3-16.3,16.3-16.3   c4.1,0,8,1.6,10.9,4.5l35,35H30.7v6.9h48.1l32.6,32.6c0.7,0.7,1.6,1,2.4,1s1.8-0.3,2.4-1c1.3-1.3,1.3-3.5,0-4.9L88.5,80.6h21.9   C125,80.6,137,68.6,137,54z"></path></g></svg>