<svg xmlns="http://www.w3.org/2000/svg" width="211" height="56" viewBox="0 0 211 56" fill="none"><g clip-path="url(#clip0_2_3)"><path d="M46.8711 15.5704L27.7835 1.59478C27.3567 1.21739 26.7956 0.998261 26.198 0.998261C25.6003 0.998261 24.9905 1.24174 24.5393 1.65565C23.6367 0.633044 22.3927 0 21.0145 0C18.2702 0 16.0261 2.53217 16.0261 5.63652C16.0261 7.57217 16.892 9.27652 18.1971 10.287L0.98775 34.0261C-0.683175 36.3148 -0.17092 39.5409 2.12203 41.2087L21.3682 55.1965C21.7828 55.513 22.3073 55.6835 22.8317 55.6835C23.7099 55.6835 24.4661 55.2209 24.893 54.527L48.0054 22.753C49.6763 20.4643 49.164 17.2383 46.8833 15.5704" fill="white"></path><path d="M20.8805 1.82617C19.1729 1.82617 17.7947 3.50617 17.7947 5.57574C17.7947 7.6453 19.1729 9.3253 20.8805 9.3253C22.588 9.3253 23.9662 7.6453 23.9662 5.57574C23.9662 3.50617 22.588 1.82617 20.8805 1.82617Z" fill="#FFCC00"></path><path d="M45.6272 17.0313L30.4303 5.9409C30.345 5.88003 30.2352 5.84351 30.1254 5.84351C29.8815 5.84351 29.6863 6.00177 29.6132 6.2209L24.9419 20.9392C24.9419 20.9392 24.3687 22.5826 24.3687 23.1913C24.3687 23.9218 25.4907 26.7218 25.4907 26.7218C25.5517 26.9287 26.3323 28.8644 26.3323 30.4835C26.3323 32.1026 26.0152 33.7218 26.003 33.8313L23.9418 50.6192C23.9418 50.6192 23.9418 50.6679 23.9418 50.6922C23.9418 50.9965 24.1857 51.24 24.4906 51.24C24.6614 51.24 24.8199 51.1548 24.9175 51.0331L46.359 21.56C47.4079 20.1113 47.0908 18.0783 45.6516 17.0192" fill="#00A3CB"></path><path d="M17.7704 49.1703L15.9653 33.8434C15.9531 33.7338 15.636 32.1025 15.636 30.4956C15.636 28.8886 16.4165 26.9286 16.4775 26.7216C16.4775 26.7216 17.5996 23.9095 17.5996 23.1912C17.5996 22.5825 17.1971 20.939 17.1971 20.939L16.4653 17.2625C16.4165 17.019 16.197 16.8364 15.9287 16.8364C15.7457 16.8364 15.5872 16.9216 15.4896 17.0677L2.39053 35.0729C1.34163 36.5216 1.65874 38.5547 3.09793 39.6138L16.9044 49.6695C16.9898 49.7425 17.1117 49.779 17.2337 49.779C17.5386 49.779 17.7826 49.5356 17.7826 49.2312C17.7826 49.219 17.7826 49.1947 17.7826 49.1825" fill="#76B837"></path><path d="M65.1905 25.9305H65.8979C67.7517 25.9305 68.0932 27.0383 68.3616 28.0609L69.0324 31.2383H70.9594L70.313 28.1461C70.0203 26.7461 69.7764 25.5531 67.9713 25.2609V25.2244C68.9958 25.0296 70.5325 24.36 70.5325 22.4366C70.5325 19.5879 67.8981 19.3079 65.8857 19.3079H63.2756V31.2383H65.1783V25.9305H65.1905ZM65.1905 20.4522H65.8979C67.7029 20.4522 68.6299 20.9148 68.6299 22.5218C68.6299 24.4087 67.1053 24.7861 65.8979 24.7861H65.1905V20.44V20.4522Z" fill="#283583"></path><path d="M78.875 30.9705V30.1792C78.3505 30.4227 77.8383 30.5201 77.3016 30.5201C74.8258 30.5201 74.094 27.8175 74.094 26.1983H79.0336C79.0336 24.6036 78.5335 22.8262 75.8625 22.8262C73.1914 22.8262 72.3499 24.4818 72.3499 26.7705C72.3499 30.094 74.1915 31.4453 76.4723 31.4453C77.509 31.4453 78.1554 31.2749 78.875 30.9827V30.9705ZM75.7893 23.5566C77.0943 23.5566 77.3138 24.774 77.3138 25.407H74.1427C74.1793 24.9444 74.4355 23.5566 75.7893 23.5566Z" fill="#283583"></path><path d="M85.7904 22.8261C83.9731 22.8261 83.1804 24.36 82.8998 24.9687H82.8632V19.3079H81.1191V31.2383H82.8632V27.8296C82.8632 26.807 83.3511 24.1166 85.083 24.1166C85.9612 24.1166 86.1197 25.0539 86.1197 26.0887V31.2383H87.8638V25.2244C87.8638 24.0313 87.2418 22.8261 85.7782 22.8261H85.7904Z" fill="#283583"></path><path d="M93.4742 22.8262C90.8764 22.8262 90.3885 24.1288 90.3031 25.3462H92.1448C92.218 24.3844 92.4009 23.5444 93.4742 23.5444C94.6329 23.5444 94.6329 25.0296 94.6329 25.9305V26.661C93.5352 26.7097 90.0226 26.8314 90.0226 29.3757C90.0226 30.5201 90.974 31.4331 92.279 31.4331C93.584 31.4331 94.328 30.581 94.5963 30.1062H94.6329V31.2505H96.377V25.9427C96.377 24.3357 96.1575 22.8262 93.462 22.8262H93.4742ZM94.6329 28.3653C94.6329 29.7653 93.5352 30.3497 92.9376 30.3497C92.3643 30.3497 91.9375 29.8627 91.9375 29.1201C91.9375 27.5983 93.9133 27.4401 94.6451 27.3914V28.3531L94.6329 28.3653Z" fill="#283583"></path><path d="M102.963 22.8261C101.573 22.8261 101.024 23.6418 100.658 24.1531H100.621V19.3079H98.8773V27.16C98.8773 29.2905 99.17 31.4331 102.39 31.4331C104.573 31.4331 106.061 30.2035 106.061 27.16C106.061 24.6887 105.183 22.8139 102.963 22.8139V22.8261ZM102.39 30.7148C100.951 30.7026 100.695 29.2661 100.695 27.1722C100.695 25.6139 101.024 23.8366 102.39 23.8366C103.829 23.8366 104.158 25.7235 104.158 27.1722C104.158 28.8522 103.817 30.7148 102.39 30.7148Z" fill="#283583"></path><path d="M109.879 23.0088H108.134V31.2384H109.879V23.0088Z" fill="#283583"></path><path d="M109.952 19.3079H108.061V21.0366H109.952V19.3079Z" fill="#283583"></path><path d="M114.33 19.3079H112.586V31.2383H114.33V19.3079Z" fill="#283583"></path><path d="M118.782 23.0088H117.038V31.2384H118.782V23.0088Z" fill="#283583"></path><path d="M118.855 19.3079H116.965V21.0366H118.855V19.3079Z" fill="#283583"></path><path d="M123.795 20.0261L122.051 21.0853V23.0209H120.733V23.9218H122.051V29.3513C122.051 30.9461 123.002 31.4453 124.649 31.4453C125.051 31.4453 125.515 31.4087 125.856 31.3235V30.3253C125.612 30.4348 125.319 30.4592 125.039 30.4592C123.917 30.4592 123.795 29.8748 123.795 28.6574V23.9218H126.051V23.0209H123.795V20.0261Z" fill="#283583"></path><path d="M130.881 22.8262C128.283 22.8262 127.795 24.1288 127.71 25.3462H129.552C129.625 24.3844 129.808 23.5444 130.881 23.5444C132.04 23.5444 132.04 25.0296 132.04 25.9305V26.661C130.942 26.7097 127.429 26.8314 127.429 29.3757C127.429 30.5201 128.381 31.4331 129.686 31.4331C130.991 31.4331 131.735 30.581 132.003 30.1062H132.04V31.2505H133.784V25.9427C133.784 24.3357 133.564 22.8262 130.869 22.8262H130.881ZM132.04 28.3653C132.04 29.7653 130.942 30.3497 130.344 30.3497C129.771 30.3497 129.344 29.8627 129.344 29.1201C129.344 27.5983 131.32 27.4401 132.052 27.3914V28.3531L132.04 28.3653Z" fill="#283583"></path><path d="M136.857 29.3391C136.857 30.9339 137.809 31.433 139.455 31.433C139.858 31.433 140.321 31.3965 140.663 31.3113V30.313C140.419 30.4226 140.126 30.447 139.845 30.447C138.723 30.447 138.601 29.8626 138.601 28.6452V23.9096H140.858V23.0087H138.601V20.0139L136.857 21.073V23.0087H135.54V23.9096H136.857V29.3391Z" fill="#283583"></path><path d="M144.456 19.3079H142.565V21.0366H144.456V19.3079Z" fill="#283583"></path><path d="M144.383 23.0088H142.638V31.2384H144.383V23.0088Z" fill="#283583"></path><path d="M150.237 22.8262C147.81 22.8262 146.602 24.3479 146.602 27.1357C146.602 29.9236 147.81 31.4453 150.237 31.4453C152.664 31.4453 153.896 29.9236 153.896 27.1357C153.896 24.3479 152.664 22.8262 150.237 22.8262ZM150.237 30.7149C148.7 30.7149 148.505 28.6331 148.505 27.1357C148.505 25.6383 148.7 23.5566 150.237 23.5566C151.774 23.5566 151.993 25.6383 151.993 27.1357C151.993 28.6331 151.798 30.7149 150.237 30.7149Z" fill="#283583"></path><path d="M157.762 27.8419C157.762 26.8192 158.25 24.1288 159.982 24.1288C160.86 24.1288 161.019 25.0662 161.019 26.101V31.2506H162.775V25.2366C162.775 24.0436 162.153 22.8384 160.689 22.8384C158.872 22.8384 158.067 24.3723 157.799 24.981H157.762V23.021H156.018V31.2506H157.762V27.8419Z" fill="#283583"></path><path d="M167.41 30.3253C166.434 30.3253 165.629 29.8018 165.117 29.4609V31.0679C165.531 31.2018 166.263 31.4331 167.312 31.4331C169.056 31.4331 170.447 30.7027 170.447 28.9374C170.447 26.3079 166.666 26.174 166.666 24.6766C166.666 24.0557 167.288 23.8122 167.849 23.8122C168.678 23.8122 169.337 24.2261 169.934 24.6279V23.1427C169.642 23.0574 168.873 22.814 167.995 22.814C165.934 22.814 165.104 23.934 165.104 25.1879C165.104 27.5374 168.824 27.8296 168.824 29.2905C168.824 29.814 168.41 30.3253 167.397 30.3253H167.41Z" fill="#283583"></path><path d="M179.204 23.0087H177.216L174.349 26.3566V19.3079H172.605V31.2505H174.349V27.1235H174.386L177.399 31.2505H179.631L175.996 26.5757L179.204 23.0087Z" fill="#283583"></path><path d="M183.021 19.3079H181.277V31.2383H183.021V19.3079Z" fill="#283583"></path><path d="M187.497 23.0088H185.741V31.2384H187.497V23.0088Z" fill="#283583"></path><path d="M187.558 19.3079H185.668V21.0366H187.558V19.3079Z" fill="#283583"></path><path d="M191.876 27.8419C191.876 26.8192 192.364 24.1288 194.096 24.1288C194.974 24.1288 195.132 25.0662 195.132 26.101V31.2506H196.889V25.2366C196.889 24.0436 196.267 22.8384 194.803 22.8384C192.986 22.8384 192.181 24.3723 191.912 24.981H191.876V23.021H190.132V31.2506H191.876V27.8419Z" fill="#283583"></path><path d="M201.243 23.0088H199.486V31.2384H201.243V23.0088Z" fill="#283583"></path><path d="M201.316 19.3079H199.426V21.0366H201.316V19.3079Z" fill="#283583"></path><path d="M207.329 26.5757L210.537 23.0087H208.536L205.682 26.3566V19.3079H203.938V31.2505H205.682V27.1235H205.719L208.731 31.2505H210.963L207.329 26.5757Z" fill="#283583"></path><path d="M59.2386 52.92H60.6168L61.4217 48.9878H59.4093L59.2386 52.92Z" fill="#283583"></path><path d="M56.3358 52.92H57.7262L58.5068 48.9878H56.4943L56.3358 52.92Z" fill="#283583"></path><path d="M67.5444 40.0035C69.0568 40.0035 69.4471 41.1114 69.4471 42.3409H71.6668C71.5449 40.7705 70.8009 38.9688 67.5444 38.9688C63.922 38.9688 62.8975 41.6714 62.8975 44.8366C62.8975 48.3792 64.2635 51.2888 67.9347 51.2888C69.752 51.2888 70.8619 50.6314 71.6546 50.1444V44.2644H67.3737V45.4088H69.752V49.6453C69.4105 49.9861 68.8128 50.254 68.142 50.254C65.5808 50.254 64.9221 47.8557 64.9221 44.8366C64.9221 42.9375 65.1173 40.0157 67.5444 40.0157V40.0035Z" fill="#283583"></path><path d="M77.2041 42.6575C74.6062 42.6575 74.1183 43.9601 74.033 45.1775H75.8746C75.9478 44.2036 76.1308 43.3757 77.2041 43.3757C78.3627 43.3757 78.3627 44.8609 78.3627 45.7618V46.4923C77.265 46.5409 73.7524 46.6627 73.7524 49.207C73.7524 50.3514 74.7038 51.2644 76.0088 51.2644C77.3138 51.2644 78.0578 50.4123 78.3261 49.9375H78.3627V51.0818H80.1068V45.774C80.1068 44.167 79.8873 42.6575 77.1919 42.6575H77.2041ZM78.3627 48.1966C78.3627 49.5966 77.265 50.1809 76.6674 50.1809C76.0942 50.1809 75.6673 49.694 75.6673 48.9514C75.6673 47.4296 77.6431 47.2714 78.3749 47.2227V48.1966H78.3627Z" fill="#283583"></path><path d="M84.4854 44.9462H84.4488V42.8523H82.7047V51.0818H84.4488V47.3079C84.4488 45.0923 85.4733 44.5201 87.1564 44.4714V42.6575C85.644 42.7792 85.0464 43.8383 84.4854 44.9462Z" fill="#283583"></path><path d="M93.8157 43.9966H93.7791C93.5352 43.5462 93.0352 42.6697 91.6326 42.6697C89.4494 42.6697 88.5346 44.508 88.5346 46.9793C88.5346 49.4506 89.2664 51.2888 91.6326 51.2888C92.962 51.2888 93.5352 50.3027 93.7791 49.7549H93.8157V51.1062H95.572V39.1758H93.8157V44.021V43.9966ZM92.096 50.1688C90.6934 50.1688 90.4373 48.3306 90.4373 46.9671C90.4373 45.5306 90.73 43.668 92.096 43.668C93.6084 43.668 93.7426 45.5306 93.7426 46.9671C93.7426 48.4036 93.5352 50.1688 92.096 50.1688Z" fill="#283583"></path><path d="M101.304 42.6575C98.7065 42.6575 97.7918 44.3131 97.7918 46.6018C97.7918 49.9253 99.6335 51.2766 101.914 51.2766C102.951 51.2766 103.597 51.1062 104.317 50.814V50.0227C103.793 50.2662 103.28 50.3636 102.744 50.3636C100.268 50.3636 99.5359 47.6609 99.5359 46.0418H104.476C104.476 44.447 103.975 42.6696 101.304 42.6696V42.6575ZM99.5847 45.2383C99.6213 44.7757 99.8774 43.3879 101.231 43.3879C102.585 43.3879 102.756 44.5931 102.756 45.2383H99.5847Z" fill="#283583"></path><path d="M108.464 44.9462H108.427V42.8523H106.683V51.0818H108.427V47.3079C108.427 45.0923 109.452 44.5201 111.135 44.4714V42.6575C109.622 42.7792 109.025 43.8383 108.464 44.9462Z" fill="#283583"></path><path d="M119.294 41.6105C119.294 40.7096 120.038 40.1009 121.099 40.1009C122.404 40.1009 123.624 40.6731 124.063 40.9166V39.2731C123.6 39.1879 122.417 38.9688 121.307 38.9688C118.831 38.9688 117.392 40.0888 117.392 42.0244C117.392 45.7374 123.026 45.567 123.026 48.3061C123.026 49.5114 122.124 50.0348 120.88 50.0348C119.477 50.0348 118.087 49.2922 117.55 48.9757V50.8261C117.916 50.9601 119.233 51.2766 120.587 51.2766C122.99 51.2766 124.941 50.2905 124.941 47.7827C124.941 44.0453 119.306 44.1183 119.306 41.6105H119.294Z" fill="#283583"></path><path d="M130.052 42.6575C127.454 42.6575 126.539 44.3131 126.539 46.6018C126.539 49.9253 128.381 51.2766 130.661 51.2766C131.698 51.2766 132.345 51.1062 133.064 50.814V50.0227C132.54 50.2662 132.027 50.3636 131.491 50.3636C129.015 50.3636 128.283 47.6609 128.283 46.0418H133.223C133.223 44.447 132.723 42.6696 130.052 42.6696V42.6575ZM128.332 45.2383C128.369 44.7757 128.625 43.3879 129.978 43.3879C131.332 43.3879 131.503 44.5931 131.503 45.2383H128.332Z" fill="#283583"></path><path d="M138.431 42.6575C135.833 42.6575 134.918 44.3131 134.918 46.6018C134.918 49.9253 136.76 51.2766 139.04 51.2766C140.077 51.2766 140.724 51.1062 141.443 50.814V50.0227C140.919 50.2662 140.406 50.3636 139.87 50.3636C137.394 50.3636 136.662 47.6609 136.662 46.0418H141.602C141.602 44.447 141.102 42.6696 138.431 42.6696V42.6575ZM136.711 45.2383C136.748 44.7757 137.004 43.3879 138.357 43.3879C139.711 43.3879 139.882 44.5931 139.882 45.2383H136.711Z" fill="#283583"></path><path d="M143.273 43.0835H145.273L145.456 39.1514H144.065L143.273 43.0835Z" fill="#283583"></path><path d="M146.163 43.0835H148.176L148.346 39.1514H146.956L146.163 43.0835Z" fill="#283583"></path><path d="M159.982 40.0035C161.494 40.0035 161.885 41.1114 161.885 42.3409H164.104C163.982 40.7705 163.238 38.9688 159.982 38.9688C156.36 38.9688 155.335 41.6714 155.335 44.8366C155.335 48.3792 156.701 51.2888 160.372 51.2888C162.189 51.2888 163.299 50.6314 164.092 50.1444V44.2644H159.811V45.4088H162.189V49.6453C161.848 49.9861 161.25 50.254 160.58 50.254C158.018 50.254 157.36 47.8557 157.36 44.8366C157.36 42.9375 157.555 40.0157 159.982 40.0157V40.0035Z" fill="#283583"></path><path d="M175.52 42.6575C173.886 42.6575 173.325 44.0575 173.02 44.7027H172.983C172.935 43.8383 172.398 42.6575 170.934 42.6575C169.361 42.6575 168.629 44.1792 168.446 44.8001H168.41V42.8523H166.666V51.0818H168.41V47.6731C168.41 46.7966 168.605 43.9601 170.215 43.9601C171.166 43.9601 171.252 44.8975 171.252 45.9323V51.0818H172.996V47.661C172.996 46.6627 173.288 43.9601 174.837 43.9601C175.703 43.9601 175.837 44.8244 175.837 45.774V51.0818H177.582V45.494C177.582 44.094 177.252 42.6575 175.508 42.6575H175.52Z" fill="#283583"></path><path d="M184.314 42.6574C182.924 42.6574 182.375 43.4731 182.009 43.9844H181.972V39.1392H180.228V46.9913C180.228 49.1218 180.521 51.2644 183.741 51.2644C185.924 51.2644 187.412 50.0348 187.412 46.9913C187.412 44.52 186.534 42.6452 184.314 42.6452V42.6574ZM183.741 50.5461C182.302 50.5339 182.045 49.0974 182.045 47.0035C182.045 45.4452 182.375 43.6679 183.741 43.6679C185.18 43.6679 185.509 45.5548 185.509 47.0035C185.509 48.6835 185.168 50.5461 183.741 50.5461Z" fill="#283583"></path><path d="M195.986 44.3009H191.644V39.1514H189.729V51.0818H191.644V45.4453H195.986V51.0818H197.889V39.1514H195.986V44.3009Z" fill="#283583"></path></g><defs><clipPath id="clip0_2_3"><rect width="211" height="56" fill="white"></rect></clipPath></defs></svg>