<svg xmlns="http://www.w3.org/2000/svg" width="266" height="112" viewBox="0 0 266 112" fill="none"><g clip-path="url(#clip0)"><path fill-rule="evenodd" clip-rule="evenodd" d="M29.5678 3.99364C29.7597 3.9186 29.802 4.04943 29.8365 4.18603C30.205 4.41498 29.871 4.27454 29.6043 4.22259C29.7559 5.14224 30.8728 3.73775 30.4084 4.81325C32.0665 4.08791 30.0073 2.83349 30.4084 1.71375C31.722 1.77564 33.0023 2.14812 34.1449 2.80078C34.0701 2.33903 33.4655 2.60839 33.5366 1.9427C39.5703 2.91815 44.3911 6.59869 49.0565 10.0233C62.7935 20.0972 76.638 30.4962 85.9303 46.975C86.2815 47.5618 86.1587 48.1621 85.986 48.8739C94.6642 49.6435 104.751 51.4059 112.938 53.9821C115.003 54.6324 116.613 54.642 117.392 56.6294C114.943 55.5886 110.614 53.807 107.58 56.2446C105.455 55.654 102.398 56.0792 100.416 57.5914C91.4267 54.8382 80.0194 56.7757 68.8041 57.7357C64.3537 58.1205 58.1607 58.9997 52.9753 59.9579C52.4398 59.9098 52.7143 60.4543 52.3496 60.5351C45.4408 61.7356 41 65.8241 34.7744 66.8418C34.9221 66.4012 35.5228 66.2896 35.828 65.9645C35.4557 64.9236 36.9929 64.0829 36.3596 63.2575C36.7875 63.1574 37.1119 62.9843 37.2174 62.6476C35.4403 63.3113 37.3076 62.5283 37.5744 61.878C37.1061 61.1084 35.686 61.6414 34.8742 61.3431C35.2311 59.8848 36.515 59.1056 37.9985 58.4726C37.8776 58.1667 37.3863 58.3687 37.0389 58.3841C42.4892 52.212 55.6083 49.8782 66.7852 49.2318C65.6338 47.4675 63.3443 45.938 60.7439 47.0693C60.1221 46.4151 59.3256 46.0034 58.7921 45.2261C57.2703 46.2977 56.1591 44.5662 54.2726 45.2146C51.2596 41.7726 46.836 40.3181 42.7579 38.421C38.7278 36.5413 34.5153 34.6328 30.1014 33.4726C29.6197 32.9089 28.7925 32.8204 28.259 32.3182C25.4245 32.0643 23.1119 31.0946 20.9817 29.8729C20.1392 29.9768 18.7517 29.692 17.9802 28.9109C17.2433 28.8532 17.3584 29.4188 16.6215 29.3592C14.9423 28.6723 12.9329 28.5761 10.7586 28.3645C7.39822 28.0355 3.65787 28.6146 1.69653 26.6733C1.88925 26.6003 2.09477 26.5672 2.30061 26.5761C2.50646 26.5851 2.70835 26.6358 2.89406 26.7253C3.70393 26.5329 1.97671 26.2231 2.78658 26.0269C3.14545 25.7921 4.44854 25.2034 3.80372 24.9148C4.153 24.4838 4.99353 24.4107 5.59038 24.1606C5.35433 22.7888 3.83059 23.1852 3.56767 21.8519C4.61551 21.3228 5.92433 20.8014 7.24852 21.0419C7.02779 20.8581 6.76331 20.7348 6.48087 20.684C14.3281 17.952 21.7321 20.8033 28.2858 23.2564C43.491 28.9455 57.75 37.7246 68.1823 49.0067C74.1873 48.6777 79.8717 48.7912 85.535 48.9316C84.3662 45.9226 83.0401 43.1194 79.4533 43.4387C78.1694 41.3474 75.1334 40.4489 73.2296 40.1141C70.825 35.9026 66.814 33.3803 63.2118 30.7021C61.3829 29.3419 59.4945 28.097 57.6138 26.8041C55.8002 25.5555 54.1287 24.0125 52.0483 23.1486C49.5803 20.5089 45.8055 19.6624 43.6599 16.5821C42.2589 16.5263 41.6659 15.3643 40.7448 14.6582C40.1825 14.2233 40.0251 14.9795 39.5472 14.6062C35.4096 10.7756 29.2089 9.77323 25.9004 4.80556C27.1401 5.72329 27.5911 4.25722 28.7963 5.07105C29.0106 4.68292 29.2696 4.32132 29.5678 3.99364Z" fill="#141414"></path><path fill-rule="evenodd" clip-rule="evenodd" d="M67.1632 1.01149C68.4836 0.894124 69.0824 1.75991 69.7732 2.51217C70.1033 2.35633 69.6351 2.22935 69.6658 1.81378C74.5729 3.53187 77.7452 8.46492 81.4011 13.1036C88.1795 21.7056 94.6009 30.4366 100.09 41.6744C101.535 44.6297 103.22 47.5137 102.744 49.6089C101.195 47.5926 100.748 44.0679 97.2339 44.7412C97.0842 44.0063 96.5488 43.7985 96.4816 42.952C94.739 42.8923 94.0194 41.4359 92.4054 41.1992C90.8816 36.9858 87.8916 34.0633 85.3718 31.0869C82.7925 28.0413 80.0309 25.2881 77.5514 22.0443C75.9989 20.5974 74.4559 19.1372 73.4349 16.9611C72.7824 16.2589 71.9745 15.7664 71.6463 14.6178C71.5292 14.0233 70.7232 14.3773 70.3758 14.0983C68.0844 9.88866 63.1792 7.80307 62.3923 2.46408C63.0577 2.94781 63.8433 3.23809 64.6626 3.30293C65.2384 3.32602 64.8545 2.84695 65.0464 2.76614C65.4475 2.59875 65.5665 3.32024 65.8505 3.35487C66.5625 3.44145 65.317 2.72189 66.0425 3.08552C67.3647 3.7416 66.9963 2.53911 67.1632 1.01149Z" fill="#141414"></path><path fill-rule="evenodd" clip-rule="evenodd" d="M113.955 39.0425C114.945 39.3773 114.819 41.2454 115.78 41.6206C116.164 40.8048 114.661 40.1545 114.65 38.9271C115.709 38.8886 115.843 40.1141 116.377 40.8068C116.479 41.232 117.185 40.826 117.377 41.1281C120.923 44.0602 126.18 45.2877 130.126 48.2063C132.025 49.6108 133.3 51.4771 135.369 52.8758C138.407 61.6856 126.475 64.3522 120.482 67.3517C120.023 66.9496 120.457 67.0516 120.338 66.4205C119.135 66.6571 118.116 66.6418 117.64 65.8856C117.818 64.6408 119.559 64.5389 120.674 63.9828C119.837 63.3826 118.908 64.4657 117.887 64.4157C117.402 63.9886 117.258 63.8097 117.44 63.0555C116.481 63.0401 116.147 63.4845 115.385 63.6134C114.924 63.2094 115.36 63.3133 115.241 62.6803C113.253 62.74 111.595 64.1348 109.935 63.7443C110.338 62.4783 112.099 62.6091 113.042 62.3071C118.229 60.6325 123.228 58.4174 127.955 55.6982C121.981 49.2106 110.512 50.2534 108.797 37.9304C109.649 37.892 109.683 38.9732 110.211 39.3792C110.476 39.3003 110.339 38.9251 110.334 38.6462C110.952 38.8385 111.366 39.3022 111.712 39.8621C112.397 39.3753 113.034 39.687 113.247 40.5759C114.168 39.6697 112.65 38.802 113.955 39.0425Z" fill="#141414"></path><path d="M4.89375 96.8461C4.61932 96.8461 4.30075 96.8461 3.93419 96.8345C3.56764 96.823 3.18381 96.8153 2.7712 96.798L1.50269 96.746C1.06897 96.7268 0.646751 96.6999 0.239898 96.6691C0.207499 96.6716 0.174949 96.6669 0.144598 96.6552C0.114248 96.6436 0.086854 96.6253 0.0644323 96.6017C0.0420106 96.5781 0.025104 96.5499 0.0149551 96.5189C0.00480626 96.488 0.00168151 96.4551 0.00577185 96.4228V79.4919C0.00168151 79.4596 0.00480626 79.4268 0.0149551 79.3958C0.025104 79.3649 0.0420106 79.3366 0.0644323 79.313C0.086854 79.2894 0.114248 79.2711 0.144598 79.2595C0.174949 79.2478 0.207499 79.2431 0.239898 79.2457C0.575743 79.2226 0.949989 79.1995 1.3626 79.1822C1.77521 79.1649 2.19547 79.1398 2.63111 79.1225C3.06675 79.1052 3.49855 79.0879 3.92843 79.0821C4.35831 79.0763 4.76326 79.0686 5.1394 79.0686C6.32125 79.0551 7.50255 79.1259 8.6744 79.2803C9.48522 79.3743 10.2707 79.6224 10.9889 80.0114C11.5511 80.3271 11.9966 80.8163 12.2593 81.4063C12.5373 82.1082 12.668 82.8601 12.6431 83.615C12.6571 84.2622 12.5204 84.9038 12.244 85.4889C11.985 86.0131 11.6063 86.4686 11.1386 86.8184C11.484 87.0053 11.8061 87.2327 12.0981 87.4956C12.3912 87.764 12.6445 88.073 12.8504 88.4133C13.0687 88.7802 13.2365 89.175 13.3494 89.587C13.4749 90.0516 13.5362 90.5313 13.5317 91.0126V91.4243C13.5317 92.6172 13.3398 93.5708 12.956 94.2853C12.58 94.9923 11.9947 95.5649 11.2806 95.9245C10.4302 96.3338 9.51262 96.5849 8.57268 96.6652C7.35057 96.7927 6.12244 96.853 4.89375 96.8461ZM6.02217 82.7357C5.694 82.7357 5.38886 82.7357 5.11251 82.7357C4.83616 82.7357 4.5061 82.753 4.13187 82.7761V86.1104H6.91459C7.12513 86.1042 7.33433 86.0745 7.5383 86.0218C7.72418 85.9762 7.89694 85.888 8.043 85.764C8.19164 85.629 8.30666 85.461 8.37885 85.2734C8.46666 85.0266 8.50832 84.7658 8.5017 84.5038V84.3384C8.51433 84.0439 8.45984 83.7505 8.3424 83.4803C8.24175 83.2727 8.07682 83.1033 7.87222 82.9974C7.63191 82.8787 7.37153 82.8063 7.10458 82.7838C6.78025 82.7569 6.42906 82.7357 6.01453 82.7357H6.02217ZM9.39407 91.3224C9.40479 91.0336 9.35238 90.746 9.24053 90.4797C9.14764 90.2726 8.99702 90.0969 8.80681 89.9737C8.59531 89.8442 8.35951 89.7597 8.11403 89.7255C7.80646 89.6808 7.49594 89.6596 7.18516 89.662H4.12611V93.1463C4.2259 93.1463 4.35448 93.1578 4.50993 93.1636L4.96858 93.1751L5.40422 93.1867H5.73814C6.43542 93.1867 7.01693 93.1687 7.48264 93.1328C7.86544 93.1157 8.2437 93.0424 8.60534 92.9154C8.85825 92.8295 9.07248 92.6563 9.20984 92.4267C9.34244 92.1623 9.4052 91.8682 9.39215 91.5725L9.39407 91.3224Z" fill="#141414"></path><path d="M25.5051 96.6345C25.4385 96.6373 25.3724 96.6227 25.3132 96.5921C25.2546 96.5496 25.2099 96.4907 25.1846 96.4228L22.4978 90.6259H22.1562C21.8511 90.6259 21.5459 90.6259 21.2408 90.6086C20.9357 90.5913 20.5902 90.5797 20.2064 90.5567V96.3997C20.211 96.4318 20.208 96.4645 20.1977 96.4952C20.1874 96.5259 20.1701 96.5537 20.1471 96.5765C20.1242 96.5993 20.0963 96.6164 20.0656 96.6265C20.0349 96.6366 20.0023 96.6393 19.9704 96.6345H16.3241C16.2921 96.6393 16.2595 96.6366 16.2288 96.6265C16.1981 96.6164 16.1702 96.5993 16.1472 96.5765C16.1243 96.5537 16.107 96.5259 16.0967 96.4952C16.0864 96.4645 16.0835 96.4318 16.088 96.3997V79.4958C16.0839 79.4633 16.087 79.4303 16.0973 79.3992C16.1075 79.3681 16.1246 79.3397 16.1473 79.3161C16.1699 79.2924 16.1976 79.2742 16.2281 79.2627C16.2587 79.2512 16.2915 79.2467 16.3241 79.2495C17.2798 79.1867 18.2041 79.1418 19.0972 79.1148C19.9902 79.0879 20.8672 79.0738 21.7283 79.0725C22.8247 79.0725 23.7843 79.1078 24.6069 79.1783C25.326 79.2317 26.0393 79.3463 26.7391 79.5208C27.2609 79.6469 27.76 79.8533 28.2187 80.1326C28.5964 80.3708 28.9158 80.691 29.1533 81.0696C29.3948 81.4712 29.56 81.9141 29.6408 82.376C29.7401 82.9418 29.787 83.5157 29.7809 84.0902V85.6563C29.7966 86.4127 29.7082 87.1676 29.518 87.8997C29.3543 88.4874 29.0163 89.0114 28.5488 89.4023C28.0946 89.7794 27.405 90.0699 26.48 90.2738C26.6143 90.4855 26.7525 90.7106 26.8964 90.9511C27.0404 91.1916 27.192 91.459 27.3494 91.7591L29.8442 96.4228C29.9152 96.5633 29.8711 96.6345 29.7156 96.6345H25.5051ZM21.9739 82.7357H21.546L21.0815 82.7473C20.9242 82.7473 20.7706 82.7588 20.6171 82.7723L20.2007 82.8012V86.8876C20.7015 86.9338 21.333 86.9588 22.0929 86.9588C22.8196 86.9588 23.4145 86.9409 23.8777 86.905C24.2494 86.8907 24.6157 86.8112 24.9601 86.6702C25.1972 86.5683 25.3876 86.3809 25.4936 86.145C25.6017 85.8556 25.6513 85.5476 25.6394 85.2388V84.4481C25.6508 84.1398 25.6032 83.8322 25.4994 83.5419C25.3942 83.3038 25.2008 83.1162 24.9601 83.0186C24.6038 82.8772 24.226 82.7978 23.8431 82.7838C23.3646 82.7518 22.7416 82.7357 21.9739 82.7357Z" fill="#141414"></path><path d="M39.6297 96.9942C38.5999 97.0063 37.5723 96.8952 36.5687 96.6633C35.7437 96.4772 34.9682 96.1156 34.2946 95.6032C33.6675 95.1053 33.1818 94.4512 32.886 93.7061C32.5414 92.801 32.3777 91.8368 32.4043 90.8683V79.49C32.3998 79.4581 32.4028 79.4256 32.4129 79.3951C32.4231 79.3646 32.4402 79.3368 32.4629 79.3141C32.4856 79.2913 32.5133 79.2742 32.5438 79.2639C32.5742 79.2537 32.6066 79.2508 32.6384 79.2553H36.2847C36.3165 79.2508 36.3489 79.2537 36.3794 79.2639C36.4098 79.2742 36.4374 79.2913 36.4601 79.3141C36.4828 79.3368 36.5 79.3646 36.5102 79.3951C36.5204 79.4256 36.5233 79.4581 36.5188 79.49V89.9275C36.5102 90.407 36.5637 90.8856 36.6781 91.3512C36.7666 91.7128 36.9486 92.0447 37.2059 92.3132C37.4736 92.573 37.8044 92.758 38.1655 92.85C38.6442 92.9692 39.1366 93.0242 39.6297 93.0135C40.1108 93.0227 40.5909 92.9677 41.0575 92.85C41.418 92.7565 41.7484 92.5717 42.0171 92.3132C42.2803 92.0451 42.4706 91.7139 42.5698 91.3512C42.6964 90.8876 42.7558 90.4081 42.7464 89.9275V79.49C42.7418 79.4579 42.7448 79.4252 42.7551 79.3946C42.7654 79.3639 42.7826 79.336 42.8056 79.3132C42.8285 79.2904 42.8564 79.2733 42.8871 79.2632C42.9178 79.2532 42.9505 79.2504 42.9824 79.2553H46.5999C46.6317 79.2508 46.6641 79.2537 46.6946 79.2639C46.725 79.2742 46.7527 79.2913 46.7754 79.3141C46.7981 79.3368 46.8152 79.3646 46.8254 79.3951C46.8356 79.4256 46.8385 79.4581 46.8341 79.49V90.8683C46.861 91.8378 46.6933 92.8029 46.3408 93.7061C46.0373 94.4521 45.5452 95.1058 44.913 95.6032C44.241 96.1135 43.4684 96.4749 42.6466 96.6633C41.6578 96.8941 40.6449 97.0052 39.6297 96.9942ZM35.281 77.818C35.2492 77.8225 35.2168 77.8196 35.1864 77.8093C35.1559 77.7991 35.1283 77.782 35.1056 77.7592C35.0829 77.7364 35.0657 77.7087 35.0556 77.6782C35.0454 77.6477 35.0424 77.6152 35.0469 77.5833V75.0379C35.0437 75.0046 35.0474 74.9711 35.0576 74.9393C35.0678 74.9074 35.0843 74.878 35.1062 74.8528C35.1281 74.8276 35.1549 74.8071 35.185 74.7927C35.215 74.7782 35.2477 74.77 35.281 74.7686L38.5953 74.3549C38.7508 74.3318 38.8295 74.3992 38.8295 74.5473V77.5756C38.8339 77.6075 38.8309 77.64 38.8207 77.6705C38.8106 77.701 38.7935 77.7288 38.7708 77.7515C38.748 77.7743 38.7204 77.7914 38.6899 77.8016C38.6595 77.8119 38.6271 77.8148 38.5953 77.8104L35.281 77.818ZM40.6545 77.818C40.6227 77.8229 40.5901 77.8203 40.5594 77.8102C40.5288 77.8001 40.5009 77.783 40.4781 77.7601C40.4553 77.7373 40.4382 77.7094 40.4282 77.6786C40.4182 77.6479 40.4155 77.6153 40.4204 77.5833V75.0379C40.417 75.0046 40.4204 74.9709 40.4305 74.939C40.4406 74.907 40.4571 74.8775 40.4791 74.8522C40.501 74.827 40.5279 74.8065 40.5581 74.7921C40.5883 74.7777 40.6211 74.7697 40.6545 74.7686L43.9554 74.3549C44.1128 74.3318 44.1914 74.3992 44.1914 74.5473V77.5756C44.196 77.6077 44.193 77.6404 44.1827 77.6711C44.1724 77.7018 44.1552 77.7296 44.1322 77.7524C44.1093 77.7752 44.0814 77.7923 44.0507 77.8024C44.02 77.8124 43.9873 77.8152 43.9554 77.8104L40.6545 77.818Z" fill="#141414"></path><path d="M54.8636 96.9942C53.9338 96.9976 53.0047 96.9462 52.0809 96.8403C51.3234 96.7575 50.5729 96.6193 49.8355 96.4267C49.8027 96.4224 49.7711 96.4111 49.743 96.3935C49.7149 96.3759 49.6909 96.3524 49.6727 96.3246C49.6545 96.2968 49.6424 96.2655 49.6374 96.2326C49.6324 96.1997 49.6345 96.1662 49.6436 96.1342L50.1848 92.9539C50.1861 92.9218 50.1946 92.8904 50.2099 92.8621C50.2252 92.8338 50.2467 92.8095 50.2729 92.7909C50.299 92.7723 50.3291 92.76 50.3607 92.7549C50.3924 92.7498 50.4248 92.7521 50.4554 92.7615C50.8853 92.8308 51.2768 92.8898 51.6299 92.9385C51.9831 92.9847 52.3189 93.0213 52.6413 93.0501C52.9637 93.079 53.2823 93.0982 53.6009 93.1136C53.9194 93.129 54.2649 93.1386 54.6333 93.1386C55.3472 93.1386 55.9153 93.1175 56.3433 93.079C56.6793 93.0608 57.0102 92.9893 57.3239 92.8674C57.5199 92.7931 57.6814 92.6483 57.7769 92.4614C57.8561 92.2607 57.894 92.0461 57.8881 91.8303C57.8916 91.678 57.8552 91.5275 57.7826 91.3936C57.6768 91.2324 57.5389 91.0949 57.3777 90.9896C57.112 90.8037 56.833 90.6377 56.5428 90.4932C56.1859 90.3085 55.7259 90.0789 55.163 89.8044L53.1422 88.8424C52.4451 88.524 51.7864 88.127 51.1789 87.6592C50.7281 87.3078 50.3323 86.8908 50.0045 86.4221C49.7378 86.0364 49.5427 85.6055 49.4287 85.1503C49.328 84.7274 49.2771 84.2941 49.2771 83.8593C49.253 83.0586 49.3989 82.2618 49.7051 81.5217C49.9876 80.891 50.447 80.3562 51.0273 79.9826C51.7207 79.5586 52.491 79.2768 53.2938 79.1533C54.372 78.976 55.4637 78.8935 56.5563 78.9071C57.3529 78.9051 58.1491 78.9442 58.9417 79.0244C59.6509 79.092 60.3516 79.2299 61.0336 79.4362C61.0664 79.441 61.0978 79.4527 61.1258 79.4706C61.1537 79.4885 61.1776 79.5122 61.1957 79.54C61.2139 79.5678 61.2259 79.5992 61.231 79.6321C61.2362 79.6649 61.2343 79.6985 61.2255 79.7305L60.6728 82.7935C60.6692 82.8258 60.6587 82.8569 60.642 82.8848C60.6253 82.9126 60.6027 82.9365 60.5759 82.9548C60.5491 82.9731 60.5187 82.9853 60.4867 82.9907C60.4547 82.996 60.422 82.9944 60.3907 82.9859C60.0855 82.9455 59.7727 82.9108 59.4503 82.8801C59.1279 82.8493 58.8208 82.8223 58.5215 82.8031C58.2221 82.7839 57.9458 82.7685 57.6886 82.7608C57.4314 82.7531 57.2145 82.7492 57.0418 82.7492C56.4239 82.7492 55.8904 82.7492 55.4509 82.78C55.0828 82.7893 54.7164 82.8344 54.357 82.9147C54.1244 82.9589 53.9078 83.0645 53.7294 83.2206C53.6625 83.2933 53.6109 83.3789 53.578 83.4721C53.545 83.5654 53.5312 83.6644 53.5375 83.7632C53.5343 83.9296 53.5684 84.0946 53.6373 84.2461C53.7293 84.4177 53.8609 84.5648 54.0211 84.6751C54.2725 84.856 54.5397 85.0138 54.8195 85.1465C55.1611 85.3139 55.6044 85.5313 56.1533 85.7641L58.4677 86.8011C59.0994 87.0778 59.7051 87.4107 60.2775 87.7958C60.7144 88.0901 61.098 88.4571 61.4117 88.8809C61.6871 89.2673 61.8864 89.7028 61.9989 90.1642C62.1176 90.6841 62.1743 91.2162 62.1678 91.7495C62.1808 92.5155 62.072 93.2786 61.8454 94.0102C61.6318 94.6599 61.2312 95.2316 60.6939 95.6532C60.0304 96.1475 59.2664 96.4891 58.4562 96.6537C57.2754 96.9027 56.0701 97.0169 54.8636 96.9942Z" fill="#141414"></path><path d="M64.8737 96.6344C64.8419 96.6389 64.8095 96.6359 64.7791 96.6257C64.7486 96.6155 64.721 96.5984 64.6983 96.5756C64.6756 96.5529 64.6585 96.5251 64.6483 96.4946C64.6381 96.4641 64.6351 96.4316 64.6396 96.3997V79.4958C64.6351 79.4639 64.6381 79.4314 64.6483 79.4009C64.6585 79.3704 64.6756 79.3427 64.6983 79.3199C64.721 79.2971 64.7486 79.28 64.7791 79.2698C64.8095 79.2596 64.8419 79.2566 64.8737 79.2611H75.8357C75.8675 79.2566 75.8999 79.2596 75.9303 79.2698C75.9608 79.28 75.9885 79.2971 76.0112 79.3199C76.0339 79.3427 76.051 79.3704 76.0612 79.4009C76.0713 79.4314 76.0743 79.4639 76.0698 79.4958V82.8896C76.0743 82.9215 76.0713 82.954 76.0612 82.9845C76.051 83.0151 76.0339 83.0428 76.0112 83.0656C75.9885 83.0883 75.9608 83.1055 75.9303 83.1157C75.8999 83.1259 75.8675 83.1289 75.8357 83.1244H68.7638V85.9757H74.1373C74.1696 85.9718 74.2023 85.9756 74.2329 85.9868C74.2634 85.9979 74.2909 86.0162 74.3132 86.0399C74.3354 86.0637 74.3517 86.0924 74.3608 86.1237C74.37 86.155 74.3716 86.188 74.3657 86.22V89.6004C74.3702 89.6325 74.3672 89.6652 74.357 89.6959C74.3467 89.7266 74.3294 89.7544 74.3065 89.7772C74.2835 89.8 74.2556 89.8171 74.2249 89.8272C74.1942 89.8372 74.1616 89.84 74.1296 89.8352H68.7561V92.7615H75.8281C75.86 92.757 75.8926 92.76 75.9232 92.7703C75.9538 92.7806 75.9816 92.7979 76.0044 92.8209C76.0271 92.8439 76.0442 92.8719 76.0542 92.9027C76.0643 92.9334 76.067 92.9661 76.0622 92.9982V96.392C76.0667 96.4239 76.0637 96.4564 76.0535 96.4869C76.0433 96.5174 76.0262 96.5452 76.0035 96.5679C75.9808 96.5907 75.9531 96.6078 75.9227 96.6181C75.8922 96.6283 75.8599 96.6312 75.8281 96.6267L64.8737 96.6344Z" fill="#141414"></path><path d="M81.0059 96.6344C80.9725 96.6379 80.9388 96.6344 80.9068 96.6243C80.8749 96.6142 80.8453 96.5977 80.82 96.5757C80.7946 96.5537 80.774 96.5267 80.7595 96.4965C80.7449 96.4662 80.7367 96.4333 80.7353 96.3997L77.8451 79.4958C77.8201 79.3399 77.8873 79.261 78.037 79.261H82.1957C82.2282 79.2574 82.261 79.2603 82.2923 79.2696C82.3236 79.2788 82.3527 79.2942 82.378 79.3149C82.4209 79.3663 82.4476 79.4292 82.4548 79.4958L83.4642 90.5085L83.7118 93.1116C83.7655 92.798 83.8135 92.5171 83.8519 92.2709C83.8903 92.0246 83.9402 91.7456 83.9997 91.4397C84.0592 91.1338 84.1187 90.8318 84.1916 90.5336L86.6001 79.4958C86.6069 79.4273 86.6403 79.3643 86.6931 79.3204C86.7459 79.2765 86.8138 79.2551 86.8822 79.261H90.4537C90.5219 79.2556 90.5896 79.2771 90.6423 79.321C90.6949 79.3648 90.7285 79.4275 90.7358 79.4958L93.1903 90.4624C93.2441 90.7356 93.3016 91.028 93.3611 91.3339C93.4206 91.6398 93.4705 91.9265 93.5127 92.1939C93.555 92.4614 93.6049 92.7711 93.6605 93.1116L93.9081 90.4393L94.8926 79.4958C94.9006 79.4294 94.9273 79.3667 94.9694 79.3149C94.9959 79.2932 95.0267 79.2772 95.0597 79.2679C95.0927 79.2587 95.1273 79.2563 95.1613 79.261H99.3449C99.5004 79.261 99.5675 79.3399 99.5368 79.4958L96.6467 96.3997C96.645 96.4332 96.6366 96.466 96.6219 96.4961C96.6073 96.5263 96.5867 96.5531 96.5614 96.575C96.5361 96.597 96.5066 96.6135 96.4748 96.6237C96.4429 96.634 96.4093 96.6376 96.376 96.6344H91.4266C91.3588 96.6404 91.2912 96.6208 91.2369 96.5796C91.1827 96.5383 91.1457 96.4783 91.1331 96.4112L88.951 87.5668C88.9126 87.4244 88.8761 87.2705 88.8454 87.1012C88.8147 86.9319 88.786 86.7684 88.7572 86.6125C88.7284 86.4567 88.7073 86.3181 88.6862 86.2008C88.6724 86.127 88.6628 86.0525 88.6574 85.9776C88.6574 85.9988 88.6574 86.068 88.6344 86.1835C88.6113 86.2989 88.5998 86.4336 88.5768 86.5952C88.5538 86.7568 88.5231 86.9223 88.4866 87.0954C88.4501 87.2686 88.4175 87.4244 88.3868 87.5668L86.2124 96.417C86.2002 96.484 86.1636 96.5439 86.1097 96.5852C86.0557 96.6265 85.9883 96.6461 85.9207 96.6402L81.0059 96.6344Z" fill="#141414"></path><path d="M102.21 96.6344C102.178 96.6389 102.146 96.6359 102.116 96.6257C102.085 96.6155 102.057 96.5984 102.035 96.5756C102.012 96.5529 101.995 96.5251 101.985 96.4946C101.975 96.4641 101.972 96.4316 101.976 96.3997V79.4958C101.972 79.4639 101.975 79.4314 101.985 79.4009C101.995 79.3704 102.012 79.3427 102.035 79.3199C102.057 79.2971 102.085 79.28 102.116 79.2698C102.146 79.2596 102.178 79.2566 102.21 79.2611H105.856C105.888 79.2566 105.921 79.2596 105.951 79.2698C105.982 79.28 106.009 79.2971 106.032 79.3199C106.055 79.3427 106.072 79.3704 106.082 79.4009C106.092 79.4314 106.095 79.4639 106.091 79.4958V96.3997C106.095 96.4316 106.092 96.4641 106.082 96.4946C106.072 96.5251 106.055 96.5529 106.032 96.5756C106.009 96.5984 105.982 96.6155 105.951 96.6257C105.921 96.6359 105.888 96.6389 105.856 96.6344H102.21Z" fill="#141414"></path><path d="M113.184 96.6345C113.152 96.639 113.119 96.636 113.089 96.6258C113.059 96.6156 113.031 96.5984 113.008 96.5757C112.985 96.5529 112.968 96.5252 112.958 96.4946C112.948 96.4641 112.945 96.4317 112.95 96.3998V83.1244H108.449C108.417 83.1289 108.385 83.1259 108.355 83.1157C108.324 83.1055 108.296 83.0884 108.274 83.0656C108.251 83.0428 108.234 83.0151 108.224 82.9846C108.214 82.9541 108.211 82.9216 108.215 82.8897V79.4958C108.211 79.464 108.214 79.4315 108.224 79.401C108.234 79.3704 108.251 79.3427 108.274 79.3199C108.296 79.2972 108.324 79.28 108.355 79.2698C108.385 79.2596 108.417 79.2566 108.449 79.2611H121.576C121.608 79.2563 121.64 79.259 121.671 79.2691C121.702 79.2791 121.73 79.2963 121.753 79.3191C121.776 79.3419 121.793 79.3697 121.803 79.4004C121.814 79.4311 121.817 79.4638 121.812 79.4958V82.8897C121.817 82.9217 121.814 82.9544 121.803 82.9851C121.793 83.0158 121.776 83.0437 121.753 83.0665C121.73 83.0893 121.702 83.1064 121.671 83.1164C121.64 83.1265 121.608 83.1293 121.576 83.1244H117.064V96.3998C117.069 96.4317 117.066 96.4641 117.055 96.4946C117.045 96.5252 117.028 96.5529 117.005 96.5757C116.983 96.5984 116.955 96.6156 116.925 96.6258C116.894 96.636 116.862 96.639 116.83 96.6345H113.184Z" fill="#141414"></path><path d="M123.336 96.6345C123.304 96.6393 123.271 96.6366 123.241 96.6265C123.21 96.6164 123.182 96.5993 123.159 96.5765C123.136 96.5537 123.119 96.5259 123.108 96.4952C123.098 96.4645 123.095 96.4318 123.1 96.3997V93.2541C123.099 93.1008 123.148 92.9515 123.24 92.8289L130.995 82.8666H123.702C123.67 82.8707 123.638 82.8674 123.608 82.857C123.577 82.8465 123.55 82.8292 123.527 82.8063C123.504 82.7834 123.487 82.7556 123.477 82.725C123.467 82.6944 123.464 82.6619 123.468 82.6299V79.4958C123.464 79.4639 123.467 79.4314 123.477 79.4009C123.487 79.3704 123.504 79.3427 123.527 79.3199C123.55 79.2971 123.577 79.28 123.608 79.2698C123.638 79.2596 123.671 79.2566 123.702 79.2611H135.641C135.673 79.257 135.705 79.2602 135.735 79.2706C135.766 79.2809 135.793 79.2981 135.816 79.3208C135.838 79.3435 135.855 79.371 135.866 79.4013C135.876 79.4317 135.879 79.464 135.875 79.4958V82.6299C135.876 82.7829 135.826 82.9318 135.733 83.0532L127.992 93.0174H135.768C135.8 93.0129 135.833 93.016 135.863 93.0263C135.894 93.0366 135.922 93.0539 135.945 93.0768C135.967 93.0998 135.985 93.1277 135.995 93.1585C136.005 93.1892 136.008 93.2219 136.004 93.2541V96.3997C136.008 96.4318 136.005 96.4645 135.995 96.4952C135.985 96.5259 135.968 96.5537 135.945 96.5765C135.922 96.5993 135.894 96.6164 135.863 96.6265C135.832 96.6366 135.8 96.6393 135.768 96.6345H123.336Z" fill="#141414"></path></g><path d="M0 111.883L2.58369 104.351H4.1381L6.71129 111.883H5.2409L4.60023 110.07H2.11106L1.48089 111.883H0ZM2.32112 108.854H4.39017L3.35039 105.825L2.32112 108.854Z" fill="#141414"></path><path d="M9.16615 112C8.57099 112 8.10537 111.817 7.76928 111.45C7.44019 111.076 7.27565 110.53 7.27565 109.813V106.339H8.69353V109.778C8.69353 110.152 8.77405 110.425 8.93509 110.596C9.09614 110.76 9.3377 110.842 9.65979 110.842C9.90485 110.842 10.1289 110.788 10.332 110.678C10.542 110.569 10.7206 110.433 10.8676 110.269V106.339H12.2855V111.883H10.9726L10.9201 111.357C10.7101 111.544 10.4615 111.7 10.1744 111.825C9.89435 111.942 9.55826 112 9.16615 112Z" fill="#141414"></path><path d="M15.4669 112C14.8928 112 14.4657 111.832 14.1856 111.497C13.9125 111.162 13.776 110.706 13.776 110.129V107.556H13.0723V106.339H13.776V105.146L15.1939 104.678V106.339H16.4542L16.3702 107.556H15.1939V110.023C15.1939 110.327 15.2569 110.538 15.3829 110.655C15.5089 110.764 15.705 110.819 15.9711 110.819C16.1671 110.819 16.3702 110.78 16.5802 110.702V111.789C16.4262 111.86 16.2581 111.91 16.0761 111.942C15.894 111.981 15.691 112 15.4669 112Z" fill="#141414"></path><path d="M19.797 112C18.8658 112 18.1831 111.75 17.749 111.251C17.3149 110.745 17.0978 110.031 17.0978 109.111C17.0978 108.191 17.3149 107.481 17.749 106.982C18.1901 106.476 18.8728 106.222 19.797 106.222C20.7283 106.222 21.411 106.476 21.8451 106.982C22.2862 107.481 22.5068 108.191 22.5068 109.111C22.5068 110.031 22.2897 110.745 21.8556 111.251C21.4215 111.75 20.7353 112 19.797 112ZM19.797 110.655C20.2522 110.655 20.5777 110.542 20.7738 110.316C20.9698 110.082 21.0679 109.68 21.0679 109.111C21.0679 108.542 20.9698 108.144 20.7738 107.918C20.5777 107.684 20.2522 107.567 19.797 107.567C19.3489 107.567 19.0268 107.684 18.8308 107.918C18.6347 108.144 18.5367 108.542 18.5367 109.111C18.5367 109.68 18.6347 110.082 18.8308 110.316C19.0268 110.542 19.3489 110.655 19.797 110.655Z" fill="#141414"></path><path d="M25.1953 112C24.8242 112 24.4706 111.969 24.1345 111.906C23.7984 111.852 23.5289 111.782 23.3258 111.696V110.386C23.5709 110.495 23.8475 110.581 24.1555 110.643C24.4636 110.698 24.7472 110.725 25.0063 110.725C25.3564 110.725 25.6014 110.702 25.7415 110.655C25.8885 110.608 25.962 110.503 25.962 110.339C25.962 110.152 25.85 110.016 25.6259 109.93C25.4089 109.844 25.0833 109.723 24.6492 109.567C24.194 109.396 23.844 109.189 23.5989 108.947C23.3538 108.706 23.2313 108.347 23.2313 107.871C23.2313 107.341 23.4028 106.936 23.7459 106.655C24.096 106.366 24.6562 106.222 25.4264 106.222C25.7345 106.222 26.025 106.25 26.2981 106.304C26.5712 106.351 26.8022 106.409 26.9913 106.48V107.778C26.8022 107.676 26.5852 107.602 26.3401 107.556C26.0951 107.501 25.8675 107.474 25.6574 107.474C25.3564 107.474 25.1148 107.497 24.9327 107.544C24.7577 107.591 24.6702 107.692 24.6702 107.848C24.6702 108.019 24.7647 108.14 24.9537 108.211C25.1498 108.281 25.4509 108.386 25.857 108.526C26.2561 108.659 26.5677 108.803 26.7917 108.959C27.0158 109.115 27.1733 109.302 27.2644 109.52C27.3554 109.731 27.4009 109.996 27.4009 110.316C27.4009 111.439 26.6657 112 25.1953 112Z" fill="#141414"></path><path d="M30.8254 112C29.9642 112 29.2815 111.762 28.7773 111.287C28.2732 110.803 28.0211 110.074 28.0211 109.099C28.0211 108.218 28.2312 107.52 28.6513 107.006C29.0784 106.483 29.7121 106.222 30.5523 106.222C31.3225 106.222 31.9107 106.448 32.3168 106.901C32.7299 107.345 32.9364 107.93 32.9364 108.655V109.661H29.334C29.411 110.105 29.5931 110.409 29.8801 110.573C30.1742 110.737 30.5873 110.819 31.1195 110.819C31.3855 110.819 31.6551 110.791 31.9282 110.737C32.2083 110.682 32.4463 110.612 32.6424 110.526V111.649C32.4113 111.766 32.1417 111.852 31.8337 111.906C31.5256 111.969 31.1895 112 30.8254 112ZM29.334 108.69H31.6971V108.386C31.6971 108.066 31.6131 107.817 31.4451 107.637C31.277 107.45 30.9934 107.357 30.5943 107.357C30.1252 107.357 29.7961 107.462 29.6071 107.673C29.425 107.883 29.334 108.222 29.334 108.69Z" fill="#141414"></path><path d="M33.9236 111.883V106.339H35.2365L35.2995 106.912C35.5236 106.756 35.8001 106.616 36.1292 106.491C36.4653 106.359 36.7944 106.269 37.1165 106.222V107.415C36.9274 107.446 36.7209 107.493 36.4968 107.556C36.2728 107.618 36.0592 107.688 35.8561 107.766C35.6531 107.844 35.4815 107.926 35.3415 108.012V111.883H33.9236Z" fill="#141414"></path><path d="M39.2264 111.883L37.2624 106.339H38.7433L39.9826 110.292L41.2324 106.339H42.7028L40.7493 111.883H39.2264Z" fill="#141414"></path><path d="M43.6756 105.322V104.082H45.2195V105.322H43.6756ZM43.7911 111.883V107.509H43.0454L43.1714 106.339H45.209V111.883H43.7911Z" fill="#141414"></path><path d="M48.9579 112C48.0687 112 47.386 111.754 46.9099 111.263C46.4407 110.772 46.2062 110.055 46.2062 109.111C46.2062 108.136 46.4582 107.411 46.9624 106.936C47.4735 106.46 48.1527 106.222 48.9999 106.222C49.35 106.222 49.6511 106.25 49.9031 106.304C50.1552 106.359 50.4003 106.448 50.6383 106.573V107.708C50.4633 107.614 50.2602 107.54 50.0292 107.485C49.7981 107.431 49.5495 107.404 49.2835 107.404C48.7513 107.404 48.3452 107.528 48.0652 107.778C47.7851 108.019 47.645 108.464 47.645 109.111C47.645 109.704 47.7711 110.136 48.0231 110.409C48.2822 110.682 48.6988 110.819 49.273 110.819C49.518 110.819 49.7561 110.791 49.9872 110.737C50.2252 110.682 50.4458 110.6 50.6488 110.491V111.661C50.1797 111.887 49.6161 112 48.9579 112Z" fill="#141414"></path><path d="M54.1387 112C53.2775 112 52.5948 111.762 52.0907 111.287C51.5865 110.803 51.3345 110.074 51.3345 109.099C51.3345 108.218 51.5445 107.52 51.9646 107.006C52.3918 106.483 53.0254 106.222 53.8657 106.222C54.6359 106.222 55.224 106.448 55.6301 106.901C56.0432 107.345 56.2498 107.93 56.2498 108.655V109.661H52.6473C52.7243 110.105 52.9064 110.409 53.1935 110.573C53.4876 110.737 53.9007 110.819 54.4328 110.819C54.6989 110.819 54.9684 110.791 55.2415 110.737C55.5216 110.682 55.7597 110.612 55.9557 110.526V111.649C55.7247 111.766 55.4551 111.852 55.147 111.906C54.8389 111.969 54.5028 112 54.1387 112ZM52.6473 108.69H55.0105V108.386C55.0105 108.066 54.9264 107.817 54.7584 107.637C54.5903 107.45 54.3068 107.357 53.9077 107.357C53.4385 107.357 53.1095 107.462 52.9204 107.673C52.7384 107.883 52.6473 108.222 52.6473 108.69Z" fill="#141414"></path><path d="M59.5447 111.883V104.351H62.9686C63.6478 104.351 64.1519 104.53 64.481 104.889C64.8171 105.24 64.9852 105.739 64.9852 106.386C64.9852 106.791 64.9151 107.131 64.7751 107.404C64.6351 107.669 64.446 107.875 64.208 108.023C64.523 108.133 64.7716 108.316 64.9537 108.573C65.1427 108.823 65.2372 109.193 65.2372 109.684C65.2372 110.409 65.0517 110.959 64.6806 111.333C64.3165 111.7 63.7878 111.883 63.0947 111.883H59.5447ZM60.9626 107.474H62.7061C63.0492 107.474 63.2942 107.392 63.4413 107.228C63.5883 107.057 63.6618 106.819 63.6618 106.515C63.6618 106.179 63.5848 105.93 63.4307 105.766C63.2837 105.602 63.0071 105.52 62.601 105.52H60.9626V107.474ZM60.9626 110.725H62.7586C63.1157 110.725 63.3782 110.643 63.5463 110.48C63.7143 110.316 63.7984 110.027 63.7984 109.614C63.7984 109.279 63.7143 109.029 63.5463 108.865C63.3852 108.702 63.0912 108.62 62.664 108.62H60.9626V110.725Z" fill="#141414"></path><path d="M66.2218 111.883V106.339H67.5346L67.5976 106.912C67.8217 106.756 68.0983 106.616 68.4274 106.491C68.7635 106.359 69.0926 106.269 69.4146 106.222V107.415C69.2256 107.446 69.019 107.493 68.795 107.556C68.5709 107.618 68.3574 107.688 68.1543 107.766C67.9512 107.844 67.7797 107.926 67.6397 108.012V111.883H66.2218Z" fill="#141414"></path><path d="M71.001 105.485V104.339H72.1143V105.485H71.001ZM73.0596 105.485V104.339H74.1729V105.485H73.0596ZM71.9778 112C71.3827 112 70.917 111.817 70.5809 111.45C70.2518 111.076 70.0873 110.53 70.0873 109.813V106.339H71.5052V109.778C71.5052 110.152 71.5857 110.425 71.7467 110.596C71.9078 110.76 72.1494 110.842 72.4714 110.842C72.7165 110.842 72.9406 110.788 73.1436 110.678C73.3537 110.569 73.5322 110.433 73.6793 110.269V106.339H75.0971V111.883H73.7843L73.7318 111.357C73.5217 111.544 73.2732 111.7 72.9861 111.825C72.706 111.942 72.3699 112 71.9778 112Z" fill="#141414"></path><path d="M78.058 112C77.6869 112 77.3333 111.969 76.9972 111.906C76.6612 111.852 76.3916 111.782 76.1885 111.696V110.386C76.4336 110.495 76.7102 110.581 77.0182 110.643C77.3263 110.698 77.6099 110.725 77.869 110.725C78.2191 110.725 78.4641 110.702 78.6042 110.655C78.7512 110.608 78.8247 110.503 78.8247 110.339C78.8247 110.152 78.7127 110.016 78.4886 109.93C78.2716 109.844 77.946 109.723 77.5119 109.567C77.0568 109.396 76.7067 109.189 76.4616 108.947C76.2165 108.706 76.094 108.347 76.094 107.871C76.094 107.341 76.2655 106.936 76.6086 106.655C76.9587 106.366 77.5189 106.222 78.2891 106.222C78.5972 106.222 78.8877 106.25 79.1608 106.304C79.4339 106.351 79.665 106.409 79.854 106.48V107.778C79.665 107.676 79.4479 107.602 79.2028 107.556C78.9578 107.501 78.7302 107.474 78.5201 107.474C78.2191 107.474 77.9775 107.497 77.7955 107.544C77.6204 107.591 77.5329 107.692 77.5329 107.848C77.5329 108.019 77.6274 108.14 77.8165 108.211C78.0125 108.281 78.3136 108.386 78.7197 108.526C79.1188 108.659 79.4304 108.803 79.6545 108.959C79.8785 109.115 80.0361 109.302 80.1271 109.52C80.2181 109.731 80.2636 109.996 80.2636 110.316C80.2636 111.439 79.5284 112 78.058 112Z" fill="#141414"></path><path d="M83.6881 112C82.8269 112 82.1442 111.762 81.6401 111.287C81.1359 110.803 80.8839 110.074 80.8839 109.099C80.8839 108.218 81.0939 107.52 81.514 107.006C81.9411 106.483 82.5748 106.222 83.415 106.222C84.1852 106.222 84.7734 106.448 85.1795 106.901C85.5926 107.345 85.7992 107.93 85.7992 108.655V109.661H82.1967C82.2737 110.105 82.4558 110.409 82.7429 110.573C83.0369 110.737 83.45 110.819 83.9822 110.819C84.2483 110.819 84.5178 110.791 84.7909 110.737C85.071 110.682 85.309 110.612 85.5051 110.526V111.649C85.274 111.766 85.0045 111.852 84.6964 111.906C84.3883 111.969 84.0522 112 83.6881 112ZM82.1967 108.69H84.5598V108.386C84.5598 108.066 84.4758 107.817 84.3078 107.637C84.1397 107.45 83.8561 107.357 83.457 107.357C82.9879 107.357 82.6588 107.462 82.4698 107.673C82.2877 107.883 82.1967 108.222 82.1967 108.69Z" fill="#141414"></path><path d="M87.4173 111.883L86.1045 106.339H87.5224L88.2786 109.942L89.1083 107.053V106.339H90.1901L91.1353 109.942L91.8705 106.339H93.2779L91.9755 111.883H90.6732L89.7174 108.643L88.7407 111.883H87.4173Z" fill="#141414"></path><path d="M94.2408 105.322V104.082H95.7847V105.322H94.2408ZM94.3563 111.883V107.509H93.6106L93.7366 106.339H95.7742V111.883H94.3563Z" fill="#141414"></path><path d="M98.956 112C98.3818 112 97.9547 111.832 97.6746 111.497C97.4016 111.162 97.265 110.706 97.265 110.129V107.556H96.5613V106.339H97.265V105.146L98.6829 104.678V106.339H99.9432L99.8592 107.556H98.6829V110.023C98.6829 110.327 98.7459 110.538 98.8719 110.655C98.998 110.764 99.194 110.819 99.4601 110.819C99.6562 110.819 99.8592 110.78 100.069 110.702V111.789C99.9152 111.86 99.7472 111.91 99.5651 111.942C99.3831 111.981 99.18 112 98.956 112Z" fill="#141414"></path><path d="M100.587 111.883V111.064L103.097 107.649H100.692V106.339H104.872V107.298L102.414 110.667H104.946V111.883H100.587Z" fill="#141414"></path><path d="M111.499 112C110.365 112 109.504 111.669 108.915 111.006C108.327 110.343 108.033 109.423 108.033 108.246C108.033 106.998 108.331 106.019 108.926 105.31C109.521 104.593 110.407 104.234 111.583 104.234C111.989 104.234 112.357 104.261 112.686 104.316C113.015 104.363 113.327 104.441 113.621 104.55V105.906C113.327 105.789 113.015 105.708 112.686 105.661C112.364 105.606 112.031 105.579 111.688 105.579C110.883 105.579 110.312 105.801 109.976 106.246C109.64 106.682 109.472 107.349 109.472 108.246C109.472 109.86 110.155 110.667 111.52 110.667C111.758 110.667 111.989 110.647 112.213 110.608C112.444 110.561 112.647 110.503 112.822 110.433V108.678H111.247V107.673H114.02V111.357C113.789 111.52 113.467 111.669 113.054 111.801C112.64 111.934 112.122 112 111.499 112Z" fill="#141414"></path><path d="M115.002 111.883V106.339H116.315L116.368 106.877C116.606 106.674 116.865 106.515 117.145 106.398C117.432 106.281 117.74 106.222 118.069 106.222C118.419 106.222 118.689 106.281 118.878 106.398C119.074 106.515 119.224 106.682 119.33 106.901C119.561 106.698 119.823 106.534 120.117 106.409C120.418 106.285 120.772 106.222 121.178 106.222C121.752 106.222 122.176 106.39 122.449 106.725C122.722 107.053 122.858 107.556 122.858 108.234V111.883H121.462V108.409C121.462 108.043 121.392 107.782 121.252 107.626C121.111 107.462 120.887 107.38 120.579 107.38C120.159 107.38 119.809 107.548 119.529 107.883C119.564 108.016 119.582 108.175 119.582 108.363V111.883H118.258V108.409C118.258 108.066 118.206 107.809 118.101 107.637C117.996 107.466 117.793 107.38 117.492 107.38C117.281 107.38 117.082 107.442 116.893 107.567C116.711 107.684 116.546 107.821 116.399 107.977V111.883H115.002Z" fill="#141414"></path><path d="M126.948 112C126.598 112 126.294 111.949 126.034 111.848C125.775 111.739 125.537 111.579 125.32 111.368L125.247 111.883H124.018V104H125.436V106.643C125.639 106.503 125.866 106.398 126.119 106.327C126.371 106.257 126.633 106.222 126.906 106.222C127.62 106.222 128.184 106.448 128.597 106.901C129.017 107.345 129.227 108.066 129.227 109.064C129.227 110.062 129.021 110.803 128.608 111.287C128.202 111.762 127.648 112 126.948 112ZM126.549 110.842C127.004 110.842 127.323 110.694 127.505 110.398C127.694 110.101 127.788 109.657 127.788 109.064C127.788 108.448 127.687 108.016 127.484 107.766C127.288 107.509 126.973 107.38 126.539 107.38C126.322 107.38 126.115 107.415 125.919 107.485C125.73 107.556 125.569 107.657 125.436 107.789V110.339C125.576 110.503 125.74 110.628 125.929 110.713C126.126 110.799 126.332 110.842 126.549 110.842Z" fill="#141414"></path><path d="M130.213 111.883V104.351H131.631V107.509H134.582V104.351H136V111.883H134.582V108.725H131.631V111.883H130.213Z" fill="#141414"></path><path d="M188.962 80.9034L190.428 82.5564C190.508 82.6511 190.589 82.6841 190.717 82.6841H193.795C193.924 82.6841 194.004 82.6511 194.084 82.5564L195.551 80.9034C195.679 80.7587 195.631 80.6162 195.422 80.6162H193.345C193.214 80.6162 193.133 80.6636 193.053 80.7587L192.426 81.6509H192.086L191.458 80.7587C191.378 80.6636 191.298 80.6162 191.153 80.6162H189.091C188.88 80.6162 188.835 80.7587 188.962 80.9034ZM216.111 89.2078V89.3673C216.111 94.9192 217.032 95.2552 223.78 95.2552C230.53 95.2552 231.448 94.9192 231.448 89.3502V89.2078C231.448 83.6559 230.53 83.321 223.78 83.321C217.032 83.321 216.111 83.6559 216.111 89.2078ZM215.428 94.7294L209.016 88.5395L215.039 83.8457C215.218 83.7188 215.151 83.5593 214.926 83.5593H210.996C210.884 83.5593 210.803 83.5911 210.706 83.6703L204.553 88.5251V83.7979C204.553 83.64 204.473 83.5593 204.312 83.5593H201.316C201.154 83.5593 201.073 83.64 201.073 83.7979V94.7767C201.073 94.9362 201.154 95.0154 201.316 95.0154H204.312C204.473 95.0154 204.553 94.9362 204.553 94.7767V92.0087L206.373 90.5918L210.787 94.8889C210.884 94.9836 210.964 95.0154 211.092 95.0154H215.313C215.523 95.0154 215.588 94.873 215.428 94.7294ZM240.31 83.5593H233.883C233.723 83.5593 233.64 83.64 233.64 83.7979V94.7767C233.64 94.9362 233.723 95.0154 233.883 95.0154H240.31C247.19 95.0154 248.091 94.6805 248.091 89.3343V89.2396C248.091 83.893 247.19 83.5593 240.31 83.5593ZM265.207 94.7294L259.65 83.7347C259.601 83.6081 259.504 83.5593 259.376 83.5593H254.447C254.316 83.5593 254.22 83.6081 254.172 83.7347L248.615 94.7294C248.533 94.9048 248.6 95.0154 248.79 95.0154H251.997C252.125 95.0154 252.223 94.9681 252.27 94.84L253.109 93.2173H260.713L261.549 94.84C261.599 94.9681 261.695 95.0154 261.825 95.0154H265.029C265.223 95.0154 265.287 94.9048 265.207 94.7294ZM227.71 89.2078V89.3673C227.71 92.582 227.582 92.6293 223.78 92.6293C219.978 92.6293 219.848 92.582 219.848 89.3673V89.2078C219.848 85.9939 219.978 85.9465 223.78 85.9465C227.582 85.9465 227.71 85.9939 227.71 89.2078ZM244.435 89.2078V89.3673C244.435 92.3107 244.192 92.4066 240.328 92.4066H237.138V86.1681H240.328C244.192 86.1681 244.435 86.2644 244.435 89.2078ZM259.488 90.8157H254.333L256.702 86.1837H257.12L259.488 90.8157ZM185.145 95.0325C186.853 95.1101 189.638 95.1893 191.247 95.1893C198.272 95.1893 199.11 95.1749 199.11 91.4041C199.11 88.4285 198.225 88.1901 194.503 88.0795L190.187 87.9515C188.206 87.8871 188.173 87.6813 188.173 86.8061C188.173 85.8991 188.415 85.8991 193.166 85.8991C194.067 85.8991 196.935 85.9465 198.451 85.9783C198.609 85.9783 198.692 85.8991 198.692 85.7396V83.7979C198.692 83.64 198.609 83.5593 198.465 83.5449C196.967 83.4634 194.52 83.3842 192.763 83.3842C185.87 83.3842 184.759 83.5123 184.759 87.0274C184.759 90.0356 185.434 90.4338 189.848 90.5774L193.809 90.7039C195.663 90.7672 195.696 90.9896 195.696 91.6738C195.696 92.6138 195.615 92.6612 191.233 92.6612C189.187 92.6612 187.077 92.582 185.161 92.5176C185 92.5016 184.92 92.582 184.92 92.7403V94.7767C184.92 94.9362 185 95.0154 185.145 95.0325Z" fill="#141414"></path><path d="M224.881 0.867733C243.955 0.80273 259.471 16.024 259.537 34.8655C259.602 53.7069 244.193 69.0336 225.119 69.0986C206.045 69.1636 190.529 53.9423 190.463 35.1009C190.398 16.2594 205.807 0.932737 224.881 0.867733Z" fill="url(#paint0_linear)" stroke="#141414" stroke-width="0.805595" stroke-linecap="square"></path><path d="M225.001 65.6158C216.717 65.6158 208.929 62.4301 203.072 56.6437C197.214 50.8584 193.988 43.1648 193.988 34.9834C193.988 26.8001 197.214 19.1077 203.072 13.3224C208.929 7.53601 216.717 4.34985 225.001 4.34985C233.284 4.34985 241.072 7.53601 246.929 13.3224C252.787 19.1077 256.012 26.8001 256.012 34.9834C256.012 43.1648 252.787 50.8573 246.929 56.6437C241.072 62.4301 233.284 65.6158 225.001 65.6158Z" fill="#141414"></path><path d="M225.001 63.1295C217.389 63.1295 210.233 60.2018 204.852 54.8859C199.469 49.5696 196.505 42.5011 196.505 34.9834C196.505 27.4649 199.469 20.3965 204.852 15.0801C210.233 9.76422 217.389 6.83574 225.001 6.83574C232.612 6.83574 239.768 9.76422 245.15 15.0801C250.532 20.3965 253.496 27.4649 253.496 34.9834C253.496 42.5011 250.532 49.5696 245.15 54.8859C239.768 60.2018 232.612 63.1295 225.001 63.1295Z" fill="white"></path><path d="M246.632 48.5052C244.526 46.5522 241.87 45.246 238.976 44.7898C238.564 44.7266 238.19 45.0414 238.19 45.4541C238.19 45.7901 238.19 46.1543 238.19 46.4916C238.19 46.8 237.951 47.1496 237.638 47.1496C237.41 47.1496 237.183 47.1557 236.955 47.1496C236.148 47.1371 236.001 46.1581 236.163 45.5817C237.883 39.4893 238.304 35.7938 238.284 33.1031C238.262 30.2429 238.19 27.3936 236.885 23.6213C235.628 19.9925 234.48 16.4395 228.408 11.0089C227.995 10.6418 227.579 10.4635 227.023 10.4238C226.426 10.3829 225.938 10.3619 225.33 10.3619C222.81 10.3619 220.377 10.7274 218.078 11.4089C217.218 11.6656 217.347 12.2566 217.82 12.6596C220.112 14.5965 223.22 17.5077 225.364 21.1438C224.007 21.2739 222.969 20.528 222.097 19.7025C219.232 17.0083 216.248 15.0873 213.878 13.7725C213.465 13.5444 213.059 13.4489 212.65 13.6808C210.037 15.1815 208.277 16.593 206.203 18.969C205.851 19.3728 206.079 19.6876 206.424 19.8684C208.691 21.0559 212.242 23.3088 215.498 26.2349C214.834 26.7863 213.783 26.6055 212.258 25.8162C209.329 24.2955 206.512 23.4205 204.363 22.8739C203.902 22.7574 203.409 22.885 203.172 23.2917C201.796 25.6537 200.846 28.4793 200.397 31.3445C200.311 31.8949 200.69 32.3819 201.246 32.4774C206.256 33.3435 215.186 35.6697 216.67 45.832C216.798 46.7219 215.978 47.5039 214.899 47.0033C213.394 46.3066 211.889 45.6115 210.385 44.9138C210.227 44.8418 210.047 44.7799 209.874 44.7799C207.451 44.7799 205.2 44.7799 202.778 44.7799C201.769 44.7799 201.354 45.733 202.01 46.4754C203.716 48.4161 205.281 50.5103 206.62 52.7302C206.738 52.9272 206.873 53.0028 207.105 53.0028C208.138 53.0028 209.172 53.0028 210.203 53.0028C210.414 53.0028 210.594 52.9545 210.776 52.8479C211.75 52.2838 212.724 51.7213 213.7 51.1575C213.88 51.0509 214.061 51.0532 214.272 51.0532C221.742 51.0532 229.757 51.0532 237.622 51.0532C237.936 51.0532 238.19 51.2527 238.19 51.5627C238.19 51.9406 238.19 52.3187 238.19 52.6979C238.19 53.1106 238.564 53.4241 238.976 53.3609C241.87 52.9047 244.526 51.5985 246.632 49.6467C246.967 49.338 246.967 48.8127 246.632 48.5052" fill="url(#paint1_linear)"></path><path d="M246.632 48.5052C244.526 46.5522 241.87 45.246 238.976 44.7898C238.564 44.7266 238.19 45.0414 238.19 45.4541C238.19 45.7901 238.19 46.1543 238.19 46.4916C238.19 46.8 237.951 47.1496 237.638 47.1496C237.41 47.1496 237.183 47.1557 236.955 47.1496C236.148 47.1371 236.001 46.1581 236.163 45.5817C237.883 39.4893 238.304 35.7938 238.284 33.1031C238.262 30.2429 238.19 27.3936 236.885 23.6213C235.628 19.9925 234.48 16.4395 228.408 11.0089C227.995 10.6418 227.579 10.4635 227.023 10.4238C226.426 10.3829 225.938 10.3619 225.33 10.3619C222.81 10.3619 220.377 10.7274 218.078 11.4089C217.218 11.6656 217.347 12.2566 217.82 12.6596C220.112 14.5965 223.22 17.5077 225.364 21.1438C224.007 21.2739 222.969 20.528 222.097 19.7025C219.232 17.0083 216.248 15.0873 213.878 13.7725C213.465 13.5444 213.059 13.4489 212.65 13.6808C210.037 15.1815 208.277 16.593 206.203 18.969C205.851 19.3729 206.079 19.6876 206.424 19.8684C208.691 21.0559 212.242 23.3088 215.498 26.2349C214.834 26.7863 213.783 26.6055 212.258 25.8162C209.329 24.2955 206.512 23.4205 204.363 22.8739C203.902 22.7574 203.409 22.885 203.172 23.2917C201.796 25.6537 200.846 28.4793 200.397 31.3445C200.311 31.8949 200.69 32.3819 201.246 32.4774C206.256 33.3435 215.186 35.6697 216.67 45.832C216.798 46.7219 215.978 47.5039 214.899 47.0033C213.394 46.3066 211.889 45.6115 210.385 44.9138C210.227 44.8418 210.047 44.7799 209.874 44.7799C207.451 44.7799 205.2 44.7799 202.778 44.7799C201.769 44.7799 201.354 45.733 202.01 46.4754C203.716 48.4161 205.281 50.5103 206.62 52.7302C206.738 52.9272 206.873 53.0028 207.105 53.0028C208.138 53.0028 209.172 53.0028 210.203 53.0028C210.414 53.0028 210.594 52.9545 210.776 52.8479C211.75 52.2838 212.724 51.7213 213.7 51.1575C213.88 51.0509 214.061 51.0532 214.272 51.0532C221.742 51.0532 229.757 51.0532 237.622 51.0532C237.936 51.0532 238.19 51.2527 238.19 51.5627C238.19 51.9406 238.19 52.3187 238.19 52.6979C238.19 53.1106 238.564 53.4241 238.976 53.3609C241.87 52.9047 244.526 51.5985 246.632 49.6467C246.967 49.338 246.967 48.8127 246.632 48.5052" stroke="#141414" stroke-width="0.804884"></path><path d="M229.236 45.1838C226.936 45.1838 225.075 43.3437 225.075 41.0756C225.075 38.8053 226.936 36.9661 229.236 36.9661C231.531 36.9661 233.396 38.8053 233.396 41.0756C233.396 43.3437 231.531 45.1838 229.236 45.1838ZM244.528 49.0729C242.948 47.8003 241.283 46.9773 239.261 46.5633C239.078 46.5262 238.989 46.5957 238.989 46.7816C238.989 46.8162 238.989 46.8473 238.989 46.8818C238.989 47.3726 238.492 47.944 237.992 47.944C237.556 47.944 237.114 47.944 236.679 47.944C235.57 47.944 234.58 47.0417 234.99 45.5928C239.737 28.861 234.433 18.5153 227.736 12.724C225.917 11.1539 225.753 11.0669 223.94 11.1351C222.511 11.1885 220.836 11.362 219.42 11.7015C219.141 11.7684 218.909 11.9867 219.277 12.2916C222.715 15.153 227.31 20.0855 229.508 27.7629C229.584 28.0294 229.424 28.011 229.219 28.0221C227.25 28.1398 226.587 26.9488 225.971 26.1915C221.509 20.7051 216.505 17.3678 212.76 15.1752C212.388 14.9547 212.327 14.9585 212.044 15.1222C210.538 15.981 208.848 17.3516 207.657 18.5985C207.409 18.8624 207.472 18.9861 207.746 19.1311C211.134 20.9246 216.286 24.4577 221.073 30.4486C221.371 30.8191 221.391 30.9901 221.223 31.0882C220.302 31.6297 218.765 31.6221 217.081 30.5862C212.517 27.774 207.881 25.7826 204.253 24.7502C203.867 24.6388 203.799 24.661 203.641 24.9881C202.757 26.8248 201.793 29.2119 201.445 31.2814C201.401 31.5517 201.378 31.5726 201.631 31.6234C211.613 33.6263 217.09 39.0346 217.715 46.2648C217.824 47.5189 216.387 48.727 214.958 48.281C213.406 47.794 211.899 47.2473 210.346 46.7616C210.179 46.707 210.011 46.6835 209.834 46.6835C207.689 46.6823 205.541 46.6811 203.393 46.6811C203.107 46.6811 202.939 46.8585 203.223 47.2141C204.844 49.2392 205.787 50.3868 206.93 52.2805C207.046 52.4775 207.182 52.553 207.416 52.553C208.204 52.553 208.995 52.5518 209.787 52.5518C210.1 52.5518 210.369 52.4801 210.641 52.3214C211.5 51.8243 212.355 51.3608 213.214 50.8627C213.488 50.704 213.721 50.6085 214.037 50.6085C221.831 50.6061 230.185 50.6085 237.977 50.6073C238.474 50.6073 238.989 51.1812 238.989 51.6755C238.989 51.7313 238.989 51.7884 238.989 51.8455C238.989 52.0311 239.078 52.1006 239.261 52.0648C241.283 51.6507 242.948 50.6916 244.528 49.4188C244.671 49.3024 244.671 49.1907 244.528 49.073" fill="#75B31F"></path><path d="M233.573 40.6068C233.948 43.1414 232.173 45.4933 229.607 45.8641C227.043 46.2345 224.66 44.4835 224.284 41.9488C223.909 39.4142 225.684 37.0598 228.248 36.6894C230.814 36.3186 233.198 38.0722 233.573 40.6068Z" fill="url(#paint2_linear)"></path><path d="M229.681 36.6971L228.27 45.8711C230.292 46.1554 232.342 45.0995 233.216 43.1642C234.272 40.8247 233.209 38.0865 230.843 37.0441C230.462 36.8766 230.074 36.76 229.681 36.6971Z" fill="url(#paint3_linear)"></path><path d="M232.891 41.1587C232.891 42.8725 231.482 44.2657 229.743 44.2657C228.006 44.2657 226.599 42.8725 226.599 41.1587C226.599 39.441 228.006 38.0492 229.743 38.0492C231.482 38.0492 232.891 39.441 232.891 41.1587Z" fill="white" stroke="#141414" stroke-width="0.804884"></path><path d="M208.578 112C207.579 112 206.775 111.873 206.168 111.62V110.478C206.512 110.605 206.879 110.708 207.271 110.788C207.671 110.867 208.067 110.906 208.458 110.906C209.074 110.906 209.534 110.835 209.837 110.692C210.149 110.55 210.305 110.264 210.305 109.837C210.305 109.575 210.241 109.365 210.113 109.207C209.985 109.048 209.773 108.913 209.478 108.802C209.182 108.684 208.774 108.561 208.254 108.434C207.423 108.22 206.839 107.95 206.504 107.626C206.168 107.293 206 106.837 206 106.259C206 105.585 206.248 105.058 206.744 104.678C207.239 104.297 207.979 104.107 208.962 104.107C209.41 104.107 209.829 104.139 210.221 104.202C210.621 104.265 210.933 104.337 211.157 104.416V105.557C210.549 105.327 209.877 105.212 209.142 105.212C208.566 105.212 208.119 105.288 207.799 105.438C207.479 105.589 207.319 105.862 207.319 106.259C207.319 106.488 207.375 106.675 207.487 106.817C207.599 106.96 207.791 107.083 208.063 107.186C208.342 107.289 208.726 107.404 209.214 107.53C209.845 107.689 210.333 107.879 210.677 108.101C211.029 108.315 211.272 108.569 211.408 108.862C211.552 109.147 211.624 109.472 211.624 109.837C211.624 110.51 211.372 111.041 210.869 111.429C210.365 111.81 209.602 112 208.578 112Z" fill="#141414"></path><path d="M215.77 112C214.778 112 214.011 111.758 213.467 111.275C212.924 110.791 212.652 110.051 212.652 109.052C212.652 108.149 212.884 107.435 213.347 106.912C213.811 106.389 214.515 106.128 215.458 106.128C216.321 106.128 216.969 106.354 217.401 106.805C217.84 107.249 218.06 107.824 218.06 108.529V109.575H213.899C213.963 110.122 214.163 110.498 214.499 110.704C214.834 110.91 215.346 111.013 216.034 111.013C216.321 111.013 216.617 110.986 216.921 110.93C217.225 110.875 217.489 110.803 217.712 110.716V111.667C217.457 111.778 217.161 111.861 216.825 111.917C216.497 111.972 216.145 112 215.77 112ZM213.899 108.731H216.909V108.339C216.909 107.95 216.801 107.649 216.585 107.435C216.369 107.213 216.006 107.103 215.494 107.103C214.886 107.103 214.467 107.233 214.235 107.495C214.011 107.756 213.899 108.168 213.899 108.731Z" fill="#141414"></path><path d="M219.333 111.881V106.247H220.532L220.604 106.9C220.876 106.726 221.199 106.568 221.575 106.425C221.951 106.282 222.323 106.183 222.69 106.128V107.114C222.467 107.154 222.223 107.213 221.959 107.293C221.703 107.364 221.459 107.447 221.227 107.542C220.996 107.63 220.8 107.721 220.64 107.816V111.881H219.333Z" fill="#141414"></path><path d="M225.223 111.881L222.981 106.247H224.336L225.931 110.621L227.526 106.247H228.869L226.638 111.881H225.223Z" fill="#141414"></path><path d="M230.212 105.07V104H231.639V105.07H230.212ZM230.32 111.881V107.233H229.456L229.576 106.247H231.627V111.881H230.32Z" fill="#141414"></path><path d="M235.946 112C234.946 112 234.191 111.75 233.679 111.251C233.168 110.744 232.912 110.015 232.912 109.064C232.912 108.073 233.192 107.336 233.751 106.853C234.319 106.369 235.074 106.128 236.018 106.128C236.409 106.128 236.737 106.156 237.001 106.211C237.273 106.266 237.533 106.354 237.781 106.473V107.435C237.365 107.229 236.861 107.126 236.27 107.126C235.614 107.126 235.11 107.273 234.759 107.566C234.407 107.851 234.231 108.351 234.231 109.064C234.231 109.737 234.387 110.233 234.699 110.55C235.01 110.859 235.526 111.013 236.246 111.013C236.813 111.013 237.329 110.906 237.793 110.692V111.679C237.529 111.782 237.245 111.861 236.941 111.917C236.645 111.972 236.314 112 235.946 112Z" fill="#141414"></path><path d="M241.71 112C240.718 112 239.951 111.758 239.407 111.275C238.863 110.791 238.592 110.051 238.592 109.052C238.592 108.149 238.823 107.435 239.287 106.912C239.751 106.389 240.454 106.128 241.398 106.128C242.261 106.128 242.909 106.354 243.34 106.805C243.78 107.249 244 107.824 244 108.529V109.575H239.839C239.903 110.122 240.103 110.498 240.438 110.704C240.774 110.91 241.286 111.013 241.973 111.013C242.261 111.013 242.557 110.986 242.861 110.93C243.165 110.875 243.428 110.803 243.652 110.716V111.667C243.396 111.778 243.101 111.861 242.765 111.917C242.437 111.972 242.085 112 241.71 112ZM239.839 108.731H242.849V108.339C242.849 107.95 242.741 107.649 242.525 107.435C242.309 107.213 241.945 107.103 241.434 107.103C240.826 107.103 240.406 107.233 240.175 107.495C239.951 107.756 239.839 108.168 239.839 108.731Z" fill="#141414"></path><defs><linearGradient id="paint0_linear" x1="225.12" y1="69.2198" x2="224.886" y2="0.746492" gradientUnits="userSpaceOnUse"><stop stop-color="#99A2A7"></stop><stop offset="0.47584" stop-color="#98A3A8"></stop><stop offset="0.535243" stop-color="#E6E6E6"></stop><stop offset="1" stop-color="#E6E6E6"></stop></linearGradient><linearGradient id="paint1_linear" x1="200.77" y1="52.6115" x2="246.164" y2="10.5628" gradientUnits="userSpaceOnUse"><stop stop-color="#151313"></stop><stop offset="0.085001" stop-color="#151313"></stop><stop offset="0.127798" stop-color="#F8F1F1"></stop><stop offset="0.228741" stop-color="#151313"></stop><stop offset="0.304102" stop-color="#141414"></stop><stop offset="0.381742" stop-color="#F8F1F1"></stop><stop offset="0.449694" stop-color="#151313"></stop><stop offset="0.565496" stop-color="#F8F1F4"></stop><stop offset="0.626805" stop-color="#141414"></stop><stop offset="0.787047" stop-color="#F8F1F1"></stop><stop offset="1" stop-color="#F8F1F2"></stop></linearGradient><linearGradient id="paint2_linear" x1="228.963" y1="40.4136" x2="233.307" y2="46.1635" gradientUnits="userSpaceOnUse"><stop stop-color="#151313"></stop><stop offset="0.162563" stop-color="#CCC4C4"></stop><stop offset="0.496139" stop-color="#B7ACAD"></stop><stop offset="1" stop-color="#151313"></stop></linearGradient><linearGradient id="paint3_linear" x1="230.017" y1="39.7769" x2="223.457" y2="42.4747" gradientUnits="userSpaceOnUse"><stop stop-color="#151313"></stop><stop offset="0.25" stop-color="#CCC4C4"></stop><stop offset="0.5" stop-color="#B7ACAD"></stop><stop offset="1" stop-color="#151313"></stop></linearGradient><clipPath id="clip0"><rect width="136" height="96" fill="white" transform="translate(0 1)"></rect></clipPath></defs></svg>