<svg xmlns="http://www.w3.org/2000/svg" viewBox="0 0 1395 963"><defs><style>
      .cls-1, .cls-2 {
        fill: #31a64e;
      }

      .cls-1 {
        fill-rule: evenodd;
      }

      .cls-3 {
        fill: #18a34b;
      }

      .cls-4 {
        fill: none;
      }

      .cls-5 {
        fill: #118743;
      }
    </style></defs><g id="Ebene_2" data-name="Ebene 2"><g id="Ebene_1-2" data-name="Ebene 1"><g><g><path class="cls-1" d="M61.58,961.6,44.79,885.18h8.59L63,935.29c1,5.2,1.9,10.51,2.7,15.61,1.6-8.2,2.6-12.91,2.9-14.11l12.1-51.61H90.77l9.1,38.71a235.72,235.72,0,0,1,4.9,27c.8-4.8,1.9-10.41,3.2-16.61l9.9-49.11h8.39L108.87,961.6h-8.1l-13.3-58.21c-1.09-4.9-1.79-7.8-2-9-.7,3.5-1.3,6.5-1.9,9L70.18,961.6Z"></path><path class="cls-1" d="M140.16,924.49c0,9.2,2.1,16.51,6.2,21.71s9.3,7.9,15.39,7.9c6.3,0,11.5-2.7,15.6-8s6.1-12.91,6.1-22.81a47.64,47.64,0,0,0-2.6-16.3,24.06,24.06,0,0,0-7.6-10.8,17.94,17.94,0,0,0-11.3-3.81c-5.89,0-11,2.51-15.29,7.41S140.16,913,140.16,924.49Zm-8.7-.1c0-12.7,2.8-22.6,8.5-29.8a27.35,27.35,0,0,1,37.69-5.71A31.38,31.38,0,0,1,188.35,903a58.19,58.19,0,0,1-.2,41.31,31,31,0,0,1-11,13.9,27.86,27.86,0,0,1-15.4,4.7,26,26,0,0,1-16-5.2,32.14,32.14,0,0,1-10.7-14.2A51.16,51.16,0,0,1,131.46,924.39Z"></path><polygon class="cls-1" points="203.04 961.6 203.04 885.18 211.44 885.18 211.44 916.59 244.33 916.59 244.33 885.18 252.73 885.18 252.73 961.6 244.33 961.6 244.33 925.59 211.44 925.59 211.44 961.6 203.04 961.6"></polygon><polygon class="cls-1" points="266.62 961.6 266.62 885.18 275.22 885.18 308.51 945.2 308.51 885.18 316.51 885.18 316.51 961.6 307.91 961.6 274.62 901.59 274.62 961.6 266.62 961.6"></polygon><path class="cls-1" d="M372.09,885.18h8.4v44.11c0,7.7-.7,13.81-2.2,18.31a21.16,21.16,0,0,1-7.8,11c-3.8,2.8-8.69,4.2-14.79,4.2-5.9,0-10.8-1.2-14.6-3.7a20,20,0,0,1-8.1-10.7c-1.6-4.7-2.39-11.11-2.39-19.11V885.18H339v44.11q0,9.9,1.5,14.71a13.7,13.7,0,0,0,5.3,7.3,15.75,15.75,0,0,0,9.1,2.6q9.3,0,13.19-5.1c2.6-3.4,3.9-9.81,3.9-19.41V885.18Z"></path><polygon class="cls-1" points="394.39 961.6 394.39 885.18 402.98 885.18 436.18 945.2 436.18 885.18 444.27 885.18 444.27 961.6 435.68 961.6 402.38 901.59 402.38 961.6 394.39 961.6"></polygon><path class="cls-1" d="M488,931.59v-9l26.79-.1V950.8a46.08,46.08,0,0,1-12.69,8.9,32.31,32.31,0,0,1-13.5,3,31.42,31.42,0,0,1-17-4.8A30,30,0,0,1,460.07,944a51.61,51.61,0,0,1-3.9-20.41,55,55,0,0,1,3.9-20.8q3.9-9.6,11.09-14.41a30.21,30.21,0,0,1,16.7-4.7,27.87,27.87,0,0,1,12.4,2.7,21.2,21.2,0,0,1,8.69,7.51,37.09,37.09,0,0,1,4.8,12.5l-7.6,2.5a30.79,30.79,0,0,0-3.49-9.2,14.81,14.81,0,0,0-6-5.3,19.21,19.21,0,0,0-8.7-2,21.89,21.89,0,0,0-9.9,2.1,20.61,20.61,0,0,0-6.8,5.5,29.28,29.28,0,0,0-4,7.6,47.37,47.37,0,0,0-2.4,15.4,44.88,44.88,0,0,0,2.9,17.1,20.61,20.61,0,0,0,8.49,10.21,22.89,22.89,0,0,0,11.8,3.3,23.56,23.56,0,0,0,10.6-2.5,26.88,26.88,0,0,0,7.89-5.4V931.49H488Z"></path><path class="cls-1" d="M524.25,937l7.9-.8a23.86,23.86,0,0,0,2.6,9.41,15.37,15.37,0,0,0,6.39,5.9,21.83,21.83,0,0,0,18.2.6,12.18,12.18,0,0,0,5.5-4.7,12.49,12.49,0,0,0,1.8-6.5,11.88,11.88,0,0,0-1.7-6.31,13.31,13.31,0,0,0-5.7-4.5,104.38,104.38,0,0,0-11.3-3.7c-5.8-1.7-9.89-3.3-12.19-4.8a19.19,19.19,0,0,1-6.8-7.1,19.87,19.87,0,0,1-2.2-9.5,22.19,22.19,0,0,1,2.7-10.8,17.57,17.57,0,0,1,7.9-7.61,26.25,26.25,0,0,1,11.59-2.6,27.27,27.27,0,0,1,12.4,2.7,19.38,19.38,0,0,1,8.3,8,26.37,26.37,0,0,1,3.1,12l-8,.7c-.4-4.8-1.9-8.5-4.4-10.9s-6.2-3.7-11-3.7c-5.1,0-8.79,1.1-11.09,3.4a10.82,10.82,0,0,0-3.5,8.1,9.53,9.53,0,0,0,2.5,6.8q2.4,2.7,12.59,5.4c6.8,1.9,11.5,3.5,14,4.9a20,20,0,0,1,8.2,7.8,21.47,21.47,0,0,1,2.6,10.91,24.23,24.23,0,0,1-2.9,11.5,20.35,20.35,0,0,1-8.3,8.4,24.78,24.78,0,0,1-12.2,3q-8.55,0-14.39-3a21,21,0,0,1-9.1-9.1A30.78,30.78,0,0,1,524.25,937Z"></path><path class="cls-1" d="M597.43,930.19h21.49l-6.6-21.1c-2-6.4-3.49-11.7-4.49-15.8a106.47,106.47,0,0,1-3.4,14.6Zm41,31.41h-9.6l-7.4-23.11H594.93l-7,23.11H579c15.8-49.51,24.3-76.42,24.3-76.42h9Z"></path><path class="cls-1" d="M686.6,885.18H695v44.11c0,7.7-.7,13.81-2.2,18.31a21.16,21.16,0,0,1-7.8,11c-3.8,2.8-8.69,4.2-14.79,4.2-5.9,0-10.8-1.2-14.6-3.7a20,20,0,0,1-8.1-10.7c-1.6-4.7-2.39-11.11-2.39-19.11V885.18h8.39v44.11q0,9.9,1.5,14.71a13.7,13.7,0,0,0,5.3,7.3,15.75,15.75,0,0,0,9.1,2.6q9.3,0,13.19-5.1c2.6-3.4,3.9-9.81,3.9-19.41V885.18Z"></path><polygon class="cls-1" points="709.4 961.6 709.4 885.18 752.08 885.18 752.08 894.18 717.79 894.18 717.79 917.89 747.49 917.89 747.49 926.89 717.79 926.89 717.79 961.6 709.4 961.6"></polygon><polygon class="cls-1" points="762.68 961.6 762.68 885.18 770.98 885.18 770.98 952.6 802.17 952.6 802.17 961.6 762.68 961.6"></polygon><path class="cls-1" d="M818.27,924.49c0,9.2,2.09,16.51,6.19,21.71s9.3,7.9,15.4,7.9c6.3,0,11.5-2.7,15.59-8s6.1-12.91,6.1-22.81A47.64,47.64,0,0,0,859,907a24.12,24.12,0,0,0-7.59-10.8,17.94,17.94,0,0,0-11.3-3.81c-5.9,0-11,2.51-15.3,7.41S818.27,913,818.27,924.49Zm-8.6-.1c0-12.7,2.8-22.6,8.5-29.8a27.34,27.34,0,0,1,37.68-5.71A31.38,31.38,0,0,1,866.55,903a58,58,0,0,1-.2,41.31,31,31,0,0,1-11,13.9A27.8,27.8,0,0,1,840,962.9a26,26,0,0,1-16-5.2,32.2,32.2,0,0,1-10.69-14.2A51.16,51.16,0,0,1,809.67,924.39Z"></path><polygon class="cls-1" points="881.15 961.6 881.15 885.18 926.93 885.18 926.93 894.18 889.54 894.18 889.54 917.59 924.53 917.59 924.53 926.59 889.54 926.59 889.54 952.6 928.43 952.6 928.43 961.6 881.15 961.6"></polygon><path class="cls-1" d="M937.13,937l7.9-.8a23.86,23.86,0,0,0,2.6,9.41,15.34,15.34,0,0,0,6.4,5.9,21.81,21.81,0,0,0,18.19.6,12.18,12.18,0,0,0,5.5-4.7,12.49,12.49,0,0,0,1.8-6.5,11.88,11.88,0,0,0-1.7-6.31,13.31,13.31,0,0,0-5.7-4.5,104.38,104.38,0,0,0-11.3-3.7c-5.79-1.7-9.89-3.3-12.19-4.8a19.19,19.19,0,0,1-6.8-7.1,19.87,19.87,0,0,1-2.2-9.5,22.19,22.19,0,0,1,2.7-10.8,17.57,17.57,0,0,1,7.9-7.61,26.32,26.32,0,0,1,11.59-2.6,27.27,27.27,0,0,1,12.4,2.7,19.38,19.38,0,0,1,8.3,8,26.37,26.37,0,0,1,3.1,12l-8,.7c-.4-4.8-1.9-8.5-4.4-10.9s-6.2-3.7-11-3.7c-5.09,0-8.79,1.1-11.09,3.4a10.82,10.82,0,0,0-3.5,8.1,9.53,9.53,0,0,0,2.5,6.8q2.4,2.7,12.59,5.4c6.8,1.9,11.5,3.5,14,4.9a20,20,0,0,1,8.2,7.8,21.47,21.47,0,0,1,2.6,10.91,24.23,24.23,0,0,1-2.9,11.5,20.35,20.35,0,0,1-8.3,8.4,24.78,24.78,0,0,1-12.2,3,31.3,31.3,0,0,1-14.39-3,21,21,0,0,1-9.1-9.1A30.78,30.78,0,0,1,937.13,937Z"></path><path class="cls-1" d="M1040.5,885.18h8.4v44.11c0,7.7-.7,13.81-2.2,18.31a21.16,21.16,0,0,1-7.8,11c-3.8,2.8-8.7,4.2-14.79,4.2-5.9,0-10.8-1.2-14.6-3.7a20,20,0,0,1-8.1-10.7c-1.6-4.7-2.4-11.11-2.4-19.11V885.18h8.4v44.11q0,9.9,1.5,14.71a13.7,13.7,0,0,0,5.3,7.3,15.75,15.75,0,0,0,9.1,2.6q9.29,0,13.19-5.1c2.6-3.4,3.9-9.81,3.9-19.41V885.18Z"></path><polygon class="cls-1" points="1062.8 961.6 1062.8 885.18 1071.39 885.18 1104.58 945.2 1104.58 885.18 1112.68 885.18 1112.68 961.6 1104.08 961.6 1070.79 901.59 1070.79 961.6 1062.8 961.6"></polygon><path class="cls-1" d="M1156.37,931.59v-9l26.79-.1V950.8a46,46,0,0,1-12.7,8.9,32.23,32.23,0,0,1-13.49,3,31.42,31.42,0,0,1-17-4.8,29.89,29.89,0,0,1-11.49-13.9,51.61,51.61,0,0,1-3.9-20.41,55,55,0,0,1,3.9-20.8q3.9-9.6,11.09-14.41a30.21,30.21,0,0,1,16.7-4.7,27.79,27.79,0,0,1,12.39,2.7,21.23,21.23,0,0,1,8.7,7.51,37.09,37.09,0,0,1,4.8,12.5l-7.6,2.5a34.07,34.07,0,0,0-3.5-9.2,14.78,14.78,0,0,0-6-5.3,19.21,19.21,0,0,0-8.7-2,21.89,21.89,0,0,0-9.9,2.1,20.61,20.61,0,0,0-6.8,5.5,29,29,0,0,0-4,7.6,47.37,47.37,0,0,0-2.39,15.4c0,6.8,1,12.5,2.89,17.1a20.63,20.63,0,0,0,8.5,10.21,22.89,22.89,0,0,0,11.8,3.3,23.56,23.56,0,0,0,10.6-2.5,27.16,27.16,0,0,0,7.89-5.4V931.49h-18.59Z"></path><rect class="cls-2" x="1191.46" y="929.19" width="23.89" height="9.4"></rect><path class="cls-1" d="M1224.75,961.6V885.18h12.6l15,54.11c1.4,5,2.4,8.81,3,11.31.7-2.8,1.8-6.9,3.4-12.21l15.19-53.11h11.3V961.7h-8.1V897.79l-18.39,63.91h-7.5l-18.29-65v65h-8.2Z"></path><path class="cls-1" d="M1316.72,961.6l-24.49-76.42h9.1l16.49,55.52c1.3,4.4,2.4,8.6,3.3,12.5,1-4.2,2.1-8.3,3.4-12.5l17.1-55.52h8.49l-24.79,76.42Z"></path></g><polygon class="cls-2" points="1093.19 293.76 1093.19 128.03 990.02 127.63 990.02 128.03 990.02 217.15 697.5 0 697.4 0 697.4 84.42 697.5 84.42 1395 527.51 1395 517.81 1093.19 293.76"></polygon><polygon class="cls-3" points="0 517.81 0 527.51 697.4 84.42 697.4 0 0 517.81"></polygon><path class="cls-4" d="M930.93,420.59c18.3,1.6,30.09,5.1,35.39,10.3q12.15,12.3,12.1,53v165L786.87,411.39H702.2v9.2c10.2.3,17.79,1.5,22.89,3.5s11.3,7.3,18.6,15.9l6.79,8V666.84c0,26.1-2.89,42.81-8.69,50s-19,11.8-39.49,13.9V740H818.87v-9.2c-17.9-1.9-29.5-5.5-34.69-10.9q-11.85-12.3-11.9-53.11V473.5L991.72,745.85h8.49V484.4c0-26,3.2-42.71,9.4-50s18.9-11.9,37.79-13.8v-9.2H930.93Z"></path><path class="cls-4" d="M697.1,420.59v-9.2h-.3v9.2A.19.19,0,0,0,697.1,420.59Z"></path><path class="cls-2" d="M1141.27,793.56l.1-314.36-81.27-44.91c88.37,30.71,176.55,60.51,264.82,90.12L696.8,184.34V411.49h.2v9.2h-.2V791.46h25.29c223.34.8,442.28,22.91,631.82,79.22C1297.83,834.87,1223,811.87,1141.27,793.56Zm-93.77-373q-28.34,2.85-37.79,13.8c-6.3,7.3-9.4,23.91-9.4,50V745.85h-8.49L772.18,473.5V666.84c0,27.1,3.9,44.81,11.9,53.11,5.19,5.3,16.69,9,34.69,10.9v9.2H702.1v-9.2c20.49-2.1,33.69-6.7,39.49-13.9s8.69-23.91,8.69-50V448l-6.79-8q-10.95-12.9-18.6-15.9c-5.1-2-12.69-3.2-22.89-3.5v-9.2h84.67L978.42,649V484q0-40.67-12.1-53c-5.3-5.3-17.09-8.7-35.39-10.3v-9.2H1047.5Z"></path><path class="cls-5" d="M659.31,434.49c-6.3,7.3-9.4,23.91-9.4,50V746h-8.49L421.78,473.5V666.84c0,27.1,3.9,44.81,11.9,53.11,5.19,5.3,16.69,9,34.69,10.9v9.2H351.7v-9.2c20.49-2.1,33.69-6.7,39.49-13.9s8.7-23.91,8.7-50V448l-6.8-8q-10.95-12.9-18.6-15.9c-5.1-2-12.69-3.2-22.89-3.5v-9.2h84.67L628,649V484q0-40.67-12.1-53c-5.3-5.3-17.09-8.7-35.39-10.3v-9.2H696.8V184.34h0L68.58,524.11q132.56-43.51,262.63-88.72L252.93,479.2l.6,314.56C176.15,807,105.37,833,41,870.48c210.44-61.11,435.67-78.52,655.91-79V420.69C678.11,422.59,665.51,427.19,659.31,434.49Z"></path></g></g></g></svg>