<svg width="85" height="50" viewBox="0 0 85 50" fill="none" xmlns="http://www.w3.org/2000/svg">
<g clip-path="url(#clip0_245_2967)">
<path d="M16.493 18.4443C18.0676 18.4443 19.344 17.1674 19.344 15.5922C19.344 14.017 18.0676 12.74 16.493 12.74C14.9185 12.74 13.6421 14.017 13.6421 15.5922C13.6421 17.1674 14.9185 18.4443 16.493 18.4443Z" fill="#61DAFB"/>
<path d="M32.4861 15.5921C32.4861 13.3521 29.8577 11.4043 25.769 10.2356C26.7981 6.1034 26.4365 2.84775 24.4896 1.7347C22.5426 0.607748 19.5526 1.92949 16.493 4.87905C13.4335 1.91557 10.4435 0.607748 8.49652 1.7347C6.88331 2.66688 6.28531 5.0321 6.82768 8.39905C6.92503 8.99731 7.0641 9.60949 7.21708 10.2495C3.12842 11.4182 0.5 13.366 0.5 15.606C0.5 17.846 3.12842 19.7799 7.21708 20.9625C7.0641 21.5886 6.92503 22.2147 6.82768 22.813C6.28531 26.1799 6.88331 28.5451 8.49652 29.4773C8.96936 29.7556 9.51173 29.8947 10.1097 29.8947C11.5282 29.8947 13.2388 29.1156 15.1023 27.5991C15.5613 27.2234 16.0341 26.7921 16.493 26.3469C16.952 26.7921 17.4248 27.2234 17.8837 27.5991C19.7473 29.1156 21.4578 29.8947 22.8764 29.8947C23.4744 29.8947 24.0167 29.7556 24.4896 29.4773C26.1028 28.5451 26.7008 26.1799 26.1723 22.813C26.075 22.2147 25.9359 21.6025 25.7829 20.9625C29.8716 19.7938 32.5 17.846 32.5 15.606L32.4861 15.5921ZM23.7942 2.93123C25.0458 3.6547 25.324 6.29818 24.42 9.88775C23.1128 9.58166 21.6804 9.35905 20.1645 9.21992C19.2884 7.98166 18.3705 6.8547 17.4665 5.86688C19.5804 3.82166 21.5413 2.70862 22.8903 2.70862C23.2379 2.70862 23.5439 2.77818 23.8081 2.93123H23.7942ZM20.9572 18.166C20.4565 19.0147 19.942 19.8495 19.4135 20.6286C18.4817 20.6982 17.5083 20.7399 16.507 20.7399C15.5056 20.7399 14.5322 20.6982 13.6004 20.6286C13.0719 19.8495 12.5435 19.0147 12.0567 18.166C11.5561 17.3034 11.111 16.4547 10.6938 15.5921C11.111 14.7295 11.5561 13.8808 12.0567 13.0182C12.5574 12.1417 13.0858 11.3208 13.6004 10.5556C14.5322 10.486 15.5056 10.4443 16.507 10.4443C17.5083 10.4443 18.4817 10.486 19.4135 10.5556C19.942 11.3208 20.4565 12.1417 20.9572 13.0182C21.4439 13.8669 21.9029 14.7295 22.3201 15.5921C21.9168 16.4408 21.4718 17.2895 20.9572 18.166ZM23.0432 17.2199C23.4326 18.1521 23.7664 19.0564 24.0445 19.9469C23.1545 20.1417 22.1949 20.3225 21.1797 20.4477C21.5135 19.933 21.8333 19.4043 22.1532 18.8617C22.4731 18.3191 22.7651 17.7625 23.0432 17.2199ZM16.493 24.3156C15.8672 23.6338 15.2414 22.8825 14.6295 22.0756C15.2414 22.1034 15.8533 22.1173 16.493 22.1173C17.1328 22.1173 17.7447 22.1034 18.3566 22.0756C17.7447 22.8825 17.1189 23.6199 16.493 24.3156ZM11.8064 20.4477C10.7912 20.3225 9.83159 20.1556 8.94155 19.9469C9.21969 19.0564 9.55345 18.1521 9.94285 17.2199C10.221 17.7625 10.513 18.3191 10.8329 18.8617C11.1528 19.4043 11.4726 19.933 11.8064 20.4477ZM9.94285 13.9504C9.55345 13.0182 9.21969 12.1138 8.94155 11.2234C9.83159 11.0286 10.7912 10.8477 11.8064 10.7225C11.4726 11.2373 11.1528 11.766 10.8329 12.3086C10.513 12.8512 10.221 13.3938 9.94285 13.9504ZM16.493 6.8547C17.105 7.52253 17.7308 8.27383 18.3566 9.0947C17.7447 9.06688 17.1328 9.05297 16.493 9.05297C15.8533 9.05297 15.2414 9.06688 14.6295 9.0947C15.2553 8.27383 15.8672 7.52253 16.493 6.8547ZM22.1532 12.3225C21.8333 11.7799 21.5135 11.2512 21.1797 10.7364C22.1949 10.8617 23.1545 11.0286 24.0445 11.2373C23.7803 12.1138 23.4465 13.0182 23.0432 13.9643C22.7651 13.4217 22.4591 12.8651 22.1532 12.3225ZM8.19057 8.17644C7.75945 5.4634 8.12103 3.55731 9.19187 2.94514C9.45611 2.7921 9.76206 2.72253 10.1097 2.72253C11.4587 2.72253 13.4196 3.83557 15.5335 5.88079C14.6156 6.86862 13.7116 7.99557 12.8355 9.23383C11.3196 9.37296 9.88722 9.59557 8.57996 9.90166C8.42699 9.31731 8.30183 8.73296 8.21838 8.19036L8.19057 8.17644ZM1.8907 15.5921C1.8907 14.1451 4.03238 12.5869 7.59257 11.5712C7.99587 12.8651 8.52434 14.2147 9.15015 15.5921C8.52434 16.9556 7.99587 18.3051 7.59257 19.613C4.04628 18.5973 1.8907 17.053 1.8907 15.5921ZM14.2262 26.486C12.0984 28.2112 10.2627 28.8512 9.19187 28.2391C8.12103 27.6269 7.75945 25.7069 8.19057 23.0077C8.27401 22.4512 8.41308 21.8808 8.55215 21.2964C9.85941 21.6025 11.2918 21.8251 12.8077 21.9643C13.6838 23.1886 14.5878 24.3295 15.5056 25.3312C15.0745 25.7486 14.6434 26.1521 14.2123 26.4999L14.2262 26.486ZM24.7955 23.0077C25.2266 25.7208 24.8651 27.6269 23.7942 28.2391C22.7234 28.8512 20.8877 28.2112 18.7599 26.486C18.3288 26.1382 17.8977 25.7347 17.4665 25.3173C18.3983 24.3156 19.3023 23.1886 20.1645 21.9643C21.6804 21.8251 23.1128 21.6025 24.42 21.2964C24.573 21.8808 24.6982 22.4651 24.7816 23.0077H24.7955ZM25.3935 19.5991C24.9902 18.3051 24.4618 16.9556 23.8359 15.5782C24.4757 14.1869 24.9902 12.8373 25.3935 11.5573C28.9537 12.573 31.0954 14.1173 31.0954 15.5782C31.0954 17.0391 28.9537 18.5834 25.3935 19.5991Z" fill="#61DAFB"/>
</g>
<path d="M1.5203 47V39.212H4.4003C5.3323 39.212 6.0463 39.43 6.5423 39.866C7.0423 40.302 7.2923 40.88 7.2923 41.6C7.2923 42.308 7.0423 42.88 6.5423 43.316C6.0463 43.748 5.3323 43.964 4.4003 43.964H2.9363V47H1.5203ZM5.7323 47L3.6683 43.352H5.1803L7.5803 47H5.7323ZM2.9363 43.016H4.2563C4.7763 43.016 5.1703 42.898 5.4383 42.662C5.7063 42.422 5.8403 42.112 5.8403 41.732C5.8403 41.344 5.7183 41.032 5.4743 40.796C5.2303 40.556 4.8723 40.436 4.4003 40.436H2.9363V43.016ZM11.415 47.168C10.919 47.168 10.465 47.04 10.053 46.784C9.64095 46.528 9.31095 46.17 9.06295 45.71C8.81495 45.246 8.69095 44.704 8.69095 44.084C8.69095 43.444 8.81295 42.894 9.05695 42.434C9.30495 41.974 9.63495 41.622 10.047 41.378C10.459 41.134 10.915 41.012 11.415 41.012C11.879 41.012 12.279 41.106 12.615 41.294C12.955 41.478 13.227 41.73 13.431 42.05C13.639 42.366 13.779 42.724 13.851 43.124C13.923 43.524 13.927 43.936 13.863 44.36H9.81895V43.592H12.861L12.585 43.772C12.597 43.584 12.587 43.394 12.555 43.202C12.527 43.01 12.471 42.834 12.387 42.674C12.303 42.514 12.183 42.386 12.027 42.29C11.875 42.19 11.679 42.14 11.439 42.14C11.151 42.14 10.907 42.212 10.707 42.356C10.507 42.5 10.355 42.696 10.251 42.944C10.147 43.192 10.095 43.472 10.095 43.784V44.348C10.095 44.676 10.143 44.966 10.239 45.218C10.339 45.47 10.485 45.668 10.677 45.812C10.873 45.956 11.119 46.028 11.415 46.028C11.691 46.028 11.923 45.964 12.111 45.836C12.299 45.708 12.419 45.516 12.471 45.26H13.899C13.839 45.636 13.697 45.968 13.473 46.256C13.253 46.54 12.967 46.764 12.615 46.928C12.263 47.088 11.863 47.168 11.415 47.168ZM19.3142 47L19.1342 45.584V43.244C19.1342 42.836 19.0502 42.534 18.8822 42.338C18.7182 42.142 18.4382 42.044 18.0422 42.044C17.8142 42.044 17.6162 42.078 17.4482 42.146C17.2802 42.214 17.1502 42.312 17.0582 42.44C16.9702 42.564 16.9262 42.716 16.9262 42.896H15.3782C15.3782 42.456 15.4842 42.098 15.6962 41.822C15.9082 41.542 16.2122 41.338 16.6082 41.21C17.0082 41.078 17.4862 41.012 18.0422 41.012C18.5462 41.012 18.9862 41.094 19.3622 41.258C19.7382 41.418 20.0302 41.666 20.2382 42.002C20.4462 42.338 20.5502 42.768 20.5502 43.292V47H19.3142ZM17.4062 47.168C16.9062 47.168 16.4882 47.082 16.1522 46.91C15.8202 46.734 15.5702 46.504 15.4022 46.22C15.2342 45.936 15.1502 45.628 15.1502 45.296C15.1502 44.928 15.2462 44.62 15.4382 44.372C15.6342 44.12 15.9102 43.932 16.2662 43.808C16.6222 43.68 17.0422 43.616 17.5262 43.616C17.8422 43.616 18.1402 43.64 18.4202 43.688C18.7042 43.736 18.9862 43.8 19.2662 43.88V44.708C19.0462 44.636 18.8062 44.58 18.5462 44.54C18.2862 44.5 18.0422 44.48 17.8142 44.48C17.4782 44.48 17.2022 44.542 16.9862 44.666C16.7702 44.79 16.6622 45 16.6622 45.296C16.6622 45.512 16.7502 45.698 16.9262 45.854C17.1022 46.01 17.3822 46.088 17.7662 46.088C18.0582 46.088 18.3062 46.024 18.5102 45.896C18.7142 45.768 18.8682 45.608 18.9722 45.416C19.0802 45.224 19.1342 45.032 19.1342 44.84H19.4702C19.4702 45.26 19.3922 45.648 19.2362 46.004C19.0802 46.356 18.8482 46.638 18.5402 46.85C18.2362 47.062 17.8582 47.168 17.4062 47.168ZM24.8338 47.168C24.3458 47.168 23.8918 47.042 23.4718 46.79C23.0558 46.534 22.7178 46.176 22.4578 45.716C22.2018 45.252 22.0738 44.708 22.0738 44.084C22.0738 43.424 22.2018 42.866 22.4578 42.41C22.7178 41.95 23.0558 41.602 23.4718 41.366C23.8918 41.13 24.3458 41.012 24.8338 41.012C25.2138 41.012 25.5478 41.074 25.8358 41.198C26.1278 41.318 26.3758 41.482 26.5798 41.69C26.7838 41.894 26.9438 42.122 27.0598 42.374C27.1758 42.626 27.2498 42.88 27.2818 43.136L25.8538 43.172C25.7898 42.916 25.6698 42.704 25.4938 42.536C25.3218 42.368 25.0978 42.284 24.8218 42.284C24.5938 42.284 24.3798 42.348 24.1798 42.476C23.9798 42.6 23.8158 42.794 23.6878 43.058C23.5638 43.322 23.5018 43.664 23.5018 44.084C23.5018 44.484 23.5598 44.818 23.6758 45.086C23.7958 45.35 23.9558 45.55 24.1558 45.686C24.3558 45.818 24.5778 45.884 24.8218 45.884C25.1818 45.884 25.4438 45.798 25.6078 45.626C25.7718 45.45 25.8538 45.216 25.8538 44.924H27.2818C27.2818 45.336 27.1878 45.712 26.9998 46.052C26.8118 46.392 26.5358 46.664 26.1718 46.868C25.8078 47.068 25.3618 47.168 24.8338 47.168ZM30.9453 47.168C30.6013 47.168 30.2853 47.104 29.9973 46.976C29.7133 46.848 29.4853 46.652 29.3133 46.388C29.1453 46.124 29.0613 45.788 29.0613 45.38V39.632H30.4773V45.332C30.4773 45.812 30.7053 46.052 31.1613 46.052C31.3013 46.052 31.4413 46.036 31.5813 46.004C31.7213 45.972 31.8813 45.924 32.0613 45.86L32.2653 46.856C32.0413 46.944 31.8233 47.018 31.6113 47.078C31.3993 47.138 31.1773 47.168 30.9453 47.168ZM28.2453 42.116V41.18H32.0613V42.116H28.2453Z" fill="#3DCFB6"/>
<path d="M70.6951 2.66675L67.0006 9.06675L63.3049 2.66675H51L67.0006 30.3805L83 2.66675H70.6951Z" fill="#41B883"/>
<path d="M70.695 2.66675L67.0005 9.06675L63.3048 2.66675H57.3999L67.0005 19.2945L76.5999 2.66675H70.695Z" fill="#34495E"/>
<path d="M52.6396 45.452L54.6316 39.212H56.1196L53.4436 47H51.9556L49.3156 39.212H50.8156L52.7836 45.452H52.6396ZM61.3221 41.156H62.7381V47H61.3221V41.156ZM57.3261 41.156H58.7421V44.732C58.7421 45.112 58.8361 45.398 59.0241 45.59C59.2121 45.778 59.4701 45.872 59.7981 45.872C60.0781 45.872 60.3321 45.8 60.5601 45.656C60.7921 45.508 60.9761 45.292 61.1121 45.008C61.2521 44.72 61.3221 44.364 61.3221 43.94H61.7061C61.7061 44.652 61.6141 45.242 61.4301 45.71C61.2461 46.178 60.9921 46.528 60.6681 46.76C60.3441 46.992 59.9701 47.108 59.5461 47.108C59.1301 47.108 58.7541 47.034 58.4181 46.886C58.0821 46.738 57.8161 46.5 57.6201 46.172C57.4241 45.844 57.3261 45.412 57.3261 44.876V41.156ZM67.1415 47.168C66.6455 47.168 66.1915 47.04 65.7795 46.784C65.3675 46.528 65.0375 46.17 64.7895 45.71C64.5415 45.246 64.4175 44.704 64.4175 44.084C64.4175 43.444 64.5395 42.894 64.7835 42.434C65.0315 41.974 65.3615 41.622 65.7735 41.378C66.1855 41.134 66.6415 41.012 67.1415 41.012C67.6055 41.012 68.0055 41.106 68.3415 41.294C68.6815 41.478 68.9535 41.73 69.1575 42.05C69.3655 42.366 69.5055 42.724 69.5775 43.124C69.6495 43.524 69.6535 43.936 69.5895 44.36H65.5455V43.592H68.5875L68.3115 43.772C68.3235 43.584 68.3135 43.394 68.2815 43.202C68.2535 43.01 68.1975 42.834 68.1135 42.674C68.0295 42.514 67.9095 42.386 67.7535 42.29C67.6015 42.19 67.4055 42.14 67.1655 42.14C66.8775 42.14 66.6335 42.212 66.4335 42.356C66.2335 42.5 66.0815 42.696 65.9775 42.944C65.8735 43.192 65.8215 43.472 65.8215 43.784V44.348C65.8215 44.676 65.8695 44.966 65.9655 45.218C66.0655 45.47 66.2115 45.668 66.4035 45.812C66.5995 45.956 66.8455 46.028 67.1415 46.028C67.4175 46.028 67.6495 45.964 67.8375 45.836C68.0255 45.708 68.1455 45.516 68.1975 45.26H69.6255C69.5655 45.636 69.4235 45.968 69.1995 46.256C68.9795 46.54 68.6935 46.764 68.3415 46.928C67.9895 47.088 67.5895 47.168 67.1415 47.168ZM73.444 46.676V45.26C73.764 45.444 74.076 45.578 74.38 45.662C74.688 45.746 74.972 45.788 75.232 45.788C75.576 45.788 75.826 45.688 75.982 45.488C76.138 45.288 76.216 44.984 76.216 44.576V39.212H77.644V44.576C77.644 45.204 77.546 45.708 77.35 46.088C77.154 46.468 76.884 46.744 76.54 46.916C76.196 47.084 75.8 47.168 75.352 47.168C75 47.168 74.664 47.12 74.344 47.024C74.024 46.932 73.724 46.816 73.444 46.676ZM81.8603 47.168C81.3003 47.168 80.8183 47.092 80.4143 46.94C80.0143 46.784 79.7063 46.562 79.4903 46.274C79.2743 45.982 79.1643 45.632 79.1603 45.224H80.4683C80.4803 45.512 80.5943 45.722 80.8103 45.854C81.0263 45.986 81.3203 46.052 81.6923 46.052C81.8963 46.052 82.0763 46.022 82.2323 45.962C82.3923 45.902 82.5163 45.82 82.6043 45.716C82.6923 45.612 82.7363 45.496 82.7363 45.368C82.7363 45.204 82.6763 45.076 82.5563 44.984C82.4403 44.888 82.2523 44.8 81.9923 44.72L80.7203 44.264C80.2643 44.1 79.9143 43.884 79.6703 43.616C79.4263 43.348 79.3043 43.028 79.3043 42.656C79.3043 42.164 79.5263 41.768 79.9703 41.468C80.4183 41.164 81.0163 41.012 81.7643 41.012C82.5083 41.012 83.0823 41.176 83.4863 41.504C83.8943 41.828 84.1043 42.24 84.1163 42.74H82.7843C82.7643 42.548 82.6723 42.396 82.5083 42.284C82.3443 42.172 82.0963 42.116 81.7643 42.116C81.4643 42.116 81.2283 42.178 81.0563 42.302C80.8883 42.422 80.8043 42.564 80.8043 42.728C80.8043 43.004 81.0403 43.212 81.5123 43.352L82.8923 43.868C83.3403 44.02 83.6883 44.216 83.9363 44.456C84.1843 44.696 84.3083 45 84.3083 45.368C84.3083 45.676 84.2043 45.968 83.9963 46.244C83.7923 46.516 83.5063 46.738 83.1383 46.91C82.7703 47.082 82.3443 47.168 81.8603 47.168Z" fill="#3DCFB6"/>
<defs>
<clipPath id="clip0_245_2967">
<rect width="32" height="32" fill="white" transform="translate(0.5)"/>
</clipPath>
</defs>
</svg>
