<svg width="60" height="60" viewBox="0 0 60 60" fill="none" xmlns="http://www.w3.org/2000/svg">
<path fill-rule="evenodd" clip-rule="evenodd" d="M56.7991 17.769L51.8363 24.7081L46.8735 17.769H49.5794C49.3731 12.6132 45.1141 8.48858 39.9086 8.48858C35.5161 8.48858 31.791 11.4365 30.614 15.452C29.1822 14.991 27.7019 14.6998 26.1973 14.5664C26.3671 13.9234 26.5856 13.2804 26.8525 12.6618C27.5684 10.9755 28.5877 9.45909 29.886 8.16104C31.1843 6.86299 32.7011 5.83183 34.3877 5.12821C36.135 4.37607 37.9915 4 39.9086 4C41.8258 4 43.6823 4.37607 45.4296 5.11608C47.1162 5.83183 48.6329 6.85086 49.9312 8.14891C51.2296 9.44696 52.2488 10.9634 52.9647 12.6496C53.6564 14.2752 54.0325 15.9979 54.0689 17.769H56.7991Z" fill="white"/>
<path fill-rule="evenodd" clip-rule="evenodd" d="M49.8681 56.4091V53.4248H32.7593C32.8806 53.3642 33.002 53.3157 33.1233 53.255C34.9798 52.3694 36.6907 51.2169 38.2195 49.8097C38.4258 49.6156 38.62 49.4336 38.802 49.2517C39.0083 49.0454 39.2267 48.8271 39.4329 48.5966C39.6756 48.3297 39.9183 48.0507 40.1367 47.7717H49.8681V44.7874L57.9979 50.5982L49.8681 56.4091Z" fill="white"/>
<path fill-rule="evenodd" clip-rule="evenodd" d="M43.5587 34.8509C43.5587 37.4349 43.0491 39.946 42.0541 42.3116C41.2047 44.3254 40.0156 46.1694 38.5353 47.7829C38.3411 47.9891 38.147 48.1953 37.9528 48.4016C37.7708 48.5835 37.5888 48.7534 37.4068 48.9353C35.975 50.2576 34.3733 51.3373 32.626 52.1744C32.3834 52.2957 32.1286 52.4049 31.8737 52.5141C31.8616 52.5141 31.8616 52.5262 31.8495 52.5262C30.3934 53.1449 28.8281 53.4482 27.2386 53.4482H2V47.8071H25.4306C32.5168 47.8071 38.329 42.1418 38.4261 35.0571C38.4261 34.9965 38.4261 34.9358 38.4261 34.8752C38.4261 27.1354 32.1407 20.8514 24.3992 20.8514C16.6578 20.8271 10.3724 27.099 10.3724 34.8509H13.6243L7.81215 42.9789L2 34.8509H5.25189C5.25189 32.2669 5.76152 29.7557 6.7565 27.3901C7.72722 25.1095 9.09835 23.0593 10.8578 21.3002C12.6172 19.5412 14.6678 18.1582 16.949 17.1998C19.3151 16.2051 21.8268 15.6956 24.4114 15.6956C24.9331 15.6956 25.4428 15.7198 25.9524 15.7562C27.457 15.8775 28.9252 16.1687 30.357 16.6418C30.8666 16.8116 31.3641 16.9936 31.8616 17.212C34.1428 18.1825 36.1934 19.5533 37.9528 21.3124C39.7123 23.0714 41.0955 25.1216 42.0541 27.4023C43.0491 29.7557 43.5587 32.2669 43.5587 34.8509Z" fill="white"/>
</svg>
