<svg width="1020" height="483" viewBox="0 0 1020 483" fill="none" xmlns="http://www.w3.org/2000/svg">
<rect x="3" y="3" width="477" height="477" rx="23" stroke="white" stroke-width="6"/>
<path d="M834.481 229.988L834.595 232.87H837.478H869.565H872.533L872.565 229.902L873.347 157.65C873.347 157.649 873.347 157.647 873.347 157.645C873.525 144.788 871.387 133.537 866.805 123.992C862.369 114.211 855.416 106.616 846.016 101.268C836.743 95.893 825.231 93.3044 811.652 93.3044C800.398 93.3044 790.651 95.088 782.512 98.7842C774.704 102.236 768.25 106.821 763.232 112.576C758.362 117.991 754.613 123.642 752.034 129.537L750.731 132.515L753.805 133.575L784.065 144.01L786.329 144.791L787.592 142.756C790.49 138.088 793.952 134.748 797.944 132.598C801.993 130.418 806.541 129.304 811.652 129.304C817.227 129.304 821.215 130.73 823.993 133.23L824.051 133.282L824.112 133.332C827.18 135.815 829.502 139.488 830.938 144.595L830.95 144.636L830.963 144.678C831.302 145.762 831.607 146.899 831.878 148.087H804.869C787.62 148.087 773.762 151.728 763.667 159.391C753.544 167.033 748.652 178.451 748.652 193.087C748.652 206.528 753.206 217.271 762.538 224.889L762.549 224.899L762.561 224.908C771.967 232.433 784.894 236 800.956 236C815.43 236 826.719 231.986 834.225 223.534L834.481 229.988ZM833.213 179.652C832.781 182.558 831.715 185.465 829.963 188.39C827.622 192.127 824.412 195.275 820.268 197.828C816.449 200.115 811.958 201.304 806.696 201.304C800.74 201.304 796.501 200.307 793.677 198.629C790.997 196.872 789.869 194.741 789.869 192.044C789.869 188.28 791.445 185.492 794.935 183.399L794.972 183.376L795.008 183.353C798.563 181.078 805.602 179.652 816.869 179.652H833.213Z" stroke="white" stroke-width="6"/>
<path d="M685.261 229.87V232.87H688.261H724H727V229.87V47.2609V44.2609H724H688.261H685.261V47.2609V117.043H606.739V47V44H603.739H568H565V47V229.87V232.87H568H603.739H606.739V229.87V155.913H685.261V229.87Z" stroke="white" stroke-width="6"/>
<path d="M909.128 437.99L909.154 438.005L909.18 438.02C920.105 444.028 932.438 447 946.104 447C959.768 447 971.945 444.029 982.544 437.999L982.551 437.995L982.558 437.99C993.285 431.809 1001.67 423.332 1007.68 412.595C1013.7 401.827 1016.67 389.484 1016.67 375.652C1016.67 361.82 1013.7 349.477 1007.68 338.709C1001.67 327.97 993.278 319.574 982.541 313.565C971.772 307.363 959.422 304.304 945.582 304.304C931.908 304.304 919.647 307.366 908.884 313.565C898.147 319.574 889.753 327.97 883.747 338.709C877.724 349.477 874.756 361.82 874.756 375.652C874.756 389.484 877.724 401.827 883.747 412.595L883.756 412.611L883.766 412.628C889.942 423.347 898.409 431.814 909.128 437.99ZM971.595 393.354L971.586 393.371L971.577 393.389C969.2 398.301 965.827 402.133 961.438 404.955C957.105 407.74 952.03 409.174 946.104 409.174C940.179 409.174 934.997 407.74 930.469 404.929C925.902 402.094 922.361 398.249 919.822 393.337C917.282 388.249 915.973 382.377 915.973 375.652C915.973 368.917 917.286 363.143 919.813 358.245L919.822 358.228L919.831 358.211C922.387 353.098 925.855 349.178 930.228 346.362C934.765 343.551 939.857 342.13 945.582 342.13C951.508 342.13 956.584 343.564 960.916 346.349L960.936 346.362L960.957 346.375C965.505 349.198 969.048 353.117 971.595 358.211L971.603 358.228L971.612 358.245C974.14 363.143 975.452 368.917 975.452 375.652C975.452 382.385 974.14 388.262 971.595 393.354Z" stroke="white" stroke-width="6"/>
<path d="M821.488 440.988L821.602 443.869H824.486H856.573H859.54L859.573 440.902L860.355 368.65C860.355 368.649 860.355 368.647 860.355 368.645C860.533 355.788 858.395 344.537 853.813 334.992C849.377 325.211 842.423 317.616 833.024 312.268C823.75 306.893 812.239 304.304 798.66 304.304C787.406 304.304 777.658 306.088 769.52 309.784C761.712 313.236 755.258 317.821 750.24 323.576C745.37 328.99 741.62 334.642 739.042 340.537L737.738 343.515L740.812 344.575L771.073 355.01L773.337 355.791L774.6 353.756C777.497 349.088 780.959 345.747 784.951 343.598C789 341.418 793.548 340.304 798.66 340.304C804.234 340.304 808.222 341.729 811.001 344.23L811.059 344.282L811.12 344.332C814.188 346.815 816.509 350.488 817.946 355.595L817.957 355.636L817.97 355.677C818.309 356.762 818.614 357.898 818.885 359.087H791.877C774.627 359.087 760.77 362.727 750.674 370.391C740.551 378.033 735.66 389.451 735.66 404.087C735.66 417.528 740.213 428.271 749.545 435.889L749.557 435.898L749.568 435.908C758.975 443.433 771.902 447 787.964 447C802.438 447 813.727 442.986 821.232 434.534L821.488 440.988ZM820.22 390.652C819.789 393.557 818.722 396.465 816.971 399.39C814.63 403.126 811.419 406.275 807.276 408.827C803.456 411.115 798.965 412.304 793.703 412.304C787.747 412.304 783.508 411.307 780.684 409.629C778.004 407.872 776.877 405.741 776.877 403.043C776.877 399.28 778.453 396.492 781.942 394.398L781.979 394.376L782.016 394.353C785.571 392.078 792.61 390.652 803.877 390.652H820.22Z" stroke="white" stroke-width="6"/>
<path d="M565 440.869V443.869H568H626.435C645.471 443.869 662.413 439.863 677.175 431.764C692.07 423.687 703.692 412.527 711.977 398.304C720.451 384.054 724.652 367.778 724.652 349.565C724.652 331.188 720.456 314.906 711.973 300.819C703.688 286.6 692.068 275.442 677.176 267.366C662.414 259.267 645.472 255.261 626.435 255.261H568H565V258.261V440.869ZM666.088 388.627L666.07 388.644L666.053 388.661C661.126 393.587 655.287 397.459 648.503 400.272C641.766 403.066 634.421 404.478 626.435 404.478H606.739V294.652H626.435C634.421 294.652 641.766 296.064 648.503 298.858C655.287 301.671 661.126 305.543 666.053 310.469L666.07 310.486L666.088 310.503C671.176 315.427 675.12 321.256 677.924 328.018L677.929 328.031L677.935 328.043C680.721 334.599 682.13 341.761 682.13 349.565C682.13 357.363 680.723 364.619 677.93 371.36C675.129 377.945 671.185 383.693 666.088 388.627Z" stroke="white" stroke-width="6"/>
<rect x="339" y="278" width="36" height="118" transform="rotate(90 339 278)" fill="#3DCFB6" stroke="#3DCFB6" stroke-width="6"/>
<path d="M73 146H70V149V314V317H73H110H113V314V255H187H190V252V216V213H187L113 213V149V146H110H73Z" stroke="white" stroke-width="6"/>
<path fill-rule="evenodd" clip-rule="evenodd" d="M163.189 245.589L120.163 288.615L145.548 314L193.693 265.855L193.756 265.918L228.029 231.645L211.087 214.704L211.088 214.703L145.385 149L120 174.385L161.623 216.008L161.701 215.929L177.285 231.513L163.199 245.599L163.189 245.589Z" fill="#3DCFB6"/>
<path d="M120.163 288.615L118.041 286.493L115.92 288.615L118.041 290.736L120.163 288.615ZM163.189 245.589L165.31 243.467L163.189 241.346L161.067 243.467L163.189 245.589ZM145.548 314L143.426 316.121L145.548 318.242L147.669 316.121L145.548 314ZM193.693 265.855L195.814 263.733L193.693 261.612L191.571 263.733L193.693 265.855ZM193.756 265.918L191.635 268.04L193.756 270.161L195.877 268.04L193.756 265.918ZM228.029 231.645L230.15 233.767L232.272 231.645L230.15 229.524L228.029 231.645ZM211.087 214.704L208.966 212.582L206.844 214.704L208.966 216.825L211.087 214.704ZM211.088 214.703L213.209 216.824L215.331 214.703L213.209 212.581L211.088 214.703ZM145.385 149L147.506 146.879L145.385 144.757L143.264 146.879L145.385 149ZM120 174.385L117.879 172.264L115.757 174.385L117.879 176.506L120 174.385ZM161.623 216.008L159.501 218.129L161.623 220.251L163.744 218.129L161.623 216.008ZM161.701 215.929L163.823 213.808L161.701 211.686L159.58 213.808L161.701 215.929ZM177.285 231.513L179.407 233.634L181.528 231.513L179.407 229.392L177.285 231.513ZM163.199 245.599L161.078 247.72L163.199 249.842L165.32 247.72L163.199 245.599ZM122.284 290.736L165.31 247.71L161.067 243.467L118.041 286.493L122.284 290.736ZM147.669 311.878L122.284 286.493L118.041 290.736L143.426 316.121L147.669 311.878ZM191.571 263.733L143.426 311.878L147.669 316.121L195.814 267.976L191.571 263.733ZM195.877 263.797L195.814 263.733L191.571 267.976L191.635 268.04L195.877 263.797ZM225.908 229.524L191.635 263.797L195.877 268.04L230.15 233.767L225.908 229.524ZM208.966 216.825L225.908 233.767L230.15 229.524L213.208 212.582L208.966 216.825ZM208.967 212.581L208.966 212.582L213.208 216.825L213.209 216.824L208.967 212.581ZM143.264 151.121L208.967 216.824L213.209 212.581L147.506 146.879L143.264 151.121ZM122.121 176.506L147.506 151.121L143.264 146.879L117.879 172.264L122.121 176.506ZM163.744 213.887L122.121 172.264L117.879 176.506L159.501 218.129L163.744 213.887ZM163.744 218.129L163.823 218.05L159.58 213.808L159.501 213.887L163.744 218.129ZM159.58 218.05L175.164 233.634L179.407 229.392L163.823 213.808L159.58 218.05ZM175.164 229.392L161.078 243.478L165.32 247.72L179.407 233.634L175.164 229.392ZM165.32 243.478L165.31 243.467L161.067 247.71L161.078 247.72L165.32 243.478Z" fill="#3DCFB6"/>
<mask id="path-11-outside-1_468_4342" maskUnits="userSpaceOnUse" x="271.875" y="143" width="155" height="179" fill="black">
<rect fill="white" x="271.875" y="143" width="155" height="179"/>
<path fill-rule="evenodd" clip-rule="evenodd" d="M277.875 264.492H310.933V179.798H331.926C339.647 179.798 346.806 181.161 353.401 183.888C359.997 186.615 365.708 190.385 370.534 195.197C375.52 200.009 379.381 205.703 382.116 212.28C384.851 218.696 386.218 225.674 386.218 233.213C386.218 240.752 384.851 247.81 382.116 254.386C379.381 260.802 375.52 266.417 370.534 271.229C367.417 274.336 363.932 277.009 360.077 279.247V313.718C366.241 311.966 372.059 309.592 377.531 306.598C390.883 299.38 401.259 289.435 408.659 276.763C416.22 264.091 420 249.574 420 233.213C420 216.691 416.22 202.174 408.659 189.663C401.259 176.991 390.883 167.046 377.531 159.827C364.34 152.609 349.138 149 331.926 149H277.875V264.492Z"/>
</mask>
<path d="M310.933 264.492V270.492H316.933V264.492H310.933ZM277.875 264.492H271.875V270.492H277.875V264.492ZM310.933 179.798V173.798H304.933V179.798H310.933ZM353.401 183.888L351.109 189.433H351.109L353.401 183.888ZM370.534 195.197L366.297 199.445L366.332 199.48L366.367 199.514L370.534 195.197ZM382.116 212.28L376.576 214.584L376.586 214.608L376.596 214.632L382.116 212.28ZM382.116 254.386L387.636 256.739L387.646 256.714L387.656 256.69L382.116 254.386ZM370.534 271.229L366.367 266.911L366.332 266.945L366.297 266.98L370.534 271.229ZM360.077 279.247L357.065 274.058L354.077 275.793V279.247H360.077ZM360.077 313.718H354.077V321.661L361.718 319.489L360.077 313.718ZM377.531 306.598L374.678 301.32L374.664 301.327L374.651 301.335L377.531 306.598ZM408.659 276.763L403.506 273.688L403.492 273.713L403.478 273.737L408.659 276.763ZM408.659 189.663L403.478 192.688L403.5 192.727L403.524 192.766L408.659 189.663ZM377.531 159.827L374.651 165.091L374.664 165.098L374.678 165.105L377.531 159.827ZM277.875 149V143H271.875V149H277.875ZM310.933 258.492H277.875V270.492H310.933V258.492ZM304.933 179.798V264.492H316.933V179.798H304.933ZM331.926 173.798H310.933V185.798H331.926V173.798ZM355.694 178.343C348.314 175.292 340.369 173.798 331.926 173.798V185.798C338.926 185.798 345.298 187.03 351.109 189.433L355.694 178.343ZM374.77 190.948C369.361 185.555 362.981 181.356 355.694 178.343L351.109 189.433C357.013 191.874 362.054 195.215 366.297 199.445L374.77 190.948ZM387.656 209.976C384.615 202.663 380.294 196.277 374.7 190.879L366.367 199.514C370.747 203.74 374.147 208.744 376.576 214.584L387.656 209.976ZM392.218 233.213C392.218 224.931 390.712 217.146 387.636 209.927L376.596 214.632C378.989 220.246 380.218 226.416 380.218 233.213H392.218ZM387.656 256.69C390.712 249.341 392.218 241.496 392.218 233.213H380.218C380.218 240.008 378.989 246.278 376.576 252.082L387.656 256.69ZM374.7 275.546C380.269 270.173 384.588 263.889 387.636 256.739L376.596 252.034C374.175 257.716 370.772 262.66 366.367 266.911L374.7 275.546ZM363.09 284.436C367.385 281.942 371.283 278.954 374.77 275.477L366.297 266.98C363.551 269.718 360.478 272.076 357.065 274.058L363.09 284.436ZM366.077 313.718V279.247H354.077V313.718H366.077ZM374.651 301.335C369.583 304.108 364.182 306.313 358.437 307.946L361.718 319.489C368.301 317.618 374.536 315.077 380.412 311.862L374.651 301.335ZM403.478 273.737C396.652 285.425 387.097 294.606 374.678 301.32L380.385 311.876C394.67 304.154 405.866 293.444 413.84 279.788L403.478 273.737ZM414 233.213C414 248.613 410.454 262.045 403.506 273.688L413.811 279.837C421.986 266.137 426 250.535 426 233.213H414ZM403.524 192.766C410.448 204.224 414 217.639 414 233.213H426C426 215.743 421.991 200.125 413.794 186.56L403.524 192.766ZM374.678 165.105C387.097 171.819 396.652 181 403.478 192.688L413.84 186.637C405.866 172.981 394.67 162.272 380.385 154.549L374.678 165.105ZM331.926 155C348.279 155 362.464 158.422 374.651 165.091L380.412 154.564C366.217 146.796 349.998 143 331.926 143V155ZM277.875 155H331.926V143H277.875V155ZM283.875 264.492V149H271.875V264.492H283.875Z" fill="white" mask="url(#path-11-outside-1_468_4342)"/>
</svg>
