<svg width="1008" height="471" viewBox="0 0 1008 471" fill="none" xmlns="http://www.w3.org/2000/svg">
<rect width="471" height="471" rx="20" fill="black"/>
<path d="M831.478 219.87L830.435 193.522V153.87C830.435 146.044 829.565 139.348 827.826 133.783C826.261 128.217 823.652 123.957 820 121C816.522 117.87 811.739 116.304 805.652 116.304C800.087 116.304 795.043 117.522 790.522 119.957C786 122.391 782.174 126.131 779.043 131.174L748.783 120.739C751.217 115.174 754.783 109.783 759.478 104.565C764.174 99.174 770.261 94.8262 777.739 91.5218C785.391 88.0436 794.696 86.3044 805.652 86.3044C818.869 86.3044 829.826 88.8262 838.522 93.8697C847.391 98.9131 853.913 106.044 858.087 115.261C862.435 124.304 864.522 135.087 864.348 147.609L863.565 219.87H831.478ZM794.956 223C779.304 223 767.13 219.522 758.435 212.565C749.913 205.609 745.652 195.783 745.652 183.087C745.652 169.174 750.261 158.739 759.478 151.783C768.869 144.652 782 141.087 798.869 141.087H832V166.652H810.869C799.565 166.652 791.739 168.044 787.391 170.826C783.043 173.435 780.869 177.174 780.869 182.044C780.869 185.87 782.609 188.913 786.087 191.174C789.565 193.261 794.435 194.304 800.696 194.304C806.435 194.304 811.478 193 815.826 190.391C820.348 187.609 823.913 184.13 826.522 179.957C829.13 175.609 830.435 171.174 830.435 166.652H838.783C838.783 184.391 835.391 198.217 828.609 208.13C822 218.044 810.783 223 794.956 223Z" fill="white"/>
<path d="M682.261 219.87V37.2609H718V219.87H682.261ZM562 219.87V37H597.739V219.87H562ZM588.609 142.913V110.043H699.217V142.913H588.609Z" fill="white"/>
<path d="M940.104 434C926.887 434 915.06 431.13 904.626 425.391C894.365 419.478 886.278 411.391 880.365 401.13C874.626 390.87 871.756 379.044 871.756 365.652C871.756 352.261 874.626 340.435 880.365 330.174C886.104 319.913 894.104 311.913 904.365 306.174C914.626 300.261 926.365 297.304 939.582 297.304C952.973 297.304 964.8 300.261 975.06 306.174C985.321 311.913 993.321 319.913 999.06 330.174C1004.8 340.435 1007.67 352.261 1007.67 365.652C1007.67 379.044 1004.8 390.87 999.06 401.13C993.321 411.391 985.321 419.478 975.06 425.391C964.973 431.13 953.321 434 940.104 434ZM940.104 402.174C946.539 402.174 952.191 400.609 957.06 397.478C961.93 394.348 965.669 390.087 968.278 384.696C971.06 379.13 972.452 372.783 972.452 365.652C972.452 358.522 971.06 352.261 968.278 346.87C965.495 341.304 961.582 336.957 956.539 333.826C951.669 330.696 946.017 329.131 939.582 329.131C933.321 329.131 927.669 330.696 922.626 333.826C917.756 336.957 913.93 341.304 911.147 346.87C908.365 352.261 906.973 358.522 906.973 365.652C906.973 372.783 908.365 379.13 911.147 384.696C913.93 390.087 917.843 394.348 922.887 397.478C927.93 400.609 933.669 402.174 940.104 402.174Z" fill="white"/>
<path d="M818.486 430.87L817.442 404.522V364.87C817.442 357.044 816.573 350.348 814.834 344.783C813.268 339.217 810.66 334.957 807.007 332C803.529 328.87 798.747 327.304 792.66 327.304C787.094 327.304 782.051 328.522 777.529 330.957C773.007 333.391 769.181 337.131 766.051 342.174L735.79 331.739C738.225 326.174 741.79 320.783 746.486 315.565C751.181 310.174 757.268 305.826 764.747 302.522C772.399 299.044 781.703 297.304 792.66 297.304C805.877 297.304 816.834 299.826 825.529 304.87C834.399 309.913 840.92 317.044 845.094 326.261C849.442 335.304 851.529 346.087 851.355 358.609L850.573 430.87H818.486ZM781.964 434C766.312 434 754.138 430.522 745.442 423.565C736.921 416.609 732.66 406.783 732.66 394.087C732.66 380.174 737.268 369.739 746.486 362.783C755.877 355.652 769.007 352.087 785.877 352.087H819.007V377.652H797.877C786.573 377.652 778.747 379.044 774.399 381.826C770.051 384.435 767.877 388.174 767.877 393.044C767.877 396.87 769.616 399.913 773.094 402.174C776.573 404.261 781.442 405.304 787.703 405.304C793.442 405.304 798.486 404 802.834 401.391C807.355 398.609 810.921 395.13 813.529 390.957C816.138 386.609 817.442 382.174 817.442 377.652H825.79C825.79 395.391 822.399 409.217 815.616 419.13C809.007 429.044 797.79 434 781.964 434Z" fill="white"/>
<path d="M562 430.869V248.261H620.435C639.043 248.261 655.478 252.174 669.739 260C684.174 267.826 695.391 278.609 703.391 292.348C711.565 305.913 715.652 321.652 715.652 339.565C715.652 357.304 711.565 373.043 703.391 386.783C695.391 400.522 684.174 411.304 669.739 419.13C655.478 426.956 639.043 430.869 620.435 430.869H562ZM597.739 397.478H620.435C628.783 397.478 636.522 396 643.652 393.043C650.783 390.087 656.956 386 662.174 380.783C667.565 375.565 671.739 369.478 674.696 362.522C677.652 355.391 679.13 347.739 679.13 339.565C679.13 331.391 677.652 323.826 674.696 316.87C671.739 309.739 667.565 303.565 662.174 298.348C656.956 293.13 650.783 289.043 643.652 286.087C636.522 283.13 628.783 281.652 620.435 281.652H597.739V397.478Z" fill="white"/>
<rect x="333" y="272" width="36" height="118" transform="rotate(90 333 272)" fill="#3DCFB6"/>
<path d="M67 143H104V308H67V143Z" fill="white"/>
<path d="M181 210V246H71L71 210L181 210Z" fill="white"/>
<path fill-rule="evenodd" clip-rule="evenodd" d="M157.189 239.589L114.163 282.615L139.548 308L187.693 259.855L187.756 259.918L222.029 225.645L205.087 208.704L205.088 208.703L139.385 143L114 168.385L155.623 210.008L155.701 209.929L171.285 225.513L157.199 239.599L157.189 239.589Z" fill="#3DCFB6"/>
<path fill-rule="evenodd" clip-rule="evenodd" d="M271.875 258.492H304.933V173.798H325.926C333.647 173.798 340.806 175.161 347.401 177.888C353.997 180.615 359.708 184.385 364.534 189.197C369.52 194.009 373.381 199.703 376.116 206.28C378.851 212.696 380.218 219.674 380.218 227.213C380.218 234.752 378.851 241.81 376.116 248.386C373.381 254.802 369.52 260.417 364.534 265.229C361.417 268.336 357.932 271.009 354.077 273.247V307.718C360.241 305.966 366.059 303.592 371.531 300.598C384.883 293.38 395.259 283.435 402.659 270.763C410.22 258.091 414 243.574 414 227.213C414 210.691 410.22 196.174 402.659 183.663C395.259 170.991 384.883 161.046 371.531 153.827C358.34 146.609 343.138 143 325.926 143H271.875V258.492Z" fill="white"/>
</svg>
