<svg width="28" height="22" viewBox="0 0 28 22" fill="none" xmlns="http://www.w3.org/2000/svg">
<path d="M3.33317 21.6667C2.59984 21.6667 1.97206 21.4056 1.44984 20.8834C0.927615 20.3612 0.666504 19.7334 0.666504 19V3.00004C0.666504 2.26671 0.927615 1.63893 1.44984 1.11671C1.97206 0.594485 2.59984 0.333374 3.33317 0.333374H24.6665C25.3998 0.333374 26.0276 0.594485 26.5498 1.11671C27.0721 1.63893 27.3332 2.26671 27.3332 3.00004V19C27.3332 19.7334 27.0721 20.3612 26.5498 20.8834C26.0276 21.4056 25.3998 21.6667 24.6665 21.6667H3.33317ZM13.9998 12.1C14.1109 12.1 14.2276 12.0834 14.3498 12.05C14.4721 12.0167 14.5887 11.9667 14.6998 11.9L24.1332 6.00004C24.3109 5.88893 24.4443 5.75004 24.5332 5.58337C24.6221 5.41671 24.6665 5.23337 24.6665 5.03337C24.6665 4.58893 24.4776 4.2556 24.0998 4.03337C23.7221 3.81115 23.3332 3.82226 22.9332 4.06671L13.9998 9.66671L5.0665 4.06671C4.6665 3.82226 4.27761 3.81671 3.89984 4.05004C3.52206 4.28337 3.33317 4.61115 3.33317 5.03337C3.33317 5.2556 3.37761 5.45004 3.4665 5.61671C3.55539 5.78337 3.68873 5.91115 3.8665 6.00004L13.2998 11.9C13.4109 11.9667 13.5276 12.0167 13.6498 12.05C13.7721 12.0834 13.8887 12.1 13.9998 12.1Z" fill="#3DCFB6"/>
</svg>
