<svg width="13" height="13" viewBox="0 0 13 13" fill="none" xmlns="http://www.w3.org/2000/svg">
<path d="M10.5675 3.39896L1.68683 12.2798C1.48047 12.486 1.25023 12.5842 0.996115 12.5743C0.741997 12.5644 0.511837 12.4563 0.305636 12.2501C0.0992746 12.0438 -0.00390625 11.8086 -0.00390625 11.5446C-0.00390625 11.2805 0.0992746 11.0453 0.305636 10.839L9.15656 1.98805H1.78674C1.50802 1.98805 1.27267 1.89254 1.08069 1.70151C0.888542 1.51032 0.792469 1.27609 0.792469 0.998814C0.792469 0.721537 0.888542 0.485626 1.08069 0.291084C1.27267 0.0967023 1.50802 -0.000488281 1.78674 -0.000488281H11.5617C11.8405 -0.000488281 12.0759 0.0955053 12.268 0.287491C12.46 0.479637 12.556 0.715067 12.556 0.993783V10.7688C12.556 11.0475 12.4605 11.2829 12.2695 11.4751C12.0783 11.6671 11.844 11.7631 11.5668 11.7631C11.2895 11.7631 11.0537 11.6671 10.8593 11.4751C10.6647 11.2829 10.5675 11.0475 10.5675 10.7688V3.39896Z" fill="white"/>
</svg>
