<svg width="19" height="20" viewBox="0 0 19 20" fill="none" xmlns="http://www.w3.org/2000/svg">
<path d="M16.772 10.6664H1.33366C1.14388 10.6664 0.985325 10.6028 0.857992 10.4754C0.730659 10.3481 0.666992 10.1896 0.666992 9.99978C0.666992 9.81 0.730659 9.65145 0.857992 9.52411C0.985325 9.39678 1.14388 9.33311 1.33366 9.33311H16.772L9.52099 2.08178C9.39099 1.952 9.32299 1.799 9.31699 1.62278C9.31099 1.44678 9.38155 1.28522 9.52866 1.13811C9.67555 0.996336 9.83277 0.924113 10.0003 0.921447C10.1679 0.919002 10.3251 0.991225 10.472 1.13811L18.5797 9.24578C18.6961 9.36222 18.7778 9.48111 18.8247 9.60245C18.8718 9.72378 18.8953 9.85622 18.8953 9.99978C18.8953 10.1433 18.8718 10.2758 18.8247 10.3971C18.7778 10.5184 18.6961 10.6373 18.5797 10.7538L10.472 18.8614C10.3473 18.9861 10.1957 19.0528 10.017 19.0614C9.83833 19.0699 9.67555 19.0032 9.52866 18.8614C9.38155 18.7143 9.30799 18.5558 9.30799 18.3858C9.30799 18.2156 9.38155 18.057 9.52866 17.9101L16.772 10.6664Z" fill="#3DCFB6"/>
</svg>
