<svg width="24" height="24" viewBox="0 0 24 24" fill="none" xmlns="http://www.w3.org/2000/svg">
<path d="M9.17696 21.9567C7.60782 21.5018 6.22783 20.6643 5.02299 19.4946C4.6447 19.6318 4.25941 19.769 3.86714 19.8989C3.68499 19.9567 3.50287 19.935 3.31373 19.8628C2.9775 19.7328 2.77435 19.4802 2.62724 19.1697C2.42409 18.7581 2.16491 18.3827 1.96176 17.9711C1.77963 17.5884 1.51344 17.2563 1.35933 16.8592C1.28227 16.6643 1.07913 16.5343 1.07913 16.2888C0.896991 15.9855 1.07212 15.7184 1.1772 15.4512C1.20522 15.3791 1.24024 15.2852 1.30329 15.2563C1.55547 15.1408 1.68156 14.8809 1.89171 14.722C1.98978 14.6498 2.09486 14.5704 2.20694 14.4837C2.04582 13.6534 1.90572 12.8231 1.90572 11.9711C1.90572 11.1264 2.05283 10.3105 2.20694 9.50181C1.93374 9.24189 1.68156 8.98916 1.41537 8.75091C1.14217 8.50543 0.981054 8.20217 1.01608 7.88447C1.03709 7.7112 1.08613 7.52349 1.17019 7.37906C1.42938 6.95306 1.66755 6.50541 1.91973 6.07221C2.12288 5.72563 2.298 5.3646 2.52217 5.02526C2.64125 4.85199 2.7113 4.64983 2.83039 4.46931C3.06155 4.12997 3.52389 3.9639 3.90216 4.07944C4.23841 4.1805 4.55363 4.33213 4.89689 4.3971C4.93191 4.40434 4.95992 4.45487 4.99494 4.49096C6.20684 3.32852 7.58682 2.49819 9.16995 2.01444C9.23302 1.8195 9.247 1.61011 9.32405 1.40794C9.38011 1.25632 9.36608 1.06859 9.39413 0.902528C9.47118 0.469316 9.73039 0.216609 10.1016 0.0866442C10.2347 0.04332 10.3678 0 10.5289 0C11.5096 0.0144386 12.4904 0.0144386 13.4711 0C13.7513 0 13.9894 0.115521 14.2136 0.245486C14.4168 0.35379 14.5288 0.584837 14.5849 0.801446C14.6829 1.19856 14.739 1.60289 14.816 2.02166C16.3922 2.48376 17.7722 3.31408 18.977 4.48376C19.3553 4.34657 19.7406 4.20939 20.1329 4.07944C20.315 4.02167 20.4971 4.04331 20.6863 4.11553C21.0225 4.24547 21.2256 4.4982 21.3728 4.80866C21.5759 5.22021 21.8351 5.59569 22.0382 6.0072C22.2204 6.38987 22.4866 6.72201 22.6407 7.11913C22.7177 7.31409 22.9209 7.44403 22.9209 7.68951C23.103 7.99277 22.9279 8.25994 22.8228 8.52707C22.7948 8.59929 22.7598 8.69314 22.6967 8.72203C22.4446 8.83753 22.3185 9.09746 22.1083 9.25633C22.0102 9.3285 21.9052 9.40796 21.793 9.49457C21.9542 10.3249 22.0943 11.1552 22.0943 12.0072C22.0943 12.852 21.9682 13.6679 21.793 14.4765C22.0663 14.7365 22.3185 14.9892 22.5846 15.2274C22.8578 15.4729 23.0189 15.7762 22.9839 16.0938C22.9629 16.2672 22.9209 16.4549 22.8298 16.5993C22.5776 17.0181 22.3395 17.4513 22.0943 17.8773C21.7861 18.4043 21.5339 18.9747 21.1766 19.4729C21.1136 19.7473 20.8614 19.769 20.6793 19.87C20.4831 19.9783 20.287 19.9494 20.0698 19.8845C19.7476 19.7906 19.4394 19.6245 19.1031 19.5812C19.0681 19.574 19.0401 19.5235 19.0051 19.4874C17.7932 20.6643 16.4202 21.5018 14.816 21.9711C14.739 22.361 14.6689 22.7653 14.5849 23.1624C14.5008 23.5524 14.2486 23.7978 13.8914 23.9133C13.7583 23.9567 13.6182 24 13.464 24C12.4833 23.9856 11.5026 23.9856 10.5219 24C10.2417 24 10.0036 23.8845 9.77939 23.7545C9.57624 23.6462 9.45716 23.4152 9.41513 23.1986C9.33808 22.7726 9.26103 22.3755 9.17696 21.9567ZM9.6323 15.5957C9.77238 15.5163 9.93353 15.4657 9.9405 15.2924C9.95453 15.0325 9.98954 14.7654 9.93353 14.5199C9.83544 14.1011 9.66031 13.6968 9.55525 13.278C9.48521 13.0108 9.33107 12.7581 9.33808 12.4693C9.11394 11.8989 8.97382 11.2996 8.7847 10.722C8.63055 10.2455 8.51848 9.7545 8.35036 9.28521C8.25928 9.02529 8.23829 8.73647 8.07016 8.50543C8.05614 8.48374 8.04917 8.4693 8.04917 8.4693C7.86001 8.33936 7.66387 8.38269 7.49575 8.38269C7.3977 8.47654 7.31364 8.55596 7.23655 8.62817C7.22958 8.85921 7.06846 9.03973 7.09647 9.26353C6.85129 9.82671 6.74619 10.4332 6.54305 11.0108C6.43799 11.3069 6.37496 11.6101 6.2909 11.9133C6.21385 12.2166 6.04572 12.491 6.04572 12.8159C5.77951 13.4296 5.6464 14.0866 5.45027 14.7292C5.40123 14.8881 5.37322 15.0397 5.47131 15.1913C5.49931 15.2346 5.48529 15.2997 5.48529 15.2924C5.5974 15.4152 5.68146 15.5018 5.7515 15.5884C5.88461 15.5884 6.02469 15.5884 6.17182 15.5884C6.26986 15.4585 6.36795 15.3357 6.45903 15.213C6.43799 14.8014 6.52205 14.5271 6.7042 14.0866C7.39069 14.0866 8.07718 14.0866 8.76366 14.0866C8.81972 14.3177 8.84772 14.5415 8.92477 14.7509C8.95979 14.8375 8.99481 14.9242 8.98083 15.0108C8.95979 15.278 9.04386 15.4874 9.33808 15.5884C9.40812 15.5957 9.51322 15.5957 9.6323 15.5957ZM11.2715 15.5957C11.4606 15.5812 11.6778 15.639 11.8319 15.4801C11.8879 15.408 11.937 15.3357 12.007 15.2346C12.007 14.5126 12.007 13.7545 12.007 12.9964C12.5184 12.9964 13.0227 12.9747 13.5201 13.0036C13.8213 13.0181 14.0665 12.9242 14.3047 12.7725C14.4168 12.7004 14.5148 12.5921 14.6129 12.491C14.8721 12.231 14.9982 11.9133 15.0051 11.5379C15.0051 10.9458 15.0051 10.361 15.0051 9.76894C15.0051 9.68233 14.9842 9.58843 14.9632 9.50181C14.8861 9.19131 14.725 8.96027 14.5078 8.75811C14.2556 8.51987 13.9614 8.37544 13.6112 8.37544C12.8266 8.37544 12.049 8.37544 11.2575 8.37544C11.1804 8.4621 11.1034 8.54876 11.0123 8.63537C11.0123 10.8592 11.0123 13.0975 11.0123 15.3429C11.1034 15.4224 11.1874 15.509 11.2715 15.5957ZM16.3151 15.5957C16.7985 15.5957 17.2888 15.5957 17.7722 15.5957C17.8562 15.509 17.9403 15.4224 18.0244 15.3429C18.0244 15.2058 18.0244 15.0758 18.0244 14.9386C18.0244 14.9242 18.0244 14.917 18.0244 14.9097C17.9193 14.7076 17.7581 14.5848 17.548 14.5632C17.548 12.8376 17.548 11.1191 17.548 9.43684C17.7021 9.35739 17.8352 9.28521 17.9893 9.19856C18.0103 9.01084 18.0244 8.81588 18.0383 8.6787C17.9263 8.54876 17.8492 8.45486 17.7862 8.38269C17.2818 8.38269 16.7915 8.38269 16.3571 8.38269C16.238 8.49099 16.154 8.5704 16.0489 8.6715C16.0699 8.84477 16.098 9.03973 16.119 9.20576C16.2871 9.29241 16.4202 9.36463 16.5393 9.4296C16.5393 11.148 16.5393 12.8664 16.5393 14.5704C16.4692 14.5848 16.3922 14.5704 16.3641 14.6065C16.2661 14.7076 16.098 14.7365 16.0629 14.9025C16.0629 15.0469 16.0629 15.1913 16.0629 15.3357C16.147 15.4224 16.231 15.509 16.3151 15.5957Z" fill="#3DCFB6"/>
<path d="M8.39611 12.9824C7.98281 12.9968 7.54851 13.0041 7.11417 13.0185C7.10019 13.0185 7.07915 13.0473 7.03712 13.0835C7.04413 12.6358 7.28931 12.2748 7.31731 11.8632C7.52747 11.5022 7.54851 11.0763 7.68859 10.6719C7.73062 10.7152 7.79368 10.7586 7.79368 10.7946C7.80065 11.1051 7.97579 11.3723 8.03185 11.6683C8.07388 11.8705 8.18595 12.0654 8.21396 12.2676C8.24201 12.5275 8.41009 12.7224 8.39611 12.9824Z" fill="#3DCFB6"/>
<path d="M14.0323 11.581C13.9833 11.6604 13.9413 11.7399 13.8852 11.812C13.7872 11.9276 13.6611 11.9925 13.5 11.9853C13.0096 11.9781 12.5193 11.9853 12.0149 11.9853C12.0149 11.1261 12.0149 10.2669 12.0149 9.38606C12.5262 9.38606 13.0516 9.37886 13.57 9.38606C13.8152 9.39326 14.0253 9.65318 14.0323 9.92756C14.0323 10.3824 14.0323 10.8373 14.0323 11.2922C14.0323 11.3933 14.0323 11.4871 14.0323 11.581Z" fill="#3DCFB6"/>
</svg>
