<svg width="19" height="20" viewBox="0 0 19 20" fill="none" xmlns="http://www.w3.org/2000/svg">
<path d="M2.22831 10.6665L9.47931 17.9179C9.60931 18.0477 9.67731 18.2007 9.68331 18.3769C9.68931 18.5529 9.61876 18.7144 9.47165 18.8615C9.32476 19.0033 9.16754 19.0755 8.99998 19.0782C8.83243 19.0807 8.6752 19.0084 8.52831 18.8615L0.420647 10.7539C0.304203 10.6374 0.222536 10.5185 0.175647 10.3972C0.128536 10.2759 0.10498 10.1434 0.10498 9.99988C0.10498 9.85632 0.128536 9.72388 0.175647 9.60254C0.222536 9.48121 0.304203 9.36232 0.420647 9.24588L8.52831 1.13821C8.65298 1.01355 8.80465 0.946879 8.98331 0.938212C9.16198 0.929768 9.32476 0.996434 9.47165 1.13821C9.61876 1.28532 9.69231 1.44388 9.69231 1.61388C9.69231 1.7841 9.61876 1.94266 9.47165 2.08954L2.22831 9.33321H17.6666C17.8564 9.33321 18.015 9.39688 18.1423 9.52421C18.2696 9.65155 18.3333 9.8101 18.3333 9.99988C18.3333 10.1897 18.2696 10.3482 18.1423 10.4755C18.015 10.6029 17.8564 10.6665 17.6666 10.6665H2.22831Z" fill="white"/>
</svg>
