<svg width="19" height="20" viewBox="0 0 19 20" fill="none" xmlns="http://www.w3.org/2000/svg">
<path d="M16.7715 10.6664H1.33317C1.14339 10.6664 0.984837 10.6028 0.857504 10.4754C0.73017 10.3481 0.666504 10.1896 0.666504 9.99978C0.666504 9.81 0.73017 9.65145 0.857504 9.52411C0.984837 9.39678 1.14339 9.33311 1.33317 9.33311H16.7715L9.5205 2.08178C9.3905 1.952 9.3225 1.799 9.3165 1.62278C9.3105 1.44678 9.38106 1.28522 9.52817 1.13811C9.67506 0.996336 9.83228 0.924113 9.99984 0.921447C10.1674 0.919002 10.3246 0.991225 10.4715 1.13811L18.5792 9.24578C18.6956 9.36222 18.7773 9.48111 18.8242 9.60245C18.8713 9.72378 18.8948 9.85622 18.8948 9.99978C18.8948 10.1433 18.8713 10.2758 18.8242 10.3971C18.7773 10.5184 18.6956 10.6373 18.5792 10.7538L10.4715 18.8614C10.3468 18.9861 10.1952 19.0528 10.0165 19.0614C9.83784 19.0699 9.67506 19.0032 9.52817 18.8614C9.38106 18.7143 9.3075 18.5558 9.3075 18.3858C9.3075 18.2156 9.38106 18.057 9.52817 17.9101L16.7715 10.6664Z" fill="white"/>
</svg>
