<svg width="33" height="32" viewBox="0 0 33 32" fill="none" xmlns="http://www.w3.org/2000/svg">
<mask id="mask0_339_4241" style="mask-type:alpha" maskUnits="userSpaceOnUse" x="0" y="0" width="33" height="32">
<rect x="0.351562" width="32" height="32" fill="#D9D9D9"/>
</mask>
<g mask="url(#mask0_339_4241)">
<path d="M16.3436 28.5879C16.0807 28.5879 15.8196 28.5434 15.5603 28.4545C15.3012 28.3656 15.0716 28.2249 14.8716 28.0322C13.7678 27.0249 12.6678 25.9434 11.5716 24.7879C10.4752 23.6323 9.49184 22.4341 8.62162 21.1932C7.75117 19.9525 7.04373 18.6896 6.49928 17.4045C5.95484 16.1192 5.68262 14.8506 5.68262 13.5989C5.68262 10.2655 6.75484 7.60997 8.89928 5.63219C11.0437 3.65442 13.5271 2.66553 16.3493 2.66553C19.1715 2.66553 21.6548 3.65442 23.7993 5.63219C25.9437 7.60997 27.016 10.2655 27.016 13.5989C27.016 14.8506 26.7437 16.1192 26.1993 17.4045C25.6548 18.6896 24.9474 19.9525 24.077 21.1932C23.2067 22.4341 22.2234 23.6323 21.127 24.7879C20.0307 25.9434 18.9307 27.0249 17.827 28.0322C17.627 28.2249 17.3955 28.3656 17.1326 28.4545C16.8697 28.5434 16.6067 28.5879 16.3436 28.5879ZM16.3513 15.7765C17.024 15.7765 17.5992 15.537 18.077 15.0579C18.5547 14.579 18.7936 14.0031 18.7936 13.3302C18.7936 12.6575 18.5541 12.0823 18.075 11.6045C17.5961 11.1267 17.0202 10.8879 16.3473 10.8879C15.6746 10.8879 15.0994 11.1274 14.6216 11.6065C14.1438 12.0854 13.905 12.6613 13.905 13.3342C13.905 14.0069 14.1445 14.5821 14.6236 15.0599C15.1025 15.5376 15.6784 15.7765 16.3513 15.7765Z" fill="#3DCFB6"/>
</g>
</svg>
